<svg
    xmlns="http://www.w3.org/2000/svg"
    viewBox="0 0 36 36"
    id="vector">
    <defs>
        <clipPath id="clip_path">
            <path d="M 0 0 L 36 0 L 36 36 L 0 36 Z M 0 0"/>
        </clipPath>
        <clipPath id="clip_path_1">
            <path d="M 0 0 L 36 0 L 36 36 L 0 36 Z M 0 0"/>
        </clipPath>
        <clipPath id="clip_path_2">
            <path d="M 0 0 L 36 0 L 36 36 L 0 36 Z M 0 0"/>
        </clipPath>
        <clipPath id="clip_path_3">
            <path d="M 0 0 L 36 0 L 36 36 L 0 36 Z M 0 0"/>
        </clipPath>
        <clipPath id="clip_path_4">
            <path d="M 0 0 L 36 0 L 36 36 L 0 36 Z M 0 0"/>
        </clipPath>
        <clipPath id="clip_path_5">
            <path d="M 0 0 L 36 0 L 36 36 L 0 36 Z M 0 0"/>
        </clipPath>
        <clipPath id="clip_path_6">
            <path d="M 0 0 L 36 0 L 36 36 L 0 36 Z M 0 0"/>
        </clipPath>
        <clipPath id="clip_path_7">
            <path d="M 0 0 L 36 0 L 36 36 L 0 36 Z M 0 0"/>
        </clipPath>
        <clipPath id="clip_path_8">
            <path d="M 0 0 L 36 0 L 36 36 L 0 36 Z M 0 0"/>
        </clipPath>
        <clipPath id="clip_path_9">
            <path d="M 0 0 L 36 0 L 36 36 L 0 36 Z M 0 0"/>
        </clipPath>
        <clipPath id="clip_path_10">
            <path d="M 0 0 L 36 0 L 36 36 L 0 36 Z M 0 0"/>
        </clipPath>
        <clipPath id="clip_path_11">
            <path d="M 0 0 L 36 0 L 36 36 L 0 36 Z M 0 0"/>
        </clipPath>
        <clipPath id="clip_path_12">
            <path d="M 0 0 L 36 0 L 36 36 L 0 36 Z M 0 0"/>
        </clipPath>
    </defs>
    <g id="group">
        <path
            id="path"
            clip-path="url(#clip_path)"
            d="M 17.059 8.879 L 17.059 8.879 L 17.059 33.746 C 17.059 34.068 17.292 34.39 17.759 34.637 C 18.285 34.878 18.858 35.003 19.436 35.003 C 20.015 35.003 20.588 34.878 21.114 34.637 C 21.298 34.567 21.46 34.449 21.581 34.294 C 21.702 34.139 21.779 33.954 21.803 33.759 L 21.803 8.892 C 21.803 8.912 21.803 8.932 21.797 8.952 C 21.829 8.61 21.597 8.262 21.103 8.001 C 20.577 7.76 20.005 7.635 19.425 7.635 C 18.846 7.635 18.274 7.76 17.748 8.001 C 17.564 8.07 17.402 8.189 17.281 8.344 C 17.159 8.498 17.083 8.684 17.059 8.879 Z"
            fill="#c6c5cb"/>
        <path
            id="path_1"
            clip-path="url(#clip_path_1)"
            d="M 17.057 33.743 C 17.057 34.065 17.29 34.387 17.757 34.633 C 18.283 34.874 18.856 34.999 19.434 34.999 C 20.013 34.999 20.586 34.874 21.112 34.633 C 21.296 34.563 21.458 34.445 21.579 34.29 C 21.7 34.135 21.777 33.95 21.801 33.755 L 21.801 8.888 C 21.777 9.083 21.7 9.268 21.579 9.423 C 21.458 9.578 21.296 9.696 21.112 9.766 C 20.586 10.007 20.013 10.132 19.434 10.132 C 18.856 10.132 18.283 10.007 17.757 9.766 C 17.289 9.52 17.057 9.197 17.057 8.875 Z"
            fill="#bababa"/>
        <path
            id="path_2"
            clip-path="url(#clip_path_2)"
            d="M 17.759 9.767 C 16.828 9.278 16.825 8.486 17.748 7.998 C 18.274 7.757 18.846 7.632 19.425 7.632 C 20.005 7.632 20.577 7.757 21.103 7.998 C 22.032 8.486 22.037 9.279 21.114 9.767 C 20.588 10.008 20.015 10.133 19.436 10.133 C 18.858 10.133 18.285 10.008 17.759 9.767 Z"
            fill="#c6c5cb"/>
        <path
            id="path_3"
            clip-path="url(#clip_path_3)"
            d="M 28.387 2.399 C 27.76 1.993 27.044 1.746 26.3 1.68 C 25.556 1.613 24.807 1.729 24.118 2.018 L 5.008 12.124 C 5.697 11.835 6.446 11.719 7.19 11.785 C 7.933 11.851 8.65 12.098 9.277 12.504 C 12.591 14.245 15.269 18.467 15.258 21.932 L 15.264 30.075 L 34.374 19.97 L 34.368 11.827 C 34.379 8.362 31.701 4.14 28.387 2.399 Z"
            fill="#ffc700"/>
        <path
            id="path_4"
            clip-path="url(#clip_path_4)"
            d="M 9.282 12.504 C 12.596 14.245 15.274 18.467 15.263 21.932 L 15.269 30.075 L 3.269 23.769 L 3.263 15.626 C 3.273 12.161 5.968 10.763 9.282 12.504 Z"
            fill="#6049ea"/>
        <path
            id="path_5"
            clip-path="url(#clip_path_5)"
            d="M 9.868 11.828 C 9.217 11.405 8.473 11.148 7.701 11.078 C 6.928 11.009 6.15 11.129 5.434 11.428 L 4.034 12.149 C 4.75 11.85 5.528 11.73 6.301 11.799 C 7.073 11.869 7.817 12.126 8.468 12.549 C 11.909 14.357 14.69 18.74 14.679 22.339 L 14.684 30.796 L 16.084 30.075 L 16.079 21.617 C 16.09 18.019 13.312 13.639 9.868 11.828 Z"
            fill="#022a37"/>
        <path
            id="path_6"
            clip-path="url(#clip_path_6)"
            d="M 8.467 12.549 C 11.908 14.357 14.689 18.74 14.678 22.339 L 14.683 30.796 L 2.221 24.248 L 2.216 15.791 C 2.227 12.193 5.026 10.741 8.467 12.549 Z"
            fill="#022a37"/>
        <path
            id="path_7"
            clip-path="url(#clip_path_7)"
            d="M 21.916 8.838 C 21.926 8.731 21.906 8.623 21.858 8.527 C 21.809 8.431 21.735 8.35 21.643 8.294 L 21.643 8.294 L 20.991 7.949 C 20.884 7.904 20.768 7.886 20.653 7.896 C 20.537 7.907 20.426 7.945 20.329 8.008 L 18.085 9.169 C 17.909 9.269 17.76 9.41 17.651 9.582 C 17.543 9.753 17.478 9.948 17.463 10.15 L 17.463 23.179 C 17.454 23.289 17.475 23.4 17.524 23.499 C 17.574 23.598 17.65 23.682 17.744 23.74 L 18.396 24.085 C 18.385 24.079 18.375 24.072 18.364 24.065 C 18.476 24.122 18.602 24.149 18.728 24.142 C 18.854 24.134 18.976 24.094 19.081 24.024 C 19.354 23.871 19.586 23.653 19.755 23.389 C 19.925 23.126 20.027 22.824 20.052 22.512 L 20.052 13.118 C 20.067 12.916 20.131 12.721 20.24 12.55 C 20.348 12.379 20.497 12.238 20.673 12.138 L 20.992 11.988 C 21.255 11.839 21.477 11.628 21.639 11.373 C 21.8 11.118 21.897 10.827 21.919 10.526 Z"
            fill="#be3e50"/>
        <path
            id="path_8"
            clip-path="url(#clip_path_8)"
            d="M 20.993 7.948 C 20.886 7.903 20.77 7.885 20.655 7.895 C 20.539 7.906 20.428 7.944 20.331 8.007 L 18.087 9.168 C 17.911 9.268 17.762 9.409 17.653 9.581 C 17.545 9.752 17.48 9.947 17.465 10.149 L 17.465 23.178 C 17.456 23.288 17.477 23.399 17.526 23.498 C 17.576 23.597 17.652 23.681 17.746 23.739 L 18.398 24.084 C 18.304 24.026 18.228 23.942 18.178 23.843 C 18.129 23.744 18.108 23.633 18.117 23.523 L 18.117 10.496 C 18.132 10.294 18.197 10.099 18.305 9.928 C 18.414 9.756 18.563 9.615 18.739 9.515 L 20.983 8.354 C 21.08 8.291 21.191 8.253 21.307 8.242 C 21.422 8.232 21.538 8.25 21.645 8.295 Z"
            fill="#ff0017"/>
        <path
            id="path_9"
            clip-path="url(#clip_path_9)"
            d="M 20.984 8.354 C 21.498 8.084 21.916 8.301 21.917 8.838 L 21.922 10.528 C 21.9 10.829 21.803 11.12 21.642 11.375 C 21.48 11.63 21.258 11.841 20.995 11.99 L 20.676 12.14 C 20.5 12.24 20.351 12.381 20.243 12.552 C 20.134 12.723 20.07 12.918 20.055 13.12 L 20.055 22.514 C 20.03 22.826 19.928 23.128 19.758 23.391 C 19.589 23.655 19.357 23.873 19.084 24.026 C 18.552 24.305 18.12 24.081 18.118 23.526 L 18.118 10.496 C 18.133 10.294 18.198 10.099 18.306 9.928 C 18.415 9.756 18.564 9.615 18.74 9.515 Z"
            fill="#ff0024"/>
        <path
            id="path_10"
            clip-path="url(#clip_path_10)"
            d="M 19.716 22.231 L 19.716 22.231 L 19.487 22.11 C 19.407 22.077 19.321 22.063 19.235 22.071 C 19.149 22.078 19.066 22.107 18.994 22.154 C 18.798 22.265 18.633 22.422 18.513 22.611 C 18.392 22.801 18.321 23.018 18.304 23.242 C 18.297 23.321 18.312 23.4 18.348 23.47 C 18.383 23.541 18.437 23.6 18.504 23.642 L 18.733 23.763 L 18.711 23.749 C 18.792 23.79 18.882 23.809 18.973 23.804 C 19.063 23.798 19.151 23.769 19.226 23.719 C 19.422 23.609 19.587 23.451 19.708 23.262 C 19.828 23.072 19.9 22.855 19.916 22.631 C 19.923 22.552 19.908 22.473 19.872 22.403 C 19.837 22.332 19.783 22.273 19.716 22.231 Z"
            fill="#c6c5cb"/>
        <path
            id="path_11"
            clip-path="url(#clip_path_11)"
            d="M 19.488 22.108 C 19.408 22.075 19.322 22.061 19.236 22.069 C 19.15 22.076 19.067 22.105 18.995 22.152 C 18.799 22.263 18.634 22.42 18.514 22.61 C 18.393 22.799 18.322 23.016 18.305 23.24 C 18.298 23.319 18.313 23.398 18.349 23.468 C 18.384 23.539 18.438 23.598 18.505 23.64 L 18.734 23.761 C 18.667 23.719 18.613 23.66 18.578 23.589 C 18.542 23.519 18.527 23.44 18.534 23.361 C 18.551 23.137 18.622 22.92 18.743 22.73 C 18.863 22.541 19.028 22.384 19.224 22.273 C 19.296 22.226 19.379 22.198 19.465 22.19 C 19.551 22.182 19.637 22.196 19.717 22.229 Z"
            fill="#d8d8da"/>
        <path
            id="path_12"
            clip-path="url(#clip_path_12)"
            d="M 19.224 22.275 C 19.607 22.075 19.917 22.236 19.919 22.635 C 19.903 22.859 19.831 23.076 19.711 23.266 C 19.59 23.455 19.425 23.613 19.229 23.723 C 18.847 23.923 18.536 23.762 18.534 23.363 C 18.551 23.139 18.622 22.922 18.743 22.733 C 18.863 22.543 19.028 22.386 19.224 22.275 Z"
            fill="#c6c5cb"/>
    </g>
</svg>
