<svg
    xmlns="http://www.w3.org/2000/svg"
    viewBox="0 0 36 36"
    id="vector">
    <path
        id="path"
        d="M 18 18 M 0 18 C 0 13.228 1.898 8.646 5.272 5.272 C 8.646 1.898 13.228 0 18 0 C 22.772 0 27.354 1.898 30.728 5.272 C 34.102 8.646 36 13.228 36 18 C 36 22.772 34.102 27.354 30.728 30.728 C 27.354 34.102 22.772 36 18 36 C 13.228 36 8.646 34.102 5.272 30.728 C 1.898 27.354 0 22.772 0 18"
        fill="#007aff"/>
    <path
        id="path_1"
        d="M 22.7 8 C 21.594 7.998 20.506 8.288 19.548 8.841 C 18.589 9.394 17.794 10.189 17.241 11.148 C 16.688 12.106 16.398 13.194 16.4 14.3 C 16.415 15.054 16.539 15.802 16.77 16.52 L 9 24.3 L 9 28 L 12.7 28 L 12.7 25.78 L 14.93 25.78 L 14.93 23.56 L 17.15 23.56 L 20.48 20.23 C 21.195 20.473 21.945 20.598 22.7 20.6 C 24.37 20.6 25.974 19.936 27.155 18.755 C 28.336 17.574 29 15.97 29 14.3 C 29 12.63 28.336 11.026 27.155 9.845 C 25.974 8.664 24.37 8 22.7 8 Z M 24.55 14.67 C 24.158 14.677 23.772 14.579 23.431 14.385 C 23.091 14.191 22.809 13.909 22.615 13.569 C 22.421 13.228 22.323 12.842 22.33 12.45 C 22.33 11.861 22.564 11.296 22.98 10.88 C 23.396 10.464 23.961 10.23 24.55 10.23 C 25.139 10.23 25.704 10.464 26.12 10.88 C 26.536 11.296 26.77 11.861 26.77 12.45 C 26.777 12.841 26.679 13.226 26.487 13.566 C 26.294 13.906 26.013 14.187 25.674 14.382 C 25.336 14.576 24.951 14.675 24.56 14.67 Z"
        fill="#ffffff"/>
</svg>
