<svg
    xmlns="http://www.w3.org/2000/svg"
    viewBox="0 0 352 352"
    id="vector">
    <path
        id="path"
        d="M 337.222 22.952 C 321.31 14.384 303.562 30.908 293.158 40.7 C 269.291 63.956 249.095 90.884 226.45 115.364 C 201.358 142.292 178.102 169.22 152.398 195.537 C 137.71 210.225 121.798 226.137 112.006 244.497 C 89.974 223.076 71.002 199.82 46.522 180.849 C 28.774 167.385 -0.602 157.593 0.01 190.029 C 1.234 232.258 38.566 277.546 66.106 306.309 C 77.734 318.549 93.034 331.401 110.782 332.013 C 132.202 333.237 154.234 307.533 167.086 293.457 C 189.731 268.977 208.091 241.436 228.898 216.345 C 255.826 183.297 283.366 150.86 309.682 117.2 C 326.206 96.392 378.226 44.983 337.222 22.952 Z M 26.937 187.581 C 26.325 187.581 25.713 187.581 24.489 188.192 C 22.041 187.581 20.205 186.968 17.757 185.744 L 17.757 185.744 C 19.593 184.52 22.653 185.132 26.937 187.581 Z"
        fill="#000000"/>
</svg>
