<svg
    xmlns="http://www.w3.org/2000/svg"
    viewBox="0 0 292 185"
    id="vector">
    <defs>
        <clipPath id="clip_group_3">
            <path d="M 0 0 L 292 0 L 292 185 L 0 185 Z M 0 0"/>
        </clipPath>
        <clipPath id="clip_group_2">
            <path d="M -30.799 -25.866 L 335.198 -25.866 L 335.198 219 L -30.799 219 Z M 0 0"/>
        </clipPath>
        <clipPath id="clip_path_206">
            <path d="M -30.799 -25.866 L 335.201 -25.866 L 335.201 219 L -30.799 219 Z M 0 0"/>
        </clipPath>
        <clipPath id="clip_path_207">
            <path d="M -30.799 -25.866 L 335.201 -25.866 L 335.201 219 L -30.799 219 Z M 0 0"/>
        </clipPath>
        <clipPath id="clip_path_208">
            <path d="M -30.799 -25.866 L 335.201 -25.866 L 335.201 219 L -30.799 219 Z M 0 0"/>
        </clipPath>
        <clipPath id="clip_path_209">
            <path d="M -30.799 -25.866 L 335.201 -25.866 L 335.201 219 L -30.799 219 Z M 0 0"/>
        </clipPath>
        <clipPath id="clip_path_210">
            <path d="M -30.799 -25.866 L 335.201 -25.866 L 335.201 219 L -30.799 219 Z M 0 0"/>
        </clipPath>
        <clipPath id="clip_path_211">
            <path d="M -30.799 -25.866 L 335.201 -25.866 L 335.201 219 L -30.799 219 Z M 0 0"/>
        </clipPath>
        <clipPath id="clip_path_212">
            <path d="M -30.799 -25.866 L 335.201 -25.866 L 335.201 219 L -30.799 219 Z M 0 0"/>
        </clipPath>
        <clipPath id="clip_path_213">
            <path d="M -30.799 -25.866 L 335.201 -25.866 L 335.201 219 L -30.799 219 Z M 0 0"/>
        </clipPath>
        <clipPath id="clip_path_214">
            <path d="M -30.799 -25.866 L 335.201 -25.866 L 335.201 219 L -30.799 219 Z M 0 0"/>
        </clipPath>
        <clipPath id="clip_path_215">
            <path d="M -30.799 -25.866 L 335.201 -25.866 L 335.201 219 L -30.799 219 Z M 0 0"/>
        </clipPath>
        <clipPath id="clip_path_216">
            <path d="M -30.799 -25.866 L 335.201 -25.866 L 335.201 219 L -30.799 219 Z M 0 0"/>
        </clipPath>
        <clipPath id="clip_path_217">
            <path d="M -30.799 -25.866 L 335.201 -25.866 L 335.201 219 L -30.799 219 Z M 0 0"/>
        </clipPath>
        <clipPath id="clip_path_218">
            <path d="M -30.799 -25.866 L 335.201 -25.866 L 335.201 219 L -30.799 219 Z M 0 0"/>
        </clipPath>
        <clipPath id="clip_path_219">
            <path d="M -30.799 -25.866 L 335.201 -25.866 L 335.201 219 L -30.799 219 Z M 0 0"/>
        </clipPath>
        <clipPath id="clip_path_220">
            <path d="M -30.799 -25.866 L 335.201 -25.866 L 335.201 219 L -30.799 219 Z M 0 0"/>
        </clipPath>
        <clipPath id="clip_path_221">
            <path d="M -30.799 -25.866 L 335.201 -25.866 L 335.201 219 L -30.799 219 Z M 0 0"/>
        </clipPath>
        <clipPath id="clip_path_222">
            <path d="M -30.799 -25.866 L 335.201 -25.866 L 335.201 219 L -30.799 219 Z M 0 0"/>
        </clipPath>
        <clipPath id="clip_path_223">
            <path d="M -30.799 -25.866 L 335.201 -25.866 L 335.201 219 L -30.799 219 Z M 0 0"/>
        </clipPath>
        <clipPath id="clip_path_224">
            <path d="M -30.799 -25.866 L 335.201 -25.866 L 335.201 219 L -30.799 219 Z M 0 0"/>
        </clipPath>
        <clipPath id="clip_path_225">
            <path d="M -30.799 -25.866 L 335.201 -25.866 L 335.201 219 L -30.799 219 Z M 0 0"/>
        </clipPath>
        <clipPath id="clip_path_226">
            <path d="M -30.799 -25.866 L 335.201 -25.866 L 335.201 219 L -30.799 219 Z M 0 0"/>
        </clipPath>
        <clipPath id="clip_path_227">
            <path d="M -30.799 -25.866 L 335.201 -25.866 L 335.201 219 L -30.799 219 Z M 0 0"/>
        </clipPath>
        <clipPath id="clip_path_228">
            <path d="M -30.799 -25.866 L 335.201 -25.866 L 335.201 219 L -30.799 219 Z M 0 0"/>
        </clipPath>
        <clipPath id="clip_path_229">
            <path d="M -30.799 -25.866 L 335.201 -25.866 L 335.201 219 L -30.799 219 Z M 0 0"/>
        </clipPath>
        <clipPath id="clip_path_230">
            <path d="M -30.799 -25.866 L 335.201 -25.866 L 335.201 219 L -30.799 219 Z M 0 0"/>
        </clipPath>
        <clipPath id="clip_path_231">
            <path d="M -30.799 -25.866 L 335.201 -25.866 L 335.201 219 L -30.799 219 Z M 0 0"/>
        </clipPath>
        <clipPath id="clip_path_232">
            <path d="M -30.799 -25.866 L 335.201 -25.866 L 335.201 219 L -30.799 219 Z M 0 0"/>
        </clipPath>
        <clipPath id="clip_path_233">
            <path d="M -30.799 -25.866 L 335.201 -25.866 L 335.201 219 L -30.799 219 Z M 0 0"/>
        </clipPath>
        <clipPath id="clip_path_234">
            <path d="M -30.799 -25.866 L 335.201 -25.866 L 335.201 219 L -30.799 219 Z M 0 0"/>
        </clipPath>
        <clipPath id="clip_path_235">
            <path d="M -30.799 -25.866 L 335.201 -25.866 L 335.201 219 L -30.799 219 Z M 0 0"/>
        </clipPath>
        <clipPath id="clip_path_236">
            <path d="M -30.799 -25.866 L 335.201 -25.866 L 335.201 219 L -30.799 219 Z M 0 0"/>
        </clipPath>
        <clipPath id="clip_path_237">
            <path d="M -30.799 -25.866 L 335.201 -25.866 L 335.201 219 L -30.799 219 Z M 0 0"/>
        </clipPath>
        <clipPath id="clip_path_238">
            <path d="M -30.799 -25.866 L 335.201 -25.866 L 335.201 219 L -30.799 219 Z M 0 0"/>
        </clipPath>
        <clipPath id="clip_path_239">
            <path d="M -30.799 -25.866 L 335.201 -25.866 L 335.201 219 L -30.799 219 Z M 0 0"/>
        </clipPath>
        <clipPath id="clip_path_240">
            <path d="M -30.799 -25.866 L 335.201 -25.866 L 335.201 219 L -30.799 219 Z M 0 0"/>
        </clipPath>
        <clipPath id="clip_path_241">
            <path d="M -30.799 -25.866 L 335.201 -25.866 L 335.201 219 L -30.799 219 Z M 0 0"/>
        </clipPath>
        <clipPath id="clip_path_242">
            <path d="M -30.799 -25.866 L 335.201 -25.866 L 335.201 219 L -30.799 219 Z M 0 0"/>
        </clipPath>
        <clipPath id="clip_path_243">
            <path d="M -30.799 -25.866 L 335.201 -25.866 L 335.201 219 L -30.799 219 Z M 0 0"/>
        </clipPath>
        <clipPath id="clip_path_244">
            <path d="M -30.799 -25.866 L 335.201 -25.866 L 335.201 219 L -30.799 219 Z M 0 0"/>
        </clipPath>
        <clipPath id="clip_path_245">
            <path d="M -30.799 -25.866 L 335.201 -25.866 L 335.201 219 L -30.799 219 Z M 0 0"/>
        </clipPath>
        <clipPath id="clip_path_246">
            <path d="M -30.799 -25.866 L 335.201 -25.866 L 335.201 219 L -30.799 219 Z M 0 0"/>
        </clipPath>
        <clipPath id="clip_path_247">
            <path d="M -30.799 -25.866 L 335.201 -25.866 L 335.201 219 L -30.799 219 Z M 0 0"/>
        </clipPath>
        <clipPath id="clip_path_248">
            <path d="M -30.799 -25.866 L 335.201 -25.866 L 335.201 219 L -30.799 219 Z M 0 0"/>
        </clipPath>
        <clipPath id="clip_path_249">
            <path d="M -30.799 -25.866 L 335.201 -25.866 L 335.201 219 L -30.799 219 Z M 0 0"/>
        </clipPath>
        <clipPath id="clip_path_250">
            <path d="M -30.799 -25.866 L 335.201 -25.866 L 335.201 219 L -30.799 219 Z M 0 0"/>
        </clipPath>
        <clipPath id="clip_path_251">
            <path d="M -30.799 -25.866 L 335.201 -25.866 L 335.201 219 L -30.799 219 Z M 0 0"/>
        </clipPath>
        <clipPath id="clip_path_252">
            <path d="M -30.799 -25.866 L 335.201 -25.866 L 335.201 219 L -30.799 219 Z M 0 0"/>
        </clipPath>
        <clipPath id="clip_path_253">
            <path d="M -30.799 -25.866 L 335.201 -25.866 L 335.201 219 L -30.799 219 Z M 0 0"/>
        </clipPath>
        <clipPath id="clip_path_254">
            <path d="M -30.799 -25.866 L 335.201 -25.866 L 335.201 219 L -30.799 219 Z M 0 0"/>
        </clipPath>
        <clipPath id="clip_path_255">
            <path d="M -30.799 -25.866 L 335.201 -25.866 L 335.201 219 L -30.799 219 Z M 0 0"/>
        </clipPath>
        <clipPath id="clip_path_256">
            <path d="M -30.799 -25.866 L 335.201 -25.866 L 335.201 219 L -30.799 219 Z M 0 0"/>
        </clipPath>
        <clipPath id="clip_path_257">
            <path d="M -30.799 -25.866 L 335.201 -25.866 L 335.201 219 L -30.799 219 Z M 0 0"/>
        </clipPath>
        <clipPath id="clip_path_258">
            <path d="M -30.799 -25.866 L 335.201 -25.866 L 335.201 219 L -30.799 219 Z M 0 0"/>
        </clipPath>
        <clipPath id="clip_path_259">
            <path d="M -30.799 -25.866 L 335.201 -25.866 L 335.201 219 L -30.799 219 Z M 0 0"/>
        </clipPath>
        <clipPath id="clip_path_260">
            <path d="M -30.799 -25.866 L 335.201 -25.866 L 335.201 219 L -30.799 219 Z M 0 0"/>
        </clipPath>
        <clipPath id="clip_path_261">
            <path d="M -30.799 -25.866 L 335.201 -25.866 L 335.201 219 L -30.799 219 Z M 0 0"/>
        </clipPath>
        <clipPath id="clip_path_262">
            <path d="M -30.799 -25.866 L 335.201 -25.866 L 335.201 219 L -30.799 219 Z M 0 0"/>
        </clipPath>
        <clipPath id="clip_path_263">
            <path d="M -30.799 -25.866 L 335.201 -25.866 L 335.201 219 L -30.799 219 Z M 0 0"/>
        </clipPath>
        <clipPath id="clip_path_264">
            <path d="M -30.799 -25.866 L 335.201 -25.866 L 335.201 219 L -30.799 219 Z M 0 0"/>
        </clipPath>
        <clipPath id="clip_path_265">
            <path d="M -30.799 -25.866 L 335.201 -25.866 L 335.201 219 L -30.799 219 Z M 0 0"/>
        </clipPath>
        <clipPath id="clip_path_266">
            <path d="M -30.799 -25.866 L 335.201 -25.866 L 335.201 219 L -30.799 219 Z M 0 0"/>
        </clipPath>
        <clipPath id="clip_path_267">
            <path d="M -30.799 -25.866 L 335.201 -25.866 L 335.201 219 L -30.799 219 Z M 0 0"/>
        </clipPath>
        <clipPath id="clip_path_268">
            <path d="M -30.799 -25.866 L 335.201 -25.866 L 335.201 219 L -30.799 219 Z M 0 0"/>
        </clipPath>
        <clipPath id="clip_path_269">
            <path d="M -30.799 -25.866 L 335.201 -25.866 L 335.201 219 L -30.799 219 Z M 0 0"/>
        </clipPath>
        <clipPath id="clip_path_270">
            <path d="M -30.799 -25.866 L 335.201 -25.866 L 335.201 219 L -30.799 219 Z M 0 0"/>
        </clipPath>
        <clipPath id="clip_path_271">
            <path d="M -30.799 -25.866 L 335.201 -25.866 L 335.201 219 L -30.799 219 Z M 0 0"/>
        </clipPath>
        <clipPath id="clip_path_272">
            <path d="M -30.799 -25.866 L 335.201 -25.866 L 335.201 219 L -30.799 219 Z M 0 0"/>
        </clipPath>
        <clipPath id="clip_path_273">
            <path d="M -30.799 -25.866 L 335.201 -25.866 L 335.201 219 L -30.799 219 Z M 0 0"/>
        </clipPath>
        <clipPath id="clip_path_274">
            <path d="M -30.799 -25.866 L 335.201 -25.866 L 335.201 219 L -30.799 219 Z M 0 0"/>
        </clipPath>
        <clipPath id="clip_path_275">
            <path d="M -30.799 -25.866 L 335.201 -25.866 L 335.201 219 L -30.799 219 Z M 0 0"/>
        </clipPath>
        <clipPath id="clip_path_276">
            <path d="M -30.799 -25.866 L 335.201 -25.866 L 335.201 219 L -30.799 219 Z M 0 0"/>
        </clipPath>
        <clipPath id="clip_path_277">
            <path d="M -30.799 -25.866 L 335.201 -25.866 L 335.201 219 L -30.799 219 Z M 0 0"/>
        </clipPath>
        <clipPath id="clip_path_278">
            <path d="M -30.799 -25.866 L 335.201 -25.866 L 335.201 219 L -30.799 219 Z M 0 0"/>
        </clipPath>
        <clipPath id="clip_path_279">
            <path d="M -30.799 -25.866 L 335.201 -25.866 L 335.201 219 L -30.799 219 Z M 0 0"/>
        </clipPath>
        <clipPath id="clip_path_280">
            <path d="M -30.799 -25.866 L 335.201 -25.866 L 335.201 219 L -30.799 219 Z M 0 0"/>
        </clipPath>
        <clipPath id="clip_path_281">
            <path d="M -30.799 -25.866 L 335.201 -25.866 L 335.201 219 L -30.799 219 Z M 0 0"/>
        </clipPath>
        <clipPath id="clip_path_282">
            <path d="M -30.799 -25.866 L 335.201 -25.866 L 335.201 219 L -30.799 219 Z M 0 0"/>
        </clipPath>
        <clipPath id="clip_path_283">
            <path d="M -30.799 -25.866 L 335.201 -25.866 L 335.201 219 L -30.799 219 Z M 0 0"/>
        </clipPath>
        <clipPath id="clip_path_284">
            <path d="M -30.799 -25.866 L 335.201 -25.866 L 335.201 219 L -30.799 219 Z M 0 0"/>
        </clipPath>
        <clipPath id="clip_path_285">
            <path d="M -30.799 -25.866 L 335.201 -25.866 L 335.201 219 L -30.799 219 Z M 0 0"/>
        </clipPath>
        <clipPath id="clip_path_286">
            <path d="M -30.799 -25.866 L 335.201 -25.866 L 335.201 219 L -30.799 219 Z M 0 0"/>
        </clipPath>
        <clipPath id="clip_path_287">
            <path d="M -30.799 -25.866 L 335.201 -25.866 L 335.201 219 L -30.799 219 Z M 0 0"/>
        </clipPath>
        <clipPath id="clip_path_288">
            <path d="M -30.799 -25.866 L 335.201 -25.866 L 335.201 219 L -30.799 219 Z M 0 0"/>
        </clipPath>
        <clipPath id="clip_path_289">
            <path d="M -30.799 -25.866 L 335.201 -25.866 L 335.201 219 L -30.799 219 Z M 0 0"/>
        </clipPath>
        <clipPath id="clip_path_290">
            <path d="M -30.799 -25.866 L 335.201 -25.866 L 335.201 219 L -30.799 219 Z M 0 0"/>
        </clipPath>
        <clipPath id="clip_path_291">
            <path d="M -30.799 -25.866 L 335.201 -25.866 L 335.201 219 L -30.799 219 Z M 0 0"/>
        </clipPath>
        <clipPath id="clip_path_292">
            <path d="M -30.799 -25.866 L 335.201 -25.866 L 335.201 219 L -30.799 219 Z M 0 0"/>
        </clipPath>
        <clipPath id="clip_path_293">
            <path d="M -30.799 -25.866 L 335.201 -25.866 L 335.201 219 L -30.799 219 Z M 0 0"/>
        </clipPath>
        <clipPath id="clip_path_294">
            <path d="M -30.799 -25.866 L 335.201 -25.866 L 335.201 219 L -30.799 219 Z M 0 0"/>
        </clipPath>
        <clipPath id="clip_path_295">
            <path d="M -30.799 -25.866 L 335.201 -25.866 L 335.201 219 L -30.799 219 Z M 0 0"/>
        </clipPath>
        <clipPath id="clip_path_296">
            <path d="M -30.799 -25.866 L 335.201 -25.866 L 335.201 219 L -30.799 219 Z M 0 0"/>
        </clipPath>
        <clipPath id="clip_path_297">
            <path d="M -30.799 -25.866 L 335.201 -25.866 L 335.201 219 L -30.799 219 Z M 0 0"/>
        </clipPath>
        <clipPath id="clip_path_298">
            <path d="M -30.799 -25.866 L 335.201 -25.866 L 335.201 219 L -30.799 219 Z M 0 0"/>
        </clipPath>
        <clipPath id="clip_path_299">
            <path d="M -30.799 -25.866 L 335.201 -25.866 L 335.201 219 L -30.799 219 Z M 0 0"/>
        </clipPath>
        <clipPath id="clip_path_300">
            <path d="M -30.799 -25.866 L 335.201 -25.866 L 335.201 219 L -30.799 219 Z M 0 0"/>
        </clipPath>
        <clipPath id="clip_path_301">
            <path d="M -30.799 -25.866 L 335.201 -25.866 L 335.201 219 L -30.799 219 Z M 0 0"/>
        </clipPath>
        <clipPath id="clip_path_302">
            <path d="M -30.799 -25.866 L 335.201 -25.866 L 335.201 219 L -30.799 219 Z M 0 0"/>
        </clipPath>
        <clipPath id="clip_path_303">
            <path d="M -30.799 -25.866 L 335.201 -25.866 L 335.201 219 L -30.799 219 Z M 0 0"/>
        </clipPath>
        <clipPath id="clip_path_304">
            <path d="M -30.799 -25.866 L 335.201 -25.866 L 335.201 219 L -30.799 219 Z M 0 0"/>
        </clipPath>
        <clipPath id="clip_path_305">
            <path d="M -30.799 -25.866 L 335.201 -25.866 L 335.201 219 L -30.799 219 Z M 0 0"/>
        </clipPath>
        <clipPath id="clip_path_306">
            <path d="M -30.799 -25.866 L 335.201 -25.866 L 335.201 219 L -30.799 219 Z M 0 0"/>
        </clipPath>
        <clipPath id="clip_path_307">
            <path d="M -30.799 -25.866 L 335.201 -25.866 L 335.201 219 L -30.799 219 Z M 0 0"/>
        </clipPath>
        <clipPath id="clip_path_308">
            <path d="M -30.799 -25.866 L 335.201 -25.866 L 335.201 219 L -30.799 219 Z M 0 0"/>
        </clipPath>
        <clipPath id="clip_path_309">
            <path d="M -30.799 -25.866 L 335.201 -25.866 L 335.201 219 L -30.799 219 Z M 0 0"/>
        </clipPath>
        <clipPath id="clip_path_310">
            <path d="M -30.799 -25.866 L 335.201 -25.866 L 335.201 219 L -30.799 219 Z M 0 0"/>
        </clipPath>
        <clipPath id="clip_path_311">
            <path d="M -30.799 -25.866 L 335.201 -25.866 L 335.201 219 L -30.799 219 Z M 0 0"/>
        </clipPath>
        <clipPath id="clip_path_312">
            <path d="M -30.799 -25.866 L 335.201 -25.866 L 335.201 219 L -30.799 219 Z M 0 0"/>
        </clipPath>
        <clipPath id="clip_path_313">
            <path d="M -30.799 -25.866 L 335.201 -25.866 L 335.201 219 L -30.799 219 Z M 0 0"/>
        </clipPath>
        <clipPath id="clip_path_314">
            <path d="M -30.799 -25.866 L 335.201 -25.866 L 335.201 219 L -30.799 219 Z M 0 0"/>
        </clipPath>
        <clipPath id="clip_path_315">
            <path d="M -30.799 -25.866 L 335.201 -25.866 L 335.201 219 L -30.799 219 Z M 0 0"/>
        </clipPath>
        <clipPath id="clip_path_316">
            <path d="M -30.799 -25.866 L 335.201 -25.866 L 335.201 219 L -30.799 219 Z M 0 0"/>
        </clipPath>
        <clipPath id="clip_path_317">
            <path d="M -30.799 -25.866 L 335.201 -25.866 L 335.201 219 L -30.799 219 Z M 0 0"/>
        </clipPath>
        <clipPath id="clip_path_318">
            <path d="M -30.799 -25.866 L 335.201 -25.866 L 335.201 219 L -30.799 219 Z M 0 0"/>
        </clipPath>
        <clipPath id="clip_path_319">
            <path d="M -30.799 -25.866 L 335.201 -25.866 L 335.201 219 L -30.799 219 Z M 0 0"/>
        </clipPath>
        <clipPath id="clip_path_320">
            <path d="M -30.799 -25.866 L 335.201 -25.866 L 335.201 219 L -30.799 219 Z M 0 0"/>
        </clipPath>
        <clipPath id="clip_path_321">
            <path d="M -30.799 -25.866 L 335.201 -25.866 L 335.201 219 L -30.799 219 Z M 0 0"/>
        </clipPath>
        <clipPath id="clip_path_322">
            <path d="M -30.799 -25.866 L 335.201 -25.866 L 335.201 219 L -30.799 219 Z M 0 0"/>
        </clipPath>
        <clipPath id="clip_path_323">
            <path d="M -30.799 -25.866 L 335.201 -25.866 L 335.201 219 L -30.799 219 Z M 0 0"/>
        </clipPath>
        <clipPath id="clip_path_324">
            <path d="M -30.799 -25.866 L 335.201 -25.866 L 335.201 219 L -30.799 219 Z M 0 0"/>
        </clipPath>
        <clipPath id="clip_path_325">
            <path d="M -30.799 -25.866 L 335.201 -25.866 L 335.201 219 L -30.799 219 Z M 0 0"/>
        </clipPath>
        <clipPath id="clip_path_326">
            <path d="M -30.799 -25.866 L 335.201 -25.866 L 335.201 219 L -30.799 219 Z M 0 0"/>
        </clipPath>
        <clipPath id="clip_path_327">
            <path d="M -30.799 -25.866 L 335.201 -25.866 L 335.201 219 L -30.799 219 Z M 0 0"/>
        </clipPath>
        <clipPath id="clip_path_328">
            <path d="M -30.799 -25.866 L 335.201 -25.866 L 335.201 219 L -30.799 219 Z M 0 0"/>
        </clipPath>
    </defs>
    <g id="group_4">
        <g
            id="group_3"
            clip-path="url(#clip_group_3)">
            <g
                id="group_2"
                clip-path="url(#clip_group_2)">
                <path
                    id="path_206"
                    clip-path="url(#clip_path_206)"
                    d="M 34.462 36.104 L 25.311 36.104 C 25.161 36.105 25.013 36.146 24.884 36.222 C 24.754 36.298 24.647 36.407 24.573 36.538 C 24.499 36.669 24.461 36.817 24.462 36.967 L 24.462 42.132 C 24.461 42.282 24.499 42.43 24.573 42.561 C 24.647 42.692 24.754 42.801 24.884 42.877 C 25.013 42.953 25.161 42.994 25.311 42.995 L 29.04 42.995 L 32.175 45.256 L 32.175 43.122 L 34.475 43.075 C 34.699 43.068 34.911 42.974 35.066 42.813 C 35.222 42.652 35.308 42.436 35.306 42.212 L 35.306 36.966 C 35.308 36.74 35.22 36.522 35.062 36.361 C 34.904 36.2 34.688 36.107 34.462 36.104 Z"
                    fill="#00000000"
                    stroke="#ffffff"
                    stroke-width="1.071"
                    stroke-linecap="square"/>
                <path
                    id="path_207"
                    clip-path="url(#clip_path_207)"
                    d="M 22.908 141.531 C 22.899 142.035 22.691 142.516 22.329 142.867 C 21.968 143.219 21.481 143.413 20.977 143.407 C 20.473 143.401 19.991 143.196 19.638 142.836 C 19.284 142.476 19.087 141.991 19.09 141.487 C 19.093 140.982 19.296 140.499 19.654 140.144 C 20.011 139.788 20.496 139.589 21 139.589 C 21.338 139.592 21.669 139.684 21.96 139.855 C 22.251 140.027 22.492 140.272 22.659 140.566 C 22.825 140.86 22.911 141.193 22.908 141.531 Z"
                    fill="#00000000"
                    stroke="#ffffff"
                    stroke-width="1.071"
                    stroke-linecap="square"/>
                <path
                    id="path_208"
                    clip-path="url(#clip_path_208)"
                    d="M 255.288 14.413 C 255.276 15.088 254.998 15.732 254.514 16.202 C 254.029 16.673 253.378 16.933 252.703 16.925 C 252.028 16.917 251.383 16.642 250.909 16.161 C 250.436 15.679 250.172 15.029 250.176 14.354 C 250.18 13.679 250.452 13.032 250.931 12.556 C 251.409 12.08 252.058 11.813 252.733 11.813 C 253.416 11.819 254.07 12.097 254.549 12.584 C 255.028 13.071 255.294 13.73 255.288 14.413 Z"
                    fill="#00000000"
                    stroke="#ffffff"
                    stroke-width="1.071"
                    stroke-linecap="square"/>
                <path
                    id="path_209"
                    clip-path="url(#clip_path_209)"
                    d="M 291.285 102.204 C 291.279 102.571 291.127 102.922 290.864 103.178 C 290.6 103.434 290.246 103.575 289.878 103.571 C 289.511 103.567 289.16 103.417 288.902 103.155 C 288.645 102.893 288.501 102.54 288.503 102.172 C 288.505 101.805 288.653 101.453 288.913 101.194 C 289.174 100.935 289.527 100.789 289.894 100.789 C 290.14 100.791 290.382 100.857 290.595 100.982 C 290.807 101.107 290.983 101.286 291.104 101.5 C 291.225 101.715 291.288 101.958 291.285 102.204 Z"
                    fill="#00000000"
                    stroke="#ffffff"
                    stroke-width="1.071"
                    stroke-linecap="square"/>
                <path
                    id="path_210"
                    clip-path="url(#clip_path_210)"
                    d="M 99.41 -0.467 L 96.523 -0.467 L 96.523 -3.407 L 99.41 -3.407 Z"
                    fill="#00000000"
                    stroke="#ffffff"
                    stroke-width="1.071"
                    stroke-linecap="square"/>
                <path
                    id="path_211"
                    clip-path="url(#clip_path_211)"
                    d="M 237.285 90.121 C 237.285 139.098 197.722 178.802 148.919 178.802 C 100.116 178.802 60.553 139.102 60.553 90.121 C 60.553 41.14 100.116 1.44 148.919 1.44 C 197.722 1.44 237.285 41.143 237.285 90.121 Z"
                    fill="#00000000"
                    stroke="#ffffff"
                    stroke-width="1.071"
                    stroke-linecap="square"/>
                <path
                    id="path_212"
                    clip-path="url(#clip_path_212)"
                    d="M 209.988 16.523 C 209.978 19.48 208.793 22.314 206.696 24.399 C 204.599 26.484 201.758 27.652 198.801 27.645 C 195.844 27.638 193.008 26.457 190.921 24.362 C 188.834 22.268 187.663 19.428 187.666 16.471 C 187.67 13.514 188.848 10.677 190.94 8.587 C 193.032 6.498 195.87 5.323 198.827 5.323 C 201.791 5.328 204.635 6.512 206.727 8.612 C 208.819 10.711 209.993 13.559 209.988 16.523 Z"
                    fill="#3385e8"/>
                <path
                    id="path_213"
                    clip-path="url(#clip_path_213)"
                    d="M 196.946 20.478 C 198.878 20.511 200.835 20.537 202.612 20.414 C 203.175 20.375 203.661 19.478 202.978 19.195 C 203.281 19.087 203.531 18.867 203.678 18.581 C 203.72 18.481 203.734 18.372 203.719 18.264 C 203.704 18.157 203.661 18.055 203.593 17.97 C 203.526 17.885 203.437 17.82 203.336 17.781 C 204.007 17.948 204.271 16.881 203.747 16.536 C 204.036 16.309 204.237 15.987 204.313 15.627 C 204.347 15.447 204.327 15.262 204.254 15.094 C 204.182 14.926 204.06 14.784 203.906 14.686 C 203.686 14.589 203.446 14.547 203.206 14.565 L 200.795 14.547 C 201.112 13.295 200.986 11.971 200.439 10.801 C 200.246 10.467 199.729 10.067 199.319 10.324 C 198.934 10.565 199.041 11.164 199.061 11.541 C 199.09 12.328 198.901 13.108 198.514 13.795 C 198.127 14.481 197.558 15.047 196.869 15.429 C 196.869 15.429 196.966 18.773 196.946 20.478 Z"
                    fill="#fcfcfc"/>
                <path
                    id="path_214"
                    clip-path="url(#clip_path_214)"
                    d="M 196.246 20.474 L 193.325 20.474 L 193.325 15.429 L 196.246 15.429 Z"
                    fill="#fcfcfc"/>
                <path
                    id="path_215"
                    clip-path="url(#clip_path_215)"
                    d="M 25.129 83.064 L 10.157 83.064 C 9.194 83.064 8.269 82.681 7.588 82 C 6.907 81.319 6.524 80.394 6.524 79.431 C 6.524 78.468 6.907 77.543 7.588 76.862 C 8.269 76.181 9.194 75.798 10.157 75.798 L 25.129 75.798 C 26.09 75.801 27.012 76.185 27.691 76.866 C 28.369 77.547 28.751 78.47 28.751 79.431 C 28.751 80.392 28.369 81.315 27.691 81.996 C 27.012 82.677 26.09 83.061 25.129 83.064 Z"
                    fill="#ffc700"/>
                <path
                    id="path_216"
                    clip-path="url(#clip_path_216)"
                    d="M 14.597 79.44 C 14.597 79.685 14.499 79.921 14.326 80.094 C 14.152 80.267 13.917 80.365 13.671 80.365 C 13.426 80.365 13.191 80.268 13.017 80.094 C 12.843 79.921 12.745 79.686 12.745 79.441 C 12.745 79.195 12.842 78.96 13.015 78.786 C 13.188 78.612 13.423 78.514 13.668 78.513 C 13.831 78.513 13.991 78.556 14.132 78.637 C 14.273 78.718 14.391 78.835 14.472 78.976 C 14.554 79.117 14.597 79.277 14.597 79.44 Z"
                    fill="#ffffff"/>
                <path
                    id="path_217"
                    clip-path="url(#clip_path_217)"
                    d="M 18.571 79.428 C 18.571 79.673 18.473 79.909 18.3 80.082 C 18.126 80.255 17.891 80.353 17.645 80.353 C 17.4 80.353 17.165 80.256 16.991 80.082 C 16.817 79.909 16.719 79.674 16.719 79.429 C 16.719 79.183 16.816 78.948 16.989 78.774 C 17.162 78.6 17.397 78.502 17.642 78.501 C 17.805 78.501 17.965 78.544 18.106 78.625 C 18.247 78.706 18.365 78.823 18.446 78.964 C 18.528 79.105 18.571 79.265 18.571 79.428 Z"
                    fill="#ffffff"/>
                <path
                    id="path_218"
                    clip-path="url(#clip_path_218)"
                    d="M 22.543 79.416 C 22.543 79.661 22.445 79.897 22.272 80.07 C 22.098 80.243 21.863 80.341 21.617 80.341 C 21.372 80.341 21.137 80.244 20.963 80.07 C 20.789 79.897 20.691 79.662 20.691 79.417 C 20.691 79.171 20.788 78.936 20.961 78.762 C 21.134 78.588 21.369 78.49 21.614 78.489 C 21.777 78.489 21.937 78.532 22.078 78.613 C 22.219 78.694 22.337 78.811 22.418 78.952 C 22.5 79.093 22.543 79.253 22.543 79.416 Z"
                    fill="#ffffff"/>
                <path
                    id="path_219"
                    clip-path="url(#clip_path_219)"
                    d="M 288.717 47.742 L 252.024 47.742 C 251.84 47.742 251.66 47.693 251.501 47.601 C 251.342 47.509 251.211 47.376 251.119 47.217 C 251.028 47.058 250.98 46.878 250.98 46.694 L 250.98 38.194 C 250.98 38.01 251.028 37.83 251.119 37.671 C 251.211 37.512 251.342 37.379 251.501 37.287 C 251.66 37.195 251.84 37.146 252.024 37.146 L 288.717 37.146 C 288.901 37.146 289.081 37.195 289.24 37.287 C 289.399 37.379 289.53 37.512 289.622 37.671 C 289.713 37.83 289.761 38.01 289.761 38.194 L 289.761 46.694 C 289.761 46.878 289.713 47.058 289.622 47.217 C 289.53 47.376 289.399 47.509 289.24 47.601 C 289.081 47.693 288.901 47.742 288.717 47.742 Z"
                    fill="#022a37"/>
                <path
                    id="path_220"
                    clip-path="url(#clip_path_220)"
                    d="M 254.985 41.175 L 284.499 41.175"
                    fill="#000000"
                    stroke="#ffffff"
                    stroke-width="0.689"
                    stroke-linecap="square"/>
                <path
                    id="path_221"
                    clip-path="url(#clip_path_221)"
                    d="M 254.985 43.716 L 260.202 43.716"
                    fill="#000000"
                    stroke="#ffffff"
                    stroke-width="0.689"
                    stroke-linecap="square"/>
                <path
                    id="path_222"
                    clip-path="url(#clip_path_222)"
                    d="M 254.177 46.544 L 254.177 50.618 L 259.352 46.544 Z"
                    fill="#022a37"/>
                <path
                    id="path_223"
                    clip-path="url(#clip_path_223)"
                    d="M 121.152 183.495 L 181.297 183.495 C 184.989 183.488 188.53 182.014 191.136 179.398 C 193.742 176.783 195.203 173.237 195.197 169.545 L 195.197 42.968 C 195.201 40.524 194.562 38.121 193.344 36.002 C 192.126 33.883 190.371 32.122 188.256 30.896 C 186.142 29.67 183.741 29.022 181.297 29.018 L 121.152 29.018 C 117.46 29.025 113.919 30.499 111.313 33.115 C 108.707 35.73 107.246 39.276 107.252 42.968 L 107.252 169.548 C 107.246 173.239 108.709 176.785 111.314 179.4 C 113.92 182.014 117.461 183.488 121.152 183.495 Z"
                    fill="#282828"/>
                <path
                    id="path_224"
                    clip-path="url(#clip_path_224)"
                    d="M 114.679 183.495 L 174.825 183.495 C 177.269 183.491 179.67 182.843 181.784 181.617 C 183.899 180.391 185.654 178.63 186.872 176.511 C 188.09 174.392 188.729 171.989 188.725 169.545 L 188.725 42.968 C 188.729 40.524 188.09 38.121 186.872 36.002 C 185.654 33.883 183.899 32.122 181.784 30.896 C 179.67 29.67 177.269 29.022 174.825 29.018 L 114.679 29.018 C 112.235 29.022 109.834 29.67 107.72 30.896 C 105.605 32.122 103.85 33.883 102.632 36.002 C 101.414 38.121 100.775 40.524 100.779 42.968 L 100.779 169.548 C 100.773 173.239 102.236 176.785 104.841 179.4 C 107.447 182.014 110.988 183.488 114.679 183.495 Z"
                    fill="#ffc700"/>
                <path
                    id="path_225"
                    clip-path="url(#clip_path_225)"
                    d="M 114.593 179.269 L 174.904 179.269 C 177.445 179.264 179.883 178.25 181.677 176.45 C 183.471 174.651 184.477 172.21 184.474 169.669 L 184.474 43.732 C 184.477 41.191 183.471 38.75 181.677 36.951 C 179.883 35.151 177.445 34.137 174.904 34.132 L 114.593 34.132 C 112.052 34.137 109.614 35.151 107.82 36.951 C 106.026 38.75 105.02 41.191 105.023 43.732 L 105.023 169.665 C 105.02 171.348 105.46 173.002 106.299 174.461 C 107.137 175.92 108.346 177.132 109.802 177.976 C 111.257 178.82 112.91 179.266 114.593 179.269 Z"
                    fill="#dff6fe"/>
                <path
                    id="path_226"
                    clip-path="url(#clip_path_226)"
                    d="M 130.008 38.844 L 158.843 38.844 C 159.529 38.843 160.188 38.568 160.673 38.082 C 161.157 37.596 161.429 36.936 161.428 36.25 L 161.428 32.021 L 127.428 32.021 L 127.428 36.252 C 127.427 36.937 127.699 37.595 128.182 38.081 C 128.666 38.567 129.323 38.841 130.008 38.844 Z"
                    fill="#3385e8"/>
                <path
                    id="path_227"
                    clip-path="url(#clip_path_227)"
                    d="M 175.648 104.549 L 113.454 104.549 L 113.454 53.87 L 175.654 53.87 Z"
                    fill="#3385e8"/>
                <path
                    id="path_228"
                    clip-path="url(#clip_path_228)"
                    d="M 149.886 90.723 C 150.463 90.721 151.024 90.915 151.476 91.273 C 151.928 91.632 152.245 92.133 152.375 92.695 C 152.505 93.257 152.439 93.847 152.19 94.368 C 151.941 94.888 151.522 95.308 151.003 95.559 C 150.483 95.81 149.894 95.878 149.331 95.75 C 148.769 95.622 148.266 95.307 147.906 94.856 C 147.546 94.405 147.35 93.845 147.35 93.268 C 147.348 92.822 147.464 92.383 147.686 91.996 C 147.908 91.609 148.229 91.287 148.615 91.064 C 149.001 90.84 149.44 90.723 149.886 90.723 Z M 138.051 90.723 C 138.628 90.721 139.189 90.915 139.641 91.273 C 140.093 91.632 140.41 92.133 140.54 92.695 C 140.67 93.257 140.604 93.847 140.355 94.368 C 140.106 94.888 139.687 95.308 139.168 95.559 C 138.648 95.81 138.059 95.878 137.496 95.75 C 136.934 95.622 136.431 95.307 136.071 94.856 C 135.711 94.405 135.515 93.845 135.515 93.268 C 135.513 92.822 135.629 92.383 135.851 91.995 C 136.074 91.608 136.394 91.287 136.781 91.063 C 137.167 90.84 137.606 90.722 138.052 90.723 Z M 149.886 89.875 C 149.117 89.872 148.369 90.131 147.767 90.609 C 147.164 91.087 146.741 91.755 146.568 92.505 C 146.395 93.254 146.482 94.04 146.814 94.734 C 147.146 95.428 147.705 95.988 148.397 96.323 C 149.09 96.657 149.876 96.747 150.626 96.577 C 151.376 96.406 152.046 95.986 152.526 95.385 C 153.005 94.784 153.267 94.037 153.267 93.268 C 153.267 92.37 152.911 91.508 152.278 90.872 C 151.644 90.236 150.784 89.876 149.886 89.873 Z M 138.051 89.875 C 137.282 89.872 136.534 90.131 135.932 90.609 C 135.329 91.087 134.906 91.755 134.733 92.505 C 134.56 93.254 134.647 94.04 134.979 94.734 C 135.311 95.428 135.87 95.988 136.562 96.323 C 137.255 96.657 138.041 96.747 138.791 96.577 C 139.541 96.406 140.211 95.986 140.691 95.385 C 141.17 94.784 141.432 94.037 141.432 93.268 C 141.432 92.37 141.076 91.508 140.443 90.872 C 139.81 90.236 138.95 89.877 138.052 89.873 Z M 131.077 70.363 L 158.652 70.363 L 156.306 80.573 L 135.792 82.213 Z M 122.835 65.273 C 122.723 65.273 122.615 65.318 122.535 65.397 C 122.456 65.477 122.411 65.585 122.411 65.697 C 122.411 65.809 122.456 65.917 122.535 65.997 C 122.615 66.076 122.723 66.121 122.835 66.121 L 128.462 66.121 Q 131.762 74.383 135.053 82.651 L 133.005 87.582 C 132.972 87.67 132.969 87.767 132.994 87.857 C 133.02 87.948 133.073 88.028 133.147 88.086 C 133.221 88.145 133.311 88.178 133.405 88.182 L 154.539 88.182 C 154.629 88.182 154.716 88.154 154.788 88.101 C 154.861 88.048 154.915 87.974 154.942 87.889 C 154.97 87.804 154.97 87.712 154.942 87.627 C 154.915 87.542 154.861 87.468 154.788 87.415 C 154.716 87.362 154.629 87.334 154.539 87.334 L 134.039 87.334 L 135.822 83.052 L 156.692 81.382 C 156.778 81.372 156.86 81.336 156.926 81.28 C 156.992 81.223 157.039 81.148 157.062 81.064 L 159.598 70.035 C 159.612 69.953 159.602 69.869 159.571 69.792 C 159.539 69.715 159.487 69.649 159.419 69.6 C 159.352 69.552 159.272 69.523 159.189 69.518 L 130.733 69.518 L 129.148 65.541 C 129.115 65.462 129.059 65.395 128.988 65.348 C 128.917 65.301 128.833 65.276 128.748 65.276 Z"
                    fill="#ffffff"/>
                <path
                    id="path_229"
                    clip-path="url(#clip_path_229)"
                    d="M 164.403 69.007 C 164.398 70.28 163.888 71.501 162.985 72.399 C 162.082 73.297 160.858 73.8 159.585 73.797 C 158.312 73.794 157.09 73.285 156.191 72.383 C 155.292 71.482 154.788 70.258 154.789 68.985 C 154.79 67.712 155.298 66.49 156.198 65.59 C 157.099 64.69 158.322 64.183 159.595 64.183 C 160.44 64.184 161.271 64.408 162.002 64.832 C 162.733 65.256 163.34 65.865 163.762 66.598 C 164.183 67.331 164.404 68.162 164.403 69.007 Z"
                    fill="#ffc700"/>
                <path
                    id="path_230"
                    clip-path="url(#clip_path_230)"
                    d="M 157.456 69.251 L 159.256 70.57 L 161.397 67.841"
                    fill="#00000000"
                    stroke="#ffffff"
                    stroke-width="1.699"
                    stroke-linecap="square"/>
                <path
                    id="path_231"
                    clip-path="url(#clip_path_231)"
                    d="M 114.573 164.085 L 114.573 164.085 L 114.573 112.644 L 175.036 112.644 L 175.036 164.085 Z"
                    fill="#00000000"
                    stroke="#ffffff"
                    stroke-width="1.089"
                    stroke-linecap="square"/>
                <path
                    id="path_232"
                    clip-path="url(#clip_path_232)"
                    d="M 123.48 120.452 L 124.657 122.845 L 127.289 123.228 L 125.389 125.091 L 125.838 127.721 L 123.484 126.479 L 121.13 127.721 L 121.58 125.091 L 119.68 123.228 L 122.312 122.845 Z"
                    fill="#3385e8"/>
                <path
                    id="path_233"
                    clip-path="url(#clip_path_233)"
                    d="M 134.051 120.452 L 135.228 122.845 L 137.859 123.228 L 135.959 125.091 L 136.408 127.721 L 134.054 126.479 L 131.7 127.721 L 132.149 125.091 L 130.249 123.228 L 132.88 122.845 Z"
                    fill="#3385e8"/>
                <path
                    id="path_234"
                    clip-path="url(#clip_path_234)"
                    d="M 144.625 120.452 L 145.802 122.845 L 148.433 123.228 L 146.533 125.091 L 146.982 127.721 L 144.628 126.479 L 142.274 127.721 L 142.723 125.091 L 140.823 123.228 L 143.455 122.845 Z"
                    fill="#3385e8"/>
                <path
                    id="path_235"
                    clip-path="url(#clip_path_235)"
                    d="M 155.197 120.452 L 156.374 122.845 L 159.006 123.228 L 157.106 125.091 L 157.555 127.721 L 155.201 126.479 L 152.847 127.721 L 153.297 125.091 L 151.397 123.228 L 154.029 122.845 Z"
                    fill="#3385e8"/>
                <path
                    id="path_236"
                    clip-path="url(#clip_path_236)"
                    d="M 165.769 120.452 L 166.946 122.845 L 169.578 123.228 L 167.678 125.091 L 168.128 127.721 L 165.774 126.479 L 163.42 127.721 L 163.869 125.091 L 161.969 123.228 L 164.601 122.845 Z"
                    fill="#ffffff"/>
                <path
                    id="path_237"
                    clip-path="url(#clip_path_237)"
                    d="M 152.175 141.107 L 123.589 141.107 C 122.548 141.104 121.551 140.688 120.816 139.951 C 120.081 139.214 119.668 138.215 119.668 137.174 C 119.668 136.133 120.081 135.134 120.816 134.397 C 121.551 133.66 122.548 133.244 123.589 133.241 L 152.175 133.241 C 153.218 133.241 154.219 133.656 154.956 134.393 C 155.693 135.13 156.108 136.131 156.108 137.174 C 156.108 138.217 155.693 139.218 154.956 139.955 C 154.219 140.692 153.218 141.107 152.175 141.107 Z"
                    fill="#00000000"
                    stroke="#3385e8"
                    stroke-width="0.93"
                    stroke-linecap="square"/>
                <path
                    id="path_238"
                    clip-path="url(#clip_path_238)"
                    d="M 169.036 137.174 C 169.032 138.321 168.572 139.421 167.759 140.23 C 166.946 141.038 165.843 141.492 164.696 141.489 C 163.549 141.486 162.449 141.028 161.639 140.215 C 160.829 139.403 160.375 138.301 160.376 137.154 C 160.377 136.007 160.834 134.906 161.646 134.095 C 162.458 133.285 163.559 132.829 164.706 132.829 C 165.467 132.83 166.215 133.032 166.874 133.414 C 167.533 133.796 168.079 134.344 168.459 135.004 C 168.838 135.664 169.037 136.413 169.036 137.174 Z"
                    fill="#ffcf3c"/>
                <path
                    id="path_239"
                    clip-path="url(#clip_path_239)"
                    d="M 119.671 147.469 L 168.086 147.469"
                    fill="#000000"
                    stroke="#3385e8"
                    stroke-width="1.089"
                    stroke-linecap="square"/>
                <path
                    id="path_240"
                    clip-path="url(#clip_path_240)"
                    d="M 119.671 152.432 L 137.882 152.432"
                    fill="#000000"
                    stroke="#3385e8"
                    stroke-width="1.089"
                    stroke-linecap="square"/>
                <path
                    id="path_241"
                    clip-path="url(#clip_path_241)"
                    d="M 226.623 168.499 L 227.667 174.299 L 233.055 174.299 L 232.032 168.193 Z"
                    fill="#f8889f"/>
                <path
                    id="path_242"
                    clip-path="url(#clip_path_242)"
                    d="M 226.12 174.427 L 226.12 177.845 L 219.099 179.468 C 218.406 179.732 217.803 180.189 217.361 180.785 C 216.919 181.381 216.657 182.09 216.605 182.83 L 216.528 183.714 L 236.719 183.677 L 234.961 174.359 Z"
                    fill="#282828"/>
                <path
                    id="path_243"
                    clip-path="url(#clip_path_243)"
                    d="M 222.622 178.653 L 223.843 179.915"
                    fill="#000000"
                    stroke="#ffffff"
                    stroke-width="0.797"
                    stroke-linecap="square"/>
                <path
                    id="path_244"
                    clip-path="url(#clip_path_244)"
                    d="M 224.45 178.232 L 225.671 179.494"
                    fill="#000000"
                    stroke="#ffffff"
                    stroke-width="0.797"
                    stroke-linecap="square"/>
                <path
                    id="path_245"
                    clip-path="url(#clip_path_245)"
                    d="M 230.084 105.973 L 220.735 139.859 C 220.34 141.108 220.262 142.435 220.508 143.721 L 225.669 170.767 L 233.7 170.767 L 229.859 141.949 L 241.772 107.824 Z"
                    fill="#005fd2"/>
                <path
                    id="path_246"
                    clip-path="url(#clip_path_246)"
                    d="M 240.105 112.596 L 235.532 112.496 L 237.919 118.855 Z"
                    fill="#0047af"/>
                <path
                    id="path_247"
                    clip-path="url(#clip_path_247)"
                    d="M 235.02 170.762 L 224.656 170.762 L 224.024 166.831 L 234.388 166.831 Z"
                    fill="#117eea"/>
                <path
                    id="path_248"
                    clip-path="url(#clip_path_248)"
                    d="M 224.918 166.831 L 233.176 166.831"
                    fill="#000000"
                    stroke="#4c2e3c"
                    stroke-width="0.65"
                    stroke-linecap="square"/>
                <path
                    id="path_249"
                    clip-path="url(#clip_path_249)"
                    d="M 252.748 168.499 L 253.792 174.299 L 259.179 174.299 L 258.156 168.193 Z"
                    fill="#f8889f"/>
                <path
                    id="path_250"
                    clip-path="url(#clip_path_250)"
                    d="M 252.205 174.427 L 252.205 177.845 L 245.184 179.468 C 244.491 179.732 243.888 180.189 243.446 180.785 C 243.004 181.38 242.741 182.09 242.689 182.83 L 242.612 183.714 L 262.803 183.677 L 261.045 174.359 Z"
                    fill="#282828"/>
                <path
                    id="path_251"
                    clip-path="url(#clip_path_251)"
                    d="M 248.707 178.653 L 249.929 179.915"
                    fill="#000000"
                    stroke="#ffffff"
                    stroke-width="0.797"
                    stroke-linecap="square"/>
                <path
                    id="path_252"
                    clip-path="url(#clip_path_252)"
                    d="M 250.535 178.232 L 251.756 179.494"
                    fill="#000000"
                    stroke="#ffffff"
                    stroke-width="0.797"
                    stroke-linecap="square"/>
                <path
                    id="path_253"
                    clip-path="url(#clip_path_253)"
                    d="M 252.039 105.77 L 260.23 170.699 L 251.958 170.763 L 240.37 107.82 Z"
                    fill="#005fd2"/>
                <path
                    id="path_254"
                    clip-path="url(#clip_path_254)"
                    d="M 252.039 112.596 L 231.507 112.596 L 230.083 105.977 L 252.038 105.777 Z"
                    fill="#005fd2"/>
                <path
                    id="path_255"
                    clip-path="url(#clip_path_255)"
                    d="M 261.662 170.762 L 250.978 170.762 L 250.346 166.831 L 261.025 166.831 Z"
                    fill="#117eea"/>
                <path
                    id="path_256"
                    clip-path="url(#clip_path_256)"
                    d="M 251.479 166.831 L 259.737 166.831"
                    fill="#000000"
                    stroke="#4c2e3c"
                    stroke-width="0.65"
                    stroke-linecap="square"/>
                <path
                    id="path_257"
                    clip-path="url(#clip_path_257)"
                    d="M 203.081 85.903 L 208.421 90.122 L 211.193 83.765 L 204.976 80.318 Z"
                    fill="#f8889f"/>
                <path
                    id="path_258"
                    clip-path="url(#clip_path_258)"
                    d="M 204.574 80.986 L 209.289 79.853 C 209.415 79.822 209.524 79.743 209.592 79.632 C 209.659 79.521 209.68 79.388 209.65 79.262 L 206.956 67.962 C 206.936 67.878 206.895 67.802 206.836 67.739 C 206.777 67.677 206.702 67.631 206.62 67.607 C 206.538 67.582 206.45 67.58 206.367 67.6 L 201.652 68.732 C 201.526 68.763 201.417 68.842 201.35 68.953 C 201.282 69.064 201.261 69.197 201.291 69.323 L 203.985 80.623 C 204.005 80.707 204.046 80.783 204.105 80.846 C 204.164 80.908 204.239 80.954 204.321 80.979 C 204.403 81.003 204.49 81.006 204.574 80.986 Z"
                    fill="#464749"/>
                <path
                    id="path_259"
                    clip-path="url(#clip_path_259)"
                    d="M 203.665 81.204 L 208.38 80.071 C 208.464 80.051 208.54 80.009 208.603 79.95 C 208.665 79.891 208.711 79.816 208.735 79.734 C 208.759 79.651 208.761 79.564 208.741 79.48 L 206.047 68.18 C 206.027 68.096 205.986 68.02 205.927 67.957 C 205.868 67.895 205.793 67.849 205.711 67.825 C 205.629 67.8 205.541 67.798 205.458 67.818 L 200.743 68.95 C 200.617 68.981 200.508 69.06 200.44 69.171 C 200.372 69.281 200.351 69.415 200.381 69.541 L 203.076 80.841 C 203.096 80.925 203.137 81.002 203.196 81.064 C 203.255 81.127 203.329 81.173 203.412 81.197 C 203.494 81.222 203.581 81.224 203.665 81.204 Z"
                    fill="#282828"/>
                <path
                    id="path_260"
                    clip-path="url(#clip_path_260)"
                    d="M 198.52 82.449 C 198.865 83.659 199.676 84.685 200.776 85.298 C 201.875 85.911 203.173 86.063 204.384 85.72 C 205.595 85.377 206.622 84.567 207.237 83.469 C 207.851 82.371 208.006 81.072 207.665 79.861 C 207.324 78.649 206.516 77.622 205.418 77.005 C 204.321 76.388 203.023 76.232 201.811 76.571 C 201.005 76.796 200.272 77.23 199.688 77.829 C 199.103 78.427 198.687 79.17 198.482 79.982 C 198.277 80.793 198.29 81.644 198.52 82.449 Z"
                    fill="#f8889f"/>
                <path
                    id="path_261"
                    clip-path="url(#clip_path_261)"
                    d="M 205.524 77.067 C 205.524 77.067 207.344 75.889 208.2 78.239 C 209.056 80.589 208.867 84.098 204.379 85.751 Z"
                    fill="#f8889f"/>
                <path
                    id="path_262"
                    clip-path="url(#clip_path_262)"
                    d="M 223.793 93.233 L 208.693 80.318 L 203.747 87.864 L 217.677 100.049 C 218.387 100.75 219.307 101.2 220.296 101.331 C 221.285 101.462 222.291 101.267 223.159 100.775 C 224.027 100.283 224.711 99.521 225.107 98.605 C 225.503 97.689 225.589 96.669 225.352 95.699 C 225.116 94.73 224.569 93.864 223.796 93.233 Z"
                    fill="#7651be"/>
                <path
                    id="path_263"
                    clip-path="url(#clip_path_263)"
                    d="M 225.572 79.775 L 216.621 93.988 C 215.99 95.107 215.818 96.429 216.142 97.672 C 216.466 98.915 217.261 99.984 218.358 100.653 C 219.455 101.321 220.77 101.538 222.023 101.256 C 223.277 100.975 224.373 100.217 225.078 99.143 L 234.946 85.488 C 235.6 84.498 235.915 83.322 235.845 82.137 C 235.775 80.952 235.322 79.822 234.556 78.916 C 233.789 78.01 232.75 77.376 231.593 77.11 C 230.437 76.844 229.225 76.96 228.14 77.44 C 227.054 77.921 226.154 78.74 225.573 79.775 Z"
                    fill="#7651be"/>
                <path
                    id="path_264"
                    clip-path="url(#clip_path_264)"
                    d="M 229.009 93.699 L 228.696 90.122 L 226.567 97.076 Z"
                    fill="#5f3eaf"/>
                <path
                    id="path_265"
                    clip-path="url(#clip_path_265)"
                    d="M 269.647 129.329 C 269.57 129.322 269.498 129.285 269.448 129.226 C 269.397 129.167 269.372 129.09 269.376 129.013 L 269.685 124.913 C 269.773 123.801 269.506 122.689 268.923 121.739 C 268.339 120.788 267.469 120.046 266.437 119.622 C 265.406 119.197 264.266 119.11 263.182 119.374 C 262.098 119.638 261.126 120.239 260.405 121.09 C 259.684 121.942 259.252 123 259.171 124.113 L 258.862 128.213 C 258.857 128.275 258.833 128.334 258.793 128.381 C 258.753 128.428 258.699 128.462 258.639 128.477 C 258.578 128.491 258.515 128.486 258.457 128.463 C 258.4 128.439 258.352 128.398 258.319 128.345 C 258.287 128.292 258.272 128.23 258.277 128.168 L 258.586 124.068 C 258.676 122.832 259.156 121.655 259.956 120.708 C 260.757 119.762 261.838 119.094 263.042 118.8 C 264.247 118.506 265.514 118.602 266.66 119.074 C 267.806 119.546 268.774 120.37 269.423 121.426 C 270.072 122.483 270.369 123.718 270.271 124.954 L 269.962 129.054 C 269.956 129.132 269.919 129.204 269.86 129.255 C 269.802 129.307 269.725 129.333 269.647 129.329 Z"
                    fill="#ffffff"/>
                <path
                    id="path_266"
                    clip-path="url(#clip_path_266)"
                    d="M 274.61 151 L 251.095 152.675 L 251.047 127.053 L 271.047 125.627 Z"
                    fill="#6db0f2"/>
                <path
                    id="path_267"
                    clip-path="url(#clip_path_267)"
                    d="M 281.503 150.511 L 257.988 152.186 L 257.94 126.564 L 277.94 125.139 Z"
                    fill="#3385e8"/>
                <path
                    id="path_268"
                    clip-path="url(#clip_path_268)"
                    d="M 254.89 152.428 L 254.25 152.428 L 254.13 126.759 L 254.77 126.759 Z"
                    fill="#3385e8"/>
                <path
                    id="path_269"
                    clip-path="url(#clip_path_269)"
                    d="M 272.638 127.795 C 272.587 127.801 272.535 127.793 272.488 127.773 C 272.44 127.752 272.399 127.72 272.369 127.678 C 272.338 127.637 272.319 127.588 272.313 127.537 L 271.839 123.448 C 271.714 122.339 271.24 121.299 270.485 120.476 C 269.731 119.654 268.735 119.092 267.642 118.872 C 266.548 118.652 265.412 118.784 264.398 119.25 C 263.385 119.716 262.544 120.492 262 121.466 C 261.455 122.439 261.233 123.561 261.366 124.669 L 261.84 128.758 C 261.851 128.821 261.841 128.887 261.812 128.944 C 261.782 129.002 261.735 129.048 261.676 129.075 C 261.618 129.103 261.552 129.11 261.489 129.097 C 261.426 129.084 261.369 129.05 261.327 129.001 C 261.285 128.952 261.261 128.89 261.257 128.826 L 260.784 124.737 C 260.637 123.506 260.884 122.26 261.49 121.179 C 262.095 120.098 263.029 119.236 264.155 118.718 C 265.281 118.201 266.542 118.054 267.757 118.298 C 268.972 118.543 270.079 119.166 270.917 120.079 C 271.755 120.992 272.283 122.148 272.423 123.379 L 272.896 127.468 C 272.904 127.545 272.881 127.623 272.833 127.684 C 272.785 127.745 272.715 127.785 272.638 127.795 Z"
                    fill="#ffffff"/>
                <path
                    id="path_270"
                    clip-path="url(#clip_path_270)"
                    d="M 270.577 117.129 C 270.501 115.85 269.92 114.652 268.963 113.801 C 268.005 112.949 266.747 112.512 265.468 112.587 C 264.189 112.661 262.991 113.24 262.138 114.197 C 261.285 115.153 260.847 116.41 260.919 117.689 C 260.992 118.968 261.57 120.168 262.525 121.022 C 263.48 121.876 264.737 122.316 266.016 122.245 C 266.865 122.197 267.687 121.925 268.399 121.459 C 269.11 120.992 269.686 120.346 270.068 119.586 C 270.451 118.826 270.626 117.978 270.577 117.129 Z"
                    fill="#f8889f"/>
                <path
                    id="path_271"
                    clip-path="url(#clip_path_271)"
                    d="M 262.434 120.932 C 262.434 120.932 260.366 121.7 260.034 119.175 C 259.702 116.65 260.658 113.204 265.482 112.552 Z"
                    fill="#f8889f"/>
                <path
                    id="path_272"
                    clip-path="url(#clip_path_272)"
                    d="M 254.984 96.495 L 260.567 115.604 L 268.824 112.846 L 263.824 94.157 C 263.619 93.179 263.1 92.295 262.345 91.64 C 261.591 90.985 260.643 90.594 259.646 90.528 C 258.649 90.462 257.657 90.724 256.823 91.274 C 255.989 91.824 255.358 92.632 255.026 93.575 C 254.694 94.517 254.679 95.543 254.984 96.494 Z"
                    fill="#7651be"/>
                <path
                    id="path_273"
                    clip-path="url(#clip_path_273)"
                    d="M 244.039 85.254 L 255.126 97.86 C 256.03 98.763 257.248 99.282 258.526 99.309 C 259.803 99.336 261.042 98.868 261.983 98.004 C 262.924 97.141 263.496 95.946 263.579 94.671 C 263.661 93.396 263.248 92.138 262.426 91.16 L 252.126 77.828 C 251.362 76.901 250.315 76.249 249.145 75.973 C 247.976 75.697 246.748 75.811 245.65 76.299 C 244.552 76.786 243.643 77.621 243.064 78.673 C 242.484 79.725 242.265 80.939 242.44 82.128 C 242.616 83.316 243.175 84.416 244.034 85.256 Z"
                    fill="#7651be"/>
                <path
                    id="path_274"
                    clip-path="url(#clip_path_274)"
                    d="M 230.862 77.014 L 247.912 75.889 C 249.45 75.789 252.191 78.589 252.029 80.127 L 252.039 105.77 L 230.084 105.97 L 227.854 80.428 C 227.804 79.578 228.092 78.741 228.655 78.102 C 229.219 77.463 230.012 77.072 230.862 77.014 Z"
                    fill="#7651be"/>
                <path
                    id="path_275"
                    clip-path="url(#clip_path_275)"
                    d="M 252.035 94.346 L 247.935 89.164 L 252.042 101.378 Z"
                    fill="#5f3eaf"/>
                <path
                    id="path_276"
                    clip-path="url(#clip_path_276)"
                    d="M 230.744 58.22 C 230.744 58.22 226.767 59.69 231.096 64.71 L 232.254 58.164 Z"
                    fill="#312725"/>
                <path
                    id="path_277"
                    clip-path="url(#clip_path_277)"
                    d="M 233.641 65.528 C 233.702 66.135 233.521 66.743 233.137 67.218 C 232.753 67.692 232.196 67.996 231.589 68.062 C 231.187 68.091 230.784 68.014 230.422 67.838 C 230.059 67.661 229.75 67.392 229.525 67.058 C 229.3 66.723 229.168 66.335 229.141 65.933 C 229.08 65.326 229.261 64.718 229.645 64.244 C 230.029 63.769 230.585 63.466 231.192 63.399 C 231.594 63.37 231.997 63.447 232.359 63.623 C 232.722 63.8 233.031 64.069 233.257 64.403 C 233.482 64.738 233.614 65.126 233.641 65.528 Z"
                    fill="#312725"/>
                <path
                    id="path_278"
                    clip-path="url(#clip_path_278)"
                    d="M 234.952 71.02 L 235.052 76.609 C 235.006 77.153 235.124 77.699 235.391 78.176 C 235.659 78.652 236.064 79.037 236.552 79.281 C 237.041 79.525 237.593 79.616 238.134 79.543 C 239.725 79.497 241.46 78.689 241.358 76.96 L 240.786 68.172 Z"
                    fill="#f8889f"/>
                <path
                    id="path_279"
                    clip-path="url(#clip_path_279)"
                    d="M 235.009 74.737 C 235.009 74.737 239.554 75.037 240.866 69.883 C 241.28 68.26 234.93 70.448 234.93 70.448 Z"
                    fill="#312725"/>
                <path
                    id="path_280"
                    clip-path="url(#clip_path_280)"
                    d="M 236.654 72.616 L 236.654 72.616 C 235.19 72.655 233.763 72.146 232.654 71.19 C 231.545 70.234 230.832 68.898 230.654 67.444 L 230.385 61.815 C 230.275 60.222 230.786 58.646 231.811 57.421 C 232.836 56.197 234.297 55.416 235.885 55.244 C 239.207 54.944 242.719 57.444 243.013 60.884 L 243.17 65.273 C 243.261 67.105 242.629 68.902 241.411 70.275 C 240.193 71.647 238.484 72.488 236.654 72.616 Z"
                    fill="#f8889f"/>
                <path
                    id="path_281"
                    clip-path="url(#clip_path_281)"
                    d="M 233.966 64.46 L 233.818 66.3 L 234.605 66.316"
                    fill="#00000000"
                    stroke="#312725"
                    stroke-width="0.65"
                    stroke-linecap="square"/>
                <path
                    id="path_282"
                    clip-path="url(#clip_path_282)"
                    d="M 237.415 61.251 C 237.415 61.251 236.115 61.163 236.107 61.713 C 236.107 61.713 236.115 62.085 237.253 62.139 C 238.391 62.193 238.685 62.101 238.783 61.75 C 238.881 61.399 238.026 61.243 237.415 61.251 Z"
                    fill="#312725"/>
                <path
                    id="path_283"
                    clip-path="url(#clip_path_283)"
                    d="M 231.971 61.506 C 231.971 61.506 233.044 61.372 233.141 61.887 C 233.141 61.887 233.199 62.236 232.259 62.331 C 231.319 62.426 231.01 62.308 230.916 62.031 C 230.81 61.709 231.46 61.523 231.971 61.506 Z"
                    fill="#312725"/>
                <path
                    id="path_284"
                    clip-path="url(#clip_path_284)"
                    d="M 232.789 64.115 C 232.791 64.259 232.736 64.398 232.637 64.502 C 232.537 64.606 232.401 64.666 232.257 64.67 C 232.113 64.674 231.973 64.621 231.868 64.522 C 231.763 64.424 231.701 64.288 231.695 64.144 C 231.69 64 231.741 63.86 231.839 63.754 C 231.936 63.648 232.071 63.584 232.215 63.577 C 232.362 63.573 232.505 63.627 232.613 63.728 C 232.72 63.829 232.784 63.968 232.789 64.115 Z"
                    fill="#312725"/>
                <path
                    id="path_285"
                    clip-path="url(#clip_path_285)"
                    d="M 237.581 63.864 C 237.583 64.008 237.528 64.147 237.429 64.251 C 237.329 64.355 237.193 64.415 237.049 64.419 C 236.905 64.423 236.765 64.37 236.66 64.271 C 236.555 64.173 236.493 64.037 236.487 63.893 C 236.482 63.749 236.533 63.609 236.631 63.503 C 236.728 63.397 236.863 63.333 237.007 63.326 C 237.154 63.322 237.297 63.376 237.405 63.477 C 237.512 63.578 237.576 63.717 237.581 63.864 Z"
                    fill="#312725"/>
                <path
                    id="path_286"
                    clip-path="url(#clip_path_286)"
                    d="M 233.461 67.484 L 237.034 67.327 C 237.034 67.327 237.134 68.727 235.252 68.81 C 234.842 68.851 234.432 68.737 234.101 68.492 C 233.77 68.247 233.542 67.888 233.461 67.484 Z"
                    fill="#ffffff"/>
                <path
                    id="path_287"
                    clip-path="url(#clip_path_287)"
                    d="M 242.825 64.537 C 242.825 64.537 238.973 63.326 240.416 59.755 C 240.416 59.755 239.382 57.923 236.103 58.802 C 232.824 59.681 229.583 59.538 229.122 56.919 C 228.661 54.3 231.23 50.74 237.496 52.981 C 238.873 53.494 240.167 54.207 241.337 55.096 C 242.961 56.42 245.495 56.404 245.788 58.916 C 246.076 61.409 244.857 65.618 242.825 64.537 Z"
                    fill="#312725"/>
                <path
                    id="path_288"
                    clip-path="url(#clip_path_288)"
                    d="M 246.095 65.107 C 246.156 65.708 245.976 66.31 245.596 66.78 C 245.216 67.249 244.665 67.55 244.064 67.616 C 243.666 67.645 243.267 67.569 242.908 67.394 C 242.549 67.22 242.243 66.953 242.02 66.622 C 241.797 66.291 241.666 65.906 241.64 65.508 C 241.579 64.907 241.758 64.305 242.139 63.835 C 242.519 63.365 243.07 63.065 243.671 62.999 C 244.069 62.97 244.468 63.047 244.827 63.221 C 245.185 63.396 245.492 63.662 245.715 63.993 C 245.937 64.325 246.069 64.709 246.095 65.107 Z"
                    fill="#f8889f"/>
                <path
                    id="path_289"
                    clip-path="url(#clip_path_289)"
                    d="M 243.154 65.931 C 243.154 65.931 243.011 64.257 244.578 64.381"
                    fill="#00000000"
                    stroke="#312725"
                    stroke-width="0.65"
                    stroke-linecap="square"/>
                <path
                    id="path_290"
                    clip-path="url(#clip_path_290)"
                    d="M 71.734 168.512 L 70.457 175.237 L 65.07 175.237 L 66.326 168.204 Z"
                    fill="#f8889f"/>
                <path
                    id="path_291"
                    clip-path="url(#clip_path_291)"
                    d="M 72.273 174.439 L 72.273 177.857 L 76.818 179.48 C 77.511 179.744 78.114 180.201 78.557 180.797 C 78.999 181.392 79.261 182.102 79.313 182.842 L 79.39 183.726 L 61.675 183.689 L 63.433 174.371 Z"
                    fill="#282828"/>
                <path
                    id="path_292"
                    clip-path="url(#clip_path_292)"
                    d="M 75.472 178.629 L 74.251 179.891"
                    fill="#000000"
                    stroke="#ffffff"
                    stroke-width="0.797"
                    stroke-linecap="square"/>
                <path
                    id="path_293"
                    clip-path="url(#clip_path_293)"
                    d="M 73.644 178.207 L 72.423 179.469"
                    fill="#000000"
                    stroke="#ffffff"
                    stroke-width="0.797"
                    stroke-linecap="square"/>
                <path
                    id="path_294"
                    clip-path="url(#clip_path_294)"
                    d="M 70.947 105.453 L 71.996 108.673 L 81.311 134.462 C 82.054 136.362 82.056 138.474 81.317 140.376 L 74.351 169.636 L 63.089 169.622 L 69.625 138.347 L 57.812 105.36 Z"
                    fill="#3385e8"/>
                <path
                    id="path_295"
                    clip-path="url(#clip_path_295)"
                    d="M 63.232 120.447 L 69.377 117.04 L 65.495 126.765 Z"
                    fill="#1c73c9"/>
                <path
                    id="path_296"
                    clip-path="url(#clip_path_296)"
                    d="M 51.636 168.512 L 50.359 175.237 L 44.972 175.237 L 46.227 168.204 Z"
                    fill="#f8889f"/>
                <path
                    id="path_297"
                    clip-path="url(#clip_path_297)"
                    d="M 52.178 174.439 L 52.178 177.857 L 56.723 179.48 C 57.416 179.744 58.019 180.201 58.462 180.797 C 58.904 181.392 59.166 182.102 59.218 182.842 L 59.295 183.726 L 41.58 183.689 L 43.338 174.371 Z"
                    fill="#282828"/>
                <path
                    id="path_298"
                    clip-path="url(#clip_path_298)"
                    d="M 55.373 178.629 L 54.152 179.891"
                    fill="#000000"
                    stroke="#ffffff"
                    stroke-width="0.797"
                    stroke-linecap="square"/>
                <path
                    id="path_299"
                    clip-path="url(#clip_path_299)"
                    d="M 53.545 178.207 L 52.324 179.469"
                    fill="#000000"
                    stroke="#ffffff"
                    stroke-width="0.797"
                    stroke-linecap="square"/>
                <path
                    id="path_300"
                    clip-path="url(#clip_path_300)"
                    d="M 53.084 106.705 L 53.084 106.732 L 53.044 106.672 C 53.044 106.672 49.367 110.2 50.375 123.072 L 50.45 122.912 L 42.604 169.938 L 53.21 170.116 L 66.103 105.394 Z"
                    fill="#3385e8"/>
                <path
                    id="path_301"
                    clip-path="url(#clip_path_301)"
                    d="M 70.056 82.115 L 84.806 87.882 C 85.837 88.559 86.575 89.602 86.87 90.8 C 87.166 91.998 86.997 93.264 86.398 94.343 C 85.098 96.691 82.723 97.256 79.798 96.243 L 64.506 91.382 C 63.515 90.803 62.735 89.922 62.278 88.869 C 61.822 87.816 61.712 86.645 61.966 85.525 C 62.22 84.406 62.825 83.397 63.691 82.644 C 64.558 81.891 65.642 81.434 66.786 81.339 C 67.93 81.244 69.074 81.517 70.053 82.116 Z"
                    fill="#005fd2"/>
                <path
                    id="path_302"
                    clip-path="url(#clip_path_302)"
                    d="M 89.383 74.003 C 89.506 72.514 89.695 70.735 89.801 70.003 C 89.833 69.78 89.944 69.575 90.113 69.425 C 90.282 69.276 90.499 69.191 90.725 69.187 C 90.951 69.182 91.171 69.258 91.346 69.401 C 91.521 69.543 91.64 69.743 91.681 69.965 L 91.844 71.503 L 95.031 67.265 C 95.141 67.111 95.301 67.001 95.484 66.954 C 95.667 66.907 95.861 66.927 96.031 67.009 C 96.155 67.073 96.26 67.17 96.333 67.289 C 96.407 67.407 96.448 67.544 96.451 67.684 C 96.454 67.823 96.419 67.961 96.35 68.083 L 95.984 68.921 L 96.484 68.25 C 96.587 68.105 96.74 68.003 96.913 67.961 C 97.086 67.92 97.268 67.943 97.426 68.025 C 97.54 68.09 97.635 68.185 97.699 68.299 C 97.763 68.414 97.795 68.544 97.79 68.675 C 97.785 68.807 97.744 68.934 97.672 69.044 L 97.381 69.52 C 97.705 69.173 98.126 69.06 98.394 69.261 C 98.541 69.366 98.641 69.524 98.674 69.702 C 98.707 69.879 98.67 70.063 98.571 70.214 L 98.114 70.822 C 98.571 70.214 98.925 70.322 99.13 70.473 C 99.266 70.576 99.359 70.727 99.388 70.895 C 99.417 71.064 99.381 71.237 99.287 71.38 L 97.68 74.673 C 97.334 75.386 96.875 76.039 96.322 76.607 C 95.532 77.479 94.61 78.221 93.59 78.807 L 90.626 76.886 C 90.626 76.886 89.185 76.406 89.383 74.003 Z"
                    fill="#f8889f"/>
                <path
                    id="path_303"
                    clip-path="url(#clip_path_303)"
                    d="M 119.917 71.713 L 91.847 71.713 L 91.847 45.278 L 119.917 45.278 Z"
                    fill="#6db0f2"/>
                <path
                    id="path_304"
                    clip-path="url(#clip_path_304)"
                    d="M 110.823 54.868 C 110.447 54.498 109.979 54.234 109.468 54.103 C 108.957 53.972 108.42 53.977 107.912 54.119 C 107.404 54.262 106.943 54.535 106.574 54.913 L 105.809 55.697 L 105.021 54.919 C 104.568 54.472 103.984 54.179 103.354 54.085 C 102.724 53.99 102.079 54.098 101.515 54.392 C 100.95 54.687 100.492 55.153 100.209 55.724 C 99.926 56.294 99.831 56.94 99.938 57.568 C 100.045 58.196 100.349 58.774 100.805 59.219 L 103.728 62.107 C 103.734 62.113 103.738 62.121 103.745 62.127 C 104.121 62.497 104.589 62.76 105.1 62.892 C 105.61 63.023 106.147 63.017 106.655 62.875 C 107.163 62.733 107.624 62.459 107.993 62.082 L 110.868 59.136 C 111.426 58.564 111.735 57.792 111.727 56.993 C 111.719 56.193 111.393 55.429 110.823 54.868 Z"
                    fill="#d707a3"/>
                <path
                    id="path_305"
                    clip-path="url(#clip_path_305)"
                    d="M 79.191 89.866 L 89.308 75.466 L 94.876 78.166 L 86.239 94.686 C 85.751 95.476 85.017 96.086 84.152 96.422 C 83.286 96.758 82.333 96.803 81.44 96.55 C 80.546 96.297 79.759 95.759 79.198 95.019 C 78.637 94.278 78.333 93.374 78.332 92.446 C 78.33 91.517 78.632 90.612 79.19 89.87 Z"
                    fill="#005fd2"/>
                <path
                    id="path_306"
                    clip-path="url(#clip_path_306)"
                    d="M 66.606 81.191 L 49.837 81.861 C 49.361 81.881 48.901 82.039 48.514 82.317 C 48.127 82.595 47.829 82.979 47.658 83.424 C 47.486 83.868 47.448 84.353 47.548 84.819 L 53.039 106.673 L 70.902 105.421 L 69.895 84.215 C 69.857 83.379 69.489 82.592 68.874 82.025 C 68.258 81.459 67.442 81.159 66.606 81.191 Z"
                    fill="#005fd2"/>
                <path
                    id="path_307"
                    clip-path="url(#clip_path_307)"
                    d="M 53.021 91.747 L 41.806 100.74 C 39.699 102.187 37.325 102.823 35.739 100.816 C 34.94 99.804 34.573 98.516 34.718 97.235 C 34.863 95.954 35.508 94.781 36.513 93.973 L 46.613 83.06 C 47.527 82.343 48.649 81.94 49.811 81.911 C 50.972 81.882 52.112 82.229 53.061 82.899 C 54.01 83.57 54.718 84.529 55.079 85.633 C 55.439 86.738 55.434 87.93 55.063 89.031 C 54.693 90.132 53.977 91.085 53.022 91.747 Z"
                    fill="#005fd2"/>
                <path
                    id="path_308"
                    clip-path="url(#clip_path_308)"
                    d="M 42.622 95.779 L 51.285 110.915 L 46.577 114.936 L 35.383 100.301 C 34.852 99.537 34.585 98.619 34.623 97.689 C 34.66 96.76 35.001 95.867 35.592 95.148 C 36.184 94.429 36.994 93.923 37.899 93.707 C 38.804 93.491 39.756 93.576 40.608 93.95 C 41.461 94.323 42.168 94.966 42.622 95.778 Z"
                    fill="#005fd2"/>
                <path
                    id="path_309"
                    clip-path="url(#clip_path_309)"
                    d="M 55.186 110.964 C 52.674 111.649 50.28 112.712 48.086 114.116 C 48.598 114.7 49.146 115.251 49.726 115.767 C 50.351 116.328 51.061 116.786 51.831 117.122 L 55.384 118.678 C 55.539 118.771 55.724 118.802 55.901 118.763 C 56.078 118.724 56.233 118.619 56.335 118.469 C 56.489 118.244 56.583 117.862 55.92 117.404 L 56.583 117.861 C 56.747 117.96 56.943 117.992 57.13 117.949 C 57.317 117.905 57.48 117.79 57.583 117.629 C 57.783 117.335 57.644 116.892 57.263 116.564 L 57.779 116.851 C 57.898 116.923 58.035 116.96 58.174 116.959 C 58.313 116.958 58.449 116.918 58.567 116.845 C 58.685 116.771 58.781 116.666 58.843 116.542 C 58.923 116.37 58.938 116.176 58.887 115.994 C 58.835 115.811 58.719 115.654 58.561 115.55 L 57.829 115.05 L 58.729 115.402 C 58.861 115.469 59.008 115.5 59.156 115.49 C 59.304 115.48 59.446 115.431 59.568 115.346 C 59.69 115.262 59.787 115.147 59.848 115.012 C 59.926 114.828 59.937 114.622 59.879 114.431 C 59.822 114.24 59.699 114.074 59.532 113.964 Z"
                    fill="#f8889f"/>
                <path
                    id="path_310"
                    clip-path="url(#clip_path_310)"
                    d="M 52.613 116.299 C 52.613 116.299 50.587 118.856 46.867 114.687 L 50.992 111.154 L 54.773 108.965 C 54.941 108.868 55.137 108.83 55.33 108.857 C 55.522 108.884 55.7 108.975 55.835 109.114 C 55.97 109.254 56.055 109.435 56.076 109.628 C 56.096 109.821 56.052 110.016 55.949 110.181 L 55.277 111.274"
                    fill="#f8889f"/>
                <path
                    id="path_311"
                    clip-path="url(#clip_path_311)"
                    d="M 54.968 109.947 L 54.48 113.336"
                    fill="#000000"/>
                <path
                    id="path_312"
                    clip-path="url(#clip_path_312)"
                    d="M 67.07 66.141 C 67.266 68.438 66.541 70.721 65.056 72.485 C 63.572 74.248 61.445 75.351 59.148 75.549 C 54.371 75.949 49.317 72.149 48.916 67.358 C 48.515 62.567 52.916 58.593 57.696 58.191 C 59.217 58.065 60.744 58.343 62.123 58.994 C 63.502 59.646 64.686 60.65 65.554 61.905 C 66.423 63.159 66.946 64.62 67.07 66.141 Z"
                    fill="#312725"/>
                <path
                    id="path_313"
                    clip-path="url(#clip_path_313)"
                    d="M 62.854 69.531 C 62.869 70.139 63.124 70.717 63.564 71.137 C 64.004 71.558 64.593 71.787 65.201 71.774 C 65.733 71.77 66.247 71.585 66.659 71.248 C 67.071 70.912 67.356 70.445 67.466 69.925 C 67.576 69.404 67.505 68.862 67.264 68.388 C 67.024 67.913 66.628 67.535 66.144 67.316 C 65.659 67.098 65.114 67.051 64.599 67.185 C 64.084 67.318 63.63 67.624 63.313 68.05 C 62.996 68.477 62.834 69 62.854 69.531 Z"
                    fill="#312725"/>
                <path
                    id="path_314"
                    clip-path="url(#clip_path_314)"
                    d="M 62.173 75.61 L 62.773 81.145 C 62.888 81.677 62.84 82.232 62.636 82.736 C 62.432 83.241 62.081 83.673 61.629 83.976 C 61.176 84.279 60.643 84.439 60.099 84.436 C 58.521 84.593 57.131 84.017 57.013 82.295 L 56.468 73.541 Z"
                    fill="#f8889f"/>
                <path
                    id="path_315"
                    clip-path="url(#clip_path_315)"
                    d="M 62.533 78.877 C 62.533 78.877 58.487 79.557 56.539 74.633 C 55.925 73.082 62.122 75.041 62.122 75.041 Z"
                    fill="#312725"/>
                <path
                    id="path_316"
                    clip-path="url(#clip_path_316)"
                    d="M 60.693 77.403 L 60.693 77.403 C 62.144 77.254 63.488 76.569 64.462 75.484 C 65.436 74.399 65.972 72.989 65.964 71.531 L 65.458 65.221 C 65.366 63.633 64.662 62.141 63.494 61.062 C 62.326 59.982 60.784 59.396 59.194 59.428 C 55.874 59.555 52.718 62.468 52.864 65.907 L 53.324 70.978 C 53.466 72.8 54.318 74.495 55.695 75.696 C 57.073 76.897 58.869 77.511 60.693 77.403 Z"
                    fill="#f8889f"/>
                <path
                    id="path_317"
                    clip-path="url(#clip_path_317)"
                    d="M 62.242 69.548 L 62.763 71.59 L 61.988 71.706"
                    fill="#00000000"
                    stroke="#312725"
                    stroke-width="0.65"
                    stroke-linecap="square"/>
                <path
                    id="path_318"
                    clip-path="url(#clip_path_318)"
                    d="M 58.601 67.417 C 58.601 67.417 59.879 67.165 59.952 67.707 C 59.952 67.707 59.991 68.076 58.874 68.273 C 57.757 68.47 57.454 68.417 57.313 68.083 C 57.172 67.749 57.996 67.488 58.601 67.417 Z"
                    fill="#312725"/>
                <path
                    id="path_319"
                    clip-path="url(#clip_path_319)"
                    d="M 64.011 66.976 C 64.011 66.976 62.934 66.976 62.903 67.501 C 62.903 67.501 62.89 67.853 63.831 67.828 C 64.772 67.803 65.062 67.647 65.119 67.358 C 65.189 67.03 64.519 66.928 64.011 66.976 Z"
                    fill="#312725"/>
                <path
                    id="path_320"
                    clip-path="url(#clip_path_320)"
                    d="M 63.5 69.306 C 63.515 69.449 63.586 69.58 63.697 69.671 C 63.808 69.762 63.951 69.806 64.094 69.792 C 64.237 69.778 64.369 69.709 64.461 69.598 C 64.553 69.488 64.597 69.346 64.585 69.202 C 64.573 69.059 64.504 68.927 64.395 68.834 C 64.285 68.741 64.143 68.695 64 68.706 C 63.855 68.72 63.72 68.791 63.627 68.903 C 63.533 69.016 63.488 69.16 63.5 69.306 Z"
                    fill="#312725"/>
                <path
                    id="path_321"
                    clip-path="url(#clip_path_321)"
                    d="M 58.738 69.664 C 58.753 69.807 58.824 69.938 58.935 70.029 C 59.046 70.12 59.189 70.164 59.332 70.15 C 59.475 70.136 59.607 70.067 59.699 69.956 C 59.791 69.846 59.835 69.704 59.823 69.56 C 59.811 69.417 59.742 69.285 59.633 69.192 C 59.523 69.099 59.381 69.053 59.238 69.064 C 59.093 69.078 58.958 69.149 58.865 69.261 C 58.771 69.374 58.726 69.518 58.738 69.664 Z"
                    fill="#312725"/>
                <path
                    id="path_322"
                    clip-path="url(#clip_path_322)"
                    d="M 59.638 72.259 C 59.638 72.259 59.809 73.116 61.279 72.959"
                    fill="#00000000"
                    stroke="#312725"
                    stroke-width="0.65"
                    stroke-linecap="square"/>
                <path
                    id="path_323"
                    clip-path="url(#clip_path_323)"
                    d="M 54.985 81.638 L 63.761 81.303 C 63.817 81.854 63.726 82.411 63.498 82.916 C 63.271 83.421 62.914 83.858 62.464 84.181 C 62.015 84.505 61.487 84.705 60.936 84.76 C 55.791 85.355 54.985 81.638 54.985 81.638 Z"
                    fill="#f8889f"/>
                <path
                    id="path_324"
                    clip-path="url(#clip_path_324)"
                    d="M 66.608 64.854 C 66.175 64.224 65.695 63.628 65.173 63.069 C 64.854 62.024 64.242 61.092 63.41 60.383 C 62.579 59.675 61.561 59.219 60.479 59.069 C 55.035 58.084 51.088 61.612 51.579 66.813 L 50.694 66.857 L 51.733 67.857 C 51.757 67.977 51.78 68.097 51.809 68.219 L 52.183 68.29 L 54.775 70.79 C 54.775 70.79 55.043 69.627 55.289 68.527 C 56.454 68.105 58.735 66.819 60.94 62.933 C 62.28 64.37 63.835 65.59 65.549 66.55 C 65.561 66.623 65.582 66.694 65.588 66.77 C 65.588 66.77 65.596 66.699 65.605 66.575 C 65.784 66.654 65.97 66.719 66.159 66.77 Z"
                    fill="#312725"/>
                <path
                    id="path_325"
                    clip-path="url(#clip_path_325)"
                    d="M 52.643 64.556 C 37.363 64.456 37.103 58.456 41.519 54.963 C 45.935 51.47 52.613 62.687 52.613 62.687 Z"
                    fill="#312725"/>
                <path
                    id="path_326"
                    clip-path="url(#clip_path_326)"
                    d="M 50.417 71.45 C 50.46 72.035 50.733 72.581 51.175 72.966 C 51.618 73.352 52.195 73.548 52.781 73.511 C 53.366 73.474 53.914 73.207 54.305 72.768 C 54.695 72.33 54.897 71.755 54.866 71.169 C 54.835 70.583 54.574 70.032 54.14 69.637 C 53.705 69.242 53.132 69.034 52.546 69.059 C 52.149 69.081 51.765 69.207 51.432 69.426 C 51.1 69.644 50.831 69.946 50.652 70.301 C 50.474 70.657 50.393 71.053 50.417 71.45 Z"
                    fill="#f8889f"/>
                <path
                    id="path_327"
                    clip-path="url(#clip_path_327)"
                    d="M 53.45 72.021 C 53.45 72.021 53.379 70.349 51.85 70.671"
                    fill="#00000000"
                    stroke="#312725"
                    stroke-width="0.65"
                    stroke-linecap="square"/>
                <path
                    id="path_328"
                    clip-path="url(#clip_path_328)"
                    d="M 13.134 183.726 L 287.732 183.726"
                    fill="#000000"
                    stroke="#282828"
                    stroke-width="1.045"
                    stroke-linecap="square"/>
            </g>
        </g>
    </g>
</svg>
