<svg
    xmlns="http://www.w3.org/2000/svg"
    viewBox="0 0 500 500"
    id="vector">
    <defs>
        <clipPath id="clip_path_2">
            <path d="M 0 0 L 500 0 L 500 500 L 0 500 Z M 0 0"/>
        </clipPath>
        <clipPath id="clip_path_3">
            <path d="M 0 0 L 500 0 L 500 500 L 0 500 Z M 0 0"/>
        </clipPath>
        <clipPath id="clip_path_4">
            <path d="M 0 0 L 500 0 L 500 500 L 0 500 Z M 0 0"/>
        </clipPath>
    </defs>
    <g id="group">
        <path
            id="path_2"
            clip-path="url(#clip_path_2)"
            d="M 297.555 269.938 C 265.4 269.938 239.233 243.538 239.233 211.106 C 239.233 178.674 265.4 152.274 297.555 152.274 L 336.434 152.274 L 336.434 73.832 C 336.434 41.396 310.267 14.996 278.112 14.996 L 69.127 14.996 C 65.968 15.001 62.857 15.778 60.066 17.258 C 57.274 18.738 54.886 20.877 53.109 23.489 C 51.323 26.111 50.196 29.126 49.824 32.277 C 49.451 35.428 49.845 38.623 50.97 41.589 L 191.915 414.196 C 193.296 417.899 195.775 421.093 199.019 423.35 C 202.264 425.606 206.121 426.819 210.073 426.825 L 278.113 426.825 C 310.268 426.825 336.435 400.425 336.435 367.993 L 336.435 269.938 Z M 297.555 269.938"
            fill="#ffc700"/>
        <path
            id="path_3"
            clip-path="url(#clip_path_3)"
            d="M 387.313 307.67 C 383.752 306.165 380.714 303.642 378.579 300.419 C 376.445 297.195 375.309 293.413 375.313 289.547 L 375.313 230.715 L 297.556 230.715 C 292.381 230.678 287.426 228.594 283.78 224.922 C 280.134 221.25 278.086 216.28 278.086 211.106 C 278.086 205.931 280.134 200.961 283.78 197.289 C 287.426 193.617 292.381 191.533 297.556 191.496 L 375.317 191.496 L 375.317 132.664 C 375.313 128.798 376.449 125.016 378.583 121.792 C 380.718 118.569 383.756 116.046 387.317 114.541 C 390.87 113.058 394.787 112.671 398.562 113.43 C 402.337 114.189 405.801 116.059 408.505 118.8 L 486.268 197.242 C 489.919 200.931 491.969 205.916 491.969 211.106 C 491.969 216.296 489.919 221.281 486.268 224.97 L 408.501 303.415 C 405.796 306.155 402.332 308.024 398.558 308.782 C 394.783 309.54 390.866 309.153 387.313 307.67 Z M 387.313 307.67"
            fill="#011a37"/>
        <path
            id="path_4"
            clip-path="url(#clip_path_4)"
            d="M 193.47 56.219 L 76.653 16.939 C 68.785 14.393 60.31 14.402 52.447 16.962 C 44.584 19.523 37.729 24.508 32.869 31.199 C 28.01 37.889 25.389 45.949 25.386 54.219 L 25.386 407.212 C 25.374 415.378 27.902 423.35 32.617 430.018 C 37.333 436.685 44.006 441.725 51.71 444.435 L 168.51 483.715 C 172.52 484.999 176.705 485.654 180.915 485.658 C 191.265 485.602 201.18 481.438 208.467 474.087 C 215.753 466.737 219.829 456.785 219.794 446.435 L 219.794 93.442 C 219.805 85.276 217.277 77.306 212.563 70.638 C 207.848 63.971 201.176 58.931 193.474 56.219 Z M 76.653 16.939"
            fill="#ddad00"/>
    </g>
</svg>
