<svg
    xmlns="http://www.w3.org/2000/svg"
    viewBox="0 0 36 36"
    id="vector">
    <defs>
        <clipPath id="clip_path">
            <path d="M 0 0 L 36 0 L 36 36 L 0 36 Z M 0 0"/>
        </clipPath>
        <clipPath id="clip_path_1">
            <path d="M 0 0 L 36 0 L 36 36 L 0 36 Z M 0 0"/>
        </clipPath>
        <clipPath id="clip_path_2">
            <path d="M 0 0 L 36 0 L 36 36 L 0 36 Z M 0 0"/>
        </clipPath>
        <clipPath id="clip_path_3">
            <path d="M 0 0 L 36 0 L 36 36 L 0 36 Z M 0 0"/>
        </clipPath>
        <clipPath id="clip_path_4">
            <path d="M 0 0 L 36 0 L 36 36 L 0 36 Z M 0 0"/>
        </clipPath>
        <clipPath id="clip_path_5">
            <path d="M 0 0 L 36 0 L 36 36 L 0 36 Z M 0 0"/>
        </clipPath>
        <clipPath id="clip_path_6">
            <path d="M 0 0 L 36 0 L 36 36 L 0 36 Z M 0 0"/>
        </clipPath>
        <clipPath id="clip_path_7">
            <path d="M 0 0 L 36 0 L 36 36 L 0 36 Z M 0 0"/>
        </clipPath>
        <clipPath id="clip_path_8">
            <path d="M 0 0 L 36 0 L 36 36 L 0 36 Z M 0 0"/>
        </clipPath>
        <clipPath id="clip_path_9">
            <path d="M 0 0 L 36 0 L 36 36 L 0 36 Z M 0 0"/>
        </clipPath>
        <clipPath id="clip_path_28">
            <path d="M 0 0 L 36 0 L 36 36 L 0 36 Z M 0 0"/>
        </clipPath>
        <clipPath id="clip_path_29">
            <path d="M 0 0 L 36 0 L 36 36 L 0 36 Z M 0 0"/>
        </clipPath>
        <clipPath id="clip_path_30">
            <path d="M 0 0 L 36 0 L 36 36 L 0 36 Z M 0 0"/>
        </clipPath>
        <clipPath id="clip_path_31">
            <path d="M 0 0 L 36 0 L 36 36 L 0 36 Z M 0 0"/>
        </clipPath>
        <clipPath id="clip_path_32">
            <path d="M 0 0 L 36 0 L 36 36 L 0 36 Z M 0 0"/>
        </clipPath>
        <clipPath id="clip_path_33">
            <path d="M 0 0 L 36 0 L 36 36 L 0 36 Z M 0 0"/>
        </clipPath>
        <clipPath id="clip_path_34">
            <path d="M 0 0 L 36 0 L 36 36 L 0 36 Z M 0 0"/>
        </clipPath>
        <clipPath id="clip_path_35">
            <path d="M 0 0 L 36 0 L 36 36 L 0 36 Z M 0 0"/>
        </clipPath>
        <clipPath id="clip_path_36">
            <path d="M 0 0 L 36 0 L 36 36 L 0 36 Z M 0 0"/>
        </clipPath>
        <clipPath id="clip_path_37">
            <path d="M 0 0 L 36 0 L 36 36 L 0 36 Z M 0 0"/>
        </clipPath>
        <clipPath id="clip_path_38">
            <path d="M 0 0 L 36 0 L 36 36 L 0 36 Z M 0 0"/>
        </clipPath>
        <clipPath id="clip_path_39">
            <path d="M 0 0 L 36 0 L 36 36 L 0 36 Z M 0 0"/>
        </clipPath>
        <clipPath id="clip_path_40">
            <path d="M 0 0 L 36 0 L 36 36 L 0 36 Z M 0 0"/>
        </clipPath>
        <clipPath id="clip_path_41">
            <path d="M 0 0 L 36 0 L 36 36 L 0 36 Z M 0 0"/>
        </clipPath>
        <clipPath id="clip_path_42">
            <path d="M 0 0 L 36 0 L 36 36 L 0 36 Z M 0 0"/>
        </clipPath>
        <clipPath id="clip_path_43">
            <path d="M 0 0 L 36 0 L 36 36 L 0 36 Z M 0 0"/>
        </clipPath>
        <clipPath id="clip_path_44">
            <path d="M 0 0 L 36 0 L 36 36 L 0 36 Z M 0 0"/>
        </clipPath>
        <clipPath id="clip_path_45">
            <path d="M 0 0 L 36 0 L 36 36 L 0 36 Z M 0 0"/>
        </clipPath>
        <clipPath id="clip_path_46">
            <path d="M 0 0 L 36 0 L 36 36 L 0 36 Z M 0 0"/>
        </clipPath>
        <clipPath id="clip_path_47">
            <path d="M 0 0 L 36 0 L 36 36 L 0 36 Z M 0 0"/>
        </clipPath>
        <clipPath id="clip_path_48">
            <path d="M 0 0 L 36 0 L 36 36 L 0 36 Z M 0 0"/>
        </clipPath>
        <clipPath id="clip_path_49">
            <path d="M 0 0 L 36 0 L 36 36 L 0 36 Z M 0 0"/>
        </clipPath>
        <clipPath id="clip_path_50">
            <path d="M 0 0 L 36 0 L 36 36 L 0 36 Z M 0 0"/>
        </clipPath>
        <clipPath id="clip_path_51">
            <path d="M 0 0 L 36 0 L 36 36 L 0 36 Z M 0 0"/>
        </clipPath>
        <clipPath id="clip_path_52">
            <path d="M 0 0 L 36 0 L 36 36 L 0 36 Z M 0 0"/>
        </clipPath>
        <clipPath id="clip_path_53">
            <path d="M 0 0 L 36 0 L 36 36 L 0 36 Z M 0 0"/>
        </clipPath>
        <clipPath id="clip_path_54">
            <path d="M 0 0 L 36 0 L 36 36 L 0 36 Z M 0 0"/>
        </clipPath>
        <clipPath id="clip_path_55">
            <path d="M 0 0 L 36 0 L 36 36 L 0 36 Z M 0 0"/>
        </clipPath>
        <clipPath id="clip_path_56">
            <path d="M 0 0 L 36 0 L 36 36 L 0 36 Z M 0 0"/>
        </clipPath>
        <clipPath id="clip_path_57">
            <path d="M 0 0 L 36 0 L 36 36 L 0 36 Z M 0 0"/>
        </clipPath>
        <clipPath id="clip_path_58">
            <path d="M 0 0 L 36 0 L 36 36 L 0 36 Z M 0 0"/>
        </clipPath>
        <clipPath id="clip_path_59">
            <path d="M 0 0 L 36 0 L 36 36 L 0 36 Z M 0 0"/>
        </clipPath>
        <clipPath id="clip_path_60">
            <path d="M 0 0 L 36 0 L 36 36 L 0 36 Z M 0 0"/>
        </clipPath>
    </defs>
    <g id="group">
        <path
            id="path"
            clip-path="url(#clip_path)"
            d="M 15.956 6.031 L 17.316 5.24 L 17.311 7.064 L 15.95 7.855 L 15.956 6.031 Z"
            fill="#c60024"/>
        <path
            id="path_1"
            clip-path="url(#clip_path_1)"
            d="M 17.316 5.24 L 14.819 3.798 L 13.039 0.7 C 12.885 0.433 12.682 0.226 12.479 0.109 C 12.276 -0.008 12.072 -0.037 11.917 0.052 L 10.556 0.843 C 10.245 1.02 10.243 1.598 10.552 2.133 L 12.795 6.033 L 15.95 7.855 L 15.956 6.031 L 15.956 6.031 L 17.316 5.24 Z"
            fill="#c60024"/>
        <path
            id="path_2"
            clip-path="url(#clip_path_2)"
            d="M 14.819 3.798 L 13.039 0.7 C 12.885 0.433 12.682 0.226 12.479 0.109 C 12.276 -0.008 12.072 -0.037 11.917 0.052 L 10.556 0.843 C 10.711 0.754 10.915 0.783 11.118 0.9 C 11.321 1.017 11.524 1.224 11.679 1.491 L 13.458 4.589 L 15.956 6.031 L 17.317 5.24 L 14.819 3.798 Z"
            fill="#022a37"/>
        <path
            id="path_3"
            clip-path="url(#clip_path_3)"
            d="M 11.118 0.9 C 11.321 1.017 11.524 1.223 11.679 1.491 L 13.458 4.589 L 15.956 6.031 L 15.951 7.855 L 12.795 6.033 L 10.552 2.133 C 10.244 1.598 10.245 1.02 10.556 0.843 C 10.711 0.754 10.915 0.782 11.118 0.9 Z"
            fill="#022a37"/>
        <path
            id="path_4"
            clip-path="url(#clip_path_4)"
            d="M 11.148 1.195 C 11 1.11 10.867 1.102 10.771 1.158 L 3.91 5.144 C 4.007 5.088 4.14 5.096 4.287 5.181 C 4.579 5.35 4.816 5.759 4.815 6.095 C 4.814 6.262 4.755 6.38 4.66 6.435 L 11.521 2.448 C 11.616 2.393 11.675 2.275 11.675 2.108 C 11.676 1.773 11.44 1.363 11.148 1.195 Z"
            fill="#ffc700"/>
        <path
            id="path_5"
            clip-path="url(#clip_path_5)"
            d="M 4.287 5.181 C 4.58 5.35 4.816 5.759 4.815 6.095 C 4.814 6.431 4.576 6.567 4.284 6.398 C 3.991 6.229 3.755 5.82 3.756 5.484 C 3.757 5.148 3.995 5.012 4.287 5.181 Z"
            fill="#e0e0e2"/>
        <path
            id="path_6"
            clip-path="url(#clip_path_6)"
            d="M 7.807 10.815 L 9.168 10.024 L 9.162 11.848 L 7.802 12.639 L 7.807 10.815 Z"
            fill="#c60024"/>
        <path
            id="path_7"
            clip-path="url(#clip_path_7)"
            d="M 9.168 10.024 L 6.67 8.582 L 4.89 5.484 C 4.736 5.217 4.533 5.01 4.33 4.893 C 4.127 4.776 3.923 4.747 3.768 4.836 L 2.407 5.627 L 2.407 5.627 C 2.096 5.804 2.095 6.382 2.403 6.917 L 4.646 10.817 L 7.802 12.639 L 7.807 10.815 L 5.309 9.373 L 7.807 10.815 L 9.168 10.024 Z"
            fill="#c60024"/>
        <path
            id="path_8"
            clip-path="url(#clip_path_8)"
            d="M 6.67 8.582 L 4.89 5.484 C 4.736 5.217 4.533 5.01 4.33 4.893 C 4.127 4.776 3.923 4.747 3.768 4.836 L 2.407 5.627 C 2.562 5.538 2.766 5.566 2.969 5.684 C 3.172 5.801 3.375 6.007 3.53 6.275 L 5.309 9.373 L 7.807 10.815 L 9.168 10.024 L 6.67 8.582 Z"
            fill="#022a37"/>
        <path
            id="path_9"
            clip-path="url(#clip_path_9)"
            d="M 2.969 5.684 C 3.172 5.801 3.375 6.007 3.53 6.275 L 5.309 9.373 L 7.807 10.815 L 7.802 12.639 L 4.646 10.817 L 2.403 6.917 C 2.095 6.382 2.096 5.804 2.407 5.627 C 2.562 5.538 2.766 5.566 2.969 5.684 Z"
            fill="#022a37"/>
        <path
            id="path_28"
            clip-path="url(#clip_path_28)"
            d="M 28.656 26.322 C 28.138 26.023 27.668 25.995 27.329 26.192 L 26.238 26.826 C 26.239 26.825 26.24 26.825 26.241 26.824 C 25.904 27.018 25.695 27.433 25.693 28.023 C 25.69 29.208 26.523 30.651 27.554 31.246 C 28.088 31.554 28.57 31.574 28.911 31.357 C 28.901 31.363 28.892 31.37 28.882 31.376 L 29.972 30.742 C 30.307 30.547 30.515 30.133 30.517 29.544 C 30.52 28.36 29.687 26.917 28.656 26.322 Z"
            fill="#57565c"/>
        <path
            id="path_29"
            clip-path="url(#clip_path_29)"
            d="M 28.656 26.322 C 28.138 26.023 27.668 25.995 27.329 26.192 L 26.238 26.826 C 26.577 26.629 27.047 26.657 27.566 26.956 C 28.597 27.551 29.429 28.994 29.426 30.178 C 29.424 30.767 29.217 31.181 28.882 31.376 L 29.972 30.742 C 30.307 30.547 30.515 30.133 30.517 29.544 C 30.52 28.36 29.687 26.917 28.656 26.322 Z"
            fill="#57565c"/>
        <path
            id="path_30"
            clip-path="url(#clip_path_30)"
            d="M 27.566 26.956 C 28.597 27.551 29.429 28.994 29.426 30.178 C 29.423 31.363 28.584 31.841 27.553 31.245 C 26.523 30.65 25.69 29.208 25.693 28.023 C 25.697 26.839 26.535 26.361 27.566 26.956 Z"
            fill="#3e3d43"/>
        <path
            id="path_31"
            clip-path="url(#clip_path_31)"
            d="M 27.563 28.082 C 28.052 28.365 28.448 29.05 28.446 29.612 C 28.444 30.175 28.046 30.402 27.557 30.119 C 27.067 29.837 26.672 29.152 26.673 28.589 C 26.675 28.027 27.073 27.8 27.563 28.082 Z"
            fill="#57565c"/>
        <path
            id="path_32"
            clip-path="url(#clip_path_32)"
            d="M 28.534 28.784 L 16.556 21.822 L 16.556 17.859 L 15.308 17.132 L 14.219 17.76 L 14.221 23.136 L 25.193 29.52 L 21.137 31.867 L 9.165 24.901 L 9.165 24.901 L 9.165 20.938 L 7.917 20.211 L 6.828 20.839 L 6.828 20.839 L 6.828 26.22 L 21.09 34.511 L 21.09 34.511 L 28.53 30.201 L 28.534 28.784 Z"
            fill="#d8d8da"/>
        <path
            id="path_33"
            clip-path="url(#clip_path_33)"
            d="M 26.416 28.813 L 26.412 30.23 L 14.221 23.136 L 14.219 17.76 L 15.478 18.487 L 15.478 22.456 L 26.416 28.813 Z"
            fill="#d8d8da"/>
        <path
            id="path_34"
            clip-path="url(#clip_path_34)"
            d="M 28.534 28.784 L 28.53 30.201 L 21.09 34.511 L 21.094 33.094 L 28.534 28.784 Z"
            fill="#c6c5cb"/>
        <path
            id="path_35"
            clip-path="url(#clip_path_35)"
            d="M 16.556 21.822 L 28.534 28.784 L 21.094 33.094 L 6.828 24.803 L 7.914 24.174 L 21.137 31.867 L 26.416 28.813 L 15.478 22.456 L 16.556 21.822 Z"
            fill="#e0e0e2"/>
        <path
            id="path_36"
            clip-path="url(#clip_path_36)"
            d="M 8.087 21.566 L 9.165 20.938 L 9.165 24.901 L 8.087 25.535 L 8.087 21.566 Z"
            fill="#acabb1"/>
        <path
            id="path_37"
            clip-path="url(#clip_path_37)"
            d="M 6.828 20.839 L 7.917 20.211 L 9.165 20.938 L 8.087 21.566 L 6.828 20.839 Z"
            fill="#57565c"/>
        <path
            id="path_38"
            clip-path="url(#clip_path_38)"
            d="M 15.478 18.487 L 16.556 17.859 L 16.556 21.822 L 15.478 22.456 L 15.478 18.487 Z"
            fill="#acabb1"/>
        <path
            id="path_39"
            clip-path="url(#clip_path_39)"
            d="M 14.219 17.76 L 15.308 17.132 L 16.556 17.859 L 15.478 18.487 L 14.219 17.76 Z"
            fill="#57565c"/>
        <path
            id="path_40"
            clip-path="url(#clip_path_40)"
            d="M 8.087 25.534 L 8.087 21.566 L 6.828 20.839 L 6.828 26.22 L 21.09 34.511 L 21.094 33.094 L 8.087 25.534 Z"
            fill="#d8d8da"/>
        <path
            id="path_41"
            clip-path="url(#clip_path_41)"
            d="M 15.4 5.333 L 6.828 10.314 L 6.828 21.22 L 21.724 29.838 L 30.296 24.856 L 32.398 15.146 L 15.4 5.333 Z"
            fill="#d8d8da"/>
        <path
            id="path_42"
            clip-path="url(#clip_path_42)"
            d="M 6.828 10.314 L 15.4 5.333 L 32.398 15.146 L 23.826 20.128 L 6.828 10.314 Z"
            fill="#c6c5cb"/>
        <path
            id="path_43"
            clip-path="url(#clip_path_43)"
            d="M 32.398 15.146 L 30.296 24.856 L 15.4 16.238 L 15.4 5.333 L 32.398 15.146 Z"
            fill="#c6c5cb"/>
        <path
            id="path_44"
            clip-path="url(#clip_path_44)"
            d="M 6.828 21.22 L 15.4 16.238 L 15.4 5.333 L 6.828 10.314 L 6.828 21.22 Z"
            fill="#acabb1"/>
        <path
            id="path_45"
            clip-path="url(#clip_path_45)"
            d="M 23.826 20.128 L 32.398 15.146 L 30.296 24.856 L 21.724 29.838 L 23.826 20.128 Z"
            fill="#acabb1"/>
        <path
            id="path_46"
            clip-path="url(#clip_path_46)"
            d="M 23.826 20.128 L 21.724 29.838 L 6.828 21.22 L 6.828 10.314 L 23.826 20.128 Z"
            fill="#d8d8da"/>
        <path
            id="path_47"
            clip-path="url(#clip_path_47)"
            d="M 15.466 4.166 L 5.892 9.713 L 5.892 11.537 L 24.247 22.208 L 33.822 16.661 L 33.827 14.837 L 15.466 4.166 Z M 24.307 18.805 L 10.189 10.583 L 15.406 7.568 L 29.525 15.79 L 24.307 18.805 Z"
            fill="#a50020"/>
        <path
            id="path_48"
            clip-path="url(#clip_path_48)"
            d="M 15.411 5.745 L 15.406 7.568 L 8.612 11.5 L 8.617 9.676 L 15.411 5.745 Z"
            fill="#a50020"/>
        <path
            id="path_49"
            clip-path="url(#clip_path_49)"
            d="M 31.102 14.874 L 31.097 16.698 L 15.406 7.568 L 15.411 5.745 L 31.102 14.874 Z"
            fill="#c60024"/>
        <path
            id="path_50"
            clip-path="url(#clip_path_50)"
            d="M 24.253 20.384 L 24.247 22.208 L 5.892 11.537 L 5.892 9.713 L 24.253 20.384 Z"
            fill="#022a37"/>
        <path
            id="path_51"
            clip-path="url(#clip_path_51)"
            d="M 33.827 14.837 L 33.822 16.661 L 24.247 22.208 L 24.253 20.384 L 33.827 14.837 Z"
            fill="#002a37"/>
        <path
            id="path_52"
            clip-path="url(#clip_path_52)"
            d="M 15.466 4.166 L 33.827 14.837 L 29.04 17.61 L 24.253 20.384 L 5.892 9.713 L 15.466 4.166 Z M 24.307 18.805 L 31.102 14.874 L 27.179 12.592 L 23.256 10.309 L 15.411 5.745 L 12.338 7.523 L 8.617 9.676 L 24.307 18.805 Z"
            fill="#022a37"/>
        <path
            id="path_53"
            clip-path="url(#clip_path_53)"
            d="M 7.49 23.051 C 6.971 22.752 6.501 22.724 6.162 22.921 L 5.071 23.555 C 5.072 23.555 5.073 23.554 5.075 23.554 C 4.738 23.748 4.528 24.162 4.527 24.753 C 4.523 25.937 5.356 27.38 6.387 27.975 C 6.921 28.283 7.402 28.303 7.744 28.087 C 7.734 28.093 7.725 28.099 7.715 28.105 L 8.806 27.471 C 9.141 27.276 9.349 26.862 9.35 26.274 C 9.354 25.089 8.521 23.646 7.49 23.051 Z"
            fill="#57565c"/>
        <path
            id="path_54"
            clip-path="url(#clip_path_54)"
            d="M 7.49 23.051 C 6.971 22.752 6.501 22.724 6.162 22.921 L 5.071 23.555 C 5.411 23.358 5.881 23.386 6.399 23.685 C 7.43 24.28 8.263 25.723 8.259 26.908 C 8.258 27.496 8.05 27.91 7.715 28.105 L 8.806 27.471 C 9.141 27.276 9.349 26.862 9.35 26.274 C 9.354 25.089 8.521 23.646 7.49 23.051 Z"
            fill="#57565c"/>
        <path
            id="path_55"
            clip-path="url(#clip_path_55)"
            d="M 6.399 23.685 C 7.43 24.28 8.263 25.723 8.26 26.908 C 8.256 28.092 7.418 28.57 6.387 27.975 C 5.356 27.38 4.523 25.937 4.527 24.753 C 4.53 23.568 5.369 23.09 6.399 23.685 Z"
            fill="#3e3d43"/>
        <path
            id="path_56"
            clip-path="url(#clip_path_56)"
            d="M 6.396 24.811 C 6.886 25.094 7.281 25.779 7.28 26.342 C 7.278 26.904 6.88 27.131 6.39 26.848 C 5.901 26.566 5.505 25.881 5.507 25.318 C 5.509 24.756 5.907 24.529 6.396 24.811 Z"
            fill="#57565c"/>
        <path
            id="path_57"
            clip-path="url(#clip_path_57)"
            d="M 20.869 30.82 C 20.35 30.521 19.88 30.493 19.541 30.69 L 18.45 31.324 C 18.451 31.324 18.452 31.323 18.454 31.323 C 18.117 31.517 17.908 31.931 17.906 32.522 C 17.902 33.706 18.735 35.149 19.766 35.744 C 20.3 36.052 20.781 36.072 21.122 35.856 C 21.113 35.862 21.104 35.868 21.094 35.874 L 22.185 35.24 C 22.52 35.045 22.728 34.631 22.729 34.043 C 22.733 32.858 21.9 31.416 20.869 30.82 Z"
            fill="#57565c"/>
        <path
            id="path_58"
            clip-path="url(#clip_path_58)"
            d="M 20.869 30.82 C 20.35 30.521 19.88 30.493 19.541 30.69 L 18.45 31.324 C 18.79 31.127 19.26 31.155 19.778 31.454 C 20.809 32.05 21.642 33.492 21.638 34.677 C 21.637 35.265 21.429 35.679 21.094 35.874 L 22.185 35.24 C 22.52 35.045 22.728 34.631 22.729 34.043 C 22.733 32.858 21.9 31.416 20.869 30.82 Z"
            fill="#57565c"/>
        <path
            id="path_59"
            clip-path="url(#clip_path_59)"
            d="M 19.778 31.454 C 20.809 32.05 21.642 33.492 21.638 34.677 C 21.635 35.861 20.797 36.339 19.766 35.744 C 18.735 35.149 17.902 33.706 17.906 32.522 C 17.909 31.337 18.747 30.859 19.778 31.454 Z"
            fill="#3e3d43"/>
        <path
            id="path_60"
            clip-path="url(#clip_path_60)"
            d="M 19.775 32.581 C 20.264 32.863 20.66 33.548 20.658 34.111 C 20.657 34.673 20.259 34.9 19.769 34.618 C 19.28 34.335 18.884 33.65 18.886 33.088 C 18.887 32.525 19.286 32.298 19.775 32.581 Z"
            fill="#57565c"/>
    </g>
</svg>
