<svg
    xmlns="http://www.w3.org/2000/svg"
    viewBox="0 0 36 36"
    id="vector">
    <defs>
        <clipPath id="clip_group">
            <path d="M 0 0 L 36 0 L 36 36 L 0 36 Z M 0 0"/>
        </clipPath>
        <clipPath id="clip_path">
            <path d="M 0 0 L 36 0 L 36 36 L 0 36 Z M 0 0"/>
        </clipPath>
        <clipPath id="clip_path_1">
            <path d="M 0 0 L 36 0 L 36 36 L 0 36 Z M 0 0"/>
        </clipPath>
        <clipPath id="clip_path_2">
            <path d="M 0 0 L 36 0 L 36 36 L 0 36 Z M 0 0"/>
        </clipPath>
        <clipPath id="clip_path_3">
            <path d="M 0 0 L 36 0 L 36 36 L 0 36 Z M 0 0"/>
        </clipPath>
        <clipPath id="clip_path_4">
            <path d="M 0 0 L 36 0 L 36 36 L 0 36 Z M 0 0"/>
        </clipPath>
        <clipPath id="clip_path_5">
            <path d="M 0 0 L 36 0 L 36 36 L 0 36 Z M 0 0"/>
        </clipPath>
        <clipPath id="clip_path_6">
            <path d="M 0 0 L 36 0 L 36 36 L 0 36 Z M 0 0"/>
        </clipPath>
        <clipPath id="clip_path_7">
            <path d="M 0 0 L 36 0 L 36 36 L 0 36 Z M 0 0"/>
        </clipPath>
        <clipPath id="clip_path_8">
            <path d="M 0 0 L 36 0 L 36 36 L 0 36 Z M 0 0"/>
        </clipPath>
        <clipPath id="clip_path_9">
            <path d="M 0 0 L 36 0 L 36 36 L 0 36 Z M 0 0"/>
        </clipPath>
    </defs>
    <g id="group_1">
        <g
            id="group"
            clip-path="url(#clip_group)">
            <path
                id="path"
                clip-path="url(#clip_path)"
                d="M 36 18 C 36 27.934 27.934 36 18 36 C 8.066 36 0 27.934 0 18 C 0 8.066 8.066 0 18 0 C 27.934 0 36 8.066 36 18 Z"
                fill="#ffc700"/>
            <path
                id="path_1"
                clip-path="url(#clip_path_1)"
                d="M 18 18 M 3.412 18 C 3.404 14.915 4.375 11.905 6.185 9.406 C 7.994 6.907 10.551 5.045 13.485 4.09 C 16.419 3.135 19.581 3.135 22.515 4.09 C 25.449 5.045 28.005 6.907 29.815 9.406 C 31.625 11.905 32.596 14.915 32.588 18 C 32.596 21.085 31.625 24.095 29.815 26.594 C 28.005 29.093 25.449 30.955 22.515 31.91 C 19.581 32.865 16.419 32.865 13.485 31.91 C 10.551 30.955 7.994 29.093 6.185 26.594 C 4.375 24.095 3.404 21.085 3.412 18"
                fill="#ffffff"/>
            <path
                id="path_2"
                clip-path="url(#clip_path_2)"
                d="M 11.273 23.398 C 10.74 23.993 10.74 24.958 11.273 25.553 C 11.807 26.149 12.671 26.149 13.204 25.553 L 18.379 19.776 L 16.449 17.621 L 11.273 23.398 Z"
                fill="#181818"/>
            <path
                id="path_3"
                clip-path="url(#clip_path_3)"
                d="M 17.986 16.866 L 10.309 24.544 C 9.976 24.877 9.976 25.417 10.309 25.75 C 10.475 25.917 10.694 26 10.912 26 C 11.13 26 11.349 25.917 11.515 25.75 L 19.193 18.073 L 17.986 16.866 Z"
                fill="#ff000d"/>
            <path
                id="path_4"
                clip-path="url(#clip_path_4)"
                d="M 19.493 10.258 C 19.513 9.505 18.918 8.878 18.165 8.858 C 17.411 8.838 16.784 9.433 16.765 10.187 L 16.765 19 L 19.193 19 L 19.493 10.258 Z"
                fill="#181818"/>
            <path
                id="path_5"
                clip-path="url(#clip_path_5)"
                d="M 18 20.133 C 16.824 20.133 15.867 19.176 15.867 18 C 15.867 16.824 16.824 15.867 18 15.867 C 19.176 15.867 20.133 16.824 20.133 18 C 20.133 19.176 19.176 20.133 18 20.133 Z"
                fill="#524e4d"/>
            <path
                id="path_6"
                clip-path="url(#clip_path_6)"
                d="M 8.104 18.853 L 6.825 18.853 C 6.354 18.853 5.972 18.471 5.972 18 C 5.972 17.529 6.354 17.147 6.825 17.147 L 8.104 17.147 C 8.575 17.147 8.957 17.529 8.957 18 C 8.957 18.471 8.575 18.853 8.104 18.853 Z"
                fill="#7a7674"/>
            <path
                id="path_7"
                clip-path="url(#clip_path_7)"
                d="M 18 8.957 C 17.529 8.957 17.147 8.575 17.147 8.104 L 17.147 6.825 C 17.147 6.354 17.529 5.972 18 5.972 C 18.471 5.972 18.853 6.354 18.853 6.825 L 18.853 8.104 C 18.853 8.575 18.471 8.957 18 8.957 Z"
                fill="#7a7674"/>
            <path
                id="path_8"
                clip-path="url(#clip_path_8)"
                d="M 29.175 18.853 L 27.896 18.853 C 27.425 18.853 27.043 18.471 27.043 18 C 27.043 17.529 27.425 17.147 27.896 17.147 L 29.175 17.147 C 29.646 17.147 30.028 17.529 30.028 18 C 30.028 18.471 29.646 18.853 29.175 18.853 Z"
                fill="#7a7674"/>
            <path
                id="path_9"
                clip-path="url(#clip_path_9)"
                d="M 18 30.028 C 17.529 30.028 17.147 29.646 17.147 29.175 L 17.147 27.896 C 17.147 27.425 17.529 27.043 18 27.043 C 18.471 27.043 18.853 27.425 18.853 27.896 L 18.853 29.175 C 18.853 29.646 18.471 30.028 18 30.028 Z"
                fill="#7a7674"/>
        </g>
    </g>
</svg>
