<svg
    xmlns="http://www.w3.org/2000/svg"
    viewBox="0 0 36 36"
    id="vector">
    <defs>
        <clipPath id="clip_group_8">
            <path d="M 0 0 L 36 0 L 36 36 L 0 36 L 0 0 Z"/>
        </clipPath>
    </defs>
    <g id="group_9">
        <g clip-path="url(#clip_group_8)">
            <g
                id="group_8"
                transform="translate(-5.2 1.28)">
                <path
                    id="path_2"
                    d="M 40.068 11.567 L 19.139 0 L 5.946 7.286 L 5.946 21.63 L 26.875 33.2 L 40.068 25.914 Z"
                    fill="#feda44"/>
                <g
                    id="group"
                    transform="translate(-285.809 -166.833)">
                    <path
                        id="path_3"
                        d="M 325.876 178.4 L 325.876 192.744 L 312.683 200.03 L 312.683 185.686 Z"
                        fill="#ddb201"/>
                </g>
                <g
                    id="group_2"
                    transform="translate(-373.162 -327.115)">
                    <path
                        id="path_4"
                        d="M 406.731 352.833 L 406.731 355.633 L 406.856 355.564 L 406.856 352.764 L 406.731 352.833 M 407.013 352.678 L 407.013 355.478 L 407.327 355.306 L 407.327 352.506 L 407.013 352.678 M 407.562 352.378 L 407.562 355.178 L 407.75 355.078 L 407.75 352.278 L 407.562 352.378 M 407.862 352.215 L 407.862 355.015 L 407.988 354.946 L 407.988 352.146 L 407.862 352.215 M 408.144 352.06 L 408.144 354.86 L 408.458 354.688 L 408.458 351.888 L 408.144 352.06 M 408.693 351.76 L 408.693 354.56 L 408.881 354.46 L 408.881 351.66 L 408.693 351.76 M 408.993 351.596 L 408.993 354.396 L 409.118 354.327 L 409.118 351.527 L 408.993 351.596 M 409.275 351.441 L 409.275 354.241 L 409.589 354.069 L 409.589 351.269 L 409.275 351.441 M 409.824 351.141 L 409.824 353.941 L 410.012 353.841 L 410.012 351.041 L 409.824 351.141 M 410.124 350.978 L 410.124 353.778 L 410.249 353.709 L 410.249 350.909 L 410.124 350.978 M 410.406 350.823 L 410.406 353.623 L 410.72 353.451 L 410.72 350.651 L 410.406 350.823 M 410.955 350.523 L 410.955 353.323 L 411.143 353.223 L 411.143 350.423 L 410.955 350.523 M 411.255 350.36 L 411.255 353.16 L 411.38 353.091 L 411.38 350.291 L 411.255 350.36 M 411.537 350.205 L 411.537 353 L 411.851 352.828 L 411.851 350.028 L 411.537 350.2 M 412.086 349.9 L 412.086 352.7 L 412.274 352.6 L 412.274 349.8 L 412.086 349.9 M 406.439 353 L 406.439 355.8 L 406.627 355.7 L 406.627 352.9 L 406.439 353"
                        fill="#57565c"/>
                </g>
                <g
                    id="group_3"
                    transform="translate(0 -105.086)">
                    <path
                        id="path_8"
                        d="M 26.874 123.939 L 26.874 138.283 L 5.946 126.716 L 5.946 112.372 Z"
                        fill="#fece00"/>
                </g>
                <g
                    id="group_6"
                    transform="translate(5.946 0)">
                    <g
                        id="group_4"
                        transform="translate(-5.946 0)">
                        <path
                            id="path_9"
                            d="M 40.068 11.567 L 26.874 18.853 L 5.946 7.286 L 19.139 0 Z"
                            fill="#feda44"/>
                    </g>
                    <g
                        id="group_5"
                        transform="translate(-359.878 -206.953)">
                        <path
                            id="path_10"
                            d="M 389.012 221.3 L 389.012 225.977 L 385.795 227.753 L 385.795 223.076 Z"
                            fill="#feda44"/>
                    </g>
                </g>
                <g
                    id="group_7"
                    transform="translate(-69.43 -38.965)">
                    <path
                        id="path_11"
                        d="M 104.509 53.313 L 83.677 41.666 L 80.46 43.44 L 101.282 55.072 Z"
                        fill="#ffeb9a"/>
                </g>
            </g>
        </g>
    </g>
</svg>
