<svg
    xmlns="http://www.w3.org/2000/svg"
    viewBox="0 0 36 36"
    id="vector">
    <defs>
        <clipPath id="clip_path_10">
            <path d="M 0 0 L 36 0 L 36 36 L 0 36 Z M 0 0"/>
        </clipPath>
        <clipPath id="clip_path_11">
            <path d="M 0 0 L 36 0 L 36 36 L 0 36 Z M 0 0"/>
        </clipPath>
        <clipPath id="clip_path_12">
            <path d="M 0 0 L 36 0 L 36 36 L 0 36 Z M 0 0"/>
        </clipPath>
    </defs>
    <g id="group_1">
        <path
            id="path_10"
            clip-path="url(#clip_path_10)"
            d="M 22.141 12.392 C 22.141 12.106 21.911 11.874 21.628 11.874 L 14.372 11.874 C 14.089 11.874 13.859 12.106 13.859 12.392 C 13.859 12.678 14.089 12.909 14.372 12.909 L 16.448 12.909 C 17.686 12.911 18.751 13.79 18.997 15.012 L 14.372 15.012 C 14.089 15.012 13.859 15.243 13.859 15.529 C 13.859 15.815 14.089 16.047 14.372 16.047 L 18.997 16.047 C 18.751 17.268 17.686 18.147 16.448 18.149 L 14.372 18.149 C 14.162 18.149 13.973 18.278 13.895 18.475 C 13.818 18.672 13.867 18.897 14.02 19.042 L 19.209 23.984 C 19.415 24.18 19.74 24.171 19.934 23.963 C 20.129 23.756 20.12 23.428 19.914 23.232 L 15.663 19.184 L 16.448 19.184 C 18.252 19.181 19.78 17.845 20.038 16.046 L 21.628 16.046 C 21.911 16.046 22.141 15.815 22.141 15.529 C 22.141 15.243 21.911 15.011 21.628 15.011 L 20.038 15.011 C 19.924 14.211 19.549 13.472 18.973 12.909 L 21.628 12.909 C 21.911 12.909 22.141 12.678 22.141 12.392 L 22.141 12.392 Z"
            fill="#1177cc"/>
        <path
            id="path_11"
            clip-path="url(#clip_path_11)"
            d="M 8.598 29.953 C 8.633 30.157 8.786 30.321 8.986 30.368 C 9.186 30.416 9.395 30.338 9.517 30.172 L 10.617 28.667 C 12.788 30.193 15.372 31.008 18.019 31 C 25.177 31 31 25.131 31 17.917 C 31.003 16.186 30.664 14.473 30.001 12.876 C 29.931 12.704 29.775 12.583 29.592 12.558 C 29.409 12.534 29.227 12.611 29.116 12.759 C 29.005 12.907 28.981 13.105 29.054 13.276 C 29.664 14.746 29.976 16.323 29.973 17.917 C 29.973 22.147 27.799 25.876 24.517 28.026 C 22.645 29.252 20.413 29.965 18.019 29.965 C 15.591 29.973 13.221 29.229 11.227 27.833 L 12.853 25.609 C 12.974 25.442 12.986 25.218 12.882 25.04 C 12.777 24.861 12.577 24.762 12.373 24.789 L 8.344 25.316 C 8.205 25.335 8.079 25.409 7.996 25.523 C 7.913 25.636 7.88 25.779 7.904 25.918 L 8.598 29.953 Z"
            fill="#1177cc"/>
        <path
            id="path_12"
            clip-path="url(#clip_path_12)"
            d="M 17.981 6.035 C 20.409 6.027 22.779 6.771 24.773 8.167 L 23.147 10.391 C 23.032 10.548 23.015 10.757 23.102 10.931 C 23.19 11.105 23.367 11.215 23.56 11.215 C 23.583 11.215 23.605 11.214 23.627 11.211 L 27.656 10.684 C 27.795 10.665 27.92 10.591 28.003 10.477 C 28.086 10.364 28.12 10.221 28.096 10.082 L 27.402 6.047 C 27.367 5.843 27.215 5.679 27.014 5.632 C 26.814 5.584 26.605 5.662 26.483 5.828 L 25.383 7.333 C 23.213 5.807 20.628 4.992 17.981 5 C 10.823 5 5 10.869 5 18.083 C 4.997 19.814 5.336 21.527 5.999 23.124 C 6.069 23.296 6.225 23.417 6.408 23.441 C 6.591 23.466 6.773 23.389 6.884 23.241 C 6.995 23.093 7.019 22.895 6.946 22.724 C 6.336 21.254 6.024 19.677 6.027 18.083 C 6.027 11.44 11.39 6.035 17.981 6.035 L 17.981 6.035 Z"
            fill="#1177cc"/>
    </g>
</svg>
