<svg
    xmlns="http://www.w3.org/2000/svg"
    viewBox="0 0 1100 800"
    id="vector">
    <defs>
        <clipPath id="clip_group">
            <path d="M 0 0 L 1100 0 L 1100 800 L 0 800 Z M 0 0"/>
        </clipPath>
        <clipPath id="clip_path">
            <path d="M 0 0 L 0 800 L 1100 800 L 1100 0 L 0 0 Z M 0 0"/>
        </clipPath>
        <clipPath id="clip_path_1">
            <path d="M 0 0 L 0 800 L 1100 800 L 1100 0 L 0 0 Z M 0 0"/>
        </clipPath>
        <clipPath id="clip_path_2">
            <path d="M 0 0 L 0 800 L 1100 800 L 1100 0 L 0 0 Z M 0 0"/>
        </clipPath>
        <clipPath id="clip_path_3">
            <path d="M 0 0 L 0 800 L 1100 800 L 1100 0 L 0 0 Z M 0 0"/>
        </clipPath>
        <clipPath id="clip_path_4">
            <path d="M 0 0 L 0 800 L 1100 800 L 1100 0 L 0 0 Z M 0 0"/>
        </clipPath>
        <clipPath id="clip_path_5">
            <path d="M 0 0 L 0 800 L 1100 800 L 1100 0 L 0 0 Z M 0 0"/>
        </clipPath>
        <clipPath id="clip_path_6">
            <path d="M 0 0 L 0 800 L 1100 800 L 1100 0 L 0 0 Z M 0 0"/>
        </clipPath>
        <clipPath id="clip_path_7">
            <path d="M 0 0 L 0 800 L 1100 800 L 1100 0 L 0 0 Z M 0 0"/>
        </clipPath>
        <clipPath id="clip_path_8">
            <path d="M 0 0 L 0 800 L 1100 800 L 1100 0 L 0 0 Z M 0 0"/>
        </clipPath>
        <clipPath id="clip_path_9">
            <path d="M 0 0 L 0 800 L 1100 800 L 1100 0 L 0 0 Z M 0 0"/>
        </clipPath>
        <clipPath id="clip_path_28">
            <path d="M 0 0 L 0 800 L 1100 800 L 1100 0 L 0 0 Z M 0 0"/>
        </clipPath>
        <clipPath id="clip_path_29">
            <path d="M 0 0 L 0 800 L 1100 800 L 1100 0 L 0 0 Z M 0 0"/>
        </clipPath>
        <clipPath id="clip_path_30">
            <path d="M 0 0 L 0 800 L 1100 800 L 1100 0 L 0 0 Z M 0 0"/>
        </clipPath>
        <clipPath id="clip_path_31">
            <path d="M 0 0 L 0 800 L 1100 800 L 1100 0 L 0 0 Z M 0 0"/>
        </clipPath>
        <clipPath id="clip_path_32">
            <path d="M 0 0 L 0 800 L 1100 800 L 1100 0 L 0 0 Z M 0 0"/>
        </clipPath>
        <clipPath id="clip_path_33">
            <path d="M 0 0 L 0 800 L 1100 800 L 1100 0 L 0 0 Z M 0 0"/>
        </clipPath>
        <clipPath id="clip_path_34">
            <path d="M 0 0 L 0 800 L 1100 800 L 1100 0 L 0 0 Z M 0 0"/>
        </clipPath>
        <clipPath id="clip_path_35">
            <path d="M 0 0 L 0 800 L 1100 800 L 1100 0 L 0 0 Z M 0 0"/>
        </clipPath>
        <clipPath id="clip_path_36">
            <path d="M 0 0 L 0 800 L 1100 800 L 1100 0 L 0 0 Z M 0 0"/>
        </clipPath>
        <clipPath id="clip_path_37">
            <path d="M 0 0 L 0 800 L 1100 800 L 1100 0 L 0 0 Z M 0 0"/>
        </clipPath>
        <clipPath id="clip_path_38">
            <path d="M 0 0 L 0 800 L 1100 800 L 1100 0 L 0 0 Z M 0 0"/>
        </clipPath>
        <clipPath id="clip_path_39">
            <path d="M 0 0 L 0 800 L 1100 800 L 1100 0 L 0 0 Z M 0 0"/>
        </clipPath>
        <clipPath id="clip_path_40">
            <path d="M 0 0 L 0 800 L 1100 800 L 1100 0 L 0 0 Z M 0 0"/>
        </clipPath>
        <clipPath id="clip_path_41">
            <path d="M 0 0 L 0 800 L 1100 800 L 1100 0 L 0 0 Z M 0 0"/>
        </clipPath>
        <clipPath id="clip_path_42">
            <path d="M 0 0 L 0 800 L 1100 800 L 1100 0 L 0 0 Z M 0 0"/>
        </clipPath>
        <clipPath id="clip_path_43">
            <path d="M 0 0 L 0 800 L 1100 800 L 1100 0 L 0 0 Z M 0 0"/>
        </clipPath>
        <clipPath id="clip_path_44">
            <path d="M 0 0 L 0 800 L 1100 800 L 1100 0 L 0 0 Z M 0 0"/>
        </clipPath>
        <clipPath id="clip_path_45">
            <path d="M 0 0 L 0 800 L 1100 800 L 1100 0 L 0 0 Z M 0 0"/>
        </clipPath>
        <clipPath id="clip_path_46">
            <path d="M 0 0 L 0 800 L 1100 800 L 1100 0 L 0 0 Z M 0 0"/>
        </clipPath>
        <clipPath id="clip_path_47">
            <path d="M 0 0 L 0 800 L 1100 800 L 1100 0 L 0 0 Z M 0 0"/>
        </clipPath>
        <clipPath id="clip_path_48">
            <path d="M 0 0 L 0 800 L 1100 800 L 1100 0 L 0 0 Z M 0 0"/>
        </clipPath>
        <clipPath id="clip_path_49">
            <path d="M 0 0 L 0 800 L 1100 800 L 1100 0 L 0 0 Z M 0 0"/>
        </clipPath>
        <clipPath id="clip_path_50">
            <path d="M 0 0 L 0 800 L 1100 800 L 1100 0 L 0 0 Z M 0 0"/>
        </clipPath>
        <clipPath id="clip_path_51">
            <path d="M 0 0 L 0 800 L 1100 800 L 1100 0 L 0 0 Z M 0 0"/>
        </clipPath>
        <clipPath id="clip_path_52">
            <path d="M 0 0 L 0 800 L 1100 800 L 1100 0 L 0 0 Z M 0 0"/>
        </clipPath>
        <clipPath id="clip_path_53">
            <path d="M 0 0 L 0 800 L 1100 800 L 1100 0 L 0 0 Z M 0 0"/>
        </clipPath>
        <clipPath id="clip_path_54">
            <path d="M 0 0 L 0 800 L 1100 800 L 1100 0 L 0 0 Z M 0 0"/>
        </clipPath>
        <clipPath id="clip_path_55">
            <path d="M 0 0 L 0 800 L 1100 800 L 1100 0 L 0 0 Z M 0 0"/>
        </clipPath>
        <clipPath id="clip_path_56">
            <path d="M 0 0 L 0 800 L 1100 800 L 1100 0 L 0 0 Z M 0 0"/>
        </clipPath>
        <clipPath id="clip_path_57">
            <path d="M 0 0 L 0 800 L 1100 800 L 1100 0 L 0 0 Z M 0 0"/>
        </clipPath>
        <clipPath id="clip_path_58">
            <path d="M 0 0 L 0 800 L 1100 800 L 1100 0 L 0 0 Z M 0 0"/>
        </clipPath>
        <clipPath id="clip_path_59">
            <path d="M 0 0 L 0 800 L 1100 800 L 1100 0 L 0 0 Z M 0 0"/>
        </clipPath>
        <clipPath id="clip_path_60">
            <path d="M 0 0 L 0 800 L 1100 800 L 1100 0 L 0 0 Z M 0 0"/>
        </clipPath>
        <clipPath id="clip_path_63">
            <path d="M 0 0 L 0 800 L 1100 800 L 1100 0 L 0 0 Z M 0 0"/>
        </clipPath>
        <clipPath id="clip_path_64">
            <path d="M 0 0 L 0 800 L 1100 800 L 1100 0 L 0 0 Z M 0 0"/>
        </clipPath>
        <clipPath id="clip_path_65">
            <path d="M 0 0 L 0 800 L 1100 800 L 1100 0 L 0 0 Z M 0 0"/>
        </clipPath>
        <clipPath id="clip_path_66">
            <path d="M 0 0 L 0 800 L 1100 800 L 1100 0 L 0 0 Z M 0 0"/>
        </clipPath>
        <clipPath id="clip_path_67">
            <path d="M 0 0 L 0 800 L 1100 800 L 1100 0 L 0 0 Z M 0 0"/>
        </clipPath>
        <clipPath id="clip_path_68">
            <path d="M 0 0 L 0 800 L 1100 800 L 1100 0 L 0 0 Z M 0 0"/>
        </clipPath>
        <clipPath id="clip_path_69">
            <path d="M 0 0 L 0 800 L 1100 800 L 1100 0 L 0 0 Z M 0 0"/>
        </clipPath>
        <clipPath id="clip_path_70">
            <path d="M 0 0 L 0 800 L 1100 800 L 1100 0 L 0 0 Z M 0 0"/>
        </clipPath>
        <clipPath id="clip_path_71">
            <path d="M 0 0 L 0 800 L 1100 800 L 1100 0 L 0 0 Z M 0 0"/>
        </clipPath>
        <clipPath id="clip_path_72">
            <path d="M 0 0 L 0 800 L 1100 800 L 1100 0 L 0 0 Z M 0 0"/>
        </clipPath>
        <clipPath id="clip_path_73">
            <path d="M 0 0 L 0 800 L 1100 800 L 1100 0 L 0 0 Z M 0 0"/>
        </clipPath>
        <clipPath id="clip_path_74">
            <path d="M 0 0 L 0 800 L 1100 800 L 1100 0 L 0 0 Z M 0 0"/>
        </clipPath>
        <clipPath id="clip_path_75">
            <path d="M 0 0 L 0 800 L 1100 800 L 1100 0 L 0 0 Z M 0 0"/>
        </clipPath>
        <clipPath id="clip_path_76">
            <path d="M 0 0 L 0 800 L 1100 800 L 1100 0 L 0 0 Z M 0 0"/>
        </clipPath>
        <clipPath id="clip_path_77">
            <path d="M 0 0 L 0 800 L 1100 800 L 1100 0 L 0 0 Z M 0 0"/>
        </clipPath>
        <clipPath id="clip_path_78">
            <path d="M 0 0 L 0 800 L 1100 800 L 1100 0 L 0 0 Z M 0 0"/>
        </clipPath>
        <clipPath id="clip_path_79">
            <path d="M 0 0 L 0 800 L 1100 800 L 1100 0 L 0 0 Z M 0 0"/>
        </clipPath>
        <clipPath id="clip_path_80">
            <path d="M 0 0 L 0 800 L 1100 800 L 1100 0 L 0 0 Z M 0 0"/>
        </clipPath>
        <clipPath id="clip_path_81">
            <path d="M 0 0 L 0 800 L 1100 800 L 1100 0 L 0 0 Z M 0 0"/>
        </clipPath>
        <clipPath id="clip_path_82">
            <path d="M 0 0 L 0 800 L 1100 800 L 1100 0 L 0 0 Z M 0 0"/>
        </clipPath>
        <clipPath id="clip_path_83">
            <path d="M 0 0 L 0 800 L 1100 800 L 1100 0 L 0 0 Z M 0 0"/>
        </clipPath>
        <clipPath id="clip_path_84">
            <path d="M 0 0 L 0 800 L 1100 800 L 1100 0 L 0 0 Z M 0 0"/>
        </clipPath>
        <clipPath id="clip_path_85">
            <path d="M 0 0 L 0 800 L 1100 800 L 1100 0 L 0 0 Z M 0 0"/>
        </clipPath>
        <clipPath id="clip_path_86">
            <path d="M 0 0 L 0 800 L 1100 800 L 1100 0 L 0 0 Z M 0 0"/>
        </clipPath>
        <clipPath id="clip_path_87">
            <path d="M 0 0 L 0 800 L 1100 800 L 1100 0 L 0 0 Z M 0 0"/>
        </clipPath>
        <clipPath id="clip_path_88">
            <path d="M 0 0 L 0 800 L 1100 800 L 1100 0 L 0 0 Z M 0 0"/>
        </clipPath>
        <clipPath id="clip_path_89">
            <path d="M 0 0 L 0 800 L 1100 800 L 1100 0 L 0 0 Z M 0 0"/>
        </clipPath>
        <clipPath id="clip_path_90">
            <path d="M 0 0 L 0 800 L 1100 800 L 1100 0 L 0 0 Z M 0 0"/>
        </clipPath>
        <clipPath id="clip_path_91">
            <path d="M 0 0 L 0 800 L 1100 800 L 1100 0 L 0 0 Z M 0 0"/>
        </clipPath>
        <clipPath id="clip_path_92">
            <path d="M 0 0 L 0 800 L 1100 800 L 1100 0 L 0 0 Z M 0 0"/>
        </clipPath>
        <clipPath id="clip_path_93">
            <path d="M 0 0 L 0 800 L 1100 800 L 1100 0 L 0 0 Z M 0 0"/>
        </clipPath>
        <clipPath id="clip_path_94">
            <path d="M 0 0 L 0 800 L 1100 800 L 1100 0 L 0 0 Z M 0 0"/>
        </clipPath>
        <clipPath id="clip_path_95">
            <path d="M 0 0 L 0 800 L 1100 800 L 1100 0 L 0 0 Z M 0 0"/>
        </clipPath>
        <clipPath id="clip_path_96">
            <path d="M 0 0 L 0 800 L 1100 800 L 1100 0 L 0 0 Z M 0 0"/>
        </clipPath>
        <clipPath id="clip_path_97">
            <path d="M 0 0 L 0 800 L 1100 800 L 1100 0 L 0 0 Z M 0 0"/>
        </clipPath>
        <clipPath id="clip_path_98">
            <path d="M 0 0 L 0 800 L 1100 800 L 1100 0 L 0 0 Z M 0 0"/>
        </clipPath>
        <clipPath id="clip_path_99">
            <path d="M 0 0 L 0 800 L 1100 800 L 1100 0 L 0 0 Z M 0 0"/>
        </clipPath>
        <clipPath id="clip_path_100">
            <path d="M 0 0 L 0 800 L 1100 800 L 1100 0 L 0 0 Z M 0 0"/>
        </clipPath>
        <clipPath id="clip_path_101">
            <path d="M 0 0 L 0 800 L 1100 800 L 1100 0 L 0 0 Z M 0 0"/>
        </clipPath>
        <clipPath id="clip_path_102">
            <path d="M 0 0 L 0 800 L 1100 800 L 1100 0 L 0 0 Z M 0 0"/>
        </clipPath>
        <clipPath id="clip_path_103">
            <path d="M 0 0 L 0 800 L 1100 800 L 1100 0 L 0 0 Z M 0 0"/>
        </clipPath>
        <clipPath id="clip_path_104">
            <path d="M 0 0 L 0 800 L 1100 800 L 1100 0 L 0 0 Z M 0 0"/>
        </clipPath>
        <clipPath id="clip_path_105">
            <path d="M 0 0 L 0 800 L 1100 800 L 1100 0 L 0 0 Z M 0 0"/>
        </clipPath>
        <clipPath id="clip_path_106">
            <path d="M 0 0 L 0 800 L 1100 800 L 1100 0 L 0 0 Z M 0 0"/>
        </clipPath>
        <clipPath id="clip_path_107">
            <path d="M 0 0 L 0 800 L 1100 800 L 1100 0 L 0 0 Z M 0 0"/>
        </clipPath>
        <clipPath id="clip_path_108">
            <path d="M 0 0 L 0 800 L 1100 800 L 1100 0 L 0 0 Z M 0 0"/>
        </clipPath>
        <clipPath id="clip_path_109">
            <path d="M 0 0 L 0 800 L 1100 800 L 1100 0 L 0 0 Z M 0 0"/>
        </clipPath>
        <clipPath id="clip_path_110">
            <path d="M 0 0 L 0 800 L 1100 800 L 1100 0 L 0 0 Z M 0 0"/>
        </clipPath>
        <clipPath id="clip_path_111">
            <path d="M 0 0 L 0 800 L 1100 800 L 1100 0 L 0 0 Z M 0 0"/>
        </clipPath>
        <clipPath id="clip_path_112">
            <path d="M 0 0 L 0 800 L 1100 800 L 1100 0 L 0 0 Z M 0 0"/>
        </clipPath>
        <clipPath id="clip_path_113">
            <path d="M 0 0 L 0 800 L 1100 800 L 1100 0 L 0 0 Z M 0 0"/>
        </clipPath>
        <clipPath id="clip_path_114">
            <path d="M 0 0 L 0 800 L 1100 800 L 1100 0 L 0 0 Z M 0 0"/>
        </clipPath>
        <clipPath id="clip_path_115">
            <path d="M 0 0 L 0 800 L 1100 800 L 1100 0 L 0 0 Z M 0 0"/>
        </clipPath>
        <clipPath id="clip_path_116">
            <path d="M 0 0 L 0 800 L 1100 800 L 1100 0 L 0 0 Z M 0 0"/>
        </clipPath>
        <clipPath id="clip_path_117">
            <path d="M 0 0 L 0 800 L 1100 800 L 1100 0 L 0 0 Z M 0 0"/>
        </clipPath>
        <clipPath id="clip_path_118">
            <path d="M 0 0 L 0 800 L 1100 800 L 1100 0 L 0 0 Z M 0 0"/>
        </clipPath>
        <clipPath id="clip_path_119">
            <path d="M 0 0 L 0 800 L 1100 800 L 1100 0 L 0 0 Z M 0 0"/>
        </clipPath>
        <clipPath id="clip_path_120">
            <path d="M 0 0 L 0 800 L 1100 800 L 1100 0 L 0 0 Z M 0 0"/>
        </clipPath>
        <clipPath id="clip_path_121">
            <path d="M 0 0 L 0 800 L 1100 800 L 1100 0 L 0 0 Z M 0 0"/>
        </clipPath>
        <clipPath id="clip_path_122">
            <path d="M 0 0 L 0 800 L 1100 800 L 1100 0 L 0 0 Z M 0 0"/>
        </clipPath>
        <clipPath id="clip_path_123">
            <path d="M 0 0 L 0 800 L 1100 800 L 1100 0 L 0 0 Z M 0 0"/>
        </clipPath>
        <clipPath id="clip_path_124">
            <path d="M 0 0 L 0 800 L 1100 800 L 1100 0 L 0 0 Z M 0 0"/>
        </clipPath>
    </defs>
    <g id="group_2">
        <g
            id="group"
            clip-path="url(#clip_group)">
            <path
                id="path"
                clip-path="url(#clip_path)"
                d="M 521.96 644.12 C 493.77 644.2 465.58 644.88 437.44 648.01 C 426.83 649.19 416.44 651.79 405.8 652.83 C 384.56 654.92 363.69 658.83 342.38 660.63 C 325.21 662.08 307.97 662.93 290.85 664.77 C 274.8 666.49 257.03 666.1 241.11 663.25 C 229.32 661.14 217.47 659.95 205.88 656.57 C 192.91 652.78 178.83 650.07 165.32 650.16 C 146.05 650.3 127.29 650.32 108.85 657.01 C 102.38 659.36 94.46 663.22 89.54 668.15 C 78.29 679.43 76.77 707.58 88 719.28 C 106.92 738.97 147.31 746.7 173.83 747.07 C 202.89 747.47 231.12 745.31 260.23 744.04 C 287.27 742.86 314.25 741.18 341.34 741.24 C 396.67 741.36 452.01 741.24 507.23 737.55 C 559.12 734.07 611.14 735.27 663.14 735.27 C 716.47 735.27 769.43 735.68 822.38 742.77 C 845.44 745.86 868.94 746.94 892.13 749.1 C 912.89 751.04 932.84 749.07 953.52 747.28 C 970.89 745.77 988.14 741.31 1003.91 733.77 C 1016.4 727.81 1038.66 709.27 1042.49 695.02 C 1053.23 655.09 891.19 656.05 866.31 656.14 C 838.48 656.24 810.43 657.15 782.62 656.09 C 770.92 655.65 759.39 653.36 747.98 650.85 C 736.6 648.36 725.15 648.99 713.61 647.94 C 665.52 643.57 617.32 644.21 569.08 644.21 C 553.38 644.21 537.67 644.07 521.96 644.12 Z"
                fill="#f7f7f7"/>
            <path
                id="path_1"
                clip-path="url(#clip_path_1)"
                d="M 560.26 655.44 C 559.89 654.27 559.29 653.21 558.4 652.44 C 557.94 652.03 557.4 651.72 556.95 651.29 C 554.82 649.31 555.02 647.37 551.94 647.86 C 548.43 648.43 544.93 649.16 541.44 649.8 C 541.3 649.83 541.15 649.86 541.05 649.95 C 540.89 650.09 540.86 650.33 540.84 650.55 C 540.72 651.81 540.59 653.06 540.47 654.32 C 540.13 657.72 537.21 658.77 534.82 660.15 C 534.2 660.51 533.57 660.87 532.92 661.24 C 530.21 662.78 521.97 666.27 526.14 670.62 C 527.86 672.42 530.79 672.37 533.04 672.56 C 535.22 672.75 537.4 672.18 539.54 671.83 C 546.4 670.37 552.71 668.15 558.88 664.61 C 561.09 663.34 560.89 659.86 560.65 657.39 C 560.58 656.73 560.46 656.07 560.26 655.44 Z"
                fill="#162333"/>
            <path
                id="path_2"
                clip-path="url(#clip_path_2)"
                d="M 546.78 434.86 L 554.26 463.12 L 547.82 544.13 L 558.72 651.56 L 538.21 653.72 L 509.86 551.27 L 486.97 439.02 L 546.78 434.86 Z"
                fill="#575757"/>
            <path
                id="path_3"
                clip-path="url(#clip_path_3)"
                d="M 464.97 665.72 C 464.89 664.5 464.55 663.31 463.87 662.34 C 463.51 661.83 463.07 661.4 462.73 660.87 C 461.12 658.42 461.77 656.59 458.66 656.3 C 455.13 655.97 451.56 655.81 448.02 655.57 C 447.88 655.56 447.73 655.55 447.61 655.62 C 447.42 655.72 447.34 655.94 447.27 656.14 C 446.85 657.33 446.44 658.52 446.03 659.71 C 444.91 662.93 441.83 663.22 439.18 663.97 C 438.5 664.16 437.8 664.35 437.09 664.55 C 434.1 665.37 425.29 666.7 428.32 671.97 C 429.57 674.14 432.43 674.82 434.57 675.57 C 436.64 676.3 438.89 676.28 441.05 676.48 C 448.05 676.76 454.69 676.18 461.5 674.28 C 463.94 673.59 464.56 670.17 464.9 667.71 C 464.99 667.06 465.02 666.38 464.97 665.72 Z"
                fill="#162333"/>
            <path
                id="path_4"
                clip-path="url(#clip_path_4)"
                d="M 503.26 448.27 L 513.12 468.78 L 478.82 554.58 L 464.39 661.57 L 443.97 658.57 L 440.31 552.07 L 444.24 437.43 L 503.26 448.27 Z"
                fill="#575757"/>
            <path
                id="path_5"
                clip-path="url(#clip_path_5)"
                d="M 570.4 435.07 C 569.58 429.86 568.74 425.51 568.51 423.95 C 565.31 402.76 556.13 382.5 550.22 362.03 C 543.18 337.69 534.98 313.71 525.65 290.21 C 522.19 281.5 517.8 272.04 509.34 268.54 C 499.62 264.51 490.26 256.35 480.55 262.24 C 478.57 263.45 476.14 264.02 474.07 265.09 C 461.74 271.46 455.54 281.85 452.82 295.79 C 450.63 307 448.44 318.22 446.25 329.43 C 444.46 338.64 442.66 347.86 441.26 357.15 C 437.6 381.46 436.71 406.13 436.85 430.73 C 436.92 443.06 437.26 455.39 437.63 467.72 C 437.87 475.6 441.3 471.82 445.53 468.85 C 452.82 463.72 460.02 458.38 468.58 455.75 C 472.74 454.47 477.05 453.87 481.36 453.36 C 507.57 450.31 534.31 450.87 560.02 456.93 C 561.55 457.29 563.11 457.69 564.43 458.56 C 566.19 459.73 568.73 462.57 570.83 460.64 C 572.13 459.43 572.05 455.92 572.12 454.32 C 572.39 447.91 571.38 441.38 570.4 435.07 Z"
                fill="#fec001"/>
            <path
                id="path_6"
                clip-path="url(#clip_path_6)"
                d="M 465.98 213.5 C 464.02 218.23 463.39 223.5 463.71 228.65 C 463.8 230.01 463.88 231.6 462.91 232.52 C 461.88 233.51 463.06 235.29 462.09 234.23 C 461.12 233.17 457.8 229.5 457.52 228.06 C 456.86 224.69 456.51 221.26 456.46 217.82 C 456.43 214.82 456.68 211.67 458.29 209.2 C 459.24 207.74 460.6 206.63 461.94 205.56 C 463.89 204 465.89 202.42 468.23 201.68 C 472.27 200.41 474.96 201.68 471.64 205.11 C 469.26 207.57 467.31 210.26 465.98 213.5 Z"
                fill="#3b455a"/>
            <path
                id="path_7"
                clip-path="url(#clip_path_7)"
                d="M 497.67 268.75 C 492.05 269.95 486.44 271.15 480.83 272.35 C 479.42 267.3 478.37 262.12 477.68 256.89 C 472.65 256.56 466.67 255.54 464.41 250.29 C 463.7 248.64 463.48 246.78 463.28 244.96 C 462.44 237.43 461.6 229.9 460.76 222.36 C 460.47 219.76 460.19 217.07 460.78 214.56 C 461.83 210.15 465.35 207.19 468.9 205.18 C 477.95 200.04 489 198.95 498.35 203.74 C 500.84 205.01 503.24 206.74 504.86 209.27 C 507.36 213.18 507.64 218.32 507.81 223.13 C 507.98 227.57 508.14 232.02 508.31 236.46 C 508.49 241.57 508.38 247.49 504.91 250.59 C 503.07 252.24 500.53 252.79 499.01 254.83 C 496.32 258.42 498.31 264.03 497.67 268.75 Z"
                fill="#eacdb0"/>
            <path
                id="path_8"
                clip-path="url(#clip_path_8)"
                d="M 481.01 248.7 C 483.31 249.97 485.56 249.73 487.86 248.71 C 489.04 248.19 489.78 250.28 488.6 250.8 C 485.83 252.04 482.98 252.26 480.22 250.73 C 479.07 250.1 479.85 248.06 481.01 248.7 Z M 462.45 249.49 C 463.83 254.08 466.45 258.31 470.36 260.54 C 474.79 263.06 479.98 262.68 484.88 262.25 C 487.56 262.01 490.24 261.78 492.92 261.54 C 499.7 260.94 506.33 259.26 509.03 251.38 C 510.27 247.74 510.36 243.67 509.72 239.81 C 509.54 238.74 509.3 237.66 508.72 236.79 C 508.14 235.92 507.16 235.32 506.23 235.56 C 505.05 235.88 504.48 237.31 503.81 238.46 C 502.37 240.95 499.53 242.57 497 241.61 C 496.25 241.33 495.57 240.85 494.9 240.36 C 494.63 240.16 494.35 239.96 494.07 239.77 C 491.31 237.91 488.09 237.27 484.94 237.2 C 482.2 237.14 478.11 236.54 476.36 239.19 C 475.34 240.73 474.33 242.26 473.31 243.8 C 472.89 244.43 472.46 245.08 471.88 245.52 C 471.28 245.98 470.55 246.18 469.83 246.28 C 468.02 246.52 465.89 245.87 465.07 244 C 464.71 243.19 464.66 242.26 464.53 241.37 C 464.4 240.48 464.18 239.54 463.58 238.93 C 461.32 236.58 461.16 240.74 461.23 242.15 C 461.35 244.63 461.74 247.12 462.45 249.49 Z"
                fill="#3b455a"/>
            <path
                id="path_9"
                clip-path="url(#clip_path_9)"
                d="M 455.94 201.43 C 455.28 199.65 454.74 197.83 454.32 195.98 C 456.04 196.4 457.86 196.36 459.55 195.86 C 459.44 194.77 459.33 193.69 459.23 192.61 C 459.14 191.7 470.67 189.76 471.6 189.57 C 480.35 187.81 488.34 186.17 496.84 190.24 C 504.1 193.72 509.13 199.58 511.04 207.72 C 512.86 215.51 511.48 226.1 507.82 233.14 C 507.63 231.04 508.26 225.95 507.58 224.01 C 507.08 222.04 506.22 220.18 505.13 218.5 C 502.94 215.15 499.82 212.47 496.36 210.7 C 490.83 207.88 484.63 206.76 478.53 206.56 C 472.95 206.38 466.17 206.4 460.89 208.55 C 458.35 209.58 457.99 210.32 456.12 207.72 C 455.79 207.27 452.98 201.81 453.2 201.78 C 454.11 201.66 455.03 201.54 455.94 201.43 Z"
                fill="#3b455a"/>
            <path
                id="path_28"
                clip-path="url(#clip_path_28)"
                d="M 151.77 235.84 C 152.94 236.67 153.9 238.06 154.64 239.35 C 155.85 241.46 157.47 243.87 159.84 243.82 C 161.89 243.78 163.56 241.83 165.6 241.79 C 167.84 241.75 169.53 244.05 169.97 246.32 C 170.41 248.59 169.99 250.94 170.14 253.25 C 170.41 257.42 173.37 263.19 169.27 266.26 C 168.1 267.14 164.96 268.01 163.55 267.57 C 161.47 266.93 161.69 265.96 160.92 263.9 C 160.08 261.65 159.24 259.41 158.4 257.16 C 157.15 253.82 154.36 253.44 151.79 251.39 C 150.04 250.01 148.94 247.95 147.89 245.96 C 146.88 244.05 145.85 242.03 145.84 239.86 C 145.83 237.68 147.22 235.33 149.32 235.12 C 150.22 235.03 151.04 235.33 151.77 235.84 Z"
                fill="#eacdb0"/>
            <path
                id="path_29"
                clip-path="url(#clip_path_29)"
                d="M 170.34 315.57 C 166.26 303.5 163.48 290.97 160.99 278.44 C 160.24 274.71 154.67 263.37 156.78 260.22 C 159.36 256.38 170.36 258.26 173.51 260.31 C 177.6 262.99 180.25 270.61 182.39 274.9 C 188.23 286.64 192.94 299.79 203.33 308.2 C 201.85 307 228.91 290.38 231.54 289.33 C 240.22 285.86 258.8 277.52 258.75 292.58 C 258.73 298.96 258.52 305.35 258.1 311.73 C 257.39 322.44 252.75 333.26 243.83 339.27 C 236.95 343.9 228.77 345.95 220.69 347.46 C 210.82 349.32 200.83 350.49 190.8 350.98 C 181.73 351.41 180.18 338.85 176.73 331.56 C 174.28 326.35 172.18 321.01 170.34 315.57 Z"
                fill="#7db5db"/>
            <path
                id="path_30"
                clip-path="url(#clip_path_30)"
                d="M 316.32 662.63 C 319.18 662.99 321.88 662.1 324.68 661.94 C 325.11 651.74 324.58 641.91 323 631.73 C 318.39 636.45 314.89 633.34 314.53 642.71 C 314.41 645.74 317.13 658.05 316.32 662.63 Z"
                fill="#e5d1bd"/>
            <path
                id="path_31"
                clip-path="url(#clip_path_31)"
                d="M 325.59 656.91 C 328.93 655.89 329.23 664.01 329.15 665.91 C 329.1 667.06 328.91 668.22 329.13 669.34 C 329.37 670.57 330.09 671.64 330.79 672.66 C 332.27 674.82 333.74 676.97 335.21 679.12 C 335.87 680.09 336.55 681.08 336.87 682.22 C 337.66 685.04 335.92 688.23 333.31 689.4 C 324.27 693.48 316.86 681.9 315.35 674.45 C 315.12 673.31 314.97 672.15 314.82 670.99 C 314.51 668.6 313.06 663.35 314.1 661.09 C 315.3 658.46 318.41 660.6 320.57 659.71 C 322.57 658.88 324.24 657.32 325.59 656.91 Z"
                fill="#162333"/>
            <path
                id="path_32"
                clip-path="url(#clip_path_32)"
                d="M 272.01 491.62 C 278.94 515.15 287.16 538.26 291.23 562.7 C 296.26 592.91 305.4 622.6 309.28 652.81 C 312.83 653.13 316.41 653.19 319.97 652.96 C 324.06 652.7 330.56 651.95 332.27 647.46 C 333.15 645.16 332.56 641.31 332.58 638.87 C 332.64 631.06 332.53 623.25 332.4 615.45 C 332.04 593.36 332.18 571.04 329.45 549.13 C 326.59 526.08 323.9 502.96 321.52 479.94 C 320.3 468.05 318.63 456.2 316.43 444.45 C 315.86 441.42 309.93 410.23 308.43 410.38 C 290.53 412.26 273.61 417.36 257.65 425.92 C 256.1 426.76 254.59 427.77 253.98 429.38 C 253.37 430.98 253.76 432.42 254.17 433.94 C 258.01 448.38 263.43 462.04 267.58 476.45 C 269.02 481.46 270.49 486.47 272.01 491.62 Z"
                fill="#305399"/>
            <path
                id="path_33"
                clip-path="url(#clip_path_33)"
                d="M 258.34 653.99 C 255.59 654.91 252.78 654.55 250 654.94 C 247.73 645.01 246.46 635.25 246.16 624.94 C 251.55 628.69 254.42 624.96 256.48 634.08 C 257.14 637.04 256.71 649.66 258.34 653.99 Z"
                fill="#e5d1bd"/>
            <path
                id="path_34"
                clip-path="url(#clip_path_34)"
                d="M 247.34 651.84 C 247.03 657.36 242.5 663.06 239.9 667.89 C 239.59 668.46 239.28 669.05 239.23 669.7 C 239.16 670.66 239.69 671.56 240.19 672.37 C 240.89 673.5 241.65 674.69 242.83 675.25 C 243.99 675.8 245.34 675.63 246.6 675.42 C 248.7 675.07 250.79 674.62 252.86 674.08 C 253.38 673.94 253.9 673.79 254.33 673.47 C 254.84 673.09 255.17 672.51 255.48 671.94 C 257.08 669.04 258.42 666.99 258.52 663.66 C 258.63 660.22 258.41 656.63 259.2 653.26 C 259.59 651.62 260.11 649.53 258.79 648.55 C 257.77 647.78 255.77 648.64 254.61 648.77 C 252.56 648.99 250.69 648.75 248.75 649.74 C 248.36 649.95 247.97 650.19 247.72 650.56 C 247.46 650.94 247.37 651.38 247.34 651.84 Z"
                fill="#162333"/>
            <path
                id="path_35"
                clip-path="url(#clip_path_35)"
                d="M 270.79 477.43 C 268.26 501.89 264.38 526.17 264.83 550.98 C 265.38 581.62 261.79 612.57 263.47 642.98 C 260.04 643.99 256.53 644.74 252.99 645.21 C 248.94 645.75 242.41 646.27 239.91 642.19 C 238.64 640.1 238.51 636.21 238.05 633.82 C 236.57 626.16 235.26 618.47 233.97 610.78 C 230.31 589.01 226.12 567.11 224.81 545.06 C 223.44 521.87 221.88 498.64 220.03 475.57 C 219.07 463.65 218.56 451.69 218.59 439.72 C 218.59 436.64 218.75 404.84 220.26 404.71 C 238.17 403.08 255.72 404.8 272.95 410.11 C 274.62 410.63 276.29 411.33 277.18 412.79 C 278.08 414.25 277.95 415.74 277.83 417.31 C 276.68 432.24 273.83 446.71 272.38 461.66 C 271.87 466.87 271.34 472.08 270.79 477.43 Z"
                fill="#305399"/>
            <path
                id="path_36"
                clip-path="url(#clip_path_36)"
                d="M 291.54 281.17 C 291.82 281.29 292.11 281.41 292.38 281.54 C 297.05 283.69 300.93 287.29 304.71 290.84 C 310.4 296.17 313.22 298.52 315.12 306.03 C 316.89 313.03 317.84 320.37 318.76 327.53 C 323.52 364.3 322.85 400.59 325.69 437.52 C 326.46 447.58 326.84 459.36 319.32 465.8 C 307.22 454.87 291.33 453.35 275.97 452.44 C 265.19 451.8 254.84 447.57 243.96 448.18 C 233.56 448.77 224.68 445.57 214.16 445.66 C 211.62 445.68 208.4 445.47 207.54 443 C 211.78 431.97 212.38 419.87 213.85 408.1 C 217.65 377.64 229.05 348.87 234.67 318.73 C 236.58 308.48 238.24 291.39 246.4 284.03 C 255.27 276.03 274.45 276.98 285.16 279.27 C 287.33 279.73 289.49 280.32 291.54 281.17 Z"
                fill="#7db5db"/>
            <path
                id="path_37"
                clip-path="url(#clip_path_37)"
                d="M 282.16 286.04 C 281.97 286.37 281.73 286.68 281.41 286.98 C 280.14 288.13 278.44 288.73 276.78 288.87 C 274.59 289.07 272.4 288.57 270.26 288.01 C 267.38 287.27 267.58 285.51 267.31 282.75 C 267.16 281.24 267.1 279.73 267.07 278.22 C 267.06 277.39 267.53 274.44 267.05 273.83 C 266.73 273.42 265.31 273.47 264.71 273.1 C 263.76 272.52 263 271.5 262.46 270.52 C 261.6 268.94 261.17 267.15 260.76 265.39 C 260.03 262.32 259.31 259.26 258.58 256.19 C 257.85 253.06 257.1 249.9 256.99 246.68 C 256.81 241.82 257.94 235.04 261.66 231.72 C 265.06 228.68 269.81 227.83 274.15 227.51 C 279.89 227.09 285.74 228.52 290.5 231.93 C 292.42 233.31 294.21 235.06 295.26 237.38 C 296.88 240.96 296.51 245.29 296.09 249.33 C 295.71 253.06 295.32 256.79 294.94 260.52 C 294.5 264.81 293.71 269.74 290.46 271.89 C 288.74 273.03 286.56 273.17 285.05 274.68 C 283.17 276.56 283.12 279.55 282.91 282.07 C 282.79 283.51 282.82 284.88 282.16 286.04 Z"
                fill="#eacdb0"/>
            <path
                id="path_38"
                clip-path="url(#clip_path_38)"
                d="M 257.32 253.59 C 257.44 254.44 257.55 255.32 257.61 256.22 C 258.1 263.9 256.95 271.3 258.44 279 C 251.74 275.63 245.74 270.29 241.06 263.57 C 240.25 262.41 239.48 261.19 239.08 259.74 C 238.7 258.36 238.68 256.87 238.7 255.41 C 238.8 246.07 239.9 236.71 241.95 227.66 C 242.76 224.07 243.74 220.47 245.42 217.34 C 250.49 207.9 260.66 204.74 269.81 204.64 C 275.11 204.59 280.66 205.39 284.94 209.09 C 289.57 213.08 290.82 219.97 290.59 225.85 C 290.54 227.3 290.44 228.8 289.73 230.05 C 288.27 232.64 284.92 233.14 282.02 233.29 C 277.95 233.5 273.84 233.57 269.86 234.47 C 265.88 235.37 261.96 237.2 259.28 240.37 C 255.51 244.82 256.65 248.89 257.32 253.59 Z"
                fill="#3b455a"/>
            <path
                id="path_39"
                clip-path="url(#clip_path_39)"
                d="M 304.67 218.47 C 305.92 221.04 306.9 223.81 307.67 226.7 C 310.36 236.9 312.89 246.56 311.44 257.38 C 311.24 258.88 310.97 260.4 310.43 261.78 C 309.7 263.64 308.51 265.17 307.3 266.62 C 302.48 272.42 297.06 277.49 291.23 281.68 C 293.69 268.64 296.11 254.68 292.18 242.36 C 289.12 232.79 282.73 226.01 275.74 220.8 C 271.83 217.88 261.3 211.99 264 205.49 C 267.72 196.53 288.08 202.23 293.73 205.84 C 298.71 209.02 302.21 213.38 304.67 218.47 Z"
                fill="#3b455a"/>
            <path
                id="path_40"
                clip-path="url(#clip_path_40)"
                d="M 529.79 432.33 L 405.08 432.33 L 405.08 556.8 L 529.79 556.8 L 529.79 432.33 Z"
                fill="#1177cc"/>
            <path
                id="path_41"
                clip-path="url(#clip_path_41)"
                d="M 529.79 556.8 L 560.63 524.93 L 560.63 400.45 L 529.79 432.33 L 529.79 556.8 Z"
                fill="#3864b2"/>
            <path
                id="path_42"
                clip-path="url(#clip_path_42)"
                d="M 529.79 432.33 L 560.63 400.45 L 435.92 400.45 L 405.08 432.33 L 529.79 432.33 Z"
                fill="#1177cc"/>
            <path
                id="path_43"
                clip-path="url(#clip_path_43)"
                d="M 489.4 400.45 L 458.57 432.33 L 458.57 457.42 L 476.28 457.42 L 476.28 432.33 L 476.3 432.33 L 507.14 400.45 L 489.4 400.45 Z"
                fill="#3864b2"/>
            <path
                id="path_44"
                clip-path="url(#clip_path_44)"
                d="M 493.34 464.98 L 476.29 487.73 L 486.64 487.73 L 486.64 524.18 L 500.04 524.18 L 500.04 487.73 L 510.39 487.73 L 493.34 464.98 Z"
                fill="#ffffff"/>
            <path
                id="path_45"
                clip-path="url(#clip_path_45)"
                d="M 424.47 487.73 L 434.82 487.73 L 434.82 524.18 L 448.23 524.18 L 448.23 487.73 L 458.58 487.73 L 441.52 464.98 L 424.47 487.73 Z"
                fill="#ffffff"/>
            <path
                id="path_46"
                clip-path="url(#clip_path_46)"
                d="M 421.58 531.22 L 421.58 533.09 L 513.28 533.09 L 513.28 531.22 L 421.58 531.22 Z"
                fill="#ffffff"/>
            <path
                id="path_47"
                clip-path="url(#clip_path_47)"
                d="M 421.58 538.68 L 513.28 538.68 L 513.28 536.8 L 421.58 536.8 L 421.58 538.68 Z"
                fill="#ffffff"/>
            <path
                id="path_48"
                clip-path="url(#clip_path_48)"
                d="M 421.58 544.26 L 513.28 544.26 L 513.28 542.39 L 421.58 542.39 L 421.58 544.26 Z"
                fill="#ffffff"/>
            <path
                id="path_49"
                clip-path="url(#clip_path_49)"
                d="M 312.69 431.4 L 187.98 431.4 L 187.98 555.87 L 312.69 555.87 L 312.69 431.4 Z"
                fill="#1177cc"/>
            <path
                id="path_50"
                clip-path="url(#clip_path_50)"
                d="M 312.69 555.87 L 343.53 524 L 343.53 399.52 L 312.69 431.4 L 312.69 555.87 Z"
                fill="#3864b2"/>
            <path
                id="path_51"
                clip-path="url(#clip_path_51)"
                d="M 312.69 431.4 L 343.53 399.52 L 218.82 399.52 L 187.98 431.4 L 312.69 431.4 Z"
                fill="#3864b2"/>
            <path
                id="path_52"
                clip-path="url(#clip_path_52)"
                d="M 276.24 464.06 L 259.19 486.81 L 269.54 486.81 L 269.54 523.25 L 282.95 523.25 L 282.95 486.81 L 293.3 486.81 L 276.24 464.06 Z"
                fill="#ffffff"/>
            <path
                id="path_53"
                clip-path="url(#clip_path_53)"
                d="M 207.38 486.81 L 217.73 486.81 L 217.73 523.25 L 231.13 523.25 L 231.13 486.81 L 241.48 486.81 L 224.43 464.06 L 207.38 486.81 Z"
                fill="#ffffff"/>
            <path
                id="path_54"
                clip-path="url(#clip_path_54)"
                d="M 343.53 399.52 L 379.71 435.31 L 348.87 467.18 L 312.69 431.4 L 343.53 399.52 Z"
                fill="#86a7e0"/>
            <path
                id="path_55"
                clip-path="url(#clip_path_55)"
                d="M 218.81 399.52 L 179.69 423.43 L 148.86 455.3 L 187.98 431.4 L 218.81 399.52 Z"
                fill="#86a7e0"/>
            <path
                id="path_56"
                clip-path="url(#clip_path_56)"
                d="M 218.81 399.52 L 218.81 431.4 L 187.98 431.4 L 218.81 399.52 Z"
                fill="#265496"/>
            <path
                id="path_57"
                clip-path="url(#clip_path_57)"
                d="M 312.69 431.4 L 300.27 460.27 L 174.78 460.27 L 187.98 431.4 L 312.69 431.4 Z"
                fill="#86a7e0"/>
            <path
                id="path_58"
                clip-path="url(#clip_path_58)"
                d="M 204.49 530.29 L 204.49 532.16 L 296.19 532.16 L 296.19 530.29 L 204.49 530.29 Z"
                fill="#ffffff"/>
            <path
                id="path_59"
                clip-path="url(#clip_path_59)"
                d="M 204.49 537.75 L 296.19 537.75 L 296.19 535.87 L 204.49 535.87 L 204.49 537.75 Z"
                fill="#ffffff"/>
            <path
                id="path_60"
                clip-path="url(#clip_path_60)"
                d="M 204.49 543.33 L 296.19 543.33 L 296.19 541.46 L 204.49 541.46 L 204.49 543.33 Z"
                fill="#ffffff"/>
            <path
                id="path_63"
                clip-path="url(#clip_path_63)"
                d="M 79.08 199.55 C 91.41 230.3 118.93 253.53 153.16 257.9 C 177.13 260.96 200.06 254.22 218.21 240.73 C 219.04 240.11 218.35 238.78 217.41 239.19 C 205.09 244.49 191.32 246.68 177.12 244.86 C 145.72 240.85 120.83 218.48 111.3 189.45 L 131.85 183 L 107.13 165.18 L 82.02 147.08 L 72.52 172.33 L 60.03 205.53 L 79.08 199.55 Z"
                fill="#ffc700"/>
            <path
                id="path_64"
                clip-path="url(#clip_path_64)"
                d="M 757.27 328.43 L 674.8 234.88 L 581.42 317.19 L 663.89 410.74 L 757.27 328.43 Z"
                fill="#ffc700"/>
            <path
                id="path_65"
                clip-path="url(#clip_path_65)"
                d="M 663.89 410.74 L 708.19 412.8 L 801.57 330.49 L 757.27 328.43 L 663.89 410.74 Z"
                fill="#ffc700"/>
            <path
                id="path_66"
                clip-path="url(#clip_path_66)"
                d="M 757.27 328.43 L 801.57 330.49 L 719.11 236.94 L 674.8 234.88 L 757.27 328.43 Z"
                fill="#ffc700"/>
            <path
                id="path_67"
                clip-path="url(#clip_path_67)"
                d="M 754.48 277.06 L 710.17 275.01 L 691.35 291.6 L 703.06 304.88 L 721.88 288.29 L 721.9 288.31 L 766.2 290.36 L 754.48 277.06 Z"
                fill="#d7a203"/>
            <path
                id="path_68"
                clip-path="url(#clip_path_68)"
                d="M 708.67 322.69 L 680.33 324.94 L 687.17 332.7 L 659.83 356.8 L 668.69 366.86 L 696.03 342.76 L 702.88 350.52 L 708.67 322.69 Z"
                fill="#ffffff"/>
            <path
                id="path_69"
                clip-path="url(#clip_path_69)"
                d="M 646.06 286.07 L 652.91 293.83 L 625.57 317.93 L 634.43 327.99 L 661.77 303.89 L 668.61 311.65 L 674.41 283.82 L 646.06 286.07 Z"
                fill="#ffffff"/>
            <path
                id="path_70"
                clip-path="url(#clip_path_70)"
                d="M 611.53 312.65 L 610.13 313.89 L 670.76 382.68 L 672.16 381.44 L 611.53 312.65 Z"
                fill="#ffffff"/>
            <path
                id="path_71"
                clip-path="url(#clip_path_71)"
                d="M 605.94 317.58 L 666.57 386.37 L 667.98 385.14 L 607.34 316.35 L 605.94 317.58 Z"
                fill="#ffffff"/>
            <path
                id="path_72"
                clip-path="url(#clip_path_72)"
                d="M 601.75 321.28 L 649.37 375.3 L 662.38 390.07 L 663.79 388.83 L 603.16 320.04 L 601.75 321.28 Z"
                fill="#ffffff"/>
            <path
                id="path_73"
                clip-path="url(#clip_path_73)"
                d="M 761.28 248.59 C 762.23 248.8 763.2 248.2 763.45 247.25 C 763.69 246.3 763.13 245.35 762.17 245.14 L 694.55 232.14 C 693.99 232.01 693.4 232.17 692.96 232.56 L 689.55 235.57 L 694.56 235.8 L 761.28 248.59 Z"
                fill="#ff0000"/>
            <path
                id="path_74"
                clip-path="url(#clip_path_74)"
                d="M 725.86 160.46 C 725.48 161.42 725.8 162.44 726.67 163.01 C 737.21 169.97 735.91 181.83 735.9 182.07 C 735.9 191.46 728.03 199.1 718.37 199.1 C 710.63 199.1 703.72 194.05 701.55 186.81 C 701.19 185.6 701.02 184.37 700.85 183.07 C 700.6 181.27 700.35 179.42 699.55 177.61 C 698.26 174.7 696.04 172.36 693.32 171.03 C 689.79 169.32 685.87 169.39 682.08 169.47 C 681.33 169.49 680.58 169.5 679.84 169.5 L 671.17 169.5 C 670.61 169.5 670.16 169.94 670.16 170.48 L 670.16 182 C 670.16 182.54 670.61 182.98 671.17 182.98 C 671.17 182.98 681.98 183.02 682.23 183.02 C 686.02 183.04 687.13 185.87 688.36 190.2 C 690.13 196.41 694 202.1 699.25 206.06 C 704.69 210.17 711.48 212.43 718.37 212.43 C 725.77 212.43 732.95 209.86 738.59 205.18 C 745.09 199.79 748.76 191.75 748.76 183.7 C 748.76 181.19 748.4 178.68 747.66 176.25 C 744.88 167.07 737.25 160.34 728.22 159.11 C 727.19 158.96 726.24 159.51 725.86 160.46 Z"
                fill="#ff0000"/>
            <path
                id="path_75"
                clip-path="url(#clip_path_75)"
                d="M 718.48 167.45 C 718.1 168.41 718.43 169.43 719.29 170 L 719.29 170 C 729.84 176.96 729.67 189.5 727.17 195.59 L 727.2 195.55 L 727.17 195.59 C 726.43 197.32 725.4 198.89 724.15 200.28 C 721.64 202.9 719.4 204.3 716.87 205.1 C 725.88 202.68 732.35 194.91 732.35 185.43 C 732.35 176.89 727 169.56 719.36 166.41 C 718.98 166.65 718.66 167 718.48 167.45 Z"
                fill="#ff0000"/>
            <path
                id="path_76"
                clip-path="url(#clip_path_76)"
                d="M 736.6 200.06 C 733.56 204.24 729.1 207.49 723.64 209.02 C 710.85 212.62 697.47 205.5 693.76 193.12 C 693.7 192.92 693.66 192.72 693.61 192.52 C 700.5 203.06 713.98 208.41 726.98 204.76 C 730.57 203.75 733.79 202.12 736.6 200.06 Z"
                fill="#d90505"/>
            <path
                id="path_77"
                clip-path="url(#clip_path_77)"
                d="M 666.39 72.49 L 721.21 72.49 L 759.11 72.49 L 759.11 118.37 L 666.24 118.37 L 666.39 72.49 Z"
                fill="#ffc700"/>
            <path
                id="path_78"
                clip-path="url(#clip_path_78)"
                d="M 666.24 118.37 L 690.39 143.33 L 712.67 143.33 L 734.96 143.33 L 759.11 118.37 L 666.24 118.37 Z"
                fill="#ffc700"/>
            <path
                id="path_79"
                clip-path="url(#clip_path_79)"
                d="M 722.78 154.46 L 712.34 154.46 L 701.9 154.46 C 701.04 154.46 700.35 153.77 700.35 152.91 L 700.35 143.33 L 724.34 143.33 L 724.34 152.91 C 724.34 153.77 723.64 154.46 722.78 154.46 Z"
                fill="#fa990a"/>
            <path
                id="path_80"
                clip-path="url(#clip_path_80)"
                d="M 761.53 72.49 L 663.82 72.49 C 662.82 72.49 662.01 71.68 662.01 70.68 L 662.01 64.01 C 662.01 63.01 662.82 62.2 663.82 62.2 L 761.53 62.2 C 762.53 62.2 763.34 63.01 763.34 64.01 L 763.34 70.68 C 763.34 71.68 762.53 72.49 761.53 72.49 Z"
                fill="#fec001"/>
            <path
                id="path_81"
                clip-path="url(#clip_path_81)"
                d="M 780.58 330.77 C 780.99 330.4 781.22 329.87 781.2 329.33 L 776.22 248.75 C 776.19 247.94 775.6 247.27 774.78 247.13 L 772.17 246.48 L 772.67 247.63 L 777.61 328.74 L 683.88 411.67 L 680.12 411.5 L 683 414.77 C 683.31 415.12 683.74 415.32 684.22 415.35 C 684.69 415.37 685.15 415.2 685.51 414.88 L 780.58 330.77 Z"
                fill="#ff0000"/>
            <path
                id="path_82"
                clip-path="url(#clip_path_82)"
                d="M 789.74 588.17 L 179.47 588.17 C 172.81 588.17 167.41 582.58 167.41 575.7 C 167.41 568.81 172.81 563.23 179.47 563.23 L 789.74 563.23 C 796.41 563.23 801.81 568.81 801.81 575.7 C 801.81 582.58 796.41 588.17 789.74 588.17 Z"
                fill="#022a37"/>
            <path
                id="path_83"
                clip-path="url(#clip_path_83)"
                d="M 262.25 575.7 C 262.25 580.03 258.85 583.54 254.65 583.54 C 250.46 583.54 247.06 580.03 247.06 575.7 C 247.06 571.36 250.46 567.85 254.65 567.85 C 258.85 567.85 262.25 571.36 262.25 575.7 Z"
                fill="#ffc700"/>
            <path
                id="path_84"
                clip-path="url(#clip_path_84)"
                d="M 472.94 575.7 C 472.94 580.03 469.54 583.54 465.35 583.54 C 461.15 583.54 457.76 580.03 457.76 575.7 C 457.76 571.36 461.15 567.85 465.35 567.85 C 469.54 567.85 472.94 571.36 472.94 575.7 Z"
                fill="#ffc700"/>
            <path
                id="path_85"
                clip-path="url(#clip_path_85)"
                d="M 683.63 575.7 C 683.63 580.03 680.23 583.54 676.04 583.54 C 671.85 583.54 668.45 580.03 668.45 575.7 C 668.45 571.36 671.85 567.85 676.04 567.85 C 680.23 567.85 683.63 571.36 683.63 575.7 Z"
                fill="#ffc700"/>
            <path
                id="path_86"
                clip-path="url(#clip_path_86)"
                d="M 333.22 411.26 C 334.34 408.55 335.2 405.73 336.04 402.92 C 331.89 401.93 327.73 400.99 323.55 400.14 C 323.47 400.94 323.39 401.73 323.32 402.51 C 322.96 406.48 323.21 410.54 322.45 414.47 C 322.06 416.48 321.44 418.65 320.26 420.34 C 319.22 421.83 318.25 422.45 317.93 424.48 C 317.64 426.36 320.01 426.99 319.07 428.95 C 318.05 431.09 315.01 429.54 313.43 431.07 C 312.98 431.51 312.72 432.11 312.5 432.71 C 311.92 434.25 311.52 436.03 312.25 437.49 C 314.48 441.94 320.26 439.76 322.9 437.39 C 324.69 435.77 327.07 434.51 328.38 432.41 C 331.08 428.09 329.08 422.4 330.57 417.71 C 331.28 415.49 332.33 413.41 333.22 411.26 Z"
                fill="#eacdb0"/>
            <path
                id="path_87"
                clip-path="url(#clip_path_87)"
                d="M 298.28 337.85 C 303.12 345.71 312.6 351.28 318.83 358.42 C 331 372.35 323.2 397.93 321.63 414.95 L 332.22 419.27 L 346.91 367.31 L 324.61 317.49 C 318.14 303.03 306.54 291.69 292.21 285.81 L 282.14 281.68 C 286.1 283.33 290.74 312.57 291.98 317.04 C 293.63 322.97 294.54 330.54 297.27 336.04 C 297.58 336.65 297.92 337.26 298.28 337.85 Z"
                fill="#7db5db"/>
            <path
                id="path_88"
                clip-path="url(#clip_path_88)"
                d="M 807.97 294.78 C 808.25 294.75 808.54 294.72 808.82 294.77 C 811.35 295.25 812.4 297.06 814.71 298.23 C 815.06 298.41 815.59 298.35 816.14 298.28 C 817.2 298.15 818.36 298.03 818.55 299.64 C 818.65 300.55 818.6 302.81 818.81 304.75 C 819.11 307.57 821.14 310.96 823.23 313.34 C 826.04 316.55 829.08 319.87 832.3 322.58 C 839.06 328.29 847.18 333.86 854.88 338.13 C 862.27 325.32 877 317.44 891.39 318.61 C 892.9 318.74 894.45 318.97 895.72 319.81 C 896.79 320.53 897.57 321.63 898.2 322.77 C 904.85 334.9 893.44 340.9 884.45 346.12 C 878.84 349.39 872.94 352.33 866.91 354.7 C 858.48 358.02 851.3 354.95 844.1 349.72 C 836.48 344.19 828.84 338.44 822.5 331.33 C 819.42 327.87 817.19 324.06 814.59 320.26 C 812.03 316.49 810.55 317.89 807.49 315.19 C 805.78 313.68 803.77 312.48 802.35 310.67 C 799.82 307.42 800.89 303.25 801.47 299.51 C 801.62 298.58 801.72 297.95 802.23 297.25 C 803.07 296.1 804.37 295.73 805.65 295.31 C 806.4 295.06 807.18 294.88 807.97 294.78 Z"
                fill="#e5d1bd"/>
            <path
                id="path_89"
                clip-path="url(#clip_path_89)"
                d="M 882.94 354.71 C 878.37 356.76 873.81 358.57 869.35 360.13 C 862.7 362.46 855.39 364.79 848.82 362.23 C 846.29 361.24 844.06 359.58 841.88 357.93 C 831.52 350.1 821.35 341.99 811.38 333.63 C 814.26 327.33 818.07 321.48 822.63 316.36 C 823.91 314.92 825.4 313.46 827.27 313.21 C 830.06 312.83 832.41 315.2 834.28 317.37 C 837.33 320.9 840.37 324.43 843.42 327.96 C 844.4 329.11 845.54 330.34 847.02 330.46 C 847.99 330.55 848.92 330.14 849.81 329.72 C 866.49 321.85 878.87 311.95 892.94 300.03 C 899.15 294.77 905.62 289.38 913.38 287.29 C 929.95 282.82 943.52 301.42 933.16 316.29 C 921.35 333.23 902.13 346.11 882.94 354.71 Z"
                fill="#959596"/>
            <path
                id="path_90"
                clip-path="url(#clip_path_90)"
                d="M 990.32 671.94 L 990.8 680.39 L 974.94 689.82 L 966.29 681.87 L 973.98 672.93 L 989.84 663.5 L 990.32 671.94 Z"
                fill="#162333"/>
            <path
                id="path_91"
                clip-path="url(#clip_path_91)"
                d="M 1001.52 415.49 L 1002.98 441.14 L 976.2 554.27 L 991.02 669.17 L 975.01 673.5 L 929.51 535.66 L 928.42 494.08 L 938.89 408.52 L 1001.52 415.49 Z"
                fill="#3b455a"/>
            <path
                id="path_92"
                clip-path="url(#clip_path_92)"
                d="M 898.86 429.29 L 887.48 536.62 L 893.94 677.14 L 909 678.67 L 930.63 551.8 L 963.35 426.05 L 898.86 429.29 Z"
                fill="#3b455a"/>
            <path
                id="path_93"
                clip-path="url(#clip_path_93)"
                d="M 909.09 676.81 L 908.29 685.22 L 891.21 691.99 L 883.86 682.75 L 892.8 675.16 L 909.09 676.81 Z"
                fill="#162333"/>
            <path
                id="path_94"
                clip-path="url(#clip_path_94)"
                d="M 1015.86 429.09 C 1016.94 438.88 1017.8 452.13 1014.2 452.96 C 1013.53 453.11 1012.84 452.82 1012.21 452.54 C 1005.59 449.58 1000.69 444.99 994.17 442.14 C 987.34 439.15 979.72 437.94 972.3 437.29 C 961.19 436.26 949.91 436.03 938.76 436.88 C 929.99 437.54 921.26 439.14 912.61 440.71 C 905.42 442.02 898.87 444.88 891.43 445.05 C 883.82 445.22 876.15 443.52 869.31 440.02 C 869.06 439.89 868.8 439.75 868.67 439.49 C 868.54 439.2 868.62 438.87 868.69 438.56 C 869.85 434.04 870.58 429.59 873.07 425.7 C 875.85 421.35 877.62 416 879.48 411.17 C 883.36 401.12 886.92 390.63 889.32 380.08 C 893.08 365.69 897.58 351.6 901.17 337.19 C 903.66 327.19 905.84 317.06 909.57 307.45 C 912.49 299.94 917.89 288.85 925.24 284.96 C 927.72 283.65 930.56 283.29 933.34 282.94 C 941.74 281.9 950.16 280.85 958.57 279.81 C 961.63 279.42 964.82 279.06 967.74 280.1 C 972.11 281.67 974.89 286 977.34 290.06 C 988.33 308.25 996.08 328.26 1001.27 349.15 C 1003.98 360.05 1006.57 370.99 1008.8 382.01 C 1011.29 394.31 1013.35 406.7 1014.65 419.18 C 1014.8 420.57 1015.35 424.44 1015.86 429.09 Z"
                fill="#959596"/>
            <path
                id="path_95"
                clip-path="url(#clip_path_95)"
                d="M 950.32 329.2 C 950.43 334.17 951.55 339.05 952.66 343.89 C 959.44 373.35 966.21 402.81 972.99 432.27 C 950.33 434.2 927.67 436.13 905.01 438.06 C 904.84 426.8 904.67 415.54 904.51 404.28 C 904.4 397.06 904.29 389.81 905.14 382.64 C 906.5 371.07 910.29 359.93 914.07 348.91 C 921.03 328.54 928 308.16 934.97 287.79 C 935.35 286.7 935.74 285.58 936.53 284.74 C 937.48 283.74 938.85 283.31 940.17 282.94 C 946.54 281.17 953.76 279.5 960.35 279.87 C 962.52 285.84 957.46 297.04 955.74 302.95 C 953.23 311.54 950.1 320.12 950.32 329.2 Z"
                fill="#ffffff"/>
            <path
                id="path_96"
                clip-path="url(#clip_path_96)"
                d="M 942.38 287.02 C 947.06 286.36 951.73 285.71 956.4 285.06 C 956.32 281.17 955.93 277.29 955.24 273.47 C 955.33 273.93 962.47 269.13 963.06 268.14 C 964.73 265.29 964.56 260.78 965.08 257.52 C 966.17 250.59 967.09 242.82 963.1 237.13 C 958.96 231.24 951.02 229.84 943.99 230.32 C 935.17 230.91 925.59 234.48 921.75 242.71 C 918.28 250.15 924.36 260.05 926.49 267.37 C 927.54 270.98 929.02 275.07 932.46 276.3 C 934.28 276.96 936.4 276.67 938.07 277.69 C 941.01 279.47 940.78 283.91 942.38 287.02 Z"
                fill="#eacdb0"/>
            <path
                id="path_97"
                clip-path="url(#clip_path_97)"
                d="M 906.7 230.55 C 905.73 225.57 904.77 220.59 903.8 215.61 C 903.44 213.77 903.08 211.85 903.51 210.01 C 904.22 206.96 906.96 204.84 909.8 203.75 C 912.65 202.66 915.72 202.34 918.61 201.39 C 921.69 200.38 924.63 198.64 927.86 198.48 C 934.01 198.19 939.22 203.62 945.36 204.04 C 953.87 204.64 961.22 199.94 967.18 209.67 C 968.27 211.45 968.72 213.58 969.71 215.43 C 970.99 217.82 973.09 219.61 974.8 221.7 C 982.29 230.88 981.46 245.96 974.16 255.02 C 970.62 259.42 969.35 263.22 964.09 265.01 C 966.1 259.62 961.03 239.35 954.1 237.68 C 952.27 237.24 947.11 239.99 945.16 240.48 C 940.85 241.55 936.66 242.68 932.7 244.83 C 926.83 248.01 920.36 250.49 913.8 251.63 C 912.96 251.77 912.02 251.89 911.33 251.38 C 910.68 250.89 910.48 250 910.32 249.19 C 909.11 242.98 907.91 236.76 906.7 230.55 Z"
                fill="#3b455a"/>
            <path
                id="path_98"
                clip-path="url(#clip_path_98)"
                d="M 954.4 547.28 L 822.46 496.97 L 834.92 462.04 L 887.01 316.06 L 1018.95 366.36 L 954.4 547.28 Z"
                fill="#022a37"/>
            <path
                id="path_99"
                clip-path="url(#clip_path_99)"
                d="M 952.24 541.85 L 837.05 493.71 L 950.52 536.97 L 1010.24 369.59 L 952.24 541.85 Z"
                fill="#022a37"/>
            <path
                id="path_100"
                clip-path="url(#clip_path_100)"
                d="M 950.52 536.97 L 831.89 491.74 L 891.61 324.36 L 1010.24 369.59 L 950.52 536.97 Z"
                fill="#fcfcfc"/>
            <path
                id="path_101"
                clip-path="url(#clip_path_101)"
                d="M 864.71 397.23 L 891.19 323.47 L 925.39 336.51 L 925.16 337.15 L 891.61 324.36 L 865.74 396.85 L 864.71 397.23 Z"
                fill="#5475bf"/>
            <path
                id="path_102"
                clip-path="url(#clip_path_102)"
                d="M 865.74 396.85 L 891.61 324.36 L 925.16 337.15 L 923.7 341.24 L 969.36 358.64 L 904.68 382.49 C 900 380.71 895.32 378.92 890.64 377.14 C 890.53 377.1 890.42 377.08 890.32 377.08 C 889.92 377.08 889.54 377.33 889.4 377.73 C 887.98 381.72 886.55 385.71 885.13 389.7 L 865.74 396.85 Z M 887.5 388.82 C 888.63 385.67 889.76 382.51 890.88 379.35 C 894.54 380.74 898.2 382.14 901.85 383.53 L 887.5 388.82 Z"
                fill="#efefef"/>
            <path
                id="path_103"
                clip-path="url(#clip_path_103)"
                d="M 976.68 356.8 L 975.55 356.36 L 976.52 356.01 L 925.39 336.51 L 925.48 336.27 L 977 355.91 L 976.68 356.8 Z"
                fill="#4d6cb1"/>
            <path
                id="path_104"
                clip-path="url(#clip_path_104)"
                d="M 975.23 360.88 L 969.36 358.64 L 975.55 356.36 L 976.68 356.8 L 975.23 360.88 Z"
                fill="#dddddd"/>
            <path
                id="path_105"
                clip-path="url(#clip_path_105)"
                d="M 975.55 356.36 L 925.16 337.15 L 925.39 336.51 L 976.52 356.01 L 975.55 356.36 Z"
                fill="#4a67a8"/>
            <path
                id="path_106"
                clip-path="url(#clip_path_106)"
                d="M 969.36 358.64 L 923.7 341.24 L 925.16 337.15 L 975.55 356.36 L 969.36 358.64 Z"
                fill="#d2d2d2"/>
            <path
                id="path_107"
                clip-path="url(#clip_path_107)"
                d="M 963.31 333.86 L 949.74 328.69 C 948.35 328.16 947.63 326.56 948.14 325.13 C 948.65 323.71 950.2 322.97 951.59 323.5 L 965.16 328.68 C 966.55 329.21 967.27 330.8 966.76 332.23 C 966.25 333.66 964.7 334.39 963.31 333.86 Z M 971.8 336.85 L 971.01 336.55 L 971.2 335.99 C 973.06 330.78 969.84 324.74 964.01 322.52 L 956.33 319.59 C 950.5 317.37 944.26 319.79 942.4 325.01 L 942.2 325.57 L 941.4 325.26 C 935.57 323.04 929.33 325.46 927.47 330.68 L 923.7 341.24 L 975.23 360.88 L 978.99 350.33 C 980.85 345.11 977.64 339.08 971.8 336.85 Z"
                fill="#dfe4e8"/>
            <path
                id="path_108"
                clip-path="url(#clip_path_108)"
                d="M 901.35 403.61 C 901.24 403.61 901.13 403.59 901.01 403.54 C 895.2 401.33 889.4 399.11 883.59 396.9 C 883.1 396.71 882.84 396.13 883.02 395.62 C 883.72 393.65 884.42 391.67 885.13 389.7 L 887.5 388.82 C 886.72 391.01 885.94 393.2 885.16 395.38 C 890.36 397.37 895.57 399.35 900.77 401.33 C 902.67 395.99 904.58 390.64 906.49 385.3 C 904.94 384.71 903.4 384.12 901.85 383.53 L 904.68 382.49 C 905.8 382.92 906.93 383.35 908.06 383.78 C 908.55 383.97 908.81 384.55 908.63 385.06 C 906.51 391.02 904.38 396.99 902.25 402.96 C 902.15 403.23 901.98 403.4 901.78 403.5 L 901.75 403.51 L 901.71 403.53 C 901.6 403.58 901.48 403.61 901.35 403.61 Z"
                fill="#ff0000"/>
            <path
                id="path_109"
                clip-path="url(#clip_path_109)"
                d="M 885.13 389.7 C 886.55 385.71 887.98 381.72 889.4 377.73 C 889.54 377.33 889.92 377.08 890.32 377.08 C 890.42 377.08 890.53 377.1 890.64 377.14 C 895.32 378.92 900 380.71 904.68 382.49 L 901.85 383.53 C 898.2 382.14 894.54 380.74 890.88 379.35 C 889.76 382.51 888.63 385.67 887.5 388.82 L 885.13 389.7 Z"
                fill="#ff0000"/>
            <path
                id="path_110"
                clip-path="url(#clip_path_110)"
                d="M 889.54 436.7 C 889.44 436.7 889.32 436.68 889.2 436.63 C 883.4 434.42 877.59 432.2 871.78 429.99 C 871.29 429.8 871.03 429.22 871.21 428.71 C 873.34 422.75 875.47 416.78 877.59 410.82 C 877.74 410.42 878.12 410.17 878.51 410.17 C 878.62 410.17 878.73 410.19 878.84 410.23 C 884.64 412.44 890.45 414.66 896.25 416.87 C 896.74 417.06 897.01 417.64 896.83 418.15 C 894.7 424.11 892.57 430.08 890.44 436.05 C 890.34 436.32 890.17 436.49 889.97 436.59 L 889.95 436.6 L 889.9 436.62 C 889.8 436.67 889.67 436.7 889.54 436.7 Z M 879.08 412.44 C 877.17 417.79 875.26 423.13 873.36 428.47 C 878.56 430.46 883.76 432.44 888.96 434.42 C 890.87 429.08 892.77 423.73 894.68 418.39 C 889.48 416.41 884.28 414.42 879.08 412.44 Z"
                fill="#c7cbcd"/>
            <path
                id="path_111"
                clip-path="url(#clip_path_111)"
                d="M 877.74 469.79 C 877.63 469.79 877.52 469.77 877.4 469.72 C 871.59 467.51 865.78 465.3 859.98 463.08 C 859.48 462.89 859.22 462.31 859.4 461.8 C 861.53 455.84 863.66 449.87 865.79 443.91 C 865.93 443.51 866.31 443.26 866.7 443.26 C 866.81 443.26 866.92 443.28 867.03 443.32 C 872.83 445.54 878.64 447.75 884.45 449.96 C 884.94 450.15 885.2 450.74 885.02 451.24 C 882.89 457.21 880.76 463.17 878.64 469.14 C 878.54 469.41 878.36 469.58 878.16 469.68 L 878.14 469.69 L 878.1 469.71 C 877.99 469.76 877.87 469.79 877.74 469.79 Z M 867.27 445.53 C 865.36 450.88 863.46 456.22 861.55 461.56 C 866.75 463.55 871.95 465.53 877.15 467.51 C 879.06 462.17 880.97 456.83 882.87 451.48 C 877.67 449.5 872.47 447.52 867.27 445.53 Z"
                fill="#c7cbcd"/>
            <path
                id="path_112"
                clip-path="url(#clip_path_112)"
                d="M 906.14 402.71 L 905.47 402.71 L 905.47 402.71 L 883.16 376.26 L 884.2 373.32 L 909.61 401 L 906.14 402.71 Z"
                fill="#ff0000"/>
            <path
                id="path_113"
                clip-path="url(#clip_path_113)"
                d="M 881.52 399.13 L 881.54 398.46 L 881.54 398.46 L 908.52 376.8 L 911.43 377.91 L 883.15 402.64 L 881.52 399.13 Z"
                fill="#ff0000"/>
            <path
                id="path_114"
                clip-path="url(#clip_path_114)"
                d="M 869 450.7 L 873.49 450.86 L 874.24 455.82 L 898.43 448.95 L 900.49 450.25 L 871.56 460.51 L 869 450.7 Z"
                fill="#037d03"/>
            <path
                id="path_115"
                clip-path="url(#clip_path_115)"
                d="M 868.12 418.15 L 872.61 418.3 L 873.36 423.27 L 897.55 416.39 L 899.61 417.69 L 870.68 427.95 L 868.12 418.15 Z"
                fill="#0b8c0b"/>
            <path
                id="path_116"
                clip-path="url(#clip_path_116)"
                d="M 951.29 493.88 L 889.85 470.45 L 893.04 461.5 L 954.49 484.93 L 951.29 493.88 Z"
                fill="#d8dbdc"/>
            <path
                id="path_117"
                clip-path="url(#clip_path_117)"
                d="M 963.8 458.83 L 902.35 435.4 L 905.54 426.45 L 966.99 449.88 L 963.8 458.83 Z"
                fill="#d8dbdc"/>
            <path
                id="path_118"
                clip-path="url(#clip_path_118)"
                d="M 976.3 423.78 L 914.86 400.35 L 918.05 391.4 L 979.5 414.83 L 976.3 423.78 Z"
                fill="#d8dbdc"/>
            <path
                id="path_119"
                clip-path="url(#clip_path_119)"
                d="M 1002.58 375.65 C 1002.98 376.76 1002.97 378.32 1001.93 378.8 C 1001.3 379.09 1000.58 378.85 999.9 378.72 C 997.33 378.25 994.55 379.83 993.56 382.32 C 992.4 385.26 993.74 388.78 996.1 390.81 C 998.46 392.84 1001.6 393.62 1004.65 393.9 C 1006.57 394.07 1008.72 394 1010.12 392.64 C 1010.84 391.94 1011.28 390.98 1011.65 390.03 C 1013.57 385.17 1015.17 378.83 1011.46 374.4 C 1008.53 370.92 999.85 368.12 1002.58 375.65 Z"
                fill="#eacdb0"/>
            <path
                id="path_120"
                clip-path="url(#clip_path_120)"
                d="M 1024.55 374.66 C 1024.17 374.16 1023.72 373.7 1023.22 373.27 C 1019.14 369.86 1013.86 366.58 1008.43 368.32 C 1010.07 378.71 1008.51 389.62 1004.05 399.08 C 1003.69 399.83 1003.32 400.7 1003.64 401.46 C 1004.26 402.89 1008.72 403.91 1010.06 403.97 C 1015.97 404.24 1022.06 401.2 1024.62 396.69 C 1026.13 394.05 1026.46 391.11 1026.74 388.24 C 1027.18 383.8 1027.38 378.32 1024.55 374.66 Z"
                fill="#959596"/>
            <path
                id="path_121"
                clip-path="url(#clip_path_121)"
                d="M 489.24 407.66 C 489.27 407.35 489.3 407.03 489.38 406.76 C 490.16 404.19 491.68 403.49 492.93 401.32 C 493.49 400.35 492.76 397.33 494.62 397.59 C 495.31 397.68 496.97 398.24 498.43 398.47 C 500.57 398.79 503.41 397.42 505.53 395.75 C 508.37 393.51 511.34 391.05 513.89 388.26 C 519.24 382.42 524.73 375.1 529.18 367.95 C 520.98 357.24 517.66 339.9 520.96 324.97 C 521.3 323.41 521.74 321.83 522.58 320.68 C 523.28 319.71 524.23 319.13 525.18 318.73 C 535.26 314.45 537.75 327.86 540.09 338.54 C 541.55 345.2 542.72 352.1 543.45 358.99 C 544.48 368.65 540.99 375.53 535.92 381.95 C 530.54 388.75 525 395.51 518.68 400.59 C 515.61 403.06 512.42 404.56 509.17 406.43 C 505.96 408.29 506.73 410.16 504.23 412.78 C 502.83 414.25 501.6 416.1 500.02 417.19 C 497.19 419.12 494.29 417.05 491.64 415.58 C 490.97 415.22 490.52 414.97 490.09 414.27 C 489.39 413.12 489.33 411.67 489.24 410.23 C 489.18 409.37 489.18 408.51 489.24 407.66 Z"
                fill="#eacdb0"/>
            <path
                id="path_122"
                clip-path="url(#clip_path_122)"
                d="M 546.18 342.08 C 546.92 347.36 547.48 352.59 547.88 357.65 C 548.47 365.21 548.95 373.45 545.95 379.81 C 544.79 382.26 543.19 384.23 541.6 386.16 C 534.06 395.33 526.36 404.23 518.5 412.85 C 514.34 408.39 510.67 403.04 507.65 397.06 C 506.81 395.38 505.98 393.48 506.11 391.45 C 506.3 388.42 508.45 386.47 510.37 384.99 C 513.49 382.58 516.61 380.16 519.74 377.75 C 520.75 376.96 521.85 376.04 522.19 374.51 C 522.42 373.5 522.27 372.42 522.12 371.4 C 519.13 352 513.92 336.68 507.5 319.12 C 504.67 311.38 501.78 303.33 501.55 294.66 C 501.06 276.15 517.09 266.04 526.31 280.34 C 536.82 296.65 543.07 319.86 546.18 342.08 Z"
                fill="#ddab14"/>
            <path
                id="path_123"
                clip-path="url(#clip_path_123)"
                d="M 454.37 412.45 C 455.44 411.23 455.81 409.32 455.07 407.86 C 457.82 408.23 460.65 408.6 463.34 407.9 C 466.03 407.2 468.58 405.16 469.11 402.35 C 465.8 398.28 460.88 395.67 455.76 395.26 C 453.53 395.08 451.15 395.36 449.36 396.73 C 441.93 402.44 446.66 421.25 454.37 412.45 Z"
                fill="#eacdb0"/>
            <path
                id="path_124"
                clip-path="url(#clip_path_124)"
                d="M 449.81 404.25 C 451.52 402.83 453.66 402.09 455.77 401.46 C 458.05 400.78 460.6 400 461.75 397.85 C 462.73 396.02 462.35 393.72 461.59 391.77 C 460.08 387.92 457.08 384.63 453.3 383.21 C 449.52 381.78 445 382.38 441.9 385.04 C 439.1 387.45 437.68 391.24 437.35 394.99 C 436.8 401.18 438.91 412.34 447.1 410.06 C 447.11 407.77 448.08 405.69 449.81 404.25 Z"
                fill="#eacdb0"/>
        </g>
    </g>
</svg>
