<svg
    xmlns="http://www.w3.org/2000/svg"
    viewBox="0 0 36 36"
    id="vector">
    <defs>
        <clipPath id="clip_path_10">
            <path d="M 0 0 L 36 0 L 36 36 L 0 36 Z M 0 0"/>
        </clipPath>
        <clipPath id="clip_path_11">
            <path d="M 0 0 L 36 0 L 36 36 L 0 36 Z M 0 0"/>
        </clipPath>
        <clipPath id="clip_path_12">
            <path d="M 0 0 L 36 0 L 36 36 L 0 36 Z M 0 0"/>
        </clipPath>
        <clipPath id="clip_path_13">
            <path d="M 0 0 L 36 0 L 36 36 L 0 36 Z M 0 0"/>
        </clipPath>
        <clipPath id="clip_path_14">
            <path d="M 0 0 L 36 0 L 36 36 L 0 36 Z M 0 0"/>
        </clipPath>
        <clipPath id="clip_path_15">
            <path d="M 0 0 L 36 0 L 36 36 L 0 36 Z M 0 0"/>
        </clipPath>
        <clipPath id="clip_path_16">
            <path d="M 0 0 L 36 0 L 36 36 L 0 36 Z M 0 0"/>
        </clipPath>
        <clipPath id="clip_path_17">
            <path d="M 0 0 L 36 0 L 36 36 L 0 36 Z M 0 0"/>
        </clipPath>
        <clipPath id="clip_path_18">
            <path d="M 0 0 L 36 0 L 36 36 L 0 36 Z M 0 0"/>
        </clipPath>
        <clipPath id="clip_path_19">
            <path d="M 0 0 L 36 0 L 36 36 L 0 36 Z M 0 0"/>
        </clipPath>
        <clipPath id="clip_path_20">
            <path d="M 0 0 L 36 0 L 36 36 L 0 36 Z M 0 0"/>
        </clipPath>
        <clipPath id="clip_path_21">
            <path d="M 0 0 L 36 0 L 36 36 L 0 36 Z M 0 0"/>
        </clipPath>
        <clipPath id="clip_path_22">
            <path d="M 0 0 L 36 0 L 36 36 L 0 36 Z M 0 0"/>
        </clipPath>
        <clipPath id="clip_path_23">
            <path d="M 0 0 L 36 0 L 36 36 L 0 36 Z M 0 0"/>
        </clipPath>
        <clipPath id="clip_path_24">
            <path d="M 0 0 L 36 0 L 36 36 L 0 36 Z M 0 0"/>
        </clipPath>
        <clipPath id="clip_path_25">
            <path d="M 0 0 L 36 0 L 36 36 L 0 36 Z M 0 0"/>
        </clipPath>
        <clipPath id="clip_path_26">
            <path d="M 0 0 L 36 0 L 36 36 L 0 36 Z M 0 0"/>
        </clipPath>
        <clipPath id="clip_path_27">
            <path d="M 0 0 L 36 0 L 36 36 L 0 36 Z M 0 0"/>
        </clipPath>
    </defs>
    <g id="group_2">
        <path
            id="path_10"
            clip-path="url(#clip_path_10)"
            d="M 18 18 M 0 18 C 0 13.228 1.898 8.646 5.272 5.272 C 8.646 1.898 13.228 0 18 0 C 22.772 0 27.354 1.898 30.728 5.272 C 34.102 8.646 36 13.228 36 18 C 36 22.772 34.102 27.354 30.728 30.728 C 27.354 34.102 22.772 36 18 36 C 13.228 36 8.646 34.102 5.272 30.728 C 1.898 27.354 0 22.772 0 18"
            fill="#382b73"/>
        <path
            id="path_11"
            clip-path="url(#clip_path_11)"
            d="M 18 18 M 2.625 18 C 2.625 13.924 4.246 10.01 7.128 7.128 C 10.01 4.246 13.924 2.625 18 2.625 C 22.076 2.625 25.99 4.246 28.872 7.128 C 31.754 10.01 33.375 13.924 33.375 18 C 33.375 22.076 31.754 25.99 28.872 28.872 C 25.99 31.754 22.076 33.375 18 33.375 C 13.924 33.375 10.01 31.754 7.128 28.872 C 4.246 25.99 2.625 22.076 2.625 18"
            fill="#473080"/>
        <path
            id="path_12"
            clip-path="url(#clip_path_12)"
            d="M 28.662 14.378 L 24.029 14.378 L 24.029 12.647 C 24.029 11.979 23.488 11.437 22.819 11.437 L 10.014 11.437 C 9.346 11.437 8.804 11.979 8.804 12.647 L 8.804 25.453 C 8.804 26.121 9.346 26.662 10.014 26.662 L 22.819 26.662 C 23.488 26.662 24.029 26.121 24.029 25.453 L 24.029 23.324 L 28.662 23.324 C 28.98 23.324 29.238 23.066 29.238 22.748 L 29.238 22.001 L 29.238 15.701 L 29.238 14.954 C 29.238 14.636 28.98 14.378 28.662 14.378 Z"
            fill="#382b73"/>
        <path
            id="path_13"
            clip-path="url(#clip_path_13)"
            d="M 22.819 10.387 L 10.014 10.387 C 9.346 10.387 8.804 10.929 8.804 11.597 L 8.804 24.403 C 8.804 25.071 9.346 25.612 10.014 25.612 L 22.819 25.612 C 23.488 25.612 24.029 25.071 24.029 24.403 L 24.029 11.597 C 24.029 10.929 23.488 10.387 22.819 10.387 Z"
            fill="#f7cb15"/>
        <path
            id="path_14"
            clip-path="url(#clip_path_14)"
            d="M 22.819 24.05 L 10.014 24.05 C 9.346 24.05 8.804 23.508 8.804 22.84 L 8.804 24.403 C 8.804 25.071 9.346 25.613 10.014 25.613 L 22.819 25.613 C 23.488 25.613 24.029 25.071 24.029 24.403 L 24.029 22.84 C 24.029 23.508 23.488 24.05 22.819 24.05 Z"
            fill="#e7ad27"/>
        <path
            id="path_15"
            clip-path="url(#clip_path_15)"
            d="M 16.933 17.378 L 15.9 17.378 C 15.232 17.378 14.69 16.837 14.69 16.168 L 14.69 10.387 L 18.144 10.387 L 18.144 16.168 C 18.143 16.836 17.602 17.378 16.933 17.378 L 16.933 17.378 Z"
            fill="#e7ad27"/>
        <path
            id="path_16"
            clip-path="url(#clip_path_16)"
            d="M 13.11 22.722 L 10.237 22.722 C 10.007 22.722 9.821 22.536 9.821 22.306 C 9.821 22.077 10.007 21.89 10.237 21.89 L 13.11 21.89 C 13.34 21.89 13.526 22.076 13.526 22.306 C 13.526 22.536 13.34 22.722 13.11 22.722 Z"
            fill="#fede3a"/>
        <path
            id="path_17"
            clip-path="url(#clip_path_17)"
            d="M 13.11 21.235 L 10.237 21.235 C 10.007 21.235 9.821 21.049 9.821 20.819 C 9.821 20.589 10.007 20.403 10.237 20.403 L 13.11 20.403 C 13.34 20.403 13.526 20.589 13.526 20.819 C 13.526 21.049 13.34 21.235 13.11 21.235 Z"
            fill="#fede3a"/>
        <path
            id="path_18"
            clip-path="url(#clip_path_18)"
            d="M 24.029 14.675 L 19.494 14.675 C 19.176 14.675 18.918 14.933 18.918 15.251 L 18.918 22.298 C 18.918 22.616 19.176 22.874 19.494 22.874 L 24.029 22.874 L 24.029 14.675 Z"
            fill="#e7ad27"/>
        <path
            id="path_19"
            clip-path="url(#clip_path_19)"
            d="M 28.662 22.274 L 19.493 22.274 C 19.176 22.274 18.918 22.016 18.918 21.698 L 18.918 14.651 C 18.918 14.333 19.176 14.075 19.493 14.075 L 28.662 14.075 C 28.98 14.075 29.238 14.333 29.238 14.651 L 29.238 21.698 C 29.238 22.016 28.98 22.274 28.662 22.274 Z"
            fill="#d1d3d4"/>
        <path
            id="path_20"
            clip-path="url(#clip_path_20)"
            d="M 28.662 21.527 L 19.493 21.527 C 19.176 21.527 18.918 21.269 18.918 20.951 L 18.918 13.903 C 18.918 13.586 19.176 13.328 19.493 13.328 L 28.662 13.328 C 28.98 13.328 29.238 13.586 29.238 13.903 L 29.238 20.951 C 29.238 21.269 28.98 21.527 28.662 21.527 Z"
            fill="#ffffff"/>
        <path
            id="path_21"
            clip-path="url(#clip_path_21)"
            d="M 27.97 15.094 L 28.107 15.094 C 28.186 15.094 28.251 15.158 28.251 15.238 L 28.251 20.29 C 28.251 20.369 28.186 20.433 28.107 20.433 L 27.97 20.433 C 27.891 20.433 27.826 20.369 27.826 20.29 L 27.826 15.238 C 27.826 15.158 27.891 15.094 27.97 15.094 Z"
            fill="#1caee4"/>
        <path
            id="path_22"
            clip-path="url(#clip_path_22)"
            d="M 20.314 15.094 L 20.68 15.094 C 20.759 15.094 20.824 15.158 20.824 15.238 L 20.824 19.617 C 20.824 19.697 20.759 19.761 20.68 19.761 L 20.314 19.761 C 20.235 19.761 20.171 19.697 20.171 19.617 L 20.171 15.238 C 20.171 15.158 20.235 15.094 20.314 15.094 Z"
            fill="#1caee4"/>
        <path
            id="path_23"
            clip-path="url(#clip_path_23)"
            d="M 21.543 15.094 L 21.59 15.094 C 21.669 15.094 21.734 15.158 21.734 15.238 L 21.734 20.29 C 21.734 20.369 21.669 20.433 21.59 20.433 L 21.543 20.433 C 21.463 20.433 21.399 20.369 21.399 20.29 L 21.399 15.238 C 21.399 15.158 21.463 15.094 21.543 15.094 Z"
            fill="#1caee4"/>
        <path
            id="path_24"
            clip-path="url(#clip_path_24)"
            d="M 25.726 15.094 L 26.094 15.094 C 26.174 15.094 26.238 15.158 26.238 15.238 L 26.238 19.617 C 26.238 19.697 26.174 19.761 26.094 19.761 L 25.726 19.761 C 25.647 19.761 25.582 19.697 25.582 19.617 L 25.582 15.238 C 25.582 15.158 25.647 15.094 25.726 15.094 Z"
            fill="#1caee4"/>
        <path
            id="path_25"
            clip-path="url(#clip_path_25)"
            d="M 26.957 15.094 L 27.154 15.094 C 27.234 15.094 27.298 15.158 27.298 15.238 L 27.298 19.617 C 27.298 19.697 27.234 19.761 27.154 19.761 L 26.957 19.761 C 26.878 19.761 26.813 19.697 26.813 19.617 L 26.813 15.238 C 26.813 15.158 26.878 15.094 26.957 15.094 Z"
            fill="#1caee4"/>
        <path
            id="path_26"
            clip-path="url(#clip_path_26)"
            d="M 22.453 15.094 L 23.646 15.094 C 23.726 15.094 23.79 15.158 23.79 15.238 L 23.79 19.617 C 23.79 19.697 23.726 19.761 23.646 19.761 L 22.453 19.761 C 22.374 19.761 22.309 19.697 22.309 19.617 L 22.309 15.238 C 22.309 15.158 22.374 15.094 22.453 15.094 Z"
            fill="#1caee4"/>
        <path
            id="path_27"
            clip-path="url(#clip_path_27)"
            d="M 24.504 15.094 L 24.863 15.094 C 24.943 15.094 25.007 15.158 25.007 15.238 L 25.007 20.29 C 25.007 20.369 24.943 20.433 24.863 20.433 L 24.504 20.433 C 24.425 20.433 24.36 20.369 24.36 20.29 L 24.36 15.238 C 24.36 15.158 24.425 15.094 24.504 15.094 Z"
            fill="#1caee4"/>
    </g>
</svg>
