<svg
    xmlns="http://www.w3.org/2000/svg"
    viewBox="0 0 36 36"
    id="vector">
    <defs>
        <clipPath id="clip_path_10">
            <path d="M 0 0 L 36 0 L 36 36 L 0 36 Z M 0 0"/>
        </clipPath>
        <clipPath id="clip_path_11">
            <path d="M 0 0 L 36 0 L 36 36 L 0 36 Z M 0 0"/>
        </clipPath>
        <clipPath id="clip_path_12">
            <path d="M 0 0 L 36 0 L 36 36 L 0 36 Z M 0 0"/>
        </clipPath>
        <clipPath id="clip_path_13">
            <path d="M 0 0 L 36 0 L 36 36 L 0 36 Z M 0 0"/>
        </clipPath>
        <clipPath id="clip_path_14">
            <path d="M 0 0 L 36 0 L 36 36 L 0 36 Z M 0 0"/>
        </clipPath>
        <clipPath id="clip_path_15">
            <path d="M 0 0 L 36 0 L 36 36 L 0 36 Z M 0 0"/>
        </clipPath>
        <clipPath id="clip_path_16">
            <path d="M 0 0 L 36 0 L 36 36 L 0 36 Z M 0 0"/>
        </clipPath>
        <clipPath id="clip_path_17">
            <path d="M 0 0 L 36 0 L 36 36 L 0 36 Z M 0 0"/>
        </clipPath>
        <clipPath id="clip_path_18">
            <path d="M 0 0 L 36 0 L 36 36 L 0 36 Z M 0 0"/>
        </clipPath>
        <clipPath id="clip_path_19">
            <path d="M 0 0 L 36 0 L 36 36 L 0 36 Z M 0 0"/>
        </clipPath>
        <clipPath id="clip_path_20">
            <path d="M 0 0 L 36 0 L 36 36 L 0 36 Z M 0 0"/>
        </clipPath>
        <clipPath id="clip_path_21">
            <path d="M 0 0 L 36 0 L 36 36 L 0 36 Z M 0 0"/>
        </clipPath>
        <clipPath id="clip_path_22">
            <path d="M 0 0 L 36 0 L 36 36 L 0 36 Z M 0 0"/>
        </clipPath>
        <clipPath id="clip_path_23">
            <path d="M 0 0 L 36 0 L 36 36 L 0 36 Z M 0 0"/>
        </clipPath>
        <clipPath id="clip_path_24">
            <path d="M 0 0 L 36 0 L 36 36 L 0 36 Z M 0 0"/>
        </clipPath>
        <clipPath id="clip_path_25">
            <path d="M 0 0 L 36 0 L 36 36 L 0 36 Z M 0 0"/>
        </clipPath>
        <clipPath id="clip_path_26">
            <path d="M 0 0 L 36 0 L 36 36 L 0 36 Z M 0 0"/>
        </clipPath>
        <clipPath id="clip_path_27">
            <path d="M 0 0 L 36 0 L 36 36 L 0 36 Z M 0 0"/>
        </clipPath>
        <clipPath id="clip_path_61">
            <path d="M 0 0 L 36 0 L 36 36 L 0 36 Z M 0 0"/>
        </clipPath>
        <clipPath id="clip_path_62">
            <path d="M 0 0 L 36 0 L 36 36 L 0 36 Z M 0 0"/>
        </clipPath>
    </defs>
    <g id="group_1">
        <path
            id="path_10"
            clip-path="url(#clip_path_10)"
            d="M 36 19.195 L 30.11 15.794 L 35.958 12.396 L 35.96 11.961 L 24.187 5.164 L 17.962 8.781 L 17.962 8.781 L 11.698 5.164 L 0.001 11.961 L 0 12.396 L 5.89 15.797 L 0.042 19.195 L 0.04 19.63 L 6.248 23.214 L 6.234 29.203 L 18.007 36 L 29.703 29.203 L 29.717 23.28 L 35.999 19.63 L 36 19.195 Z"
            fill="#eebf00"/>
        <path
            id="path_11"
            clip-path="url(#clip_path_11)"
            d="M 24.187 5.164 L 35.96 11.961 L 29.735 15.578 L 17.962 8.781 L 24.187 5.164 Z"
            fill="#ffde56"/>
        <path
            id="path_12"
            clip-path="url(#clip_path_12)"
            d="M 29.735 15.578 L 29.734 16.013 L 17.961 9.216 L 17.962 8.781 L 29.735 15.578 Z"
            fill="#fece00"/>
        <path
            id="path_13"
            clip-path="url(#clip_path_13)"
            d="M 35.96 11.961 L 35.958 12.396 L 29.734 16.013 L 29.735 15.578 L 35.96 11.961 Z"
            fill="#eebf00"/>
        <path
            id="path_14"
            clip-path="url(#clip_path_14)"
            d="M 11.698 5.164 L 17.962 8.781 L 6.266 15.578 L 0.001 11.961 L 11.698 5.164 Z"
            fill="#ffde56"/>
        <path
            id="path_15"
            clip-path="url(#clip_path_15)"
            d="M 6.266 15.578 L 6.265 16.013 L 0 12.396 L 0.001 11.961 L 6.266 15.578 Z"
            fill="#fed322"/>
        <path
            id="path_16"
            clip-path="url(#clip_path_16)"
            d="M 17.962 8.781 L 17.961 9.216 L 6.265 16.013 L 6.266 15.578 L 17.962 8.781 Z"
            fill="#eebf00"/>
        <path
            id="path_17"
            clip-path="url(#clip_path_17)"
            d="M 28.226 15.578 L 28.193 29.203 L 17.936 23.28 L 17.968 9.655 L 28.226 15.578 Z"
            fill="#fed322"/>
        <path
            id="path_18"
            clip-path="url(#clip_path_18)"
            d="M 17.968 9.655 L 17.936 23.28 L 7.744 29.203 L 7.776 15.578 L 17.968 9.655 Z"
            fill="#eebf00"/>
        <path
            id="path_19"
            clip-path="url(#clip_path_19)"
            d="M 18.039 22.375 L 18.007 36 L 6.234 29.203 L 6.266 15.578 L 18.039 22.375 Z"
            fill="#fed322"/>
        <path
            id="path_20"
            clip-path="url(#clip_path_20)"
            d="M 11.827 21.544 L 8.793 23.273 L 10.369 24.183 L 10.353 29.638 L 13.251 31.311 L 13.266 25.856 L 14.842 26.766 L 11.827 21.544 Z"
            fill="#57565c"/>
        <path
            id="path_21"
            clip-path="url(#clip_path_21)"
            d="M 29.735 15.578 L 29.703 29.203 L 18.007 36 L 18.039 22.375 L 29.735 15.578 Z"
            fill="#eebf00"/>
        <path
            id="path_22"
            clip-path="url(#clip_path_22)"
            d="M 17.962 8.781 L 29.735 15.578 L 18.039 22.375 L 6.266 15.578 L 17.962 8.781 Z M 18.034 21.5 L 28.226 15.578 L 17.968 9.656 L 7.776 15.578 L 18.034 21.5 Z"
            fill="#ffe577"/>
        <path
            id="path_23"
            clip-path="url(#clip_path_23)"
            d="M 11.814 25.992 L 0.042 19.195 L 0.04 19.63 L 11.813 26.427 L 18.038 22.81 L 18.039 22.375 L 11.814 25.992 Z"
            fill="#eebf00"/>
        <path
            id="path_24"
            clip-path="url(#clip_path_24)"
            d="M 6.266 15.578 L 18.039 22.375 L 11.814 25.992 L 0.042 19.195 L 6.266 15.578 Z"
            fill="#ffde56"/>
        <path
            id="path_25"
            clip-path="url(#clip_path_25)"
            d="M 11.814 25.992 L 11.813 26.427 L 0.04 19.63 L 0.042 19.195 L 11.814 25.992 Z"
            fill="#fece00"/>
        <path
            id="path_26"
            clip-path="url(#clip_path_26)"
            d="M 18.039 22.375 L 18.038 22.81 L 11.813 26.427 L 11.814 25.992 L 18.039 22.375 Z"
            fill="#eebf00"/>
        <path
            id="path_27"
            clip-path="url(#clip_path_27)"
            d="M 29.735 15.578 L 36 19.195 L 24.304 25.992 L 18.039 22.375 L 29.735 15.578 Z"
            fill="#ffde56"/>
        <path
            id="path_61"
            clip-path="url(#clip_path_61)"
            d="M 24.304 25.992 L 24.302 26.427 L 18.038 22.81 L 18.039 22.375 L 24.304 25.992 Z"
            fill="#fed322"/>
        <path
            id="path_62"
            clip-path="url(#clip_path_62)"
            d="M 36 19.195 L 35.999 19.63 L 24.302 26.427 L 24.304 25.992 L 36 19.195 Z"
            fill="#eebf00"/>
    </g>
</svg>
