<svg
    xmlns="http://www.w3.org/2000/svg"
    viewBox="0 0 500 500"
    id="vector">
    <defs>
        <clipPath id="clip_path">
            <path d="M 0 0 L 500 0 L 500 500 L 0 500 Z M 0 0"/>
        </clipPath>
        <clipPath id="clip_path_1">
            <path d="M 0 0 L 500 0 L 500 500 L 0 500 Z M 0 0"/>
        </clipPath>
        <clipPath id="clip_path_5">
            <path d="M 0 0 L 500 0 L 500 500 L 0 500 Z M 0 0"/>
        </clipPath>
        <clipPath id="clip_path_6">
            <path d="M 0 0 L 500 0 L 500 500 L 0 500 Z M 0 0"/>
        </clipPath>
        <clipPath id="clip_path_7">
            <path d="M 0 0 L 500 0 L 500 500 L 0 500 Z M 0 0"/>
        </clipPath>
        <clipPath id="clip_path_12">
            <path d="M 0 0 L 500 0 L 500 500 L 0 500 Z M 0 0"/>
        </clipPath>
        <clipPath id="clip_path_13">
            <path d="M 0 0 L 500 0 L 500 500 L 0 500 Z M 0 0"/>
        </clipPath>
        <clipPath id="clip_path_14">
            <path d="M 0 0 L 500 0 L 500 500 L 0 500 Z M 0 0"/>
        </clipPath>
        <clipPath id="clip_path_15">
            <path d="M 0 0 L 500 0 L 500 500 L 0 500 Z M 0 0"/>
        </clipPath>
        <clipPath id="clip_path_16">
            <path d="M 0 0 L 500 0 L 500 500 L 0 500 Z M 0 0"/>
        </clipPath>
        <clipPath id="clip_path_17">
            <path d="M 0 0 L 500 0 L 500 500 L 0 500 Z M 0 0"/>
        </clipPath>
        <clipPath id="clip_path_18">
            <path d="M 0 0 L 500 0 L 500 500 L 0 500 Z M 0 0"/>
        </clipPath>
        <clipPath id="clip_path_19">
            <path d="M 0 0 L 500 0 L 500 500 L 0 500 Z M 0 0"/>
        </clipPath>
        <clipPath id="clip_path_20">
            <path d="M 0 0 L 500 0 L 500 500 L 0 500 Z M 0 0"/>
        </clipPath>
        <clipPath id="clip_path_21">
            <path d="M 0 0 L 500 0 L 500 500 L 0 500 Z M 0 0"/>
        </clipPath>
        <clipPath id="clip_path_22">
            <path d="M 0 0 L 500 0 L 500 500 L 0 500 Z M 0 0"/>
        </clipPath>
        <clipPath id="clip_path_23">
            <path d="M 0 0 L 500 0 L 500 500 L 0 500 Z M 0 0"/>
        </clipPath>
        <clipPath id="clip_path_24">
            <path d="M 0 0 L 500 0 L 500 500 L 0 500 Z M 0 0"/>
        </clipPath>
        <clipPath id="clip_path_25">
            <path d="M 0 0 L 500 0 L 500 500 L 0 500 Z M 0 0"/>
        </clipPath>
        <clipPath id="clip_path_26">
            <path d="M 0 0 L 500 0 L 500 500 L 0 500 Z M 0 0"/>
        </clipPath>
        <clipPath id="clip_path_27">
            <path d="M 0 0 L 500 0 L 500 500 L 0 500 Z M 0 0"/>
        </clipPath>
        <clipPath id="clip_path_28">
            <path d="M 0 0 L 500 0 L 500 500 L 0 500 Z M 0 0"/>
        </clipPath>
        <clipPath id="clip_path_29">
            <path d="M 0 0 L 500 0 L 500 500 L 0 500 Z M 0 0"/>
        </clipPath>
        <clipPath id="clip_path_30">
            <path d="M 0 0 L 500 0 L 500 500 L 0 500 Z M 0 0"/>
        </clipPath>
        <clipPath id="clip_path_31">
            <path d="M 0 0 L 500 0 L 500 500 L 0 500 Z M 0 0"/>
        </clipPath>
        <clipPath id="clip_path_32">
            <path d="M 0 0 L 500 0 L 500 500 L 0 500 Z M 0 0"/>
        </clipPath>
        <clipPath id="clip_path_33">
            <path d="M 0 0 L 500 0 L 500 500 L 0 500 Z M 0 0"/>
        </clipPath>
        <clipPath id="clip_path_34">
            <path d="M 0 0 L 500 0 L 500 500 L 0 500 Z M 0 0"/>
        </clipPath>
        <clipPath id="clip_path_35">
            <path d="M 0 0 L 500 0 L 500 500 L 0 500 Z M 0 0"/>
        </clipPath>
        <clipPath id="clip_path_36">
            <path d="M 0 0 L 500 0 L 500 500 L 0 500 Z M 0 0"/>
        </clipPath>
        <clipPath id="clip_path_37">
            <path d="M 0 0 L 500 0 L 500 500 L 0 500 Z M 0 0"/>
        </clipPath>
        <clipPath id="clip_path_38">
            <path d="M 0 0 L 500 0 L 500 500 L 0 500 Z M 0 0"/>
        </clipPath>
        <clipPath id="clip_group_1">
            <path d="M 0 0 L 500 0 L 500 500 L 0 500 Z M 0 0"/>
        </clipPath>
        <clipPath id="clip_path_39">
            <path d="M 64.56 307.223 L 206.831 307.223 L 206.831 321.515 L 64.56 321.515 Z M 0 0"/>
        </clipPath>
        <clipPath id="clip_path_40">
            <path d="M 64.56 307.223 L 206.831 307.223 L 206.831 321.515 L 64.56 321.515 Z M 0 0"/>
        </clipPath>
        <clipPath id="clip_path_41">
            <path d="M 64.56 307.223 L 206.831 307.223 L 206.831 321.515 L 64.56 321.515 Z M 0 0"/>
        </clipPath>
        <clipPath id="clip_path_42">
            <path d="M 64.56 307.223 L 206.831 307.223 L 206.831 321.515 L 64.56 321.515 Z M 0 0"/>
        </clipPath>
    </defs>
    <g id="group_10">
        <path
            id="path"
            clip-path="url(#clip_path)"
            d="M 85.966 142.862 L 414.189 142.862 C 421.761 142.869 429.027 145.887 434.376 151.245 C 439.726 156.604 442.731 163.875 442.725 171.447 L 442.725 392.978 C 442.729 398.656 440.476 404.11 436.464 408.128 C 432.453 412.147 427.003 414.41 421.325 414.416 L 78.831 414.416 C 75.071 414.413 71.377 413.42 68.122 411.538 C 64.867 409.656 62.165 406.949 60.287 403.691 C 58.409 400.433 57.422 396.738 57.425 392.978 L 57.425 171.447 C 57.421 166.434 58.737 161.506 61.241 157.163 C 63.744 152.819 67.348 149.21 71.687 146.7 C 76.027 144.19 80.953 142.866 85.966 142.862 Z"
            fill="#a4a4a4"/>
        <path
            id="path_1"
            clip-path="url(#clip_path_1)"
            d="M 405.84 65.469 C 400.477 60.13 393.215 57.123 385.648 57.108 L 114.507 57.108 C 109.493 57.11 104.567 58.433 100.227 60.943 C 95.886 63.453 92.282 67.063 89.779 71.407 C 87.276 75.751 85.961 80.679 85.966 85.693 L 85.966 421.562 L 414.189 421.562 L 414.189 85.693 C 414.177 78.119 411.175 70.847 405.841 65.469 Z"
            fill="#60d1e0"/>
        <path
            id="path_5"
            clip-path="url(#clip_path_5)"
            d="M 114.507 78.546 L 128.778 78.546 L 128.778 92.838 L 114.507 92.838 Z"
            fill="#3fb7c7"/>
        <path
            id="path_6"
            clip-path="url(#clip_path_6)"
            d="M 143.048 78.546 L 157.319 78.546 L 157.319 92.838 L 143.048 92.838 Z"
            fill="#3fb7c7"/>
        <path
            id="path_7"
            clip-path="url(#clip_path_7)"
            d="M 171.589 78.546 L 185.86 78.546 L 185.86 92.838 L 171.589 92.838 Z"
            fill="#3fb7c7"/>
        <path
            id="path_12"
            clip-path="url(#clip_path_12)"
            d="M 114.507 107.131 L 292.889 107.131 L 292.889 121.423 L 114.507 121.423 Z"
            fill="#3fb7c7"/>
        <path
            id="path_13"
            clip-path="url(#clip_path_13)"
            d="M 405.84 65.469 C 400.477 60.13 393.215 57.123 385.648 57.108 L 114.507 57.108 C 109.493 57.11 104.567 58.433 100.227 60.943 C 95.886 63.453 92.282 67.063 89.779 71.407 C 87.276 75.751 85.961 80.679 85.966 85.693 L 85.966 421.562 L 414.189 421.562 L 414.189 85.693 C 414.177 78.119 411.175 70.847 405.841 65.469 Z"
            fill="#e6e6e6"/>
        <path
            id="path_14"
            clip-path="url(#clip_path_14)"
            d="M 114.507 78.546 L 128.778 78.546 L 128.778 92.838 L 114.507 92.838 Z"
            fill="#3fb7c7"/>
        <path
            id="path_15"
            clip-path="url(#clip_path_15)"
            d="M 143.048 78.546 L 157.319 78.546 L 157.319 92.838 L 143.048 92.838 Z"
            fill="#3fb7c7"/>
        <path
            id="path_16"
            clip-path="url(#clip_path_16)"
            d="M 171.589 78.546 L 185.86 78.546 L 185.86 92.838 L 171.589 92.838 Z"
            fill="#3fb7c7"/>
        <path
            id="path_17"
            clip-path="url(#clip_path_17)"
            d="M 114.507 107.131 L 292.889 107.131 L 292.889 121.423 L 114.507 121.423 Z"
            fill="#3fb7c7"/>
        <path
            id="path_18"
            clip-path="url(#clip_path_18)"
            d="M 414.189 150.008 L 143.048 421.562 L 414.189 421.562 Z"
            fill="#dddddd"/>
        <path
            id="path_19"
            clip-path="url(#clip_path_19)"
            d="M 292.889 407.269 C 290.628 409.534 287.943 411.331 284.987 412.557 C 282.032 413.783 278.863 414.415 275.663 414.415 L 224.492 414.415 C 221.292 414.415 218.123 413.783 215.168 412.557 C 212.212 411.331 209.527 409.534 207.266 407.269 C 205.005 405.004 202.32 403.207 199.364 401.981 C 196.408 400.755 193.239 400.123 190.039 400.123 L 43.154 400.123 L 43.154 421.561 C 43.151 425.321 44.138 429.016 46.016 432.274 C 47.894 435.532 50.596 438.239 53.851 440.121 C 57.106 442.003 60.8 442.996 64.56 442.999 L 435.594 442.999 C 439.354 442.996 443.048 442.003 446.303 440.121 C 449.558 438.239 452.26 435.532 454.138 432.274 C 456.016 429.016 457.003 425.321 457 421.561 L 457 400.123 L 310.115 400.123 C 306.915 400.123 303.746 400.755 300.791 401.981 C 297.835 403.207 295.15 405.004 292.889 407.269 Z"
            fill="#e0e0de"/>
        <path
            id="path_20"
            clip-path="url(#clip_path_20)"
            d="M 428.459 400.123 L 428.459 421.561 C 428.462 425.321 427.475 429.017 425.597 432.275 C 423.72 435.532 421.017 438.239 417.762 440.122 C 414.507 442.004 410.813 442.997 407.053 443 L 435.594 443 C 439.354 442.997 443.048 442.004 446.303 440.122 C 449.558 438.24 452.26 435.533 454.138 432.275 C 456.016 429.017 457.003 425.322 457 421.562 L 457 400.123 Z"
            fill="#d6d6d4"/>
        <path
            id="path_21"
            clip-path="url(#clip_path_21)"
            d="M 414.188 221.469 L 442.729 221.469 L 442.729 235.761 L 414.188 235.761 Z"
            fill="#00ccff"/>
        <path
            id="path_22"
            clip-path="url(#clip_path_22)"
            d="M 57.425 342.954 L 85.966 342.954 L 85.966 357.246 L 57.425 357.246 Z"
            fill="#3086cd"/>
        <path
            id="path_23"
            clip-path="url(#clip_path_23)"
            d="M 85.966 300.077 L 257.213 300.077 L 257.213 357.246 L 85.966 357.246 Z"
            fill="#5ac6d4"/>
        <path
            id="path_24"
            clip-path="url(#clip_path_24)"
            d="M 213.049 163.853 L 204.843 152.164 C 219.249 141.999 236.455 136.539 254.086 136.539 C 271.717 136.539 288.923 141.999 303.329 152.164 L 295.111 163.853 C 283.107 155.383 268.771 150.834 254.079 150.834 C 239.388 150.834 225.052 155.383 213.048 163.853 Z"
            fill="#348fd9"/>
        <path
            id="path_25"
            clip-path="url(#clip_path_25)"
            d="M 322.841 207.456 C 303.055 189.396 276.81 179.456 248.941 179.456 L 247.941 179.456 C 226.994 179.446 206.525 185.768 189.232 197.589 L 181.212 185.767 C 200.869 172.335 224.134 165.153 247.941 165.167 L 248.941 165.167 C 280.371 165.167 310.027 176.437 332.446 196.899 Z"
            fill="#348fd9"/>
        <path
            id="path_26"
            clip-path="url(#clip_path_26)"
            d="M 339.436 309.023 L 325.701 305.135 C 329.502 291.796 329.506 277.658 325.712 264.317 C 323.373 255.871 319.592 247.893 314.536 240.735 C 300.08 220.259 275.56 208.035 248.945 208.035 L 247.945 208.035 C 235.526 208.097 223.304 211.16 212.323 216.961 C 201.341 222.762 191.923 231.131 184.871 241.354 L 181.45 246.278 L 169.737 238.113 L 173.158 233.189 C 181.524 221.077 192.695 211.164 205.715 204.297 C 218.736 197.43 233.226 193.81 247.946 193.746 L 248.946 193.746 C 280.184 193.746 309.061 208.234 326.194 232.499 C 332.189 240.979 336.674 250.432 339.449 260.44 C 343.961 276.319 343.956 293.146 339.436 309.023 Z"
            fill="#348fd9"/>
        <path
            id="path_27"
            clip-path="url(#clip_path_27)"
            d="M 297.111 381.853 L 286.824 371.943 C 301.357 356.854 312.858 339.113 320.7 319.687 L 333.924 325.054 C 325.401 346.168 312.904 365.451 297.111 381.853 Z"
            fill="#348fd9"/>
        <path
            id="path_28"
            clip-path="url(#clip_path_28)"
            d="M 247.924 390.883 L 237.834 380.783 L 264.163 354.414 C 279.612 338.946 291.122 319.992 297.721 299.15 C 300.017 291.977 300.572 284.359 299.34 276.929 C 298.108 269.499 295.123 262.468 290.635 256.42 C 286.129 250.295 280.248 245.313 273.466 241.875 C 266.684 238.437 259.189 236.638 251.585 236.625 L 247.944 236.625 C 227.42 236.625 209.028 249.996 202.175 269.899 C 200.378 275.058 197.453 279.751 193.613 283.637 L 180.639 296.626 L 170.549 286.52 L 183.464 273.585 C 185.801 271.22 187.585 268.365 188.687 265.228 C 197.522 239.571 221.331 222.328 247.946 222.328 L 251.587 222.328 C 261.433 222.346 271.138 224.675 279.919 229.128 C 288.7 233.581 296.314 240.034 302.147 247.966 C 307.972 255.822 311.843 264.952 313.441 274.6 C 315.038 284.248 314.316 294.139 311.334 303.453 C 304.042 326.48 291.325 347.423 274.256 364.513 Z"
            fill="#348fd9"/>
        <path
            id="path_29"
            clip-path="url(#clip_path_29)"
            d="M 218.171 380.234 L 208.081 370.134 L 243.97 334.191 C 256.245 322.028 265.367 307.051 270.543 290.564 C 271.459 287.677 271.675 284.614 271.173 281.627 C 270.672 278.64 269.467 275.815 267.659 273.386 C 265.823 270.844 263.407 268.776 260.612 267.354 C 257.817 265.933 254.723 265.198 251.587 265.211 L 247.946 265.211 C 239.48 265.211 232.098 270.711 229.139 279.211 C 225.978 288.523 220.71 296.981 213.747 303.925 L 211.671 306.001 L 201.592 295.889 L 203.665 293.816 C 206.848 290.631 209.59 287.035 211.818 283.122 C 213.36 280.398 214.642 277.535 215.647 274.57 C 220.577 260.403 233.547 250.923 247.947 250.923 L 251.588 250.923 C 256.97 250.9 262.28 252.16 267.078 254.599 C 271.875 257.037 276.023 260.585 279.175 264.947 C 282.319 269.185 284.41 274.111 285.275 279.316 C 286.14 284.522 285.754 289.859 284.15 294.886 C 278.226 313.537 267.902 330.492 254.05 344.316 Z"
            fill="#348fd9"/>
        <path
            id="path_30"
            clip-path="url(#clip_path_30)"
            d="M 173.32 324.138 L 191.874 305.608 L 201.953 315.731 L 183.399 334.261 Z"
            fill="#348fd9"/>
        <path
            id="path_31"
            clip-path="url(#clip_path_31)"
            d="M 196.977 361.087 L 186.887 350.981 L 223.78 314.036 C 233.804 304.011 240.947 291.471 244.458 277.736 L 258.29 281.261 C 254.146 297.484 245.711 312.296 233.874 324.138 Z"
            fill="#348fd9"/>
        <path
            id="path_32"
            clip-path="url(#clip_path_32)"
            d="M 314.294 114.283 L 457 114.283 L 457 221.475 L 314.294 221.475 Z"
            fill="#ffc700"/>
        <path
            id="path_33"
            clip-path="url(#clip_path_33)"
            d="M 328.565 85.692 L 357.106 85.692 C 357.106 78.125 360.115 70.861 365.465 65.51 C 370.816 60.16 378.08 57.151 385.647 57.151 C 393.214 57.151 400.478 60.16 405.829 65.51 C 411.179 70.861 414.188 78.125 414.188 85.692 L 414.188 114.277 L 442.729 114.277 L 442.729 85.692 C 442.729 70.559 436.711 56.03 426.01 45.329 C 415.309 34.628 400.78 28.61 385.647 28.61 C 370.514 28.61 355.985 34.628 345.284 45.329 C 334.583 56.03 328.565 70.559 328.565 85.692 Z"
            fill="#ffc700"/>
        <path
            id="path_34"
            clip-path="url(#clip_path_34)"
            d="M 396.413 166.443 C 398.827 163.674 400.081 160.077 399.913 156.408 C 399.745 152.738 398.168 149.271 395.512 146.734 C 392.856 144.196 389.32 142.779 385.647 142.779 C 381.974 142.779 378.438 144.196 375.782 146.734 C 373.126 149.271 371.549 152.738 371.381 156.408 C 371.213 160.077 372.467 163.674 374.881 166.443 C 369.628 168.586 365.13 172.247 361.965 176.955 C 358.8 181.664 357.108 187.21 357.106 192.884 L 414.188 192.884 C 414.186 187.21 412.494 181.664 409.329 176.955 C 406.164 172.247 401.666 168.586 396.413 166.443 Z"
            fill="#ffffff"/>
        <path
            id="path_35"
            clip-path="url(#clip_path_35)"
            d="M 314.294 221.469 L 457 221.469 C 436.098 206.81 411.177 198.942 385.647 198.942 C 360.117 198.942 335.196 206.81 314.294 221.469 Z"
            fill="#ffb83a"/>
        <path
            id="path_36"
            clip-path="url(#clip_path_36)"
            d="M 457 114.277 L 314.294 114.277 C 335.196 128.936 360.117 136.804 385.647 136.804 C 411.177 136.804 436.098 128.936 457 114.277 Z"
            fill="#ffcb73"/>
        <path
            id="path_37"
            clip-path="url(#clip_path_37)"
            d="M 43.154 285.785 L 242.942 285.785 L 242.942 342.954 L 43.154 342.954 Z"
            fill="#ffb531"/>
        <path
            id="path_38"
            clip-path="url(#clip_path_38)"
            d="M 43.154 285.785 L 242.942 285.785 L 242.942 300.077 L 43.154 300.077 Z"
            fill="#ffa912"/>
        <g
            id="group_1"
            clip-path="url(#clip_group_1)">
            <path
                id="path_39"
                clip-path="url(#clip_path_39)"
                d="M 64.56 307.223 L 78.831 307.223 L 78.831 321.515 L 64.56 321.515 Z"
                fill="#535353"/>
            <path
                id="path_40"
                clip-path="url(#clip_path_40)"
                d="M 103.56 307.223 L 117.831 307.223 L 117.831 321.515 L 103.56 321.515 Z"
                fill="#535353"/>
            <path
                id="path_41"
                clip-path="url(#clip_path_41)"
                d="M 142.56 307.223 L 156.831 307.223 L 156.831 321.515 L 142.56 321.515 Z"
                fill="#535353"/>
            <path
                id="path_42"
                clip-path="url(#clip_path_42)"
                d="M 181.56 307.223 L 195.831 307.223 L 195.831 321.515 L 181.56 321.515 Z"
                fill="#535353"/>
        </g>
    </g>
</svg>
