<svg
    xmlns="http://www.w3.org/2000/svg"
    viewBox="0 0 568 130"
    id="vector">
    <path
        id="path"
        d="M -117.75 65.16 C -117.75 89.59 -75.364 113.045 0.002 130.32 C 75.368 147.595 177.696 157.31 284.28 157.31 C 390.864 157.31 493.192 147.595 568.558 130.32 C 643.924 113.045 686.31 89.59 686.31 65.16 C 686.31 40.73 643.924 17.275 568.558 0 C 493.192 -17.275 390.864 -26.99 284.28 -26.99 C 177.696 -26.99 75.368 -17.275 0.002 0 C -75.364 17.275 -117.75 40.73 -117.75 65.16 Z"
        fill="#fefefe"/>
    <path
        id="path_1"
        d="M 113.33 76.71 C 113.33 76.27 113.38 75.83 113.38 75.39 L 113.38 64.05 Q 113.38 34.26 113.46 4.47 C 113.439 4.028 113.472 3.584 113.56 3.15 C 113.655 2.441 114.02 1.795 114.579 1.348 C 115.137 0.902 115.847 0.687 116.56 0.75 C 119.45 0.75 122.35 0.75 125.24 0.75 L 144.54 0.75 C 147.567 0.718 150.559 1.404 153.27 2.75 C 156.392 4.355 158.988 6.824 160.75 9.86 C 162.828 13.452 164.063 17.471 164.36 21.61 C 164.858 26.055 164.454 30.555 163.17 34.84 C 161.995 38.915 159.664 42.562 156.46 45.34 C 154.681 46.79 152.646 47.892 150.46 48.59 L 149.67 48.86 C 150.38 50.2 151.06 51.5 151.75 52.79 Q 158.24 64.93 164.75 77.08 C 164.987 77.499 165.171 77.946 165.3 78.41 C 165.57 79.41 165.3 79.89 164.3 80 C 162.09 80.23 159.96 80.83 157.78 81.13 C 156.31 81.33 154.86 81.66 153.4 81.92 C 152.778 82.118 152.103 82.07 151.515 81.785 C 150.927 81.501 150.47 81.001 150.24 80.39 C 148.74 77.56 147.24 74.71 145.8 71.86 C 142.8 65.99 139.8 60.1 136.68 54.25 C 135.963 52.992 135.616 51.557 135.68 50.11 C 135.68 49.47 135.51 49.29 134.88 49.3 Q 131.27 49.3 127.64 49.3 C 127.03 49.3 126.9 49.52 126.9 50.07 C 126.9 51.8 126.9 53.53 126.9 55.26 L 126.9 78.14 C 126.966 79.066 126.731 79.988 126.23 80.77 C 126.023 81.1 125.736 81.372 125.394 81.559 C 125.053 81.746 124.669 81.843 124.28 81.84 C 121.7 81.84 119.13 81.84 116.56 81.89 C 116.199 81.857 115.866 81.685 115.63 81.41 L 115.63 81.41 L 115.57 81.34 C 114.28 80.06 112.98 78.78 113.33 76.71 Z"
        fill="#000000"/>
    <path
        id="path_2"
        d="M 512.31 100.36 L 511.16 100.44 C 510.834 100.651 510.447 100.749 510.06 100.72 C 509.38 100.59 509.06 101.05 508.64 101.48 C 508.054 101.687 507.429 101.762 506.81 101.7 C 506.531 101.682 506.251 101.735 505.998 101.854 C 505.744 101.972 505.525 102.154 505.36 102.38 L 505.04 102.5 C 504.5 102.79 503.8 102.4 503.3 102.89 C 503.143 103.203 502.918 103.477 502.64 103.69 C 502.35 103.803 502.041 103.857 501.73 103.85 L 500.67 103.85 C 500.417 103.783 500.147 103.811 499.913 103.928 C 499.679 104.046 499.497 104.246 499.4 104.49 C 499.315 104.564 499.211 104.613 499.1 104.63 C 498.44 104.94 497.71 104.73 497.04 104.92 C 496.58 105.02 496.04 105.01 495.78 105.49 L 495.51 105.66 C 494.92 105.93 494.22 105.55 493.67 106 C 493.53 106.22 493.47 106.48 493.25 106.64 L 492.31 106.64 C 491.949 106.861 491.533 106.976 491.11 106.97 C 490.11 106.97 489.28 107.65 488.27 107.57 C 487.95 107.57 487.64 107.57 487.38 107.37 C 486.88 106.23 487.19 105.02 487.13 103.85 C 487.08 103.13 486.96 102.58 486.07 102.64 C 478.92 102.64 471.78 102.64 464.64 102.64 L 448.52 102.64 L 448.04 102.64 C 438.67 102.64 429.29 102.69 419.92 102.64 C 414 102.71 408.08 102.64 402.16 102.64 C 401.562 102.662 400.962 102.628 400.37 102.54 C 399.905 102.407 399.423 102.343 398.94 102.35 C 386.33 102.35 373.72 102.35 361.11 102.35 C 351.35 102.35 341.59 102.35 331.84 102.35 C 331.59 102.35 331.35 102.35 331.11 102.35 C 322.42 102.41 313.73 102.35 305.04 102.35 C 304.721 102.35 304.403 102.32 304.09 102.26 C 303.624 102.132 303.143 102.068 302.66 102.07 C 292.54 102.07 282.42 102.07 272.3 102.07 C 262.78 102.12 253.3 102.07 243.75 102.07 L 243.03 102.07 Q 228.57 102.15 214.11 102.07 C 211.91 102.07 209.71 102.22 207.51 101.98 C 206.857 101.817 206.181 101.759 205.51 101.81 C 192.89 101.81 180.26 101.88 167.64 101.81 C 163.33 101.81 159.03 101.81 154.73 101.81 Q 140.01 101.81 125.31 101.81 C 120.64 101.81 115.97 101.98 111.31 101.74 C 110.73 101.585 110.129 101.525 109.53 101.56 Q 100.42 101.56 91.33 101.56 C 90.888 101.595 90.443 101.565 90.01 101.47 C 89.68 101.37 89.41 101.19 89.44 100.8 C 89.47 100.41 89.76 100.27 90.1 100.25 C 90.99 100.25 91.87 100.25 92.76 100.25 C 93.766 100.296 94.774 100.216 95.76 100.01 C 96.522 99.908 97.292 99.872 98.06 99.9 C 99.98 99.9 101.89 99.9 103.8 99.9 C 105.49 99.9 107.18 99.83 108.86 99.97 C 109.187 100.06 109.522 100.117 109.86 100.14 C 115.61 100.14 121.36 100.2 127.11 100.14 C 127.244 100.093 127.381 100.056 127.52 100.03 C 128.42 99.87 129.43 100.16 130.17 99.36 C 135.02 99.17 139.87 99.23 144.72 99.22 C 145.32 99.273 145.925 99.226 146.51 99.08 C 147.343 98.982 148.182 98.948 149.02 98.98 C 150.53 98.98 152.02 98.92 153.55 98.98 C 154.75 99.07 155.95 98.91 157.15 98.98 C 157.97 98.98 158.79 98.98 159.62 98.98 C 160.45 98.98 161.27 98.98 162.1 98.98 C 163.387 99.04 164.676 99.02 165.96 98.92 C 174.49 97.71 183.07 98.51 191.63 98.26 C 191.968 98.272 192.306 98.228 192.63 98.13 C 193.449 97.995 194.281 97.955 195.11 98.01 Q 196.33 98.01 197.54 98.01 Q 198.75 98.01 199.97 98.01 C 201.08 98.01 202.18 98.01 203.29 98.01 C 204.08 98.01 204.86 98.01 205.65 98.01 C 207.46 98.37 209.09 97.45 210.82 97.27 C 213.54 97.4 216.25 96.8 218.97 97.03 C 220.1 96.96 221.22 97.09 222.35 97.03 C 223.16 97.03 223.98 97.03 224.79 97.03 C 225.6 97.03 226.25 97.03 226.99 97.03 C 227.73 97.03 228.6 97.03 229.4 97.03 C 230.2 97.03 231.03 97.03 231.84 97.03 C 233.03 97.03 234.22 96.98 235.41 97.03 C 236.23 97.03 237.06 97.03 237.88 97.03 C 239.39 97.03 240.88 96.97 242.4 97.03 C 245.86 97.36 249.23 96.31 252.66 96.31 C 254.89 96.48 257.08 96.01 259.3 96.04 C 260.83 96.15 262.37 95.97 263.9 96.15 C 265.559 96.348 267.232 96.402 268.9 96.31 C 270.14 96.31 271.37 96.31 272.61 96.31 C 275.7 96.31 278.8 96.31 281.9 96.31 C 283.335 96.148 284.776 96.062 286.22 96.05 C 287.32 96.05 288.42 96.05 289.52 96.05 C 290.071 96.091 290.617 95.915 291.04 95.56 C 293.04 95.56 295.04 95.38 297.04 95.32 L 316.26 95.32 C 318.5 95.32 320.74 95.32 322.99 95.32 C 325.24 95.32 327.47 95.32 329.71 95.32 C 330.009 95.34 330.308 95.29 330.585 95.174 C 330.861 95.057 331.106 94.878 331.3 94.65 C 336.04 94.24 340.79 94.42 345.53 94.38 C 346.131 94.41 346.733 94.39 347.33 94.32 C 347.47 94.273 347.614 94.236 347.76 94.21 C 348.551 94.132 349.346 94.108 350.14 94.14 C 350.93 94.14 351.73 94.14 352.52 94.14 C 353.31 94.14 354.14 94.14 354.94 94.14 C 356.13 94.14 357.32 94.14 358.5 94.14 C 359.32 94.14 360.13 94.14 360.94 94.14 C 361.75 94.14 362.55 94.14 363.36 94.14 C 364.41 94.14 365.47 94.14 366.52 94.14 C 367.79 94.14 369.06 94.31 370.24 94.24 C 369.97 94.24 369.55 94.34 369.24 94.05 C 368.93 93.76 369.17 93.65 369.48 93.64 C 371.77 93.64 374.07 93.74 376.35 93.64 C 384.9 93.19 393.46 93.57 402.01 93.44 C 402.411 93.462 402.813 93.418 403.2 93.31 C 403.347 93.269 403.498 93.242 403.65 93.23 C 404.75 93.15 405.86 93.17 406.96 93.23 L 410.33 93.23 C 410.568 93.249 410.806 93.218 411.032 93.141 C 411.257 93.064 411.464 92.941 411.64 92.78 C 412.223 92.745 412.807 92.745 413.39 92.78 C 415.15 92.78 416.91 92.84 418.67 92.65 C 427.37 92.43 436.08 92.65 444.78 92.55 C 446.62 92.55 448.45 92.55 450.29 92.55 C 450.608 92.57 450.926 92.517 451.221 92.396 C 451.515 92.275 451.778 92.088 451.99 91.85 C 456.77 91.56 461.56 91.6 466.35 91.6 C 468.67 91.6 471 91.6 473.35 91.6 C 474.48 91.7 475.62 91.54 476.75 91.6 C 477.56 91.6 478.37 91.6 479.19 91.6 C 480.01 91.6 480.78 91.6 481.58 91.6 C 482.38 91.6 483.09 91.6 483.84 91.6 C 484.59 91.6 485.68 92.01 486.3 91 C 486.381 90.902 486.479 90.821 486.59 90.76 C 487.24 90.52 487.31 89.99 487.33 89.4 C 487.207 88.527 487.303 87.637 487.61 86.81 C 488.041 86.563 488.541 86.463 489.034 86.527 C 489.526 86.59 489.985 86.812 490.34 87.16 C 490.472 87.286 490.63 87.38 490.803 87.435 C 490.976 87.491 491.16 87.506 491.34 87.48 C 492 87.4 492.61 87.8 493.27 87.72 C 493.77 87.94 493.99 88.6 494.64 88.59 C 495.52 88.59 496.14 89.32 496.95 89.52 L 497.29 89.6 C 497.93 89.8 498.6 89.6 499.24 89.78 L 499.55 89.94 C 499.657 90.192 499.848 90.401 500.09 90.53 C 500.332 90.659 500.611 90.701 500.88 90.65 C 501.509 90.602 502.141 90.639 502.76 90.76 L 503.11 90.89 C 503.37 91.06 503.41 91.38 503.58 91.62 C 504.608 91.841 505.612 92.159 506.58 92.57 L 507.74 92.57 C 508.153 92.527 508.568 92.634 508.91 92.87 L 510.06 92.95 C 510.59 93.77 511.45 93.81 512.29 93.9 L 512.59 94.04 C 512.9 94.16 513.27 94.04 513.59 94.29 C 513.757 94.473 513.959 94.621 514.184 94.726 C 514.409 94.831 514.652 94.89 514.9 94.9 C 516.05 95.468 517.244 95.943 518.47 96.32 C 518.614 96.602 518.689 96.914 518.689 97.23 C 518.689 97.546 518.614 97.858 518.47 98.14 C 518.357 98.26 518.221 98.356 518.069 98.421 C 517.918 98.486 517.755 98.52 517.59 98.52 C 517.281 98.459 516.961 98.494 516.672 98.619 C 516.382 98.744 516.138 98.953 515.97 99.22 C 515.65 99.39 515.26 99.22 514.97 99.4 L 514.97 99.4 C 514.69 99.631 514.333 99.749 513.97 99.73 C 513.663 99.627 513.33 99.633 513.027 99.748 C 512.725 99.863 512.471 100.079 512.31 100.36 Z"
        fill="#fcb800"/>
    <path
        id="path_3"
        d="M 265.81 31.92 C 266.557 30.638 267.385 29.406 268.29 28.23 C 271.62 24.13 275.94 22.93 280.99 23.8 C 282.299 23.98 283.581 24.316 284.81 24.8 C 287.867 26.187 290.371 28.561 291.92 31.54 C 293.579 34.639 294.599 38.04 294.92 41.54 C 295.288 45.987 295.362 50.453 295.14 54.91 C 295.14 55.27 295.14 55.63 295.14 55.99 L 295.14 81.2 C 295.14 82.38 295.32 82.38 293.97 82.38 L 282.47 82.38 C 281.62 82.38 281.61 82.38 281.61 81.54 C 281.61 73.78 281.54 66.02 281.61 58.26 C 281.61 54.56 281.61 50.87 281.67 47.17 C 281.71 45.808 281.493 44.451 281.03 43.17 C 280.613 41.948 279.867 40.865 278.874 40.041 C 277.88 39.217 276.678 38.684 275.4 38.5 C 274.206 38.29 272.984 38.29 271.79 38.5 C 270.551 38.68 269.387 39.204 268.432 40.014 C 267.477 40.824 266.769 41.887 266.39 43.08 C 265.993 44.22 265.767 45.413 265.72 46.62 C 265.72 46.98 265.72 47.34 265.72 47.7 Q 265.66 64.35 265.62 80.99 C 265.62 82.52 265.75 82.32 264.25 82.32 L 253.4 82.32 C 252.01 82.32 252.14 82.53 252.14 81.01 C 252.14 75.79 252.09 70.56 252.14 65.33 C 252.3 51.18 252.14 37.03 252.21 22.88 C 252.21 21.11 252.13 19.34 252.21 17.57 C 252.48 12.39 252.29 7.21 252.34 2.03 C 252.34 1.43 252.48 1.22 253.14 1.22 C 257.08 1.22 261.02 1.22 264.96 1.22 C 265.81 1.22 265.83 1.22 265.83 2.08 C 265.83 5.49 265.95 8.92 265.83 12.33 C 265.58 18.68 265.83 25.02 265.71 31.33 C 265.731 31.529 265.765 31.726 265.81 31.92 Z"
        fill="#000000"/>
    <path
        id="path_4"
        d="M 329.43 59.1 C 328.25 60.84 327.16 62.42 326.09 64.01 C 324.74 66.01 323.42 68.01 322.09 70.01 C 321.755 70.514 321.6 71.117 321.65 71.72 C 321.74 75.29 321.45 78.87 321.6 82.45 C 321.6 83.28 321.6 83.32 320.75 83.26 C 317.14 83 313.53 82.8 309.94 82.36 C 309.551 82.361 309.176 82.213 308.892 81.948 C 308.608 81.682 308.435 81.318 308.41 80.93 C 308.343 80.49 308.316 80.045 308.33 79.6 C 308.33 70.6 308.23 61.67 308.33 52.7 C 308.53 37.39 308.33 22.07 308.43 6.7 C 308.43 6.38 308.43 6.06 308.43 5.7 C 308.436 5.292 308.575 4.898 308.826 4.576 C 309.077 4.255 309.426 4.025 309.82 3.92 C 310.56 3.66 311.05 4.2 311.48 4.66 C 312.35 5.59 313.18 6.57 314 7.56 C 315.57 9.44 317.33 11.15 318.71 13.18 C 320.654 15.967 321.7 19.282 321.71 22.68 C 321.71 31.09 321.71 39.49 321.71 47.9 C 321.591 48.682 321.591 49.478 321.71 50.26 C 322.71 48.77 323.71 47.46 324.54 46.11 Q 331.16 35.83 337.73 25.56 C 337.938 25.192 338.245 24.889 338.616 24.686 C 338.987 24.482 339.408 24.387 339.83 24.41 C 342.83 24.47 345.78 24.47 348.75 24.48 C 349.132 24.416 349.524 24.464 349.879 24.618 C 350.234 24.773 350.537 25.027 350.75 25.35 C 350.966 25.739 351.061 26.185 351.022 26.629 C 350.982 27.072 350.811 27.494 350.53 27.84 Q 345.64 35.07 340.78 42.3 C 340.09 43.3 339.39 44.36 338.62 45.3 C 338.474 45.43 338.377 45.606 338.344 45.798 C 338.311 45.991 338.345 46.189 338.44 46.36 Q 343.69 57.58 348.87 68.84 Q 351.24 73.97 353.6 79.11 C 353.765 79.428 353.892 79.763 353.98 80.11 C 354.072 80.476 354.05 80.862 353.916 81.214 C 353.781 81.567 353.542 81.87 353.23 82.082 C 352.917 82.294 352.547 82.405 352.17 82.4 L 351.57 82.4 C 348.15 82.4 344.73 82.4 341.32 82.4 C 340.782 82.459 340.239 82.328 339.787 82.031 C 339.334 81.733 338.999 81.287 338.84 80.77 C 335.84 73.77 332.84 66.77 329.84 59.77 C 329.75 59.69 329.63 59.49 329.43 59.1 Z"
        fill="#000000"/>
    <path
        id="path_5"
        d="M 401.63 82.53 C 400.313 82.375 399.013 82.094 397.75 81.69 C 395.17 81.14 392.61 80.46 390.03 79.88 C 389.57 79.77 389.43 79.57 389.45 79.14 C 389.47 78.71 389.45 78.21 389.45 77.52 C 388.702 78.37 387.903 79.174 387.06 79.93 C 384.972 81.504 382.525 82.535 379.94 82.93 C 377.125 83.431 374.247 83.469 371.42 83.04 C 365.52 82.16 361.58 78.93 360.01 73.13 C 358.513 68.08 358.597 62.691 360.25 57.69 C 360.888 55.78 361.971 54.049 363.408 52.639 C 364.846 51.229 366.598 50.181 368.52 49.58 C 372.154 48.372 376.02 48.029 379.81 48.58 L 388.42 49.64 C 389.42 49.76 389.42 49.75 389.42 48.78 C 389.42 47.13 389.42 45.48 389.42 43.83 C 389.425 43.308 389.301 42.793 389.06 42.33 C 388.421 40.987 387.436 39.839 386.205 39.004 C 384.975 38.169 383.544 37.678 382.06 37.58 C 379.872 37.395 377.669 37.643 375.577 38.31 C 373.486 38.978 371.546 40.052 369.87 41.47 L 363.87 34.34 L 362.54 32.78 C 361.87 32.03 361.85 32.01 362.54 31.22 C 363.702 29.838 365.068 28.641 366.59 27.67 C 369.721 25.751 373.226 24.52 376.87 24.06 C 380.184 23.61 383.55 23.738 386.82 24.44 C 391.184 25.173 395.093 27.582 397.71 31.15 C 399.879 34.262 401.193 37.891 401.52 41.67 C 401.693 43.431 401.767 45.201 401.74 46.97 C 401.74 57.15 401.74 67.32 401.74 77.5 C 401.76 79.13 401.59 80.77 401.63 82.53 Z"
        fill="#000000"/>
    <path
        id="path_6"
        d="M 234.49 63.84 C 235.81 65.32 237 66.76 238.18 68.23 C 239.6 70.02 241.13 71.72 242.64 73.44 C 242.755 73.526 242.842 73.643 242.89 73.778 C 242.939 73.912 242.946 74.058 242.913 74.197 C 242.879 74.337 242.805 74.463 242.7 74.56 C 241.146 76.611 239.21 78.343 237 79.66 C 231.62 82.88 225.74 83.47 219.68 82.87 C 216.973 82.631 214.347 81.817 211.979 80.482 C 209.612 79.148 207.556 77.323 205.95 75.13 C 203.45 71.667 201.84 67.642 201.26 63.41 C 200.895 61.094 200.711 58.754 200.71 56.41 C 200.71 53.23 200.62 50.05 200.8 46.88 C 200.933 42.081 202.249 37.389 204.63 33.22 C 206.763 29.602 210.034 26.789 213.93 25.22 C 218.09 23.569 222.605 23.014 227.04 23.61 C 229.399 23.855 231.712 24.43 233.91 25.32 C 237.47 26.731 240.564 29.111 242.84 32.19 C 242.936 32.273 243.006 32.382 243.042 32.503 C 243.078 32.625 243.078 32.755 243.042 32.877 C 243.006 32.998 242.936 33.107 242.84 33.19 C 241.05 35.13 239.29 37.11 237.51 39.07 L 235.09 41.74 C 234.56 42.34 234.58 42.33 234 41.81 C 232.41 40.292 230.465 39.194 228.344 38.618 C 226.222 38.042 223.99 38.005 221.85 38.51 C 218.18 39.28 215.94 41.7 214.85 45.22 C 214.464 46.518 214.265 47.865 214.26 49.22 C 214.2 52.22 214.11 55.22 214.34 58.14 C 214.441 60.69 215.4 63.132 217.06 65.07 C 218.227 66.405 219.761 67.368 221.47 67.84 C 223.72 68.484 226.109 68.466 228.35 67.79 C 230.738 67.1 232.872 65.727 234.49 63.84 Z"
        fill="#000000"/>
    <path
        id="path_7"
        d="M 77.32 81.11 L 70.2 81.11 C 69.56 81.11 68.92 80.97 68.29 80.94 C 67.746 80.895 67.222 80.712 66.769 80.407 C 66.315 80.103 65.947 79.687 65.7 79.2 C 63.62 75.87 61.32 72.69 59.39 69.27 C 58.04 66.9 56.56 64.62 55.21 62.27 C 54.042 60.178 52.761 58.151 51.37 56.2 C 49.403 53.381 47.121 50.794 44.57 48.49 C 43.883 47.956 43.169 47.459 42.43 47 C 41.19 46.269 40.087 45.329 39.17 44.22 C 38.48 43.22 38.5 42.82 39.28 41.89 C 40.243 40.865 41.501 40.166 42.88 39.89 C 44.77 39.39 46.75 39.28 48.61 38.64 C 50.827 37.883 52.816 36.576 54.39 34.84 C 56.964 32.106 58.543 28.581 58.87 24.84 C 59.035 22.514 58.802 20.177 58.18 17.93 C 57.566 15.734 56.643 13.637 55.44 11.7 C 54.878 10.779 54.111 9.998 53.2 9.42 C 51.598 8.369 49.867 7.529 48.05 6.92 C 46.536 6.555 45.004 6.268 43.46 6.06 C 42.34 5.81 41.21 5.58 40.07 5.4 C 38.71 5.17 38.35 4.15 39.07 2.98 C 39.258 2.696 39.505 2.455 39.792 2.272 C 40.08 2.09 40.403 1.97 40.74 1.92 C 40.859 1.9 40.981 1.9 41.1 1.92 C 43.22 2.11 45.33 1.61 47.45 1.76 C 51.59 2.06 55.76 2.22 59.77 3.44 C 61.889 4.053 63.909 4.966 65.77 6.15 C 66.866 6.951 67.822 7.928 68.6 9.04 C 70.6 11.55 71.18 14.49 71.71 17.5 C 72.124 19.875 72.185 22.298 71.89 24.69 C 71.611 27.687 70.716 30.595 69.26 33.23 C 68.445 34.657 67.487 35.997 66.4 37.23 C 64.859 39.038 62.98 40.529 60.87 41.62 C 60.23 41.94 59.67 42.4 59.02 42.73 C 58.633 43.02 58.367 43.445 58.277 43.92 C 58.186 44.395 58.276 44.888 58.53 45.3 C 59.34 46.73 60.2 48.13 61.07 49.51 C 62.23 51.34 63.44 53.14 64.61 54.96 C 66.29 57.57 67.92 60.22 69.61 62.83 C 71.41 65.62 73.35 68.31 75.13 71.12 C 76.334 72.878 77.907 74.352 79.74 75.44 C 81.336 76.517 83.155 77.221 85.06 77.5 C 85.476 77.59 85.866 77.774 86.201 78.037 C 86.535 78.3 86.805 78.637 86.99 79.02 C 87.097 79.309 87.115 79.623 87.042 79.922 C 86.968 80.221 86.807 80.491 86.578 80.698 C 86.35 80.904 86.065 81.037 85.76 81.08 C 85.427 81.113 85.093 81.113 84.76 81.08 L 77.32 81.08 Z"
        fill="#ffb400"/>
    <path
        id="path_8"
        d="M 472.73 50.51 C 472.73 54.29 472.73 58.07 472.73 61.86 C 472.57 63.051 472.57 64.259 472.73 65.45 C 472.8 65.789 472.894 66.123 473.01 66.45 C 473.153 67.001 473.485 67.484 473.947 67.817 C 474.408 68.149 474.972 68.309 475.54 68.27 C 476.254 68.15 476.988 68.255 477.64 68.57 C 477.993 68.771 478.286 69.062 478.49 69.414 C 478.693 69.765 478.8 70.164 478.8 70.57 C 478.8 73.99 478.8 77.4 478.8 80.82 C 478.821 81.226 478.724 81.63 478.523 81.983 C 478.321 82.337 478.023 82.625 477.662 82.814 C 477.302 83.003 476.895 83.085 476.49 83.05 C 474.64 83.05 472.78 83.12 470.94 83.05 C 464.82 82.7 461.24 79.89 459.78 73.84 C 459.139 71.177 458.96 68.424 459.25 65.7 C 459.265 65.42 459.265 65.14 459.25 64.86 L 459.25 39.16 C 459.25 38.92 459.25 38.68 459.25 38.43 C 459.25 38.18 459.08 37.94 458.73 37.94 C 458.007 37.895 457.283 37.895 456.56 37.94 C 456.104 37.968 455.649 37.868 455.247 37.652 C 454.845 37.435 454.511 37.111 454.284 36.715 C 454.056 36.318 453.944 35.866 453.96 35.41 C 453.96 33.32 453.96 31.23 453.96 29.14 C 453.96 28.53 453.96 27.93 453.96 27.33 C 453.92 26.871 454.019 26.411 454.243 26.008 C 454.467 25.606 454.807 25.279 455.218 25.071 C 455.629 24.863 456.093 24.782 456.55 24.84 C 457.23 24.89 457.92 24.84 458.6 24.84 C 459.06 24.84 459.29 24.71 459.24 24.23 C 459.23 24.07 459.23 23.91 459.24 23.75 Q 459.3 17.3 459.35 10.85 C 459.298 10.245 459.419 9.638 459.7 9.1 C 459.891 8.74 460.181 8.441 460.535 8.237 C 460.888 8.034 461.292 7.934 461.7 7.95 C 464.59 7.95 467.49 7.95 470.39 7.95 C 470.806 7.916 471.224 8 471.596 8.191 C 471.967 8.382 472.278 8.674 472.492 9.032 C 472.707 9.391 472.817 9.802 472.81 10.22 C 472.88 11.67 472.9 13.12 472.81 14.56 C 472.66 17.78 472.81 20.99 472.74 24.21 C 472.74 24.69 472.91 24.84 473.37 24.82 C 474.37 24.82 475.31 24.91 476.26 24.82 C 476.741 24.78 477.224 24.881 477.65 25.108 C 478.076 25.336 478.427 25.682 478.661 26.105 C 478.895 26.527 479.002 27.008 478.97 27.49 C 478.97 29.78 478.97 32.08 478.97 34.37 C 478.97 34.77 478.97 35.17 478.97 35.57 C 478.994 36.003 478.891 36.433 478.675 36.809 C 478.459 37.185 478.138 37.49 477.752 37.687 C 477.366 37.884 476.931 37.965 476.5 37.92 C 475.5 37.86 474.57 37.92 473.61 37.92 C 472.65 37.92 472.77 37.92 472.76 38.8 L 472.76 50.5 Z"
        fill="#000000"/>
    <path
        id="path_9"
        d="M 429.73 31.98 C 430.521 30.629 431.435 29.353 432.46 28.17 C 436.06 24.12 440.54 23.17 445.59 24.57 C 447.264 25.019 448.805 25.866 450.08 27.04 C 450.408 27.253 450.669 27.553 450.834 27.908 C 450.999 28.262 451.061 28.655 451.012 29.043 C 450.964 29.431 450.807 29.797 450.56 30.1 C 449.5 31.8 448.42 33.49 447.35 35.19 C 446.56 36.44 445.77 37.7 444.97 38.95 C 444.818 39.187 444.651 39.414 444.47 39.63 C 444.331 39.844 444.134 40.015 443.901 40.122 C 443.669 40.229 443.411 40.267 443.158 40.233 C 442.905 40.2 442.666 40.094 442.47 39.93 C 441.172 39.111 439.674 38.665 438.14 38.641 C 436.605 38.616 435.094 39.014 433.77 39.79 C 432.701 40.362 431.839 41.259 431.31 42.35 C 430.74 43.5 430.24 44.68 429.69 45.84 C 429.505 46.331 429.437 46.858 429.49 47.38 C 429.49 55.26 429.56 63.14 429.49 71.02 L 429.37 80.66 C 429.37 82.14 428.71 82.76 427.2 82.75 C 423.79 82.75 420.37 82.68 416.96 82.62 C 415.42 82.62 414.91 82.05 414.9 80.46 C 414.9 78.38 415.01 76.29 415.02 74.2 C 415.02 59.33 415.02 44.45 415.02 29.57 C 415.02 28.57 415.02 27.57 415.11 26.57 C 415.08 26.23 415.154 25.889 415.322 25.591 C 415.49 25.294 415.744 25.054 416.05 24.904 C 416.357 24.754 416.702 24.7 417.04 24.75 Q 422.33 24.75 427.65 24.75 C 428.078 24.714 428.503 24.848 428.832 25.123 C 429.162 25.398 429.369 25.793 429.41 26.22 C 429.501 26.815 429.528 27.419 429.49 28.02 C 429.49 29.33 429.49 30.64 429.49 31.95 Z"
        fill="#000000"/>
    <path
        id="path_10"
        d="M 113.33 76.71 C 113.24 78.33 114.45 79.37 115.13 80.64 C 115.25 80.89 115.53 81.04 115.56 81.34 C 114.875 81.568 114.15 81.653 113.43 81.59 C 108.37 81.59 103.3 81.59 98.23 81.59 C 96.71 81.59 95.23 81.46 93.67 81.36 C 93.271 81.3 92.889 81.153 92.554 80.928 C 92.219 80.703 91.937 80.407 91.73 80.06 C 90.66 78.66 89.67 77.21 88.59 75.82 C 86.01 72.51 83.59 69.1 80.91 65.82 C 79.35 63.9 77.91 61.82 76.39 59.92 C 73.92 56.83 71.75 53.52 69.25 50.46 C 67.84 48.72 66.52 46.92 65.2 45.12 C 64.651 44.249 64.394 43.225 64.468 42.198 C 64.542 41.171 64.942 40.194 65.61 39.41 C 67.67 37.17 69.83 35.02 71.98 32.87 C 72.89 31.97 73.66 30.94 74.53 30 C 75.67 28.76 76.87 27.6 77.91 26.27 C 78.95 24.94 79.97 23.82 81.05 22.65 C 82.948 20.647 84.693 18.504 86.27 16.24 C 87.443 14.748 88.106 12.917 88.16 11.02 C 88.145 10.2 87.928 9.396 87.529 8.679 C 87.129 7.962 86.56 7.355 85.87 6.91 C 84.954 6.264 84.124 5.505 83.4 4.65 C 83.212 4.466 83.092 4.224 83.057 3.963 C 83.023 3.702 83.077 3.437 83.21 3.21 C 83.33 2.95 83.535 2.738 83.791 2.609 C 84.047 2.48 84.339 2.442 84.62 2.5 C 85.613 2.645 86.619 2.685 87.62 2.62 Q 97.52 2.62 107.4 2.62 C 108.041 2.589 108.671 2.804 109.16 3.22 C 109.27 3.288 109.357 3.389 109.408 3.508 C 109.46 3.626 109.475 3.758 109.45 3.885 C 109.425 4.012 109.362 4.129 109.27 4.22 C 108.654 4.963 107.873 5.552 106.99 5.94 C 105.027 6.736 103.156 7.742 101.41 8.94 C 100.58 9.49 99.67 9.94 98.81 10.45 C 97.593 11.21 96.415 12.031 95.28 12.91 C 94.75 13.32 94.19 13.72 93.65 14.11 C 91.842 15.636 90.196 17.345 88.74 19.21 C 86.41 21.8 84.11 24.41 81.8 27.01 C 80.626 28.144 79.527 29.354 78.51 30.63 C 77.759 31.68 76.871 32.625 75.87 33.44 C 75.492 33.741 75.204 34.139 75.037 34.592 C 74.87 35.045 74.831 35.535 74.923 36.009 C 75.015 36.483 75.235 36.923 75.56 37.28 C 76.26 38.2 77.08 39.03 77.82 39.92 C 79.07 41.43 80.29 42.92 81.48 44.5 C 82.03 45.23 82.6 45.95 83.19 46.64 C 85.51 49.3 87.53 52.17 89.66 54.97 C 92.03 58.09 94.56 61.08 96.91 64.22 C 97.98 65.65 99.17 66.99 100.28 68.39 C 101.684 70.087 103.332 71.566 105.17 72.78 C 106.616 73.78 108.137 74.666 109.72 75.43 C 110.86 76.019 112.074 76.45 113.33 76.71 Z"
        fill="#ffb400"/>
    <path
        id="path_11"
        d="M 189.68 54.3 Q 189.68 65.64 189.68 76.98 C 189.68 78.47 189.59 79.98 189.58 81.43 C 189.58 81.95 189.41 82.14 188.88 82.13 C 186.11 82.13 183.34 82.13 180.56 82.07 C 179.32 82.07 178.07 82.07 176.82 82.07 C 176.22 82.07 176.04 81.89 176.14 81.29 C 176.192 80.812 176.208 80.331 176.19 79.85 C 176.19 64.93 176.19 50.01 176.19 35.09 C 176.19 31.72 176.3 28.35 176.32 24.98 C 176.32 24.16 176.32 24.15 177.2 24.15 Q 183.06 24.15 188.91 24.15 C 189.75 24.15 189.77 24.15 189.78 25.01 C 189.78 27.14 189.69 29.26 189.68 31.39 C 189.65 39.02 189.68 46.66 189.68 54.3 Z"
        fill="#000000"/>
    <path
        id="path_12"
        d="M 189.8 8.56 L 189.8 15.31 C 189.8 16.19 189.8 16.21 188.97 16.21 C 184.97 16.21 181.03 16.21 177.05 16.21 C 176.45 16.21 176.32 16.02 176.32 15.45 Q 176.32 8.6 176.32 1.72 C 176.32 1.09 176.51 0.92 177.14 0.92 C 181.07 0.92 185.01 0.92 188.94 0.92 C 189.78 0.92 189.79 0.92 189.8 1.79 C 189.81 4.07 189.8 6.32 189.8 8.56 Z"
        fill="#000000"/>
    <path
        id="path_13"
        d="M 304.09 102.06 L 330.61 102.06 L 331.09 102.06 C 331.213 102.185 331.283 102.354 331.283 102.53 C 331.283 102.706 331.213 102.875 331.09 103 L 329.64 103 Q 291.24 103 252.83 103 C 252.36 103 251.83 103.16 251.43 102.8 C 251.613 102.64 251.828 102.522 252.062 102.455 C 252.295 102.388 252.54 102.372 252.78 102.41 C 259.16 102.41 265.55 102.35 271.93 102.41 L 299.66 102.41 C 300.25 102.41 300.88 102.53 301.36 102.02 C 302.266 101.888 303.188 101.902 304.09 102.06 Z"
        fill="#fee399"/>
    <path
        id="path_14"
        d="M 154.69 101.6 L 206.54 101.6 C 206.89 101.6 207.27 101.51 207.54 101.83 C 206.97 102.37 206.26 102.22 205.59 102.22 C 199.08 102.22 192.54 101.84 186.06 102.33 C 178.32 102.91 170.59 102.49 162.86 102.64 C 160.22 102.7 157.56 102.64 154.91 102.55 C 154.63 102.55 154.35 102.55 154.07 102.55 L 126.07 102.55 C 125.79 102.55 125.51 102.55 125.23 102.5 L 125.23 102.27 C 125.341 102.156 125.479 102.07 125.63 102.02 C 126.18 101.915 126.742 101.885 127.3 101.93 L 153.12 101.93 C 153.65 101.96 154.25 102.11 154.69 101.6 Z"
        fill="#fdcb45"/>
    <path
        id="path_15"
        d="M 400.39 102.3 L 419.9 102.3 C 420.44 103.48 419.25 102.93 418.9 103.25 L 348.87 103.25 C 348.49 103.25 348.06 103.37 347.73 103.03 C 347.913 102.871 348.129 102.753 348.362 102.686 C 348.595 102.619 348.84 102.603 349.08 102.64 C 352.97 102.64 356.86 102.59 360.75 102.64 Q 374.65 102.64 388.54 102.64 C 389.14 102.64 389.76 102.73 390.23 102.21 C 393.61 102.2 397 102.11 400.39 102.3 Z"
        fill="#fef1cb"/>
    <path
        id="path_16"
        d="M 360.77 103.04 L 347.77 103.04 L 331.13 103.04 L 331.13 102.1 C 331.58 102.1 332.02 102.1 332.46 102.1 L 399.03 102.1 C 399.5 102.1 400.03 101.97 400.43 102.31 L 390.27 102.31 C 389.717 102.649 389.057 102.771 388.42 102.65 L 362.42 102.65 C 361.81 102.69 361.21 102.54 360.77 103.04 Z"
        fill="#fee7aa"/>
    <path
        id="path_17"
        d="M 154.93 102.55 C 155.18 102.26 155.51 102.33 155.83 102.33 C 157.4 102.33 158.97 102.24 160.53 102.33 C 167.91 102.82 175.29 102.41 182.68 102.54 C 183.35 102.54 184.1 102.79 184.59 101.96 C 184.76 101.67 185.27 101.84 185.59 101.84 L 214.02 101.84 C 214.3 102.33 214.21 102.64 213.6 102.68 C 213.336 102.647 213.068 102.682 212.82 102.78 C 209.97 102.78 207.12 102.78 204.27 102.78 L 168.27 102.78 L 156.34 102.78 C 155.858 102.836 155.369 102.756 154.93 102.55 Z"
        fill="#fdd056"/>
    <path
        id="path_18"
        d="M 271.96 102.84 L 252.87 102.84 L 251.43 102.84 L 242.29 102.84 C 242.29 102.33 242.81 102.24 243.01 101.91 L 302.58 101.91 C 303.09 101.91 303.63 101.74 304.09 102.12 L 301.42 102.12 C 300.87 102.466 300.209 102.592 299.57 102.47 L 273.57 102.47 C 273 102.45 272.41 102.3 271.96 102.84 Z"
        fill="#fdd977"/>
    <path
        id="path_19"
        d="M 243.01 101.84 C 243.17 102.46 242.6 102.51 242.29 102.77 L 237.87 102.84 L 213.87 102.84 C 213.55 102.84 213.23 102.84 212.87 102.84 C 212.934 102.764 213.016 102.705 213.108 102.668 C 213.201 102.631 213.301 102.618 213.4 102.63 C 213.93 102.63 214.11 102.38 214.07 101.9 Z"
        fill="#fdd467"/>
    <path
        id="path_20"
        d="M 418.94 103.28 C 418.984 103.214 419.044 103.16 419.113 103.122 C 419.183 103.083 419.261 103.062 419.34 103.06 C 419.84 103.06 419.92 102.73 419.9 102.33 C 420.18 102.33 420.46 102.28 420.74 102.28 L 447.3 102.28 C 447.58 102.28 447.86 102.28 448.14 102.33 C 448.215 102.395 448.3 102.449 448.39 102.49 C 448.467 102.556 448.523 102.643 448.55 102.74 C 448.575 102.838 448.573 102.942 448.543 103.039 C 448.513 103.136 448.456 103.223 448.38 103.29 Z"
        fill="#fff6dd"/>
    <path
        id="path_21"
        d="M 448.38 103.29 L 448.38 102.57 C 448.792 102.416 449.237 102.375 449.67 102.45 L 476.23 102.45 C 477.23 102.84 478.23 103.45 479.23 102.52 C 479.521 102.448 479.823 102.431 480.12 102.47 C 480.41 102.56 480.55 102.89 480.86 102.93 C 481.51 102.99 482.15 102.93 482.79 102.93 C 483.535 102.87 484.285 102.87 485.03 102.93 C 485.41 102.93 485.95 102.86 486.03 103.51 C 473.46 103.43 460.92 103.16 448.38 103.29 Z"
        fill="#fff8e8"/>
    <path
        id="path_22"
        d="M 111.25 101.6 L 125.25 101.6 C 125.345 101.696 125.399 101.825 125.399 101.96 C 125.399 102.095 125.345 102.224 125.25 102.32 C 123.922 102.46 122.584 102.5 121.25 102.44 C 120.818 102.393 120.38 102.427 119.96 102.54 C 117.86 102.61 115.77 102.61 113.67 102.54 C 113.083 102.41 112.477 102.38 111.88 102.45 C 106.88 102.45 101.88 102.45 96.88 102.45 C 96.46 102.23 95.58 102.57 95.62 101.89 C 95.66 101.21 96.46 101.53 96.91 101.53 C 101.32 101.53 105.73 101.53 110.14 101.53 C 110.51 101.461 110.892 101.485 111.25 101.6 Z"
        fill="#fcc123"/>
    <path
        id="path_23"
        d="M 96.73 102.29 L 112.39 102.29 C 112.82 102.29 113.28 102.13 113.65 102.5 L 105.65 102.5 L 66.4 102.5 L 59.89 102.5 C 59.54 102.5 59.16 102.6 58.89 102.34 C 59.29 101.9 59.83 102 60.34 101.99 C 62.04 101.99 63.74 101.99 65.45 101.99 C 75.08 101.99 84.72 101.99 94.35 101.99 C 94.634 101.987 94.918 102.003 95.2 102.04 C 95.65 102.28 96.22 102.13 96.73 102.29 Z"
        fill="#fdc633"/>
    <path
        id="path_24"
        d="M 480.22 102.58 L 479.28 102.58 C 478.876 102.825 478.413 102.955 477.94 102.955 C 477.467 102.955 477.004 102.825 476.6 102.58 L 448.38 102.58 C 448.358 102.564 448.341 102.543 448.331 102.518 C 448.32 102.494 448.317 102.467 448.32 102.44 C 448.32 102.39 448.32 102.37 448.37 102.37 L 455.96 102.37 L 486.18 102.37 C 486.284 102.429 486.372 102.513 486.436 102.614 C 486.501 102.715 486.54 102.831 486.55 102.95 C 486.747 104.614 486.703 106.298 486.42 107.95 C 486.397 107.996 486.363 108.035 486.32 108.063 C 486.278 108.091 486.228 108.107 486.177 108.11 C 486.126 108.113 486.076 108.103 486.03 108.08 L 486.03 103.5 C 485.81 103.18 485.47 103.26 485.17 103.26 L 482.68 103.26 C 482.09 102.57 481.23 103.01 480.55 102.75 C 480.435 102.703 480.325 102.646 480.22 102.58 Z"
        fill="#feebb8"/>
    <path
        id="path_25"
        d="M 218.87 97.49 L 211.61 97.49 C 211.21 97.49 210.82 97.49 210.42 97.49 C 208.843 97.706 207.252 97.813 205.66 97.81 C 204.83 97.81 204.01 97.81 203.19 97.81 C 202.07 97.81 200.96 97.81 199.84 97.81 C 199.03 97.81 198.22 97.81 197.41 97.81 C 196.6 97.81 195.79 97.81 194.98 97.81 C 194.17 97.81 193.36 97.81 192.55 97.81 C 191.44 97.81 190.34 97.86 189.23 97.81 C 188.42 97.81 187.62 97.81 186.81 97.81 C 186 97.81 185.21 97.81 184.42 97.81 C 184.27 97.817 184.12 97.79 183.981 97.731 C 183.843 97.673 183.719 97.583 183.62 97.47 C 184.03 97.09 184.54 97.26 185 97.26 L 212.56 97.26 C 213.16 97.26 213.84 97.48 214.22 96.69 C 214.35 96.44 214.74 96.56 215.02 96.56 L 218.63 96.56 C 218.763 96.67 218.857 96.819 218.9 96.986 C 218.943 97.153 218.933 97.329 218.87 97.49 Z"
        fill="#fff6de"/>
    <path
        id="path_26"
        d="M 366.57 94.6 L 363.19 94.6 C 362.66 93.42 363.8 93.94 364.19 93.66 L 375.67 93.66 C 376.19 93.66 376.67 93.66 377.22 93.66 C 377.96 93.09 378.81 93.37 379.62 93.32 C 380.43 93.27 381.24 93.32 382.05 93.32 C 382.86 93.32 383.83 93.32 384.71 93.32 C 385.82 93.32 386.94 93.32 388.05 93.32 C 388.86 93.32 389.68 93.32 390.49 93.32 C 391.3 93.32 392.12 93.32 392.93 93.32 C 394.06 93.32 395.18 93.27 396.3 93.32 C 397.82 93.32 399.3 93.26 400.85 93.32 C 401.67 93.39 402.56 93.06 403.3 93.67 C 402.89 94.06 402.38 93.89 401.92 93.89 L 369.06 93.89 C 368.06 94.53 367.06 94.09 366.06 93.99 C 365.91 93.99 365.96 94.25 365.98 94.09 C 366 93.93 365.98 94.04 366.07 94.03 C 366.5 94 366.8 94.06 366.57 94.6 Z"
        fill="#fdc633"/>
    <path
        id="path_27"
        d="M 135.87 98.46 C 136.27 98.05 136.78 98.23 137.24 98.23 L 172.03 98.23 C 172.64 98.23 173.33 98.45 173.69 97.65 C 173.79 97.43 174.13 97.51 174.37 97.51 C 174.89 97.51 175.37 97.51 175.93 97.51 C 176.014 97.602 176.072 97.715 176.097 97.838 C 176.123 97.96 176.115 98.087 176.075 98.205 C 176.035 98.323 175.964 98.428 175.87 98.51 C 170.87 98.37 165.87 98.93 160.87 98.77 C 160.417 98.805 159.963 98.805 159.51 98.77 C 158.7 98.77 157.89 98.77 157.09 98.77 C 156.29 98.77 155.47 98.77 154.66 98.77 C 153.47 98.77 152.28 98.77 151.1 98.77 L 146.44 98.77 C 145.25 98.77 144.05 98.77 142.86 98.77 C 141.37 98.77 139.86 98.83 138.39 98.77 C 137.591 98.844 136.785 98.776 136.01 98.57 Z"
        fill="#fffaed"/>
    <path
        id="path_28"
        d="M 466.24 91.93 L 453.31 91.93 C 452.8 91.93 452.31 91.93 451.76 91.93 C 451.01 92.43 450.17 92.19 449.36 92.23 C 448.55 92.27 447.89 92.23 447.15 92.23 C 445.96 92.23 444.78 92.23 443.59 92.23 C 442.78 92.23 441.97 92.23 441.15 92.23 C 440.33 92.23 439.54 92.23 438.73 92.23 C 437.63 92.23 436.53 92.23 435.44 92.23 C 434.643 92.323 433.836 92.248 433.07 92.01 L 432.92 91.85 C 433.36 91.53 433.85 91.67 434.32 91.67 L 455.37 91.62 C 456.131 91.266 456.983 91.154 457.81 91.3 C 459.38 91.3 460.95 91.24 462.53 91.3 C 464.058 91.327 465.583 91.163 467.07 90.81 C 467.501 90.745 467.939 90.745 468.37 90.81 C 468.482 90.901 468.556 91.03 468.579 91.172 C 468.601 91.314 468.569 91.46 468.49 91.58 C 467.77 92.04 466.96 91.62 466.24 91.93 Z"
        fill="#fee7a8"/>
    <path
        id="path_29"
        d="M 259.18 96.5 L 252.42 96.58 C 249.58 96.58 246.76 97.04 243.91 96.91 C 242.77 96.75 241.6 97.03 240.45 96.76 C 240.313 96.704 240.197 96.606 240.12 96.48 C 240.51 96.17 240.97 96.31 241.4 96.3 C 245.94 96.3 250.48 96.3 255.03 96.3 C 255.63 96.3 256.31 96.52 256.7 95.73 C 256.82 95.48 257.22 95.59 257.49 95.59 L 262.56 95.59 C 262.686 95.686 262.842 95.733 263 95.72 C 263.33 95.72 263.75 95.72 263.75 96.14 C 263.75 96.56 263.28 96.41 263 96.43 C 261.726 96.383 260.451 96.407 259.18 96.5 Z"
        fill="#fef1cc"/>
    <path
        id="path_30"
        d="M 347.53 94.63 C 347.14 94.94 346.68 94.82 346.25 94.82 L 331.1 94.82 C 329.64 95.51 328.1 95.06 326.59 95.15 C 325.08 95.24 323.54 95.05 322.02 95.15 C 320.76 95.27 319.54 95.78 318.24 95.59 C 317.7 95.2 318.09 94.87 318.31 94.53 L 331.94 94.53 L 333.5 94.53 C 334.57 93.95 335.72 94.28 336.84 94.22 C 337.65 94.22 338.47 94.22 339.28 94.22 C 340.09 94.22 340.9 94.22 341.71 94.22 C 342.52 94.22 343.35 94.22 344.17 94.22 C 345.29 94.36 346.48 93.84 347.53 94.63 Z"
        fill="#fdd055"/>
    <path
        id="path_31"
        d="M 271.97 95.57 L 277.97 95.57 C 277.89 96.14 277.4 96.07 277.05 96.07 C 276.422 96.03 275.801 96.226 275.31 96.62 L 272.31 96.62 C 270.12 96.62 267.92 96.62 265.73 96.62 C 265.67 95.68 266.42 95.95 266.84 95.96 C 268.61 95.99 270.28 95.68 271.97 95.57 Z"
        fill="#fdde8a"/>
    <path
        id="path_32"
        d="M 271.97 95.57 C 271.907 95.646 271.828 95.707 271.737 95.747 C 271.647 95.787 271.549 95.805 271.45 95.8 C 270.67 95.761 269.89 95.898 269.17 96.2 C 268.478 96.356 267.764 96.39 267.06 96.3 C 266.59 96.3 266.06 96.15 265.68 96.5 C 265.056 96.703 264.387 96.727 263.75 96.57 L 259.18 96.5 C 259.51 96.18 259.94 96.31 260.32 96.3 C 261.39 96.3 262.46 96.3 263.57 96.3 C 263.48 95.58 262.73 96.02 262.57 95.57 L 267.39 95.57 C 267.429 95.618 267.481 95.653 267.54 95.67 C 267.599 95.688 267.661 95.688 267.72 95.67 C 267.779 95.653 267.831 95.618 267.87 95.57 Z"
        fill="#fee6a8"/>
    <path
        id="path_33"
        d="M 57.64 101.1 C 57.64 100.72 57.75 100.4 58.25 100.39 C 61.11 100.39 63.96 100.03 66.82 100.16 C 67.021 100.162 67.215 100.241 67.36 100.38 C 64.25 101.1 61.15 101.87 57.92 101.32 C 57.8 101.29 57.73 101.18 57.64 101.1 Z"
        fill="#fee9af"/>
    <path
        id="path_34"
        d="M 468.63 90.75 L 484.63 90.75 C 485.97 90.75 485.97 90.75 485.98 89.45 L 485.98 86.56 C 485.98 86.25 485.91 85.9 486.26 85.7 C 486.49 86.006 486.598 86.388 486.56 86.77 C 486.63 87.77 486.56 88.77 486.56 89.77 C 486.589 89.989 486.568 90.211 486.499 90.421 C 486.43 90.631 486.314 90.822 486.16 90.98 L 486.16 90.98 C 485.47 91.63 484.61 91.32 483.82 91.38 C 483.03 91.44 482.21 91.38 481.4 91.38 C 480.59 91.38 479.79 91.38 478.99 91.38 C 478.19 91.38 477.38 91.38 476.57 91.38 C 475.76 91.38 474.96 91.38 474.15 91.38 C 473.05 91.38 471.96 91.38 470.86 91.38 C 470.134 91.464 469.398 91.396 468.7 91.18 C 468.651 91.152 468.612 91.111 468.588 91.061 C 468.563 91.011 468.554 90.954 468.561 90.899 C 468.569 90.843 468.593 90.792 468.63 90.75 Z"
        fill="#fffaec"/>
    <path
        id="path_35"
        d="M 417.47 92.63 C 417.77 92.35 418.15 92.44 418.47 92.43 C 419.02 92.43 419.58 92.53 420.05 92.06 C 420.25 91.86 420.58 91.95 420.86 91.95 L 425.86 91.95 C 426.35 92.35 426.94 92.11 427.48 92.21 C 427.76 92.27 428.25 92.21 427.87 92.78 L 418.57 92.78 C 418.2 92.73 417.8 92.92 417.47 92.63 Z"
        fill="#feeab5"/>
    <path
        id="path_36"
        d="M 275.57 96.52 C 275.4 96.14 275.32 95.81 275.92 95.81 L 277.11 95.81 C 277.42 95.81 277.75 95.81 278 95.6 L 285 95.6 C 285.032 95.661 285.038 95.732 285.017 95.798 C 284.997 95.863 284.951 95.918 284.89 95.95 C 284.156 96.158 283.389 96.222 282.63 96.14 C 281.72 96.14 280.78 95.98 279.99 96.65 C 278.515 96.717 277.038 96.673 275.57 96.52 Z"
        fill="#fdd056"/>
    <path
        id="path_37"
        d="M 400.87 93.62 L 396.28 93.62 C 395.99 93.05 396.2 92.82 396.8 92.79 C 397.434 92.845 398.074 92.815 398.7 92.7 C 401.03 92.7 403.37 92.6 405.7 92.7 C 405.21 93.61 404.34 93.12 403.64 93.25 C 402.68 93.38 401.68 92.93 400.87 93.62 Z"
        fill="#fdd25d"/>
    <path
        id="path_38"
        d="M 68.29 100.4 L 71.87 100.4 C 72.28 101.28 71.56 101.4 71.03 101.6 C 69.34 101.814 67.629 101.776 65.95 101.49 C 65.54 100.81 65.95 100.59 66.53 100.49 C 67.118 100.549 67.711 100.519 68.29 100.4 Z"
        fill="#fede89"/>
    <path
        id="path_39"
        d="M 68.29 100.4 C 67.94 100.78 67.48 100.64 67.07 100.62 C 66.817 100.574 66.555 100.621 66.334 100.754 C 66.114 100.886 65.948 101.095 65.87 101.34 C 64.99 102 63.97 101.56 63.02 101.7 C 60.6 101.7 58.18 101.78 55.76 101.7 C 55.618 101.672 55.482 101.618 55.36 101.54 C 55.297 101.502 55.251 101.442 55.232 101.37 C 55.213 101.299 55.223 101.224 55.26 101.16 L 57.64 101.16 L 62.77 101.16 C 63.17 101.16 63.56 101.16 63.77 100.71 C 63.98 100.26 64.32 100.44 64.62 100.44 C 65.54 100.44 66.45 100.44 67.37 100.44 Z"
        fill="#fee7ab"/>
    <path
        id="path_40"
        d="M 94.35 100.15 C 94.35 99.82 94.35 99.46 94.8 99.44 C 95.44 99.44 96.03 99.16 96.69 99.17 C 99.05 99.22 101.41 99.17 103.77 99.17 C 103.783 99.239 103.774 99.31 103.745 99.375 C 103.717 99.439 103.67 99.493 103.61 99.53 C 102.608 99.766 101.574 99.834 100.55 99.73 C 99.71 99.83 98.79 99.42 98.05 100.14 C 97.933 100.213 97.797 100.247 97.66 100.24 C 96.56 100.05 95.44 100.68 94.35 100.15 Z"
        fill="#fff6dc"/>
    <path
        id="path_41"
        d="M 462.58 91.68 L 457.78 91.68 C 457.47 91.09 457.72 90.89 458.31 90.86 C 458.942 90.93 459.582 90.89 460.2 90.74 L 465.03 90.74 C 464.89 91.43 464.31 91.2 463.89 91.27 C 463.47 91.34 462.87 91.17 462.58 91.68 Z"
        fill="#fff5dc"/>
    <path
        id="path_42"
        d="M 94.35 100.15 L 97.98 100.15 C 97.98 100.2 98.05 100.25 97.98 100.29 C 97.91 100.33 97.98 100.36 97.92 100.36 L 95.75 100.43 C 92.97 100.63 90.17 100.34 87.41 100.74 C 86.58 100.74 85.75 100.74 84.92 100.74 C 84.09 100.74 83.27 100.74 82.45 100.74 C 81.63 100.74 80.6 101.05 79.81 100.35 C 80.19 100.04 80.65 100.16 81.08 100.16 Z"
        fill="#feebb8"/>
    <path
        id="path_43"
        d="M 403.49 92.91 C 404.21 92.82 404.97 93.1 405.66 92.7 C 408.16 92.7 410.66 92.61 413.15 92.7 C 413.22 92.75 413.25 92.8 413.22 92.84 C 413.19 92.88 413.17 92.9 413.14 92.9 L 411.46 92.9 C 410.51 93.53 409.46 93.14 408.46 93.25 C 407.92 93.31 407.32 93.1 406.9 93.63 L 403.52 93.63 C 403.427 93.535 403.373 93.409 403.367 93.276 C 403.362 93.143 403.405 93.013 403.49 92.91 Z"
        fill="#fdc633"/>
    <path
        id="path_44"
        d="M 379.6 93.62 C 378.795 93.69 377.985 93.69 377.18 93.62 C 377.1 93.53 376.998 93.462 376.884 93.422 C 376.771 93.382 376.649 93.371 376.53 93.39 L 375.45 93.39 C 375.18 93.39 374.83 93.39 374.85 93 C 374.87 92.61 375.16 92.68 375.4 92.68 L 379.6 92.68 C 379.719 92.808 379.785 92.976 379.785 93.15 C 379.785 93.324 379.719 93.492 379.6 93.62 Z"
        fill="#fff8e5"/>
    <path
        id="path_45"
        d="M 293.44 95.53 C 293.7 95.27 294.03 95.35 294.34 95.32 C 294.86 95.32 295.45 95.5 295.75 94.78 C 295.85 94.52 296.24 94.61 296.52 94.61 L 299.24 94.61 C 299.369 94.744 299.442 94.924 299.442 95.11 C 299.442 95.296 299.369 95.476 299.24 95.61 C 298.425 95.68 297.607 95.7 296.79 95.67 C 295.672 95.754 294.547 95.707 293.44 95.53 Z"
        fill="#fff5db"/>
    <path
        id="path_46"
        d="M 119.44 99.2 L 133.44 99.2 C 133.794 98.968 134.207 98.845 134.63 98.845 C 135.053 98.845 135.466 98.968 135.82 99.2 C 135.854 99.238 135.873 99.286 135.877 99.337 C 135.88 99.388 135.866 99.438 135.838 99.48 C 135.81 99.522 135.768 99.554 135.72 99.57 C 132.25 99.42 128.79 99.89 125.31 99.84 C 124.12 99.74 122.92 99.84 121.73 99.84 C 120.996 99.877 120.261 99.803 119.55 99.62 C 119.499 99.597 119.457 99.559 119.428 99.512 C 119.398 99.465 119.384 99.41 119.386 99.354 C 119.388 99.299 119.407 99.245 119.44 99.2 Z"
        fill="#fff5d9"/>
    <path
        id="path_47"
        d="M 398.66 92.7 C 398.13 93.1 397.52 92.88 396.94 92.9 C 396.36 92.92 396.23 93.14 396.24 93.62 L 392.87 93.62 C 392.56 93.44 392.4 93.22 392.62 92.87 C 393.01 92.68 393.46 92.93 393.85 92.69 Z"
        fill="#fdda7a"/>
    <path
        id="path_48"
        d="M 388.04 93.61 L 384.66 93.61 C 384.19 93.23 384.1 92.92 384.83 92.79 C 385.09 92.79 385.38 92.86 385.63 92.67 L 390.22 92.67 C 390.247 92.718 390.271 92.768 390.29 92.82 C 390.245 92.922 390.168 93.006 390.07 93.06 C 389.43 93.41 388.56 92.84 388.04 93.61 Z"
        fill="#fee8af"/>
    <path
        id="path_49"
        d="M 462.58 91.68 C 462.49 91.38 462.29 91.03 462.84 90.99 C 463.24 90.99 463.63 90.99 464.03 90.99 C 464.43 90.99 464.75 91.08 465.03 90.76 L 468.63 90.76 L 468.63 90.98 C 468.61 91.005 468.583 91.024 468.552 91.033 C 468.521 91.042 468.489 91.042 468.458 91.033 C 468.427 91.024 468.4 91.005 468.38 90.98 L 466.87 90.98 C 466.67 90.98 466.35 90.98 466.29 91.04 C 465.66 92.04 464.66 91.6 463.8 91.68 C 463.38 91.73 462.98 91.68 462.58 91.68 Z"
        fill="#feecba"/>
    <path
        id="path_50"
        d="M 235.29 97.49 L 231.67 97.49 C 231.39 97 231.49 96.69 232.09 96.65 C 232.355 96.684 232.625 96.646 232.87 96.54 L 236.01 96.54 C 236.03 97.07 235.5 97.15 235.29 97.49 Z"
        fill="#fdda79"/>
    <path
        id="path_51"
        d="M 312.27 94.62 L 315.87 94.62 C 316.27 95.97 315.05 95.36 314.59 95.67 C 313.806 95.72 313.02 95.7 312.24 95.61 C 312.117 95.473 312.052 95.293 312.058 95.109 C 312.063 94.925 312.139 94.75 312.27 94.62 Z"
        fill="#fdd976"/>
    <path
        id="path_52"
        d="M 183.63 97.48 L 184.38 97.48 C 184.76 98.84 183.55 98.22 183.09 98.54 C 182.303 98.585 181.514 98.565 180.73 98.48 C 180.603 98.345 180.532 98.166 180.532 97.98 C 180.532 97.794 180.603 97.615 180.73 97.48 Z"
        fill="#feecbb"/>
    <path
        id="path_53"
        d="M 224.67 97.49 C 223.865 97.565 223.055 97.565 222.25 97.49 C 222.02 97.31 221.74 97.39 221.48 97.37 C 220.87 97.37 220.77 97.03 221.05 96.53 L 224.67 96.53 C 224.795 96.659 224.864 96.831 224.864 97.01 C 224.864 97.189 224.795 97.361 224.67 97.49 Z"
        fill="#feecbc"/>
    <path
        id="path_54"
        d="M 358.36 94.59 L 354.74 94.59 C 354.48 94.13 354.54 93.82 355.12 93.75 C 355.4 93.75 355.69 93.81 355.95 93.65 L 358.37 93.65 C 358.492 93.777 358.559 93.946 358.558 94.122 C 358.556 94.298 358.485 94.466 358.36 94.59 Z"
        fill="#fdd568"/>
    <path
        id="path_55"
        d="M 336.87 94.55 L 333.49 94.55 C 333.59 93.82 334.02 93.55 334.73 93.62 C 335.44 93.69 336.16 93.62 336.88 93.62 C 336.964 93.701 337.024 93.803 337.054 93.916 C 337.084 94.028 337.082 94.147 337.05 94.258 C 337.018 94.37 336.955 94.471 336.87 94.55 Z"
        fill="#fffaef"/>
    <path
        id="path_56"
        d="M 347.53 94.63 L 344.12 94.55 C 343.62 93.65 344.52 93.88 344.85 93.64 L 347.51 93.64 C 347.633 93.765 347.703 93.934 347.703 94.11 C 347.703 94.286 347.633 94.455 347.51 94.58 Z"
        fill="#fee8ac"/>
    <path
        id="path_57"
        d="M 301.66 94.61 L 305.03 94.61 C 305.5 95.76 304.46 95.44 303.98 95.67 C 303.196 95.72 302.41 95.7 301.63 95.61 C 301.507 95.471 301.441 95.29 301.447 95.104 C 301.452 94.918 301.529 94.741 301.66 94.61 Z"
        fill="#feebb9"/>
    <path
        id="path_58"
        d="M 460.2 90.74 C 459.69 91.19 459.06 90.94 458.49 90.97 C 457.92 91 457.76 91.18 457.78 91.68 L 455.37 91.68 C 455.32 91.06 455.49 90.68 456.23 90.73 C 457.55 90.77 458.87 90.74 460.2 90.74 Z"
        fill="#fffaec"/>
    <path
        id="path_59"
        d="M 428.11 92.68 C 427.72 92.25 427.2 92.48 426.74 92.43 C 426.28 92.38 425.99 92.43 425.93 91.95 L 430.52 91.95 C 430.625 92.057 430.684 92.2 430.684 92.35 C 430.684 92.5 430.625 92.643 430.52 92.75 C 429.718 92.854 428.905 92.83 428.11 92.68 Z"
        fill="#fee49f"/>
    <path
        id="path_60"
        d="M 235.29 97.49 C 235.12 96.87 235.7 96.81 236.01 96.55 L 240.12 96.48 L 240.12 96.58 C 239.98 97.21 239.45 97.02 239.06 97.08 C 238.67 97.14 238.06 97.03 237.73 97.5 Z"
        fill="#fdd466"/>
    <path
        id="path_61"
        d="M 385.63 92.68 C 385.553 92.771 385.453 92.84 385.341 92.881 C 385.228 92.921 385.107 92.931 384.99 92.91 C 384.37 92.91 384.47 93.25 384.66 93.62 L 382.01 93.62 C 381.887 93.495 381.817 93.326 381.817 93.15 C 381.817 92.974 381.887 92.805 382.01 92.68 Z"
        fill="#feedc0"/>
    <path
        id="path_62"
        d="M 352.33 94.59 L 349.92 94.59 C 349.797 94.466 349.728 94.299 349.728 94.125 C 349.728 93.951 349.797 93.784 349.92 93.66 L 353.53 93.66 C 353.45 94.38 352.55 94.06 352.33 94.59 Z"
        fill="#fede89"/>
    <path
        id="path_63"
        d="M 364.15 93.66 C 363.86 94 363.02 93.78 363.15 94.6 L 360.74 94.6 C 360.617 94.475 360.547 94.306 360.547 94.13 C 360.547 93.954 360.617 93.785 360.74 93.66 C 361.876 93.588 363.014 93.588 364.15 93.66 Z"
        fill="#fdcb45"/>
    <path
        id="path_64"
        d="M 304.06 95.53 C 304.37 95.2 305.2 95.43 305.06 94.61 L 307.48 94.61 C 307.612 94.743 307.686 94.923 307.686 95.11 C 307.686 95.297 307.612 95.477 307.48 95.61 C 306.342 95.75 305.19 95.723 304.06 95.53 Z"
        fill="#fee6a8"/>
    <path
        id="path_65"
        d="M 232.87 96.55 C 232.808 96.629 232.727 96.692 232.634 96.73 C 232.541 96.769 232.44 96.782 232.34 96.77 C 231.81 96.77 231.63 97.01 231.67 97.5 L 229.26 97.5 C 228.95 97.09 229.07 96.78 229.49 96.5 Z"
        fill="#fedf8b"/>
    <path
        id="path_66"
        d="M 314.68 95.54 C 314.763 95.454 314.865 95.39 314.978 95.351 C 315.091 95.313 315.212 95.302 315.33 95.32 C 315.83 95.32 315.9 95.01 315.89 94.62 L 318.31 94.62 C 318.328 94.952 318.241 95.281 318.06 95.56 C 317.433 95.694 316.789 95.735 316.15 95.68 C 315.66 95.62 315.14 95.84 314.68 95.54 Z"
        fill="#fdd465"/>
    <path
        id="path_67"
        d="M 79.87 100.36 L 82.53 100.45 C 82.29 101.07 81.53 101.04 81.19 101.55 C 80.461 101.789 79.67 101.761 78.96 101.47 C 78.59 101.04 78.7 100.7 79.16 100.41 Z"
        fill="#fdcc48"/>
    <path
        id="path_68"
        d="M 221.05 96.53 C 221.05 96.93 221.05 97.26 221.61 97.25 C 221.728 97.23 221.85 97.242 221.962 97.284 C 222.075 97.326 222.174 97.397 222.25 97.49 C 221.128 97.575 220.002 97.575 218.88 97.49 C 218.689 97.194 218.604 96.841 218.64 96.49 Z"
        fill="#fef2cf"/>
    <path
        id="path_69"
        d="M 344.87 93.64 C 344.6 93.92 344.01 93.95 344.14 94.55 L 341.73 94.55 C 341.648 94.471 341.589 94.372 341.558 94.262 C 341.528 94.153 341.528 94.037 341.558 93.928 C 341.589 93.818 341.648 93.719 341.73 93.64 Z"
        fill="#feedbe"/>
    <path
        id="path_70"
        d="M 71.18 101.34 C 71.48 101.08 72.07 101.03 71.91 100.41 L 74.33 100.41 C 74.423 100.502 74.489 100.617 74.523 100.743 C 74.557 100.869 74.557 101.001 74.523 101.127 C 74.489 101.253 74.423 101.368 74.33 101.46 C 73.83 101.678 73.287 101.781 72.741 101.76 C 72.196 101.739 71.662 101.596 71.18 101.34 Z"
        fill="#fdd876"/>
    <path
        id="path_71"
        d="M 65.4 102.29 L 58.87 102.34 L 55.52 102.34 C 55.498 102.293 55.489 102.24 55.494 102.189 C 55.499 102.137 55.518 102.087 55.549 102.045 C 55.58 102.003 55.622 101.97 55.67 101.95 C 56.272 101.737 56.917 101.672 57.55 101.76 C 59.74 101.76 61.93 101.76 64.12 101.76 C 64.57 101.77 65.18 101.59 65.4 102.29 Z"
        fill="#fcbe16"/>
    <path
        id="path_72"
        d="M 307.44 95.52 L 307.44 94.61 L 309.87 94.61 C 309.999 94.744 310.072 94.924 310.072 95.11 C 310.072 95.296 309.999 95.476 309.87 95.61 C 309.063 95.755 308.234 95.724 307.44 95.52 Z"
        fill="#fee298"/>
    <path
        id="path_73"
        d="M 309.87 95.53 C 309.87 95.22 309.87 94.92 309.87 94.61 L 312.28 94.61 L 312.28 95.52 C 311.498 95.778 310.654 95.782 309.87 95.53 Z"
        fill="#fede88"/>
    <path
        id="path_74"
        d="M 520.54 98.22 L 519.36 98.29 L 519.21 98.17 C 518.984 97.641 518.956 97.048 519.13 96.5 C 519.182 96.381 519.279 96.287 519.4 96.24 L 520.54 96.24 C 520.769 96.519 520.894 96.869 520.894 97.23 C 520.894 97.591 520.769 97.941 520.54 98.22 Z"
        fill="#fdd56b"/>
    <path
        id="path_75"
        d="M 520.54 98.22 L 520.54 96.28 C 521.7 96.33 521.73 96.33 521.74 97.08 C 521.75 97.83 521.93 98.33 520.54 98.22 Z"
        fill="#fef1cd"/>
    <path
        id="path_76"
        d="M 229.49 96.55 C 229.298 96.846 229.217 97.2 229.26 97.55 L 226.87 97.55 C 226.57 97.13 226.69 96.83 227.11 96.55 Z"
        fill="#fee39b"/>
    <path
        id="path_77"
        d="M 175.92 98.42 L 175.92 97.5 L 178.34 97.5 C 178.469 97.634 178.542 97.814 178.542 98 C 178.542 98.186 178.469 98.366 178.34 98.5 C 177.537 98.646 176.712 98.619 175.92 98.42 Z"
        fill="#fff5dd"/>
    <path
        id="path_78"
        d="M 178.33 98.42 L 178.33 97.5 L 180.74 97.5 L 180.74 98.41 C 179.959 98.673 179.113 98.677 178.33 98.42 Z"
        fill="#fef1cd"/>
    <path
        id="path_79"
        d="M 119.44 99.2 C 119.445 99.263 119.445 99.327 119.44 99.39 C 118.64 100.07 117.67 99.71 116.77 99.79 C 114.95 99.72 113.13 99.79 111.31 99.79 C 110.837 99.834 110.361 99.766 109.92 99.59 C 109.873 99.569 109.833 99.535 109.804 99.492 C 109.775 99.449 109.758 99.4 109.756 99.348 C 109.753 99.296 109.765 99.245 109.79 99.2 Z"
        fill="#feebb8"/>
    <path
        id="path_80"
        d="M 74.32 101.34 L 74.32 100.41 L 76.73 100.41 C 76.867 100.55 76.944 100.739 76.944 100.935 C 76.944 101.131 76.867 101.32 76.73 101.46 C 76.356 101.664 75.933 101.761 75.508 101.74 C 75.083 101.719 74.672 101.58 74.32 101.34 Z"
        fill="#fdd466"/>
    <path
        id="path_81"
        d="M 382.02 92.68 L 382.02 93.62 L 379.61 93.62 L 379.61 92.67 Z"
        fill="#fef1ce"/>
    <path
        id="path_82"
        d="M 336.87 94.55 C 336.87 94.25 336.87 93.94 336.87 93.64 L 339.28 93.64 C 339.362 93.719 339.421 93.818 339.452 93.928 C 339.482 94.037 339.482 94.153 339.452 94.262 C 339.421 94.372 339.362 94.471 339.28 94.55 Z"
        fill="#fff6dd"/>
    <path
        id="path_83"
        d="M 339.29 94.55 C 339.29 94.25 339.29 93.94 339.29 93.64 L 341.71 93.64 L 341.71 94.55 Z"
        fill="#fef1cc"/>
    <path
        id="path_84"
        d="M 349.92 93.66 L 349.92 94.59 L 347.5 94.59 L 347.5 93.65 Z"
        fill="#fee39a"/>
    <path
        id="path_85"
        d="M 352.33 94.59 C 352.33 94.2 352.38 93.87 352.89 93.88 C 353.007 93.899 353.128 93.888 353.24 93.848 C 353.352 93.808 353.452 93.74 353.53 93.65 L 355.95 93.65 C 355.886 93.726 355.804 93.785 355.712 93.822 C 355.619 93.859 355.519 93.872 355.42 93.86 C 354.89 93.86 354.71 94.1 354.74 94.59 Z"
        fill="#fdda7b"/>
    <path
        id="path_86"
        d="M 360.78 93.66 L 360.78 94.6 L 358.36 94.6 C 358.36 94.29 358.36 93.98 358.36 93.67 C 359.165 93.601 359.974 93.598 360.78 93.66 Z"
        fill="#fdd056"/>
    <path
        id="path_87"
        d="M 301.66 94.61 L 301.66 95.53 C 300.874 95.79 300.026 95.79 299.24 95.53 L 299.24 94.61 Z"
        fill="#fef0cb"/>
    <path
        id="path_88"
        d="M 518.11 96.34 L 516.56 96.27 C 516.32 96.27 515.96 96.27 515.93 96.06 C 515.8 95.15 514.93 95.45 514.48 95.12 C 514.548 95.007 514.654 94.921 514.78 94.88 C 514.936 94.828 515.103 94.815 515.265 94.843 C 515.427 94.871 515.58 94.939 515.71 95.04 C 515.784 95.071 515.861 95.091 515.94 95.1 C 516.349 95.101 516.753 95.186 517.128 95.35 C 517.503 95.513 517.841 95.751 518.12 96.05 C 518.54 96.17 519 96.05 519.4 96.24 L 519.27 96.33 C 519.108 96.466 518.903 96.542 518.692 96.544 C 518.48 96.546 518.274 96.474 518.11 96.34 Z"
        fill="#fdd15a"/>
    <path
        id="path_89"
        d="M 227.08 96.55 C 226.89 96.847 226.805 97.199 226.84 97.55 L 224.67 97.55 L 224.67 96.6 Z"
        fill="#fee7aa"/>
    <path
        id="path_90"
        d="M 76.73 101.34 L 76.73 100.41 L 79.14 100.41 C 78.962 100.69 78.878 101.019 78.9 101.35 C 78.591 101.596 78.208 101.729 77.813 101.728 C 77.419 101.726 77.036 101.589 76.73 101.34 Z"
        fill="#fdd056"/>
    <path
        id="path_91"
        d="M 493.23 87.89 L 491.12 87.8 C 490.637 87.508 490.199 87.148 489.82 86.73 L 489.88 86.59 L 491.43 86.66 C 491.67 86.66 492.04 86.66 492.07 86.86 C 492.21 87.76 493.07 87.49 493.53 87.86 C 493.508 87.891 493.477 87.915 493.442 87.93 C 493.406 87.944 493.368 87.948 493.33 87.941 C 493.293 87.934 493.258 87.916 493.23 87.89 Z"
        fill="#fee5a0"/>
    <path
        id="path_92"
        d="M 506.56 101.37 L 508.69 101.3 C 508.836 101.204 509.002 101.142 509.175 101.12 C 509.348 101.097 509.524 101.114 509.69 101.17 C 509.799 101.211 509.891 101.289 509.95 101.39 C 509.56 101.65 509.1 101.48 508.68 101.58 C 508.073 102.128 507.312 102.478 506.5 102.58 L 505.09 102.68 L 504.99 102.59 C 504.979 102.563 504.977 102.533 504.982 102.505 C 504.987 102.476 504.999 102.449 505.018 102.427 C 505.038 102.405 505.062 102.389 505.09 102.38 L 505.31 102.38 C 505.75 102.02 506.15 101.69 506.56 101.37 Z"
        fill="#fdd464"/>
    <path
        id="path_93"
        d="M 293.44 95.53 L 296.83 95.61 C 296.91 95.61 296.93 95.7 296.9 95.74 C 296.87 95.78 296.9 95.8 296.82 95.8 L 290.82 95.8 C 290.518 95.998 290.17 96.115 289.809 96.141 C 289.449 96.168 289.088 96.102 288.76 95.95 C 288.697 95.918 288.649 95.862 288.626 95.795 C 288.604 95.727 288.609 95.654 288.64 95.59 Z"
        fill="#fdc634"/>
    <path
        id="path_94"
        d="M 496.87 104.74 C 497.649 104.467 498.484 104.392 499.3 104.52 C 499.36 104.58 499.38 104.62 499.35 104.67 C 499.32 104.72 499.3 104.72 499.27 104.72 L 499.06 104.72 C 498.62 104.98 498.28 105.39 497.81 105.62 L 495.68 105.73 L 495.59 105.58 L 495.68 105.44 L 495.68 105.44 C 496 105.09 496.61 105.18 496.87 104.74 Z"
        fill="#fdd873"/>
    <path
        id="path_95"
        d="M 514.77 95.04 L 514.48 95.12 C 513.42 95.12 513.42 95.12 513.3 94.28 C 512.99 94.15 512.63 94.36 512.3 94.11 L 512.3 94.11 C 512.23 94.11 512.21 94.02 512.23 93.97 C 512.25 93.92 512.23 93.89 512.28 93.89 L 514.44 93.89 C 514.595 93.932 514.731 94.027 514.825 94.158 C 514.919 94.289 514.964 94.448 514.954 94.609 C 514.944 94.769 514.879 94.922 514.77 95.04 Z"
        fill="#fee6a8"/>
    <path
        id="path_96"
        d="M 135.87 99.19 L 133.46 99.19 C 133.46 98.73 133.59 98.45 134.12 98.47 C 134.65 98.49 135.29 98.47 135.87 98.47 L 135.87 98.47 C 135.954 98.544 136.012 98.644 136.034 98.755 C 136.055 98.865 136.04 98.979 135.99 99.08 Z"
        fill="#fffaec"/>
    <path
        id="path_97"
        d="M 430.52 92.68 L 430.52 91.94 L 432.92 91.94 L 432.92 92.01 C 432.989 92.08 433.037 92.168 433.057 92.264 C 433.077 92.359 433.069 92.459 433.034 92.551 C 433 92.642 432.939 92.722 432.86 92.78 C 432.079 92.86 431.291 92.826 430.52 92.68 Z"
        fill="#fede89"/>
    <path
        id="path_98"
        d="M 512.32 93.84 C 512.324 93.913 512.324 93.987 512.32 94.06 C 511.803 94.088 511.284 94.072 510.77 94.01 C 510.11 93.92 509.77 93.63 509.85 92.92 L 511.07 92.92 C 511.431 93.293 511.854 93.601 512.32 93.83 Z"
        fill="#fedd85"/>
    <path
        id="path_99"
        d="M 506.32 92.9 C 506.12 92.9 505.81 92.97 505.75 92.9 C 505.1 91.9 504.07 92.33 503.2 92.16 C 503.1 92.16 503.01 92.03 502.92 91.96 C 503.202 91.733 503.559 91.619 503.92 91.64 C 504.418 91.58 504.922 91.69 505.35 91.95 L 506.28 92.02 C 506.361 92.093 506.422 92.187 506.455 92.291 C 506.488 92.396 506.493 92.507 506.469 92.614 C 506.446 92.721 506.394 92.819 506.32 92.9 Z"
        fill="#fcbf19"/>
    <path
        id="path_100"
        d="M 486.03 108.12 L 486.23 108.12 C 486.8 108.12 487.08 107.47 487.67 107.53 C 487.94 107.58 488.27 107.4 488.49 107.7 C 488.49 108.32 488.31 108.7 487.61 108.61 C 487.22 108.61 486.82 108.61 486.42 108.61 C 486.02 108.61 486.03 108.38 486.03 108.12 Z"
        fill="#fee091"/>
    <path
        id="path_101"
        d="M 496.87 89.77 C 496.34 89.77 495.81 89.89 495.5 89.21 C 495.35 88.86 494.74 89.21 494.5 88.86 L 494.61 88.7 C 494.782 88.598 494.981 88.551 495.181 88.563 C 495.38 88.576 495.572 88.648 495.73 88.77 L 496.87 88.84 C 496.958 88.918 497.022 89.019 497.055 89.132 C 497.088 89.245 497.088 89.365 497.055 89.478 C 497.022 89.591 496.958 89.692 496.87 89.77 Z"
        fill="#fcc222"/>
    <path
        id="path_102"
        d="M 109.81 99.2 C 109.81 99.27 109.81 99.34 109.81 99.41 C 109.41 99.84 108.88 99.74 108.38 99.77 C 107.67 99.77 106.96 99.77 106.25 99.77 C 105.474 99.849 104.691 99.781 103.94 99.57 L 103.79 99.42 L 103.79 99.2 Z"
        fill="#fef1cd"/>
    <path
        id="path_103"
        d="M 491.09 106.67 L 492.31 106.67 C 492.09 107.33 491.73 107.75 490.95 107.67 C 490.594 107.645 490.236 107.645 489.88 107.67 C 489.97 106.9 490.77 107.08 491.09 106.67 Z"
        fill="#fee297"/>
    <path
        id="path_104"
        d="M 491.09 106.67 C 490.99 107.37 490.33 107.36 489.88 107.61 L 488.49 107.69 L 487.49 107.63 C 487.467 107.611 487.449 107.586 487.441 107.558 C 487.432 107.529 487.431 107.499 487.44 107.47 C 487.44 107.42 487.44 107.4 487.49 107.4 L 489.03 107.4 C 489.3 107.4 489.62 107.4 489.76 107.13 C 490.06 106.53 490.6 106.7 491.09 106.67 Z"
        fill="#fdce51"/>
    <path
        id="path_105"
        d="M 506.52 102.54 C 506.82 102.22 507.43 102.44 507.62 101.8 C 507.74 101.4 508.32 101.62 508.7 101.59 C 508.61 102.51 508.61 102.52 507.81 102.59 C 507.38 102.57 506.95 102.54 506.52 102.54 Z"
        fill="#feecbb"/>
    <path
        id="path_106"
        d="M 119.94 102.54 C 120.27 102.2 120.69 102.33 121.07 102.33 L 125.24 102.33 L 125.24 102.55 C 123.47 102.61 121.71 102.62 119.94 102.54 Z"
        fill="#fdc633"/>
    <path
        id="path_107"
        d="M 413.14 92.9 C 413.14 92.84 413.14 92.77 413.14 92.7 L 417.46 92.63 L 418.46 92.75 C 418.54 92.75 418.57 92.82 418.54 92.86 C 418.51 92.9 418.49 92.92 418.46 92.92 Z"
        fill="#fcc121"/>
    <path
        id="path_108"
        d="M 518.12 96.05 C 517.7 96.05 517.28 96.16 517.07 95.57 C 516.86 94.98 516.23 95.48 515.94 95.1 C 516.37 95.1 516.8 95.1 517.22 95.1 C 518.03 95.13 518.03 95.14 518.12 96.05 Z"
        fill="#fee9af"/>
    <path
        id="path_109"
        d="M 505.34 91.93 L 503.92 91.93 C 503.818 91.854 503.74 91.75 503.695 91.631 C 503.65 91.512 503.641 91.382 503.669 91.258 C 503.696 91.133 503.759 91.019 503.85 90.93 C 504.248 90.77 504.692 90.77 505.09 90.93 C 505.064 91.281 505.151 91.632 505.34 91.93 Z"
        fill="#fee6a4"/>
    <path
        id="path_110"
        d="M 488.42 85.68 C 488.62 85.68 488.82 85.68 489.02 85.68 C 489.73 85.6 489.96 85.95 489.88 86.6 L 489.88 86.7 C 489.497 86.775 489.103 86.775 488.72 86.7 C 488.56 86.591 488.443 86.429 488.388 86.244 C 488.333 86.058 488.345 85.858 488.42 85.68 Z"
        fill="#fff8e6"/>
    <path
        id="path_111"
        d="M 55.5 102.09 L 55.5 102.31 L 54.91 102.31 C 54.18 102.41 54.01 102.03 54.11 101.4 C 54.46 101.03 54.88 101.24 55.27 101.28 L 55.27 101.38 C 55.373 101.463 55.45 101.574 55.491 101.701 C 55.532 101.827 55.535 101.962 55.5 102.09 Z"
        fill="#fcc633"/>
    <path
        id="path_112"
        d="M 514.77 95.04 C 514.796 94.636 514.694 94.234 514.48 93.89 C 515.74 93.8 515.77 94.01 515.71 95.04 Z"
        fill="#fffbf1"/>
    <path
        id="path_113"
        d="M 505.11 102.64 C 505.01 103.48 505.01 103.48 503.88 103.58 L 503.75 103.43 C 503.667 103.281 503.636 103.108 503.664 102.939 C 503.691 102.77 503.774 102.616 503.9 102.5 C 504.288 102.405 504.692 102.405 505.08 102.5 Z"
        fill="#fee6a5"/>
    <path
        id="path_114"
        d="M 508.72 92.84 C 508.326 92.905 507.924 92.905 507.53 92.84 C 507.443 92.768 507.377 92.674 507.34 92.567 C 507.302 92.461 507.294 92.346 507.317 92.236 C 507.34 92.125 507.393 92.023 507.47 91.94 C 508.62 91.95 508.62 91.95 508.72 92.84 Z"
        fill="#feeec3"/>
    <path
        id="path_115"
        d="M 507.47 91.98 L 507.53 92.88 L 506.32 92.88 C 506.32 92.58 506.32 92.28 506.27 91.98 Z"
        fill="#fdd568"/>
    <path
        id="path_116"
        d="M 509.94 100.41 L 511.16 100.41 C 511.16 101.48 510.83 101.41 509.97 101.36 L 509.84 101.29 C 509.747 101.156 509.705 100.993 509.724 100.831 C 509.742 100.669 509.819 100.519 509.94 100.41 Z"
        fill="#fedb7f"/>
    <path
        id="path_117"
        d="M 512.31 100.36 C 512.42 99.45 512.42 99.45 513.52 99.42 C 513.61 99.497 513.676 99.598 513.71 99.711 C 513.744 99.825 513.744 99.945 513.71 100.059 C 513.676 100.172 513.61 100.273 513.52 100.35 C 513.121 100.426 512.711 100.429 512.31 100.36 Z"
        fill="#fdcb46"/>
    <path
        id="path_118"
        d="M 513.5 100.35 C 513.5 100.04 513.5 99.73 513.5 99.42 L 514.72 99.42 C 514.67 100.42 514.67 100.42 513.5 100.35 Z"
        fill="#fee49f"/>
    <path
        id="path_119"
        d="M 488.42 85.68 C 488.613 85.976 488.704 86.327 488.68 86.68 C 488.38 86.91 488.04 86.76 487.68 86.8 C 487.568 86.802 487.459 86.767 487.37 86.7 C 487.264 86.571 487.192 86.417 487.16 86.253 C 487.129 86.089 487.139 85.919 487.19 85.76 Z"
        fill="#fede88"/>
    <path
        id="path_120"
        d="M 493.23 87.89 L 493.53 87.81 L 494.47 87.81 C 494.55 87.888 494.608 87.987 494.637 88.095 C 494.666 88.203 494.666 88.317 494.637 88.425 C 494.608 88.533 494.55 88.632 494.47 88.71 L 494.47 88.83 C 493.37 88.77 493.37 88.77 493.23 87.89 Z"
        fill="#fdd15a"/>
    <path
        id="path_121"
        d="M 496.87 89.77 L 496.87 88.85 L 498.07 88.85 C 498.167 88.93 498.24 89.034 498.282 89.152 C 498.324 89.271 498.333 89.398 498.308 89.521 C 498.283 89.644 498.225 89.758 498.14 89.85 C 497.946 89.936 497.737 89.981 497.525 89.981 C 497.313 89.981 497.104 89.936 496.91 89.85 Z"
        fill="#fdda7b"/>
    <path
        id="path_122"
        d="M 498.1 89.76 C 498.1 89.45 498.1 89.14 498.1 88.83 C 499.24 88.83 499.24 88.83 499.35 89.74 C 499.316 89.792 499.267 89.833 499.211 89.86 C 499.155 89.886 499.092 89.897 499.03 89.89 C 498.7 89.84 498.37 89.99 498.1 89.76 Z"
        fill="#fff5da"/>
    <path
        id="path_123"
        d="M 512.34 93.84 C 511.34 93.9 511.05 93.97 511.09 92.93 C 512.01 92.84 512.44 92.84 512.34 93.84 Z"
        fill="#fff1ce"/>
    <path
        id="path_124"
        d="M 493.25 106.63 L 493.25 105.73 C 493.439 105.634 493.647 105.579 493.859 105.569 C 494.071 105.559 494.282 105.593 494.48 105.67 C 494.564 105.762 494.622 105.875 494.647 105.998 C 494.673 106.12 494.665 106.247 494.625 106.365 C 494.585 106.483 494.514 106.588 494.42 106.67 Z"
        fill="#fdd15b"/>
    <path
        id="path_125"
        d="M 494.45 106.65 L 494.51 105.75 C 494.88 105.45 495.28 105.59 495.67 105.66 L 495.67 105.77 C 495.56 106.67 495.56 106.67 494.45 106.65 Z"
        fill="#feecbb"/>
    <path
        id="path_126"
        d="M 500.49 89.78 C 501.079 89.755 501.668 89.833 502.23 90.01 C 502.66 90.1 502.67 90.4 502.69 90.72 L 502.56 90.84 C 502.191 90.896 501.814 90.858 501.464 90.729 C 501.115 90.599 500.803 90.383 500.56 90.1 C 500.522 90.057 500.496 90.005 500.484 89.949 C 500.472 89.893 500.474 89.835 500.49 89.78 Z"
        fill="#fff6de"/>
    <path
        id="path_127"
        d="M 494.49 88.74 C 494.49 88.44 494.49 88.14 494.49 87.84 C 495.6 87.84 495.6 87.84 495.72 88.77 C 495.312 88.838 494.894 88.827 494.49 88.74 Z"
        fill="#feeab4"/>
    <path
        id="path_128"
        d="M 487.22 85.71 C 487.322 85.841 487.396 85.99 487.439 86.15 C 487.482 86.309 487.492 86.476 487.47 86.64 C 487.312 86.793 487.1 86.878 486.88 86.878 C 486.66 86.878 486.448 86.793 486.29 86.64 C 486.22 86.327 486.22 86.003 486.29 85.69 Z"
        fill="#fdca42"/>
    <path
        id="path_129"
        d="M 518.14 98.49 C 518.04 99.42 518.04 99.42 516.9 99.4 L 516.81 99.27 C 516.81 99.21 516.81 99.16 516.81 99.1 C 516.84 98.882 516.918 98.673 517.04 98.49 C 517.12 98.409 517.226 98.359 517.34 98.35 C 517.61 98.39 517.87 98.24 518.14 98.49 Z"
        fill="#feecba"/>
    <path
        id="path_130"
        d="M 497.87 105.66 C 498.13 105.15 498.28 104.49 499.12 104.76 C 498.97 105.7 498.97 105.7 497.87 105.66 Z"
        fill="#fff0c9"/>
    <path
        id="path_131"
        d="M 390.22 92.91 L 390.22 92.69 L 393.87 92.69 C 393.52 93.06 393.07 92.85 392.66 92.91 C 392.305 93.166 391.878 93.303 391.44 93.303 C 391.002 93.303 390.575 93.166 390.22 92.91 Z"
        fill="#fee39b"/>
    <path
        id="path_132"
        d="M 288.62 95.6 C 288.625 95.667 288.625 95.733 288.62 95.8 C 287.91 96.39 287.06 96.09 286.26 96.15 C 286.039 96.186 285.812 96.174 285.596 96.113 C 285.38 96.053 285.18 95.946 285.01 95.8 L 285.01 95.6 C 286.212 95.535 287.418 95.535 288.62 95.6 Z"
        fill="#fdcc46"/>
    <path
        id="path_133"
        d="M 502.87 103.77 C 502.82 104.57 502.22 104.49 501.68 104.5 C 501.612 104.435 501.564 104.353 501.539 104.263 C 501.514 104.173 501.514 104.077 501.539 103.987 C 501.564 103.897 501.612 103.815 501.68 103.75 C 501.869 103.671 502.072 103.633 502.277 103.636 C 502.482 103.639 502.684 103.685 502.87 103.77 Z"
        fill="#fff9eb"/>
    <path
        id="path_134"
        d="M 501.72 103.78 L 501.72 104.5 C 500.94 104.97 500.1 104.67 499.28 104.72 L 499.28 104.52 L 499.28 104.52 C 499.562 104.295 499.921 104.187 500.28 104.22 C 500.8 104.32 501.17 103.98 501.57 103.74 Z"
        fill="#fef1cb"/>
    <path
        id="path_135"
        d="M 505.09 90.99 L 503.87 90.99 C 503.73 91.107 503.553 91.171 503.37 91.171 C 503.187 91.171 503.01 91.107 502.87 90.99 L 502.67 90.92 C 502.59 90.92 502.56 90.85 502.57 90.8 C 502.58 90.75 502.57 90.72 502.63 90.72 L 502.63 90.72 C 503.49 90.84 504.33 90.49 505.09 90.99 Z"
        fill="#fff6de"/>
    <path
        id="path_136"
        d="M 516.92 99.19 C 516.925 99.263 516.925 99.337 516.92 99.41 L 514.75 99.41 C 515.03 99.1 515.41 99.26 515.75 99.2 C 515.851 99.095 515.978 99.019 516.119 98.98 C 516.259 98.941 516.407 98.939 516.548 98.976 C 516.689 99.013 516.817 99.087 516.92 99.19 Z"
        fill="#fddc81"/>
    <path
        id="path_137"
        d="M 518.14 98.49 L 517.14 98.49 C 517.08 98.44 517.06 98.39 517.09 98.34 C 517.12 98.29 517.09 98.27 517.15 98.27 L 518.09 98.2 C 518.257 98.061 518.468 97.985 518.685 97.985 C 518.902 97.985 519.113 98.061 519.28 98.2 L 519.34 98.31 C 518.98 98.53 518.54 98.37 518.14 98.49 Z"
        fill="#fddc81"/>
    <path
        id="path_138"
        d="M 502.87 103.77 L 501.68 103.77 L 501.68 103.77 Q 501.58 103.7 501.62 103.62 C 501.629 103.604 501.642 103.59 501.658 103.579 C 501.673 103.569 501.691 103.562 501.71 103.56 L 502.65 103.51 C 502.827 103.385 503.038 103.318 503.255 103.318 C 503.472 103.318 503.683 103.385 503.86 103.51 L 503.86 103.6 C 503.6 103.84 503.24 103.73 502.87 103.77 Z"
        fill="#fef1cb"/>
    <path
        id="path_139"
        d="M 500.49 89.78 L 500.55 89.97 C 500.501 90.019 500.458 90.072 500.42 90.13 C 500.244 90.23 500.041 90.274 499.839 90.256 C 499.638 90.238 499.446 90.159 499.29 90.03 L 499.08 90.03 C 499 90.03 498.97 90.03 498.98 89.93 C 498.99 89.83 498.98 89.85 499.03 89.85 L 499.31 89.78 Z"
        fill="#fee195"/>
    <path
        id="path_140"
        d="M 55.27 101.31 L 54.11 101.43 C 54.38 100.89 54.87 101.19 55.26 101.12 C 55.26 101.19 55.27 101.25 55.27 101.31 Z"
        fill="#fee9af"/>
    <path
        id="path_141"
        d="M 267.87 95.57 C 267.71 95.83 267.55 95.81 267.39 95.57 Z"
        fill="#fdde8a"/>
    <path
        id="path_142"
        d="M 115.62 81.4 L 115.65 81.38 L 115.63 81.41 L 115.62 81.4 Z"
        fill="#ffb400"/>
    <path
        id="path_143"
        d="M 136.47 34.27 L 128.03 34.27 C 126.97 34.27 126.96 34.27 126.96 33.27 Q 126.96 24.9 126.96 16.52 C 126.96 15.52 126.96 15.52 127.96 15.52 L 143.63 15.58 C 146.72 15.58 148.63 17.26 149.73 19.98 C 151.072 23.383 151.007 27.184 149.55 30.54 C 148.903 32.069 147.757 33.334 146.3 34.13 C 145.944 34.306 145.545 34.376 145.15 34.33 L 136.47 34.33 Z"
        fill="#ffffff"/>
    <path
        id="path_144"
        d="M 76.73 101.34 L 81.32 101.34 C 82.4 100.7 83.58 101.09 84.71 101 C 85.63 101 86.6 101.23 87.36 100.44 Q 91.57 100.33 95.8 100.44 C 95.46 100.76 95.04 100.63 94.65 100.64 L 90.8 100.64 L 89.96 100.64 C 89.74 100.64 89.58 100.77 89.61 101.02 C 89.615 101.1 89.651 101.176 89.711 101.23 C 89.771 101.284 89.849 101.313 89.93 101.31 L 91.01 101.31 C 97.3 101.31 103.59 101.31 109.88 101.31 C 110.34 101.31 110.88 101.13 111.25 101.54 C 106.11 101.54 100.97 101.45 95.82 101.61 C 95.82 101.61 95.74 101.73 95.69 101.8 C 95.92 102.22 96.49 101.8 96.69 102.23 L 95.28 102.23 C 94.852 102.124 94.408 102.097 93.97 102.15 C 86.35 102.15 78.73 102.1 71.12 102.15 C 68.63 102.15 66.18 101.75 63.71 101.75 C 63.4 101.75 63.03 101.75 62.99 101.3 L 65.87 101.3 L 76.73 101.3 Z"
        fill="#fcbe16"/>
    <path
        id="path_145"
        d="M 125.24 102.32 L 125.24 101.6 L 154.69 101.6 C 154.69 102 154.62 102.33 154.11 102.32 L 125.24 102.32 Z"
        fill="#fdc633"/>
    <path
        id="path_146"
        d="M 178.33 98.42 L 183.17 98.42 C 184.341 98.182 185.535 98.078 186.73 98.11 C 187.54 98.11 188.35 98.11 189.16 98.11 C 189.97 98.11 190.77 98.11 191.58 98.11 C 191.94 98.16 192.34 98.11 192.58 98.49 C 192.16 98.84 191.66 98.69 191.19 98.69 Q 180.19 98.69 169.19 98.69 C 168.58 98.69 167.9 98.48 167.52 99.26 C 167.4 99.51 167 99.39 166.73 99.39 L 161.92 99.39 C 161.57 99.39 162.45 98.96 161.78 98.97 C 161.39 98.97 160.78 99.1 160.72 98.44 L 171.93 98.44 C 173.26 98.44 174.58 98.44 175.93 98.44 Z"
        fill="#fdc634"/>
    <path
        id="path_147"
        d="M 125.24 99.47 L 134.43 99.42 C 134.9 99.42 135.43 99.42 135.86 99.42 C 137.35 98.86 138.86 99.19 140.42 99.1 C 142.32 99.26 144.23 98.9 146.13 99.22 C 146.276 99.279 146.402 99.38 146.49 99.51 C 146.11 99.83 145.65 99.7 145.22 99.7 L 129.87 99.7 C 129.475 99.971 128.996 100.092 128.52 100.04 C 128.12 100.04 127.72 100.04 127.46 100.42 L 127.46 100.42 C 125.955 100.57 124.44 100.6 122.93 100.51 C 122.53 99.94 122.66 99.63 123.37 99.58 C 123.995 99.606 124.622 99.569 125.24 99.47 Z"
        fill="#fcc32a"/>
    <path
        id="path_148"
        d="M 487.47 107.4 L 487.47 107.63 C 486.94 108.48 486.94 108.48 486.23 108.11 C 486.318 106.194 486.302 104.274 486.18 102.36 L 486.78 102.36 C 487.3 102.36 487.48 102.6 487.47 103.09 C 487.46 104.51 487.47 105.95 487.47 107.4 Z"
        fill="#fcbc0e"/>
    <path
        id="path_149"
        d="M 108.36 99.44 L 109.79 99.44 L 116.79 99.49 C 116.63 100.12 116.06 99.92 115.64 100.05 C 114.099 100.356 112.531 100.514 110.96 100.52 C 110.25 100.587 109.534 100.563 108.83 100.45 L 103.75 100.39 C 103.746 100.327 103.746 100.263 103.75 100.2 C 103.826 100.097 103.93 100.017 104.05 99.97 C 104.711 99.861 105.381 99.824 106.05 99.86 C 106.87 99.72 107.7 100.18 108.36 99.44 Z"
        fill="#fddc82"/>
    <path
        id="path_150"
        d="M 243.73 96.58 C 246.63 96.58 249.53 96.48 252.42 96.58 C 251.58 96.97 250.69 96.68 249.82 96.77 C 249.22 96.83 248.54 96.56 248.14 97.34 C 248 97.63 247.55 97.49 247.23 97.49 C 245.58 97.49 243.93 97.49 242.29 97.49 C 242.03 97.05 242.08 96.73 242.66 96.66 C 243.019 96.683 243.379 96.656 243.73 96.58 Z"
        fill="#fdc736"/>
    <path
        id="path_151"
        d="M 418.45 92.92 L 418.45 92.75 L 428.11 92.68 L 432.93 92.68 C 433.67 92.1 434.53 92.38 435.34 92.32 C 436.46 92.32 437.57 92.32 438.68 92.32 Q 439.89 92.32 441.11 92.32 C 442.274 92.221 443.445 92.289 444.59 92.52 C 444.652 92.559 444.701 92.617 444.73 92.685 C 444.758 92.753 444.765 92.828 444.75 92.9 Z"
        fill="#fcc52e"/>
    <path
        id="path_152"
        d="M 316.13 95.57 L 319.73 95.57 C 319.97 95.57 320.28 95.57 320.41 95.43 C 320.91 94.69 321.65 94.86 322.35 94.86 C 323.74 94.86 325.14 94.86 326.53 94.86 C 326.87 95.59 326.43 95.66 325.87 95.69 C 324.869 95.621 323.863 95.658 322.87 95.8 L 316.13 95.8 C 316.05 95.8 316.02 95.71 316.04 95.66 C 316.06 95.61 316.1 95.57 316.13 95.57 Z"
        fill="#fdca41"/>
    <path
        id="path_153"
        d="M 285 95.84 L 286.21 95.84 C 286.301 95.938 286.351 96.067 286.351 96.2 C 286.351 96.333 286.301 96.462 286.21 96.56 C 281.63 96.89 277.04 96.81 272.45 96.79 C 272.37 96.74 272.35 96.69 272.38 96.65 C 272.41 96.61 272.43 96.58 272.46 96.58 L 275.57 96.58 L 280.17 96.58 C 280.529 96.331 280.965 96.218 281.4 96.26 C 281.83 96.26 282.29 96.26 282.59 95.87 Z"
        fill="#fdc634"/>
    <path
        id="path_154"
        d="M 322.87 95.84 C 323.48 95.39 324.18 95.69 324.87 95.61 C 325.23 95.585 325.59 95.585 325.95 95.61 C 326.45 95.61 326.53 95.3 326.55 94.91 L 331.12 94.91 C 331 95.83 331 95.85 330.12 95.85 C 327.73 95.84 325.3 95.84 322.87 95.84 Z"
        fill="#fcbd10"/>
    <path
        id="path_155"
        d="M 486.29 86.64 L 487.48 86.64 C 487.56 86.7 487.58 86.75 487.56 86.8 C 487.54 86.85 487.5 86.88 487.47 86.88 C 487.47 87.88 487.47 88.79 487.47 89.75 C 487.47 90.98 487.47 90.98 486.22 90.96 C 486.24 89.51 486.26 88.08 486.29 86.64 Z"
        fill="#fcbc0e"/>
    <path
        id="path_156"
        d="M 316.13 95.57 C 316.13 95.65 316.13 95.72 316.13 95.79 L 296.87 95.79 L 296.87 95.6 L 299.27 95.51 C 300.075 95.575 300.885 95.575 301.69 95.51 L 314.69 95.51 Z"
        fill="#fcc122"/>
    <path
        id="path_157"
        d="M 108.87 100.42 L 111.03 100.37 C 113.75 100.29 116.46 99.87 119.19 100.04 C 120.41 100.18 121.69 99.69 122.85 100.39 L 127.45 100.39 C 127.17 100.73 126.79 100.63 126.45 100.63 L 109.87 100.63 C 109.51 100.63 109.13 100.73 108.87 100.42 Z"
        fill="#fcbe16"/>
    <path
        id="path_158"
        d="M 243.73 96.58 C 243.624 96.671 243.498 96.735 243.363 96.768 C 243.227 96.801 243.086 96.802 242.95 96.77 C 242.42 96.77 242.25 97.02 242.29 97.49 L 237.7 97.49 C 237.7 97.01 237.85 96.77 238.37 96.75 C 238.89 96.73 239.55 96.95 240.09 96.57 Z"
        fill="#fdce4d"/>
    <path
        id="path_159"
        d="M 470.87 91.01 L 474.25 91.01 C 474.76 92.19 473.58 91.61 473.25 91.94 L 466.25 91.94 C 466.93 91.51 467.7 91.81 468.42 91.71 C 468.772 91.453 469.207 91.335 469.64 91.38 C 470.06 91.35 470.51 91.4 470.87 91.01 Z"
        fill="#fedd85"/>
    <path
        id="path_160"
        d="M 151.07 98.48 L 154.69 98.48 C 154.95 98.94 154.88 99.24 154.3 99.31 C 154.03 99.31 153.74 99.25 153.48 99.42 L 148.87 99.42 C 148.97 98.79 149.5 98.97 149.87 98.91 C 150.24 98.85 150.81 98.96 151.07 98.48 Z"
        fill="#fdd977"/>
    <path
        id="path_161"
        d="M 205.61 97.53 C 207.22 97.47 208.82 97.44 210.43 97.53 C 210.02 97.9 209.52 97.67 209.07 97.74 C 208.93 97.74 208.65 97.74 208.71 97.91 C 208.97 98.81 208.26 98.43 207.97 98.44 C 207.19 98.44 206.39 98.44 205.6 98.44 C 205.485 98.316 205.421 98.152 205.423 97.983 C 205.425 97.814 205.492 97.651 205.61 97.53 Z"
        fill="#fcc122"/>
    <path
        id="path_162"
        d="M 406.87 93.64 C 406.82 93.05 407.13 92.9 407.67 92.91 C 408.93 92.91 410.19 92.91 411.46 92.91 C 411.46 93.5 411.19 93.65 410.66 93.64 C 409.4 93.62 408.13 93.63 406.87 93.64 Z"
        fill="#fcc121"/>
    <path
        id="path_163"
        d="M 286.21 96.53 L 286.21 95.84 L 290.8 95.84 C 290.8 96.42 290.52 96.58 289.99 96.57 C 288.73 96.51 287.47 96.53 286.21 96.53 Z"
        fill="#fcc122"/>
    <path
        id="path_164"
        d="M 444.75 92.91 C 444.755 92.83 444.755 92.75 444.75 92.67 L 444.89 92.53 C 445.571 92.331 446.285 92.27 446.99 92.35 C 447.78 92.25 448.65 92.68 449.35 91.99 C 450.148 91.92 450.952 91.92 451.75 91.99 C 451.81 92.62 451.6 92.99 450.88 92.92 C 448.87 92.89 446.8 92.91 444.75 92.91 Z"
        fill="#fcbc0f"/>
    <path
        id="path_165"
        d="M 199.87 97.53 L 203.25 97.53 C 203.331 97.611 203.389 97.711 203.419 97.822 C 203.448 97.932 203.448 98.048 203.419 98.158 C 203.389 98.269 203.331 98.369 203.25 98.45 L 199.87 98.45 C 199.789 98.369 199.731 98.269 199.701 98.158 C 199.672 98.048 199.672 97.932 199.701 97.822 C 199.731 97.711 199.789 97.611 199.87 97.53 Z"
        fill="#fdcb44"/>
    <path
        id="path_166"
        d="M 366.57 94.6 C 366.57 94.13 366.15 94.13 365.88 93.9 L 369.02 93.9 C 369.29 94.24 369.67 94.07 370.02 94.12 C 370.37 94.17 370.73 93.98 371.11 94.43 C 369.61 94.681 368.084 94.738 366.57 94.6 Z"
        fill="#fcc121"/>
    <path
        id="path_167"
        d="M 153.48 99.41 C 153.561 99.321 153.663 99.254 153.776 99.213 C 153.89 99.173 154.011 99.162 154.13 99.18 C 154.64 99.18 154.7 98.86 154.69 98.47 L 157.1 98.47 C 157.183 98.552 157.243 98.655 157.274 98.768 C 157.304 98.881 157.304 98.999 157.274 99.112 C 157.243 99.225 157.183 99.328 157.1 99.41 Z"
        fill="#fdd364"/>
    <path
        id="path_168"
        d="M 473.23 91.94 C 473.274 91.873 473.334 91.818 473.403 91.778 C 473.472 91.738 473.55 91.715 473.63 91.71 C 474.12 91.71 474.22 91.41 474.21 91.01 L 476.62 91.01 C 476.74 91.133 476.807 91.298 476.807 91.47 C 476.807 91.642 476.74 91.807 476.62 91.93 Z"
        fill="#fdd66c"/>
    <path
        id="path_169"
        d="M 192.59 98.49 L 191.59 98.43 C 191.66 97.85 192.33 97.93 192.59 97.53 L 195 97.53 C 195.082 97.61 195.142 97.71 195.172 97.821 C 195.203 97.932 195.203 98.048 195.172 98.159 C 195.142 98.27 195.082 98.37 195 98.45 Z"
        fill="#fdd875"/>
    <path
        id="path_170"
        d="M 151.07 98.48 C 151.25 98.85 151.34 99.15 150.74 99.19 C 150.14 99.23 149.47 98.98 148.9 99.41 L 146.49 99.47 L 146.24 99.38 C 146.238 99.29 146.266 99.203 146.321 99.132 C 146.375 99.061 146.453 99.011 146.54 98.99 C 147.22 98.72 148.07 99.14 148.66 98.48 Z"
        fill="#fedf8a"/>
    <path
        id="path_171"
        d="M 160.73 98.48 C 161.33 98.98 162.12 98.62 162.81 98.86 C 162.63 99.34 162.08 99.05 161.93 99.43 L 159.51 99.43 C 159.389 99.303 159.321 99.135 159.321 98.96 C 159.321 98.785 159.389 98.617 159.51 98.49 Z"
        fill="#fdcb44"/>
    <path
        id="path_172"
        d="M 519.3 98.18 L 518.11 98.18 L 518.11 96.34 L 519.27 96.34 C 519.369 96.949 519.379 97.568 519.3 98.18 Z"
        fill="#fcbe16"/>
    <path
        id="path_173"
        d="M 194.98 98.45 L 194.98 97.53 L 197.4 97.53 C 197.52 97.653 197.587 97.818 197.587 97.99 C 197.587 98.162 197.52 98.327 197.4 98.45 Z"
        fill="#fdd466"/>
    <path
        id="path_174"
        d="M 197.4 98.45 L 197.4 97.53 L 199.87 97.53 L 199.87 98.45 Z"
        fill="#fdd055"/>
    <path
        id="path_175"
        d="M 203.19 98.45 L 203.19 97.53 L 205.6 97.53 L 205.6 98.46 Z"
        fill="#fdc632"/>
    <path
        id="path_176"
        d="M 159.51 98.47 L 159.51 99.41 L 157.09 99.41 C 157.09 99.1 157.09 98.78 157.09 98.47 Z"
        fill="#fdcf53"/>
    <path
        id="path_177"
        d="M 476.61 91.93 L 476.61 91.01 L 479.02 91.01 C 479.103 91.091 479.163 91.193 479.193 91.304 C 479.223 91.416 479.223 91.534 479.193 91.646 C 479.163 91.757 479.103 91.859 479.02 91.94 Z"
        fill="#fdd159"/>
    <path
        id="path_178"
        d="M 479.02 91.94 L 479.02 91.01 L 481.43 91.01 C 481.553 91.134 481.622 91.301 481.622 91.475 C 481.622 91.649 481.553 91.816 481.43 91.94 Z"
        fill="#fdcc48"/>
    <path
        id="path_179"
        d="M 481.44 91.94 L 481.44 91.01 C 482.242 90.945 483.048 90.945 483.85 91.01 C 483.973 91.134 484.042 91.301 484.042 91.475 C 484.042 91.649 483.973 91.816 483.85 91.94 Z"
        fill="#fdc736"/>
    <path
        id="path_180"
        d="M 483.87 91.94 L 483.87 91.01 L 486.23 90.93 C 486.23 91.93 486.23 91.93 485.3 91.93 C 484.8 91.96 484.33 91.94 483.87 91.94 Z"
        fill="#fcc327"/>
    <path
        id="path_181"
        d="M 272.46 96.55 L 272.46 96.76 L 264.67 96.76 C 264.36 96.76 264.02 96.82 263.76 96.56 L 265.69 96.49 Z"
        fill="#fdcc46"/>
    <path
        id="path_182"
        d="M 403.49 92.91 L 403.49 93.64 L 403.26 93.64 L 400.83 93.64 C 400.83 93.18 400.98 92.91 401.51 92.93 C 402.04 92.95 402.87 92.91 403.49 92.91 Z"
        fill="#fdcb45"/>
    <path
        id="path_183"
        d="M 127.42 100.39 C 127.42 99.93 127.55 99.65 128.08 99.67 C 128.61 99.69 129.25 99.67 129.83 99.67 C 129.83 100.14 129.69 100.41 129.17 100.4 C 128.65 100.39 128 100.39 127.42 100.39 Z"
        fill="#fcbd12"/>
    <path
        id="path_184"
        d="M 487.47 86.84 C 487.465 86.76 487.465 86.68 487.47 86.6 L 488.67 86.6 L 489.89 86.66 C 490.181 86.702 490.453 86.83 490.67 87.028 C 490.888 87.226 491.041 87.484 491.11 87.77 C 490.51 87.85 489.94 87.91 489.72 87.12 C 489.66 86.88 489.35 86.87 489.11 86.86 Z"
        fill="#fdcd4c"/>
    <path
        id="path_185"
        d="M 103.77 100.15 C 103.77 100.22 103.77 100.29 103.77 100.36 L 97.97 100.36 C 97.97 100.29 97.97 100.22 97.97 100.15 L 97.97 100.15 C 98.72 99.58 99.59 99.86 100.41 99.81 C 101.53 99.92 102.71 99.47 103.77 100.15 Z"
        fill="#fee7a9"/>
    <path
        id="path_186"
        d="M 502.65 90.76 C 502.655 90.827 502.655 90.893 502.65 90.96 C 501.938 91.015 501.222 91.015 500.51 90.96 C 500.418 90.892 500.348 90.798 500.308 90.692 C 500.267 90.585 500.258 90.468 500.282 90.356 C 500.305 90.245 500.36 90.142 500.44 90.06 L 500.51 89.99 C 500.8 90.06 501.25 89.91 501.36 90.24 C 501.63 90.93 502.18 90.72 502.65 90.76 Z"
        fill="#fee195"/>
    <path
        id="path_187"
        d="M 517.17 98.25 C 517.165 98.323 517.165 98.397 517.17 98.47 L 517.17 98.47 C 516.93 98.66 517.17 98.99 516.93 99.19 L 515.74 99.19 C 515.87 98.24 515.87 98.24 517.17 98.25 Z"
        fill="#fdd057"/>
    <path
        id="path_188"
        d="M 500.48 90.04 L 500.54 90.94 C 499.38 90.94 499.38 90.94 499.29 90.03 Z"
        fill="#fdca42"/>
    <path
        id="path_189"
        d="M 500.48 104.48 L 499.29 104.48 C 499.37 103.53 499.37 103.53 500.52 103.54 C 500.602 103.625 500.659 103.73 500.685 103.845 C 500.712 103.959 500.707 104.079 500.67 104.191 C 500.634 104.303 500.568 104.403 500.48 104.48 Z"
        fill="#fdc632"/>
    <path
        id="path_190"
        d="M 509.94 100.41 C 509.94 100.71 509.88 101.02 509.84 101.32 L 508.69 101.32 C 508.81 100.39 508.81 100.39 509.94 100.41 Z"
        fill="#fcc121"/>
    <path
        id="path_191"
        d="M 503.87 103.49 L 502.66 103.49 C 502.846 103.217 502.937 102.89 502.92 102.56 C 503.068 102.462 503.242 102.41 503.42 102.41 C 503.598 102.41 503.772 102.462 503.92 102.56 C 503.87 102.89 503.87 103.19 503.87 103.49 Z"
        fill="#fdce4e"/>
    <path
        id="path_192"
        d="M 500.48 104.48 C 500.48 104.17 500.48 103.86 500.48 103.55 L 501.68 103.55 C 501.67 103.623 501.67 103.697 501.68 103.77 C 501.45 104.27 501.14 104.66 500.48 104.48 Z"
        fill="#fedf8d"/>
    <path
        id="path_193"
        d="M 502.87 91.03 L 503.87 91.03 C 503.87 91.33 503.87 91.64 503.92 91.94 L 502.92 91.94 Z"
        fill="#fdce4f"/>
    <path
        id="path_194"
        d="M 496.87 104.74 C 496.76 105.47 496.76 105.47 495.68 105.48 C 495.81 104.74 495.81 104.74 496.87 104.74 Z"
        fill="#fcc223"/>
    <path
        id="path_195"
        d="M 506.56 101.37 C 506.3 101.89 506.17 102.56 505.33 102.37 C 505.29 101.42 506.02 101.52 506.56 101.37 Z"
        fill="#fcbf1a"/>
    <path
        id="path_196"
        d="M 495.67 105.66 L 494.51 105.74 L 493.28 105.74 C 494.04 105.2 494.89 105.57 495.69 105.49 C 495.688 105.547 495.681 105.604 495.67 105.66 Z"
        fill="#fcc223"/>
    <path
        id="path_197"
        d="M 503.87 102.59 L 502.87 102.59 C 503.56 102.14 504.33 102.42 505.06 102.37 L 505.06 102.55 Z"
        fill="#fcbf1a"/>
    <path
        id="path_198"
        d="M 499.03 89.84 C 499.03 89.9 499.03 89.96 499.03 90.02 C 498.3 90.02 497.53 90.26 496.85 89.78 L 498.05 89.78 Z"
        fill="#fdca42"/>
    <path
        id="path_199"
        d="M 512.34 94.11 C 512.67 94.11 513.02 94.01 513.34 94.28 C 512.95 94.37 512.61 94.47 512.34 94.11 Z"
        fill="#fedd85"/>
    <path
        id="path_200"
        d="M 448.37 102.35 C 448.375 102.42 448.375 102.49 448.37 102.56 L 448.13 102.33 Z"
        fill="#fff1cd"/>
    <path
        id="path_201"
        d="M 381.76 59.94 C 384.69 59.94 386.65 59.94 388.62 59.94 C 389.22 59.94 389.48 60.09 389.47 60.75 C 389.47 62.47 389.47 64.2 389.47 65.93 C 389.43 66.755 389.155 67.551 388.679 68.226 C 388.202 68.901 387.544 69.426 386.78 69.74 C 385.529 70.356 384.171 70.726 382.78 70.83 C 380.391 71.15 377.967 71.11 375.59 70.71 C 373.7 70.31 372.07 69.39 371.52 67.4 C 370.97 65.41 371.02 63.16 372.69 61.4 C 373.508 60.621 374.565 60.141 375.69 60.04 C 377.71 59.897 379.736 59.864 381.76 59.94 Z"
        fill="#ffffff"/>
    <path
        id="path_202"
        d="M 271.96 102.84 C 271.96 102.45 272.05 102.12 272.56 102.14 L 301.42 102.14 C 301.42 102.54 301.33 102.87 300.83 102.85 L 271.96 102.85 Z"
        fill="#fede88"/>
    <path
        id="path_203"
        d="M 360.77 103.04 C 360.77 102.64 360.85 102.31 361.36 102.33 L 390.23 102.33 C 390.23 102.73 390.14 103.05 389.63 103.03 L 360.77 103.03 Z"
        fill="#feecbc"/>
    <path
        id="path_204"
        d="M 476.6 102.58 L 479.28 102.58 C 479.28 102.84 479.28 103.21 478.94 103.24 C 478.274 103.29 477.606 103.29 476.94 103.24 C 476.59 103.21 476.64 102.84 476.6 102.58 Z"
        fill="#fff1cd"/>
    <path
        id="path_205"
        d="M 480.47 102.58 C 480.98 102.58 481.47 102.58 481.99 102.58 C 482.51 102.58 482.67 102.83 482.65 103.3 L 480.47 103.3 C 480.391 103.197 480.347 103.07 480.347 102.94 C 480.347 102.81 480.391 102.683 480.47 102.58 Z"
        fill="#fef1cc"/>
    <path
        id="path_206"
        d="M 480.47 102.58 L 480.47 103.29 C 480.19 103.12 480.24 102.84 480.22 102.58 Z"
        fill="#fff1cd"/>
    <path
        id="path_207"
        d="M 62.99 101.38 C 63.36 101.75 63.83 101.56 64.25 101.6 C 65.42 101.72 66.64 101.31 67.75 102.03 C 68.01 102.2 68.46 102.08 68.82 102.08 L 94.01 102.08 C 94.43 102.08 94.9 101.91 95.28 102.27 L 69.28 102.27 C 68 102.27 66.71 102.27 65.43 102.27 C 65.09 101.95 64.67 102.07 64.28 102.07 L 55.5 102.07 C 55.23 101.9 55.27 101.64 55.25 101.39 Q 59.12 101.26 62.99 101.38 Z"
        fill="#fcb903"/>
    <path
        id="path_208"
        d="M 192.58 97.53 C 192.73 98.33 191.91 98.1 191.58 98.43 L 189.16 98.43 C 189.079 98.354 189.02 98.257 188.99 98.149 C 188.96 98.042 188.96 97.928 188.99 97.821 C 189.02 97.713 189.079 97.616 189.16 97.54 Z"
        fill="#fedd86"/>
    <path
        id="path_209"
        d="M 186.77 98.41 L 183.17 98.41 C 183.238 98.339 183.321 98.285 183.412 98.25 C 183.504 98.216 183.602 98.202 183.7 98.21 C 184.22 98.21 184.4 97.98 184.38 97.5 L 186.79 97.5 C 186.874 97.578 186.934 97.679 186.964 97.79 C 186.993 97.901 186.99 98.018 186.956 98.128 C 186.922 98.238 186.857 98.335 186.77 98.41 Z"
        fill="#fee7a9"/>
    <path
        id="path_210"
        d="M 186.77 98.41 C 186.77 98.12 186.77 97.82 186.77 97.52 L 189.18 97.52 C 189.18 97.81 189.18 98.11 189.18 98.41 Z"
        fill="#fee298"/>
    <path
        id="path_211"
        d="M 390.22 92.91 L 392.63 92.91 C 392.655 93.16 392.733 93.403 392.86 93.62 L 390.45 93.62 C 390.17 93.45 389.95 93.26 390.22 92.91 Z"
        fill="#fede89"/>
    <path
        id="path_212"
        d="M 390.22 92.91 C 390.3 93.15 390.37 93.38 390.45 93.61 L 388.04 93.61 C 387.86 93.25 387.77 92.92 388.35 92.91 Z"
        fill="#fee39b"/>
    <path
        id="path_213"
        d="M 140.45 99.38 L 135.87 99.38 L 135.87 99.19 C 136.223 98.927 136.662 98.805 137.1 98.85 C 137.53 98.85 137.99 98.85 138.29 98.47 L 142.87 98.47 C 143.16 99.03 142.98 99.28 142.36 99.31 C 141.723 99.258 141.082 99.282 140.45 99.38 Z"
        fill="#fef0ca"/>
    <path
        id="path_214"
        d="M 140.45 99.38 C 140.99 99.01 141.6 99.22 142.18 99.2 C 142.76 99.18 142.89 98.95 142.87 98.47 L 146.48 98.47 C 146.575 98.566 146.629 98.695 146.629 98.83 C 146.629 98.965 146.575 99.094 146.48 99.19 L 146.24 99.38 Z"
        fill="#fee6a6"/>
    <path
        id="path_215"
        d="M 138.28 98.47 C 138.28 98.93 138.14 99.21 137.61 99.19 C 137.08 99.17 136.45 99.19 135.86 99.19 L 135.86 98.46 Z"
        fill="#fff5d9"/>
    <path
        id="path_216"
        d="M 146.48 99.19 L 146.48 98.47 L 148.66 98.47 C 148.66 98.93 148.51 99.2 147.99 99.18 C 147.47 99.16 146.98 99.19 146.48 99.19 Z"
        fill="#fee398"/>
    <path
        id="path_217"
        d="M 438.72 92.67 L 435.35 92.67 C 435.285 92.614 435.237 92.539 435.213 92.457 C 435.189 92.374 435.189 92.286 435.213 92.203 C 435.237 92.121 435.285 92.046 435.35 91.99 L 438.73 91.99 C 438.789 92.05 438.831 92.125 438.852 92.207 C 438.872 92.289 438.871 92.375 438.848 92.456 C 438.825 92.538 438.781 92.611 438.72 92.67 Z"
        fill="#fdd567"/>
    <path
        id="path_218"
        d="M 444.76 92.67 L 441.14 92.67 C 441.075 92.614 441.027 92.539 441.003 92.457 C 440.979 92.374 440.979 92.286 441.003 92.203 C 441.027 92.121 441.075 92.046 441.14 91.99 L 443.57 91.99 C 443.832 92.072 444.107 92.099 444.38 92.07 C 444.78 92.11 444.99 92.25 444.76 92.67 Z"
        fill="#fdcb44"/>
    <path
        id="path_219"
        d="M 444.76 92.67 C 444.763 92.578 444.739 92.487 444.69 92.408 C 444.642 92.33 444.572 92.267 444.488 92.228 C 444.404 92.19 444.311 92.176 444.22 92.19 C 443.99 92.19 443.75 92.19 443.58 91.99 L 447.18 91.99 C 447.24 92.05 447.283 92.124 447.305 92.205 C 447.327 92.287 447.327 92.373 447.305 92.455 C 447.283 92.536 447.24 92.61 447.18 92.67 Z"
        fill="#fcc52e"/>
    <path
        id="path_220"
        d="M 441.15 91.99 L 441.15 92.67 L 438.73 92.67 C 438.73 92.44 438.73 92.21 438.73 91.99 Z"
        fill="#fdd055"/>
    <path
        id="path_221"
        d="M 435.36 91.99 L 435.36 92.67 L 432.94 92.67 C 432.94 92.43 432.94 92.2 432.94 91.97 Z"
        fill="#fdda7a"/>
    <path
        id="path_222"
        d="M 470.87 91.01 C 470.87 91.48 470.7 91.73 470.19 91.71 C 469.68 91.69 469.03 91.71 468.45 91.71 L 468.45 91 L 468.7 91 Z"
        fill="#fee39a"/>
    <path
        id="path_223"
        d="M 447.17 92.67 L 447.17 91.99 L 449.35 91.99 C 449.49 92.3 449.65 92.64 449.09 92.66 C 448.53 92.68 447.81 92.67 447.17 92.67 Z"
        fill="#fcc120"/>
    <path
        id="path_224"
        d="M 282.59 95.84 C 282.59 96.31 282.44 96.58 281.92 96.56 C 281.4 96.54 280.75 96.56 280.17 96.56 C 280.17 96.1 280.32 95.83 280.84 95.85 C 281.36 95.87 282.01 95.84 282.59 95.84 Z"
        fill="#fdcc46"/>
    <path
        id="path_225"
        d="M 103.77 100.15 L 100.38 100.15 C 100.287 100.053 100.235 99.924 100.235 99.79 C 100.235 99.656 100.287 99.527 100.38 99.43 L 103.77 99.43 L 103.77 99.43 C 103.862 99.525 103.914 99.653 103.914 99.785 C 103.914 99.917 103.862 100.045 103.77 100.14 Z"
        fill="#feebb8"/>
    <path
        id="path_226"
        d="M 100.39 99.43 C 100.39 99.67 100.39 99.91 100.39 100.15 L 97.97 100.15 C 97.97 99.68 98.12 99.41 98.64 99.43 C 99.16 99.45 99.81 99.43 100.39 99.43 Z"
        fill="#fef1cd"/>
    <path
        id="path_227"
        d="M 84.94 101.36 L 81.32 101.36 C 81.32 100.89 81.45 100.6 81.98 100.64 C 82.078 100.654 82.177 100.645 82.271 100.613 C 82.365 100.582 82.45 100.53 82.52 100.46 L 84.95 100.46 C 85.067 100.581 85.132 100.744 85.13 100.912 C 85.128 101.08 85.06 101.242 84.94 101.36 Z"
        fill="#fdc735"/>
    <path
        id="path_228"
        d="M 84.94 101.36 L 84.94 100.45 L 87.35 100.45 C 87.35 101.08 87.08 101.38 86.44 101.36 C 85.8 101.34 85.44 101.36 84.94 101.36 Z"
        fill="#fcc123"/>
    <path
        id="path_229"
        d="M 119.21 100.39 L 111 100.39 C 111.66 99.96 112.39 100.25 113.08 100.18 C 113.58 100.12 114.08 100.26 114.53 99.83 C 114.8 99.57 115.21 99.72 115.53 99.69 C 115.85 99.66 116.41 99.82 116.77 99.47 L 119.43 99.41 L 121.58 99.49 C 121.41 100.12 120.87 99.94 120.45 100.01 C 120.03 100.08 119.54 99.94 119.21 100.39 Z"
        fill="#fdd159"/>
    <path
        id="path_230"
        d="M 119.21 100.39 C 119.21 99.91 119.37 99.68 119.89 99.66 C 120.41 99.64 121.08 99.85 121.61 99.47 L 125.24 99.47 C 124.7 99.85 124.09 99.64 123.51 99.66 C 122.93 99.68 122.8 99.91 122.82 100.39 Z"
        fill="#fdcb44"/>
    <path
        id="path_231"
        d="M 103.77 100.15 L 103.77 99.44 L 106.18 99.44 C 106.243 99.502 106.288 99.58 106.311 99.665 C 106.334 99.75 106.334 99.84 106.311 99.925 C 106.288 100.01 106.243 100.088 106.18 100.15 Z"
        fill="#fee7a9"/>
    <path
        id="path_232"
        d="M 106.18 100.15 L 106.18 99.44 L 108.36 99.44 C 108.53 99.8 108.65 100.14 108.05 100.15 Z"
        fill="#fee297"/>
    <path
        id="path_233"
        d="M 516.92 99.19 C 516.92 98.92 516.86 98.64 517.16 98.47 C 517.14 98.73 517.21 99.02 516.92 99.19 Z"
        fill="#fddc81"/>
</svg>
