<svg
    xmlns="http://www.w3.org/2000/svg"
    viewBox="0 0 500 500"
    id="vector">
    <defs>
        <clipPath id="clip_path">
            <path d="M 0 0 L 500 0 L 500 500 L 0 500 Z M 0 0"/>
        </clipPath>
        <clipPath id="clip_path_1">
            <path d="M 0 0 L 500 0 L 500 500 L 0 500 Z M 0 0"/>
        </clipPath>
        <clipPath id="clip_path_5">
            <path d="M 0 0 L 500 0 L 500 500 L 0 500 Z M 0 0"/>
        </clipPath>
        <clipPath id="clip_path_6">
            <path d="M 0 0 L 500 0 L 500 500 L 0 500 Z M 0 0"/>
        </clipPath>
        <clipPath id="clip_path_7">
            <path d="M 0 0 L 500 0 L 500 500 L 0 500 Z M 0 0"/>
        </clipPath>
    </defs>
    <g id="group_1">
        <path
            id="path"
            clip-path="url(#clip_path)"
            d="M 24 245.283 L 24.177 183.608 L 187.02 90.2 L 476 254.883 L 475.823 316.558 L 312.98 409.966 Z"
            fill="#c6c5cb"/>
        <path
            id="path_1"
            clip-path="url(#clip_path_1)"
            d="M 313.157 348.29 L 312.98 409.966 L 475.824 316.557 L 476.001 254.882 Z"
            fill="#c6c5cb"/>
        <path
            id="path_5"
            clip-path="url(#clip_path_5)"
            d="M 24.177 183.609 L 24 245.284 L 312.98 409.966 L 313.157 348.29 Z"
            fill="#d8d8da"/>
        <path
            id="path_6"
            clip-path="url(#clip_path_6)"
            d="M 313.157 348.29 L 476 254.883 L 187.021 90.2 L 24.177 183.609 Z"
            fill="#e0e0e2"/>
        <path
            id="path_7"
            clip-path="url(#clip_path_7)"
            d="M 315.791 301.472 L 418.056 243.183 L 413.029 240.319 L 310.768 298.608 L 315.795 301.472 M 304.484 295.026 L 406.749 236.737 L 394.179 229.573 L 291.909 287.86 L 304.479 295.024 M 282.479 282.489 L 384.744 224.2 L 377.207 219.9 L 274.947 278.196 L 282.484 282.496 M 270.549 275.696 L 372.814 217.407 L 367.78 214.538 L 265.515 272.822 L 270.549 275.691 M 259.237 269.244 L 361.502 210.955 L 348.932 203.791 L 246.668 262.08 L 259.238 269.244 M 237.244 256.709 L 339.507 198.42 L 331.97 194.12 L 229.706 252.414 L 237.243 256.714 M 225.3 249.914 L 327.568 191.615 L 322.541 188.75 L 220.273 247.039 L 225.3 249.904 M 214 243.462 L 316.265 185.173 L 303.695 178.009 L 201.425 236.299 L 213.995 243.463 M 191.995 230.928 L 294.268 172.638 L 286.724 168.338 L 184.455 226.629 L 191.999 230.929 M 180.058 224.124 L 282.323 165.835 L 277.296 162.971 L 175.032 221.26 L 180.059 224.124 M 168.754 217.682 L 271.018 159.391 L 258.447 152.227 L 156.182 210.516 L 168.753 217.68 M 146.753 205.145 L 249.023 146.86 L 241.478 142.56 L 139.213 200.847 L 146.758 205.147 M 134.817 198.347 L 237.082 140.058 L 232.055 137.194 L 129.79 195.476 L 134.817 198.34 M 123.504 191.894 L 225.768 133.605 L 213.205 126.446 L 110.94 184.734 L 123.503 191.894 M 101.516 179.36 L 203.781 121.071 L 196.236 116.771 L 93.968 175.06 L 101.513 179.36 M 309.223 319.639 L 321.574 312.555 L 285.757 292.144 L 273.406 299.228 L 309.223 319.639 M 263.979 293.86 L 276.33 286.776 L 87.819 179.345 L 75.468 186.43 L 263.979 293.86 M 327.725 308.277 L 429.99 249.988 L 422.453 245.688 L 320.189 303.978 L 327.726 308.278"
            fill="#57565c"/>
    </g>
</svg>
