<svg
    xmlns="http://www.w3.org/2000/svg"
    viewBox="0 0 808 693"
    id="vector">
    <defs>
        <clipPath id="clip_path">
            <path d="M 0 0 L 808 0 L 808 693 L 0 693 Z M 0 0"/>
        </clipPath>
        <clipPath id="clip_path_1">
            <path d="M 0 0 L 808 0 L 808 693 L 0 693 Z M 0 0"/>
        </clipPath>
        <clipPath id="clip_path_142">
            <path d="M 0 0 L 808 0 L 808 693 L 0 693 Z M 0 0"/>
        </clipPath>
        <clipPath id="clip_path_143">
            <path d="M 0 0 L 808 0 L 808 693 L 0 693 Z M 0 0"/>
        </clipPath>
        <clipPath id="clip_path_144">
            <path d="M 0 0 L 808 0 L 808 693 L 0 693 Z M 0 0"/>
        </clipPath>
        <clipPath id="clip_path_145">
            <path d="M 0 0 L 808 0 L 808 693 L 0 693 Z M 0 0"/>
        </clipPath>
        <clipPath id="clip_path_146">
            <path d="M 0 0 L 808 0 L 808 693 L 0 693 Z M 0 0"/>
        </clipPath>
        <clipPath id="clip_path_147">
            <path d="M 0 0 L 808 0 L 808 693 L 0 693 Z M 0 0"/>
        </clipPath>
        <clipPath id="clip_path_148">
            <path d="M 0 0 L 808 0 L 808 693 L 0 693 Z M 0 0"/>
        </clipPath>
        <clipPath id="clip_path_149">
            <path d="M 0 0 L 808 0 L 808 693 L 0 693 Z M 0 0"/>
        </clipPath>
        <clipPath id="clip_path_150">
            <path d="M 0 0 L 808 0 L 808 693 L 0 693 Z M 0 0"/>
        </clipPath>
        <clipPath id="clip_path_151">
            <path d="M 0 0 L 808 0 L 808 693 L 0 693 Z M 0 0"/>
        </clipPath>
        <clipPath id="clip_path_152">
            <path d="M 0 0 L 808 0 L 808 693 L 0 693 Z M 0 0"/>
        </clipPath>
        <clipPath id="clip_path_153">
            <path d="M 0 0 L 808 0 L 808 693 L 0 693 Z M 0 0"/>
        </clipPath>
        <clipPath id="clip_path_154">
            <path d="M 0 0 L 808 0 L 808 693 L 0 693 Z M 0 0"/>
        </clipPath>
        <clipPath id="clip_path_155">
            <path d="M 0 0 L 808 0 L 808 693 L 0 693 Z M 0 0"/>
        </clipPath>
        <clipPath id="clip_path_156">
            <path d="M 0 0 L 808 0 L 808 693 L 0 693 Z M 0 0"/>
        </clipPath>
        <clipPath id="clip_path_157">
            <path d="M 0 0 L 808 0 L 808 693 L 0 693 Z M 0 0"/>
        </clipPath>
        <clipPath id="clip_path_158">
            <path d="M 0 0 L 808 0 L 808 693 L 0 693 Z M 0 0"/>
        </clipPath>
        <clipPath id="clip_path_159">
            <path d="M 0 0 L 808 0 L 808 693 L 0 693 Z M 0 0"/>
        </clipPath>
        <clipPath id="clip_path_160">
            <path d="M 0 0 L 808 0 L 808 693 L 0 693 Z M 0 0"/>
        </clipPath>
        <clipPath id="clip_path_161">
            <path d="M 0 0 L 808 0 L 808 693 L 0 693 Z M 0 0"/>
        </clipPath>
        <clipPath id="clip_path_162">
            <path d="M 0 0 L 808 0 L 808 693 L 0 693 Z M 0 0"/>
        </clipPath>
        <clipPath id="clip_path_163">
            <path d="M 0 0 L 808 0 L 808 693 L 0 693 Z M 0 0"/>
        </clipPath>
        <clipPath id="clip_path_164">
            <path d="M 0 0 L 808 0 L 808 693 L 0 693 Z M 0 0"/>
        </clipPath>
        <clipPath id="clip_path_165">
            <path d="M 0 0 L 808 0 L 808 693 L 0 693 Z M 0 0"/>
        </clipPath>
        <clipPath id="clip_path_166">
            <path d="M 0 0 L 808 0 L 808 693 L 0 693 Z M 0 0"/>
        </clipPath>
        <clipPath id="clip_path_167">
            <path d="M 0 0 L 808 0 L 808 693 L 0 693 Z M 0 0"/>
        </clipPath>
        <clipPath id="clip_path_168">
            <path d="M 0 0 L 808 0 L 808 693 L 0 693 Z M 0 0"/>
        </clipPath>
        <clipPath id="clip_path_169">
            <path d="M 0 0 L 808 0 L 808 693 L 0 693 Z M 0 0"/>
        </clipPath>
        <clipPath id="clip_path_170">
            <path d="M 0 0 L 808 0 L 808 693 L 0 693 Z M 0 0"/>
        </clipPath>
        <clipPath id="clip_path_171">
            <path d="M 0 0 L 808 0 L 808 693 L 0 693 Z M 0 0"/>
        </clipPath>
        <clipPath id="clip_path_172">
            <path d="M 0 0 L 808 0 L 808 693 L 0 693 Z M 0 0"/>
        </clipPath>
        <clipPath id="clip_path_173">
            <path d="M 0 0 L 808 0 L 808 693 L 0 693 Z M 0 0"/>
        </clipPath>
        <clipPath id="clip_path_174">
            <path d="M 0 0 L 808 0 L 808 693 L 0 693 Z M 0 0"/>
        </clipPath>
        <clipPath id="clip_path_175">
            <path d="M 0 0 L 808 0 L 808 693 L 0 693 Z M 0 0"/>
        </clipPath>
        <clipPath id="clip_path_176">
            <path d="M 0 0 L 808 0 L 808 693 L 0 693 Z M 0 0"/>
        </clipPath>
        <clipPath id="clip_path_177">
            <path d="M 0 0 L 808 0 L 808 693 L 0 693 Z M 0 0"/>
        </clipPath>
        <clipPath id="clip_path_178">
            <path d="M 0 0 L 808 0 L 808 693 L 0 693 Z M 0 0"/>
        </clipPath>
        <clipPath id="clip_path_179">
            <path d="M 0 0 L 808 0 L 808 693 L 0 693 Z M 0 0"/>
        </clipPath>
        <clipPath id="clip_path_180">
            <path d="M 0 0 L 808 0 L 808 693 L 0 693 Z M 0 0"/>
        </clipPath>
        <clipPath id="clip_path_181">
            <path d="M 0 0 L 808 0 L 808 693 L 0 693 Z M 0 0"/>
        </clipPath>
        <clipPath id="clip_path_182">
            <path d="M 0 0 L 808 0 L 808 693 L 0 693 Z M 0 0"/>
        </clipPath>
        <clipPath id="clip_path_183">
            <path d="M 0 0 L 808 0 L 808 693 L 0 693 Z M 0 0"/>
        </clipPath>
        <clipPath id="clip_path_184">
            <path d="M 0 0 L 808 0 L 808 693 L 0 693 Z M 0 0"/>
        </clipPath>
        <clipPath id="clip_path_185">
            <path d="M 0 0 L 808 0 L 808 693 L 0 693 Z M 0 0"/>
        </clipPath>
        <clipPath id="clip_path_186">
            <path d="M 0 0 L 808 0 L 808 693 L 0 693 Z M 0 0"/>
        </clipPath>
        <clipPath id="clip_path_187">
            <path d="M 0 0 L 808 0 L 808 693 L 0 693 Z M 0 0"/>
        </clipPath>
        <clipPath id="clip_path_188">
            <path d="M 0 0 L 808 0 L 808 693 L 0 693 Z M 0 0"/>
        </clipPath>
        <clipPath id="clip_path_189">
            <path d="M 0 0 L 808 0 L 808 693 L 0 693 Z M 0 0"/>
        </clipPath>
        <clipPath id="clip_path_190">
            <path d="M 0 0 L 808 0 L 808 693 L 0 693 Z M 0 0"/>
        </clipPath>
        <clipPath id="clip_path_191">
            <path d="M 0 0 L 808 0 L 808 693 L 0 693 Z M 0 0"/>
        </clipPath>
        <clipPath id="clip_path_192">
            <path d="M 0 0 L 808 0 L 808 693 L 0 693 Z M 0 0"/>
        </clipPath>
        <clipPath id="clip_path_193">
            <path d="M 0 0 L 808 0 L 808 693 L 0 693 Z M 0 0"/>
        </clipPath>
        <clipPath id="clip_path_194">
            <path d="M 0 0 L 808 0 L 808 693 L 0 693 Z M 0 0"/>
        </clipPath>
        <clipPath id="clip_path_195">
            <path d="M 0 0 L 808 0 L 808 693 L 0 693 Z M 0 0"/>
        </clipPath>
        <clipPath id="clip_path_196">
            <path d="M 0 0 L 808 0 L 808 693 L 0 693 Z M 0 0"/>
        </clipPath>
        <clipPath id="clip_path_197">
            <path d="M 0 0 L 808 0 L 808 693 L 0 693 Z M 0 0"/>
        </clipPath>
        <clipPath id="clip_path_198">
            <path d="M 0 0 L 808 0 L 808 693 L 0 693 Z M 0 0"/>
        </clipPath>
        <clipPath id="clip_path_199">
            <path d="M 0 0 L 808 0 L 808 693 L 0 693 Z M 0 0"/>
        </clipPath>
        <clipPath id="clip_path_200">
            <path d="M 0 0 L 808 0 L 808 693 L 0 693 Z M 0 0"/>
        </clipPath>
        <clipPath id="clip_path_201">
            <path d="M 0 0 L 808 0 L 808 693 L 0 693 Z M 0 0"/>
        </clipPath>
        <clipPath id="clip_path_202">
            <path d="M 0 0 L 808 0 L 808 693 L 0 693 Z M 0 0"/>
        </clipPath>
        <clipPath id="clip_path_203">
            <path d="M 0 0 L 808 0 L 808 693 L 0 693 Z M 0 0"/>
        </clipPath>
        <clipPath id="clip_path_204">
            <path d="M 0 0 L 808 0 L 808 693 L 0 693 Z M 0 0"/>
        </clipPath>
        <clipPath id="clip_path_205">
            <path d="M 0 0 L 808 0 L 808 693 L 0 693 Z M 0 0"/>
        </clipPath>
        <clipPath id="clip_path_206">
            <path d="M 0 0 L 808 0 L 808 693 L 0 693 Z M 0 0"/>
        </clipPath>
        <clipPath id="clip_path_207">
            <path d="M 0 0 L 808 0 L 808 693 L 0 693 Z M 0 0"/>
        </clipPath>
        <clipPath id="clip_path_208">
            <path d="M 0 0 L 808 0 L 808 693 L 0 693 Z M 0 0"/>
        </clipPath>
        <clipPath id="clip_path_209">
            <path d="M 0 0 L 808 0 L 808 693 L 0 693 Z M 0 0"/>
        </clipPath>
        <clipPath id="clip_path_210">
            <path d="M 0 0 L 808 0 L 808 693 L 0 693 Z M 0 0"/>
        </clipPath>
        <clipPath id="clip_path_211">
            <path d="M 0 0 L 808 0 L 808 693 L 0 693 Z M 0 0"/>
        </clipPath>
        <clipPath id="clip_path_212">
            <path d="M 0 0 L 808 0 L 808 693 L 0 693 Z M 0 0"/>
        </clipPath>
        <clipPath id="clip_path_213">
            <path d="M 0 0 L 808 0 L 808 693 L 0 693 Z M 0 0"/>
        </clipPath>
        <clipPath id="clip_path_214">
            <path d="M 0 0 L 808 0 L 808 693 L 0 693 Z M 0 0"/>
        </clipPath>
        <clipPath id="clip_path_215">
            <path d="M 0 0 L 808 0 L 808 693 L 0 693 Z M 0 0"/>
        </clipPath>
        <clipPath id="clip_path_216">
            <path d="M 0 0 L 808 0 L 808 693 L 0 693 Z M 0 0"/>
        </clipPath>
        <clipPath id="clip_path_217">
            <path d="M 0 0 L 808 0 L 808 693 L 0 693 Z M 0 0"/>
        </clipPath>
        <clipPath id="clip_path_218">
            <path d="M 0 0 L 808 0 L 808 693 L 0 693 Z M 0 0"/>
        </clipPath>
        <clipPath id="clip_path_219">
            <path d="M 0 0 L 808 0 L 808 693 L 0 693 Z M 0 0"/>
        </clipPath>
        <clipPath id="clip_path_220">
            <path d="M 0 0 L 808 0 L 808 693 L 0 693 Z M 0 0"/>
        </clipPath>
        <clipPath id="clip_path_221">
            <path d="M 0 0 L 808 0 L 808 693 L 0 693 Z M 0 0"/>
        </clipPath>
        <clipPath id="clip_path_222">
            <path d="M 0 0 L 808 0 L 808 693 L 0 693 Z M 0 0"/>
        </clipPath>
        <clipPath id="clip_path_223">
            <path d="M 0 0 L 808 0 L 808 693 L 0 693 Z M 0 0"/>
        </clipPath>
        <clipPath id="clip_path_224">
            <path d="M 0 0 L 808 0 L 808 693 L 0 693 Z M 0 0"/>
        </clipPath>
        <clipPath id="clip_path_225">
            <path d="M 0 0 L 808 0 L 808 693 L 0 693 Z M 0 0"/>
        </clipPath>
        <clipPath id="clip_path_226">
            <path d="M 0 0 L 808 0 L 808 693 L 0 693 Z M 0 0"/>
        </clipPath>
        <clipPath id="clip_path_227">
            <path d="M 0 0 L 808 0 L 808 693 L 0 693 Z M 0 0"/>
        </clipPath>
        <clipPath id="clip_path_228">
            <path d="M 0 0 L 808 0 L 808 693 L 0 693 Z M 0 0"/>
        </clipPath>
        <clipPath id="clip_path_229">
            <path d="M 0 0 L 808 0 L 808 693 L 0 693 Z M 0 0"/>
        </clipPath>
        <clipPath id="clip_path_230">
            <path d="M 0 0 L 808 0 L 808 693 L 0 693 Z M 0 0"/>
        </clipPath>
        <clipPath id="clip_path_231">
            <path d="M 0 0 L 808 0 L 808 693 L 0 693 Z M 0 0"/>
        </clipPath>
        <clipPath id="clip_path_232">
            <path d="M 0 0 L 808 0 L 808 693 L 0 693 Z M 0 0"/>
        </clipPath>
        <clipPath id="clip_path_233">
            <path d="M 0 0 L 808 0 L 808 693 L 0 693 Z M 0 0"/>
        </clipPath>
        <clipPath id="clip_path_234">
            <path d="M 0 0 L 808 0 L 808 693 L 0 693 Z M 0 0"/>
        </clipPath>
        <clipPath id="clip_path_235">
            <path d="M 0 0 L 808 0 L 808 693 L 0 693 Z M 0 0"/>
        </clipPath>
        <clipPath id="clip_path_236">
            <path d="M 0 0 L 808 0 L 808 693 L 0 693 Z M 0 0"/>
        </clipPath>
        <clipPath id="clip_path_237">
            <path d="M 0 0 L 808 0 L 808 693 L 0 693 Z M 0 0"/>
        </clipPath>
        <clipPath id="clip_path_238">
            <path d="M 0 0 L 808 0 L 808 693 L 0 693 Z M 0 0"/>
        </clipPath>
        <clipPath id="clip_path_239">
            <path d="M 0 0 L 808 0 L 808 693 L 0 693 Z M 0 0"/>
        </clipPath>
        <clipPath id="clip_path_240">
            <path d="M 0 0 L 808 0 L 808 693 L 0 693 Z M 0 0"/>
        </clipPath>
        <clipPath id="clip_path_241">
            <path d="M 0 0 L 808 0 L 808 693 L 0 693 Z M 0 0"/>
        </clipPath>
        <clipPath id="clip_path_242">
            <path d="M 0 0 L 808 0 L 808 693 L 0 693 Z M 0 0"/>
        </clipPath>
        <clipPath id="clip_path_243">
            <path d="M 0 0 L 808 0 L 808 693 L 0 693 Z M 0 0"/>
        </clipPath>
        <clipPath id="clip_path_244">
            <path d="M 0 0 L 808 0 L 808 693 L 0 693 Z M 0 0"/>
        </clipPath>
        <clipPath id="clip_path_245">
            <path d="M 0 0 L 808 0 L 808 693 L 0 693 Z M 0 0"/>
        </clipPath>
        <clipPath id="clip_path_246">
            <path d="M 0 0 L 808 0 L 808 693 L 0 693 Z M 0 0"/>
        </clipPath>
        <clipPath id="clip_path_247">
            <path d="M 0 0 L 808 0 L 808 693 L 0 693 Z M 0 0"/>
        </clipPath>
        <clipPath id="clip_path_248">
            <path d="M 0 0 L 808 0 L 808 693 L 0 693 Z M 0 0"/>
        </clipPath>
        <clipPath id="clip_path_249">
            <path d="M 0 0 L 808 0 L 808 693 L 0 693 Z M 0 0"/>
        </clipPath>
        <clipPath id="clip_path_250">
            <path d="M 0 0 L 808 0 L 808 693 L 0 693 Z M 0 0"/>
        </clipPath>
        <clipPath id="clip_path_251">
            <path d="M 0 0 L 808 0 L 808 693 L 0 693 Z M 0 0"/>
        </clipPath>
        <clipPath id="clip_path_252">
            <path d="M 0 0 L 808 0 L 808 693 L 0 693 Z M 0 0"/>
        </clipPath>
        <clipPath id="clip_path_253">
            <path d="M 0 0 L 808 0 L 808 693 L 0 693 Z M 0 0"/>
        </clipPath>
        <clipPath id="clip_path_254">
            <path d="M 0 0 L 808 0 L 808 693 L 0 693 Z M 0 0"/>
        </clipPath>
        <clipPath id="clip_path_255">
            <path d="M 0 0 L 808 0 L 808 693 L 0 693 Z M 0 0"/>
        </clipPath>
        <clipPath id="clip_path_256">
            <path d="M 0 0 L 808 0 L 808 693 L 0 693 Z M 0 0"/>
        </clipPath>
        <clipPath id="clip_path_257">
            <path d="M 0 0 L 808 0 L 808 693 L 0 693 Z M 0 0"/>
        </clipPath>
        <clipPath id="clip_path_258">
            <path d="M 0 0 L 808 0 L 808 693 L 0 693 Z M 0 0"/>
        </clipPath>
        <clipPath id="clip_path_259">
            <path d="M 0 0 L 808 0 L 808 693 L 0 693 Z M 0 0"/>
        </clipPath>
        <clipPath id="clip_path_260">
            <path d="M 0 0 L 808 0 L 808 693 L 0 693 Z M 0 0"/>
        </clipPath>
        <clipPath id="clip_path_261">
            <path d="M 0 0 L 808 0 L 808 693 L 0 693 Z M 0 0"/>
        </clipPath>
        <clipPath id="clip_path_262">
            <path d="M 0 0 L 808 0 L 808 693 L 0 693 Z M 0 0"/>
        </clipPath>
        <clipPath id="clip_path_263">
            <path d="M 0 0 L 808 0 L 808 693 L 0 693 Z M 0 0"/>
        </clipPath>
        <clipPath id="clip_path_264">
            <path d="M 0 0 L 808 0 L 808 693 L 0 693 Z M 0 0"/>
        </clipPath>
        <clipPath id="clip_path_265">
            <path d="M 0 0 L 808 0 L 808 693 L 0 693 Z M 0 0"/>
        </clipPath>
        <clipPath id="clip_path_266">
            <path d="M 0 0 L 808 0 L 808 693 L 0 693 Z M 0 0"/>
        </clipPath>
        <clipPath id="clip_path_267">
            <path d="M 0 0 L 808 0 L 808 693 L 0 693 Z M 0 0"/>
        </clipPath>
        <clipPath id="clip_path_268">
            <path d="M 0 0 L 808 0 L 808 693 L 0 693 Z M 0 0"/>
        </clipPath>
    </defs>
    <g id="group_1">
        <path
            id="path"
            clip-path="url(#clip_path)"
            d="M 343.642 384.048 L 299.226 358.472 L 346.874 330.888 L 391.29 356.465 Z"
            fill="#d6d8e5"
            fill-opacity="0.4"
            stroke-opacity="0.4"/>
        <path
            id="path_1"
            clip-path="url(#clip_path_1)"
            d="M 348.618 326.617 L 300.983 299.017 L 348.618 271.417 L 396.266 299.017 Z"
            fill="#efda86"/>
        <path
            id="path_142"
            clip-path="url(#clip_path_142)"
            d="M 393.047 355.424 L 348.618 381.154 L 348.618 329.692 L 393.047 303.974 Z"
            fill="#ffc700"/>
        <path
            id="path_143"
            clip-path="url(#clip_path_143)"
            d="M 348.618 381.154 L 304.202 355.424 L 304.202 303.974 L 348.618 329.692 Z"
            fill="#e2c979"/>
        <path
            id="path_144"
            clip-path="url(#clip_path_144)"
            d="M 304.202 303.974 L 304.202 317.431 L 348.618 342.866 L 348.618 329.756 Z"
            fill="#000000"
            fill-opacity="0.1"
            stroke-opacity="0.1"/>
        <path
            id="path_145"
            clip-path="url(#clip_path_145)"
            d="M 393.047 303.974 L 393.047 318.396 L 348.618 342.866 L 348.618 329.756 Z"
            fill="#000000"
            fill-opacity="0.1"
            stroke-opacity="0.1"/>
        <path
            id="path_146"
            clip-path="url(#clip_path_146)"
            d="M 300.983 299.021 L 300.983 313.289 L 348.618 340.512 L 348.618 326.621 Z"
            fill="#e2c979"/>
        <path
            id="path_147"
            clip-path="url(#clip_path_147)"
            d="M 348.618 340.512 L 396.266 314.412 L 396.266 299.021 L 348.618 326.621 Z"
            fill="#d1b66b"/>
        <path
            id="path_148"
            clip-path="url(#clip_path_148)"
            d="M 522.5 500.752 L 380.492 418.722 C 379.402 418.086 378.576 417.08 378.165 415.887 C 377.753 414.694 377.784 413.392 378.251 412.219 C 378.718 411.047 379.591 410.081 380.71 409.497 L 398.576 400.26 C 399.355 399.86 400.222 399.661 401.098 399.681 C 401.974 399.702 402.831 399.94 403.591 400.376 L 550.383 485.16 C 551.478 485.792 552.309 486.798 552.723 487.993 C 553.136 489.187 553.105 490.492 552.636 491.666 C 552.166 492.84 551.289 493.805 550.165 494.385 L 537.198 501.085 C 534.918 502.27 532.375 502.862 529.806 502.803 C 527.237 502.745 524.724 502.04 522.5 500.752 Z"
            fill="#d6d8e5"
            fill-opacity="0.4"
            stroke-opacity="0.4"/>
        <path
            id="path_149"
            clip-path="url(#clip_path_149)"
            d="M 531.22 485.312 L 410.195 415.221 C 399.934 409.29 391.636 393.35 391.636 379.648 L 391.636 41.041 C 391.674 27.301 399.947 21.022 410.195 26.966 L 531.22 97.045 C 541.481 102.989 549.779 118.916 549.779 132.618 L 549.779 471.238 C 549.779 484.952 541.466 491.243 531.22 485.312 Z"
            fill="#b1b4c4"/>
        <path
            id="path_150"
            clip-path="url(#clip_path_150)"
            d="M 533.299 491.411 L 542.879 486.548 L 533.679 470.736 Z"
            fill="#b1b4c4"/>
        <path
            id="path_151"
            clip-path="url(#clip_path_151)"
            d="M 389.764 30.337 L 398.588 25.693 L 396.805 38.751 Z"
            fill="#b1b4c4"/>
        <path
            id="path_152"
            clip-path="url(#clip_path_152)"
            d="M 523.499 489.172 L 402.487 419.081 C 392.226 413.15 383.928 397.21 383.928 383.508 L 383.928 44.914 C 383.979 31.161 392.239 24.895 402.487 30.826 L 523.499 100.917 C 533.76 106.861 542.068 122.788 542.068 136.488 L 542.068 475.108 C 542.068 488.812 533.76 495.116 523.499 489.172 Z"
            fill="#616e84"/>
        <path
            id="path_153"
            clip-path="url(#clip_path_153)"
            d="M 540.777 137.353 L 540.777 475.959 C 540.777 489.687 532.477 495.978 522.218 490.047 L 474.762 462.566 L 459.999 454.01 L 401.192 419.955 C 390.932 414.012 382.646 398.081 382.646 384.381 L 382.646 45.776 C 382.697 32.049 390.946 25.757 401.192 31.688 L 522.217 101.781 C 532.478 107.723 540.777 123.638 540.777 137.353 Z"
            fill="#20232d"/>
        <path
            id="path_154"
            clip-path="url(#clip_path_154)"
            d="M 532.042 133.918 L 532.042 463.712 C 532.042 472.023 526.232 475.394 519.075 471.225 L 512.662 467.494 L 490.678 454.77 L 481.225 449.289 L 477.89 447.346 L 476.774 446.69 L 468.63 441.99 L 444.966 428.301 L 444.966 428.301 L 435.218 422.653 L 435.218 422.653 L 431.268 420.363 L 407.668 406.7 L 404.449 404.835 C 397.267 400.679 391.469 390.58 391.469 382.256 L 391.469 52.441 C 391.469 44.13 397.269 40.759 404.449 44.915 L 451.598 72.328 L 451.598 72.457 C 451.785 75.974 452.798 79.398 454.554 82.451 C 456.309 85.503 458.759 88.101 461.705 90.031 C 467.297 93.247 471.825 90.631 471.825 84.177 L 471.825 84.038 L 519.088 111.403 C 526.23 115.507 532.042 125.607 532.042 133.918 Z"
            fill="#ffffff"/>
        <path
            id="path_155"
            clip-path="url(#clip_path_155)"
            d="M 460.315 77.358 C 461.82 76.493 464.252 77.909 465.75 80.523 C 467.248 83.137 467.243 85.961 465.741 86.827 C 464.239 87.693 461.804 86.278 460.305 83.662 C 458.806 81.046 458.812 78.224 460.315 77.358 Z"
            fill="#2b303f"/>
        <path
            id="path_156"
            clip-path="url(#clip_path_156)"
            d="M 461.704 83.716 C 461.237 83.409 460.849 82.996 460.571 82.511 C 460.293 82.026 460.133 81.482 460.104 80.924 C 460.104 79.895 460.822 79.483 461.704 79.998 C 462.175 80.302 462.568 80.714 462.849 81.199 C 463.129 81.685 463.291 82.23 463.32 82.79 C 463.32 83.819 462.602 84.231 461.704 83.716 Z"
            fill="#ffffff"
            fill-opacity="0.1"
            stroke-opacity="0.1"/>
        <path
            id="path_157"
            clip-path="url(#clip_path_157)"
            d="M 545.689 181.908 L 545.689 181.908 C 544.701 182.487 543.906 181.908 543.906 180.621 L 543.906 166.121 C 543.914 165.451 544.08 164.792 544.389 164.197 C 544.699 163.603 545.144 163.09 545.689 162.699 L 545.689 162.699 C 546.677 162.12 547.472 162.699 547.472 164.05 L 547.472 178.485 C 547.464 179.155 547.298 179.815 546.989 180.409 C 546.679 181.004 546.234 181.517 545.689 181.908 Z"
            fill="#757b89"/>
        <path
            id="path_158"
            clip-path="url(#clip_path_158)"
            d="M 545.689 205.566 L 545.689 205.566 C 544.701 206.132 543.906 205.566 543.906 204.215 L 543.906 189.767 C 543.917 189.097 544.084 188.439 544.394 187.846 C 544.703 187.252 545.147 186.738 545.689 186.345 L 545.689 186.345 C 546.677 185.779 547.472 186.345 547.472 187.709 L 547.472 202.144 C 547.463 202.814 547.297 203.473 546.987 204.067 C 546.678 204.661 546.233 205.175 545.689 205.566 Z"
            fill="#757b89"/>
        <path
            id="path_159"
            clip-path="url(#clip_path_159)"
            d="M 505.62 246.671 L 414.556 193.927 C 410.708 191.688 407.556 185.68 407.556 180.495 L 407.556 77.567 C 407.556 72.421 410.686 70.015 414.556 72.254 L 505.62 125.003 C 509.468 127.242 512.62 133.25 512.62 138.422 L 512.62 241.345 C 512.623 246.527 509.493 248.91 505.62 246.671 Z"
            fill="#e9eaf2"/>
        <path
            id="path_160"
            clip-path="url(#clip_path_160)"
            d="M 505.62 384.396 L 414.556 331.647 C 410.708 329.408 407.556 323.4 407.556 318.228 L 407.556 215.305 C 407.556 210.159 410.686 207.753 414.556 209.992 L 505.62 262.741 C 509.468 264.98 512.62 270.988 512.62 276.173 L 512.62 379.096 C 512.623 384.255 509.493 386.635 505.62 384.396 Z"
            fill="#e9eaf2"/>
        <path
            id="path_161"
            clip-path="url(#clip_path_161)"
            d="M 512.636 413.858 L 512.636 467.494 L 481.225 449.294 L 477.89 447.351 L 476.774 446.695 L 468.63 441.995 L 444.966 428.306 L 444.966 428.306 L 435.154 422.632 L 431.204 420.342 L 407.605 406.682 L 407.605 353.03 C 407.605 347.884 410.747 345.491 414.605 347.73 L 505.672 400.482 C 509.494 402.682 512.636 408.682 512.636 413.858 Z"
            fill="#e9eaf2"/>
        <path
            id="path_162"
            clip-path="url(#clip_path_162)"
            d="M 487.497 161.707 L 475.043 140.052 C 474.57 139.191 473.886 138.465 473.055 137.942 L 473.055 137.942 C 472.945 137.876 472.829 137.82 472.709 137.775 C 472.595 137.689 472.475 137.611 472.35 137.543 L 468.887 135.536 C 467.938 134.983 467.053 135.021 466.54 135.652 C 465.44 136.939 462.949 136.823 460.204 135.227 C 457.439 133.622 455.228 131.212 453.868 128.318 C 453.402 127.145 452.576 126.149 451.508 125.475 L 448.108 123.481 C 447.998 123.411 447.882 123.351 447.762 123.301 C 447.455 123.013 447.072 122.82 446.658 122.745 C 446.244 122.669 445.817 122.715 445.428 122.876 L 432.974 130.094 C 431.874 130.737 431.874 132.783 432.974 134.687 L 439.785 146.523 C 440.238 147.374 440.894 148.099 441.696 148.633 C 441.981 148.837 442.315 148.962 442.664 148.995 C 443.013 149.029 443.365 148.971 443.684 148.826 L 445.249 147.913 L 445.249 176.86 C 445.317 177.831 445.611 178.773 446.108 179.611 C 446.604 180.449 447.29 181.159 448.109 181.685 L 472.35 195.837 C 473.902 196.737 475.15 196.004 475.15 194.216 L 475.15 165.271 L 476.728 167.998 C 477.195 168.856 477.875 169.58 478.703 170.098 L 478.703 170.098 C 478.988 170.302 479.322 170.427 479.671 170.46 C 480.02 170.494 480.372 170.436 480.691 170.291 L 487.502 166.341 C 488.592 165.652 488.592 163.676 487.497 161.707 Z"
            fill="#d9dae2"/>
        <path
            id="path_163"
            clip-path="url(#clip_path_163)"
            d="M 482.226 293.951 L 438.169 268.439 C 437.004 272.23 436.387 276.168 436.335 280.134 L 436.335 307.769 L 456.523 319.464 L 460.204 298.21 L 463.872 323.722 L 484.021 335.417 L 484.021 307.769 C 483.922 303.112 483.318 298.478 482.221 293.951 Z"
            fill="#d9dae2"/>
        <path
            id="path_164"
            clip-path="url(#clip_path_164)"
            d="M 482.226 285.447 L 438.169 259.935 L 438.169 266.315 L 482.226 291.827 Z"
            fill="#d9dae2"/>
        <path
            id="path_165"
            clip-path="url(#clip_path_165)"
            d="M 490.653 454.77 L 481.226 449.289 L 477.891 447.346 L 476.775 446.69 L 468.631 441.99 L 444.969 428.305 L 444.969 428.305 L 435.221 422.657 L 435.221 409.072 C 435.221 407.721 436.157 407.172 437.337 407.785 C 438.246 408.402 438.92 409.309 439.248 410.358 L 439.648 411.645 C 440.984 415.843 443.731 419.454 447.421 421.86 C 452.128 424.587 455.976 422.36 455.976 416.894 L 455.976 415.247 C 455.976 413.575 457.156 412.867 458.541 413.716 C 459.225 414.138 459.801 414.716 460.221 415.401 L 463.979 421.178 L 459.746 423.558 L 462.093 427.598 L 466.531 425.025 L 468.455 427.997 L 464.415 430.339 L 466.736 434.392 L 471.007 431.922 L 472.931 434.894 L 469.083 437.133 L 471.405 441.186 L 475.496 438.819 C 477.879 442.338 480.978 445.315 484.59 447.555 L 485.334 447.967 C 487.803 449.592 489.672 451.982 490.653 454.77 Z"
            fill="#d9dae2"/>
        <path
            id="path_166"
            clip-path="url(#clip_path_166)"
            d="M 520.46 151.916 L 406.758 86.482 L 406.758 46.072 L 520.458 111.493 Z"
            fill="#000000"
            fill-opacity="0.1"
            stroke-opacity="0.1"/>
        <path
            id="path_167"
            clip-path="url(#clip_path_167)"
            d="M 383.338 83.034 L 369.332 74.916 L 407.152 46.535 L 421.158 54.64 Z"
            fill="#ffc700"/>
        <path
            id="path_168"
            clip-path="url(#clip_path_168)"
            d="M 397.357 91.139 L 383.338 83.034 L 421.162 54.64 L 435.168 62.758 Z"
            fill="#f4f5f9"/>
        <path
            id="path_169"
            clip-path="url(#clip_path_169)"
            d="M 411.363 99.258 L 397.357 91.14 L 435.168 62.759 L 449.174 70.864 Z"
            fill="#ffc700"/>
        <path
            id="path_170"
            clip-path="url(#clip_path_170)"
            d="M 425.369 107.363 L 411.363 99.258 L 449.174 70.864 L 463.18 78.982 Z"
            fill="#f4f5f9"/>
        <path
            id="path_171"
            clip-path="url(#clip_path_171)"
            d="M 439.375 115.481 L 425.369 107.363 L 463.18 78.982 L 477.186 87.087 Z"
            fill="#ffc700"/>
        <path
            id="path_172"
            clip-path="url(#clip_path_172)"
            d="M 453.385 123.586 L 439.375 115.481 L 477.185 87.087 L 491.191 95.205 Z"
            fill="#f4f5f9"/>
        <path
            id="path_173"
            clip-path="url(#clip_path_173)"
            d="M 467.386 131.704 L 453.38 123.586 L 491.191 95.205 L 505.197 103.31 Z"
            fill="#ffc700"/>
        <path
            id="path_174"
            clip-path="url(#clip_path_174)"
            d="M 481.392 139.81 L 467.386 131.705 L 505.197 103.311 L 519.215 111.431 Z"
            fill="#f4f5f9"/>
        <path
            id="path_175"
            clip-path="url(#clip_path_175)"
            d="M 376.438 86.984 C 380.286 89.223 383.438 87.409 383.438 82.931 L 369.435 74.814 C 369.567 77.249 370.269 79.62 371.485 81.734 C 372.7 83.848 374.396 85.647 376.435 86.985 Z"
            fill="#e26161"/>
        <path
            id="path_176"
            clip-path="url(#clip_path_176)"
            d="M 390.461 95.092 C 394.309 97.343 397.461 95.517 397.461 91.039 L 383.441 82.932 C 383.573 85.368 384.278 87.738 385.498 89.851 C 386.717 91.964 388.418 93.759 390.461 95.092 Z"
            fill="#f4f5f9"/>
        <path
            id="path_177"
            clip-path="url(#clip_path_177)"
            d="M 404.501 103.208 C 408.349 105.447 411.501 103.633 411.501 99.155 L 397.498 91.037 C 397.627 93.473 398.327 95.845 399.544 97.959 C 400.76 100.074 402.457 101.872 404.498 103.208 Z"
            fill="#e26161"/>
        <path
            id="path_178"
            clip-path="url(#clip_path_178)"
            d="M 418.468 111.326 C 422.316 113.565 425.468 111.738 425.468 107.26 L 411.465 99.155 C 411.596 101.59 412.297 103.961 413.513 106.075 C 414.729 108.19 416.426 109.988 418.465 111.326 Z"
            fill="#f4f5f9"/>
        <path
            id="path_179"
            clip-path="url(#clip_path_179)"
            d="M 432.474 119.431 C 436.322 121.67 439.474 119.856 439.474 115.378 L 425.471 107.26 C 425.6 109.696 426.3 112.068 427.517 114.182 C 428.733 116.297 430.43 118.095 432.471 119.431 Z"
            fill="#e26161"/>
        <path
            id="path_180"
            clip-path="url(#clip_path_180)"
            d="M 446.48 127.549 C 450.328 129.788 453.48 127.974 453.48 123.483 L 439.477 115.378 C 439.608 117.813 440.309 120.184 441.525 122.298 C 442.741 124.413 444.438 126.211 446.477 127.549 Z"
            fill="#f4f5f9"/>
        <path
            id="path_181"
            clip-path="url(#clip_path_181)"
            d="M 460.486 135.655 C 464.334 137.894 467.486 136.08 467.486 131.602 L 453.483 123.484 C 453.605 125.921 454.304 128.295 455.52 130.411 C 456.737 132.526 458.438 134.324 460.483 135.655 Z"
            fill="#e26161"/>
        <path
            id="path_182"
            clip-path="url(#clip_path_182)"
            d="M 474.492 143.773 C 478.34 146.012 481.492 144.198 481.492 139.708 L 467.489 131.602 C 467.62 134.038 468.322 136.409 469.539 138.523 C 470.755 140.637 472.452 142.436 474.492 143.773 Z"
            fill="#f4f5f9"/>
        <path
            id="path_183"
            clip-path="url(#clip_path_183)"
            d="M 376.438 86.984 C 380.286 89.223 383.438 87.409 383.438 82.931 L 369.435 74.814 C 369.567 77.249 370.269 79.62 371.485 81.734 C 372.7 83.848 374.396 85.647 376.435 86.985 Z"
            fill="#000000"
            fill-opacity="0.15"
            stroke-opacity="0.15"/>
        <path
            id="path_184"
            clip-path="url(#clip_path_184)"
            d="M 390.461 95.092 C 394.309 97.343 397.461 95.517 397.461 91.039 L 383.441 82.932 C 383.573 85.368 384.278 87.738 385.498 89.851 C 386.717 91.964 388.418 93.759 390.461 95.092 Z"
            fill="#000000"
            fill-opacity="0.15"
            stroke-opacity="0.15"/>
        <path
            id="path_185"
            clip-path="url(#clip_path_185)"
            d="M 404.501 103.208 C 408.349 105.447 411.501 103.633 411.501 99.155 L 397.498 91.037 C 397.627 93.473 398.327 95.845 399.544 97.959 C 400.76 100.074 402.457 101.872 404.498 103.208 Z"
            fill="#000000"
            fill-opacity="0.15"
            stroke-opacity="0.15"/>
        <path
            id="path_186"
            clip-path="url(#clip_path_186)"
            d="M 418.468 111.327 C 422.316 113.566 425.468 111.739 425.468 107.261 L 411.465 99.156 C 411.596 101.591 412.297 103.962 413.513 106.076 C 414.729 108.191 416.426 109.989 418.465 111.327 Z"
            fill="#000000"
            fill-opacity="0.15"
            stroke-opacity="0.15"/>
        <path
            id="path_187"
            clip-path="url(#clip_path_187)"
            d="M 432.474 119.432 C 436.322 121.671 439.474 119.857 439.474 115.379 L 425.471 107.261 C 425.6 109.697 426.3 112.069 427.517 114.183 C 428.733 116.298 430.43 118.096 432.471 119.432 Z"
            fill="#000000"
            fill-opacity="0.15"
            stroke-opacity="0.15"/>
        <path
            id="path_188"
            clip-path="url(#clip_path_188)"
            d="M 446.48 127.55 C 450.328 129.789 453.48 127.975 453.48 123.484 L 439.477 115.379 C 439.608 117.814 440.309 120.185 441.525 122.299 C 442.741 124.414 444.438 126.212 446.477 127.55 Z"
            fill="#000000"
            fill-opacity="0.15"
            stroke-opacity="0.15"/>
        <path
            id="path_189"
            clip-path="url(#clip_path_189)"
            d="M 460.486 135.655 C 464.334 137.894 467.486 136.08 467.486 131.602 L 453.483 123.484 C 453.605 125.921 454.304 128.295 455.52 130.411 C 456.737 132.526 458.438 134.324 460.483 135.655 Z"
            fill="#000000"
            fill-opacity="0.15"
            stroke-opacity="0.15"/>
        <path
            id="path_190"
            clip-path="url(#clip_path_190)"
            d="M 474.492 143.773 C 478.34 146.012 481.492 144.198 481.492 139.708 L 467.489 131.602 C 467.62 134.038 468.322 136.409 469.539 138.523 C 470.755 140.637 472.452 142.436 474.492 143.773 Z"
            fill="#000000"
            fill-opacity="0.15"
            stroke-opacity="0.15"/>
        <path
            id="path_191"
            clip-path="url(#clip_path_191)"
            d="M 617.128 532.285 L 566.479 502.951 L 572.828 499.259 L 623.489 528.579 Z"
            fill="#d6d8e5"
            fill-opacity="0.4"
            stroke-opacity="0.4"/>
        <path
            id="path_192"
            clip-path="url(#clip_path_192)"
            d="M 636.701 521.221 L 585.846 491.759 L 592.208 433.581 L 630.356 455.671 Z"
            fill="#000000"/>
        <path
            id="path_193"
            clip-path="url(#clip_path_193)"
            d="M 623.491 528.58 L 572.623 499.133 L 578.985 440.955 L 617.129 463.045 Z"
            fill="#022a37"/>
        <path
            id="path_194"
            clip-path="url(#clip_path_194)"
            d="M 623.491 528.58 L 636.702 521.221 L 630.349 455.671 L 617.126 463.043 Z"
            fill="#000000"/>
        <path
            id="path_195"
            clip-path="url(#clip_path_195)"
            d="M 578.984 440.953 L 592.207 433.581 L 590.655 447.707 Z"
            fill="#000000"/>
        <path
            id="path_196"
            clip-path="url(#clip_path_196)"
            d="M 607.586 457.382 L 605.239 456.018 C 605.239 450.524 602.02 444.195 598.057 441.866 C 594.094 439.537 590.887 442.175 590.887 447.666 L 588.527 446.302 C 588.527 439.316 592.811 436.102 598.057 439.136 C 603.303 442.17 607.586 450.396 607.586 457.382 Z"
            fill="#ffffff"/>
        <path
            id="path_197"
            clip-path="url(#clip_path_197)"
            d="M 619.977 449.78 L 617.63 448.416 C 617.63 442.922 614.411 436.593 610.447 434.264 C 606.483 431.935 603.277 434.573 603.277 440.064 L 600.917 438.7 C 600.917 431.714 605.201 428.5 610.447 431.534 C 615.693 434.568 619.977 442.856 619.977 449.78 Z"
            fill="#ffffff"/>
        <path
            id="path_198"
            clip-path="url(#clip_path_198)"
            d="M 571.571 569.492 L 498.592 527.254 L 507.75 521.915 L 580.732 564.165 Z"
            fill="#d6d8e5"
            fill-opacity="0.4"
            stroke-opacity="0.4"/>
        <path
            id="path_199"
            clip-path="url(#clip_path_199)"
            d="M 599.763 553.551 L 526.501 511.121 L 535.659 427.315 L 590.605 459.144 Z"
            fill="#000000"/>
        <path
            id="path_200"
            clip-path="url(#clip_path_200)"
            d="M 580.728 564.165 L 507.454 521.735 L 516.612 437.929 L 571.571 469.745 Z"
            fill="#022a37"/>
        <path
            id="path_201"
            clip-path="url(#clip_path_201)"
            d="M 580.729 564.165 L 599.763 553.551 L 590.605 459.144 L 571.571 469.744 Z"
            fill="#000000"/>
        <path
            id="path_202"
            clip-path="url(#clip_path_202)"
            d="M 516.612 437.929 L 535.658 427.315 L 533.426 447.668 Z"
            fill="#022a37"/>
        <path
            id="path_203"
            clip-path="url(#clip_path_203)"
            d="M 557.821 461.602 L 554.435 459.582 C 554.435 451.67 549.792 442.548 544.097 439.255 C 538.402 435.962 533.746 439.692 533.746 447.605 L 530.36 445.649 C 530.36 435.575 536.516 430.944 544.097 435.357 C 551.678 439.77 557.821 451.528 557.821 461.602 Z"
            fill="#ffffff"/>
        <path
            id="path_204"
            clip-path="url(#clip_path_204)"
            d="M 575.688 450.653 L 572.302 448.685 C 572.302 440.773 567.659 431.651 561.964 428.345 C 556.269 425.039 551.613 428.795 551.613 436.708 L 548.227 434.752 C 548.227 424.665 554.396 420.047 561.964 424.46 C 569.532 428.873 575.688 440.566 575.688 450.653 Z"
            fill="#ffffff"/>
        <path
            id="path_205"
            clip-path="url(#clip_path_205)"
            d="M 269.149 385.734 L 241.727 369.946 L 272.522 352.114 L 299.931 367.914 Z"
            fill="#d6d8e5"
            fill-opacity="0.4"
            stroke-opacity="0.4"/>
        <path
            id="path_206"
            clip-path="url(#clip_path_206)"
            d="M 273.6 349.492 L 244.19 332.458 L 273.6 315.424 L 303.01 332.458 Z"
            fill="#efda86"/>
        <path
            id="path_207"
            clip-path="url(#clip_path_207)"
            d="M 301.022 367.272 L 273.6 383.147 L 273.6 351.383 L 301.022 335.507 Z"
            fill="#ffc700"/>
        <path
            id="path_208"
            clip-path="url(#clip_path_208)"
            d="M 273.6 383.147 L 246.178 367.272 L 246.178 335.507 L 273.6 351.383 Z"
            fill="#ffc700"/>
        <path
            id="path_209"
            clip-path="url(#clip_path_209)"
            d="M 246.178 335.507 L 246.178 343.818 L 273.6 359.518 L 273.6 351.426 Z"
            fill="#000000"
            fill-opacity="0.1"
            stroke-opacity="0.1"/>
        <path
            id="path_210"
            clip-path="url(#clip_path_210)"
            d="M 301.022 335.507 L 301.022 344.407 L 273.6 359.507 L 273.6 351.415 Z"
            fill="#000000"
            fill-opacity="0.1"
            stroke-opacity="0.1"/>
        <path
            id="path_211"
            clip-path="url(#clip_path_211)"
            d="M 244.19 332.458 L 244.19 341.258 L 273.6 358.058 L 273.6 349.49 Z"
            fill="#e2c979"/>
        <path
            id="path_212"
            clip-path="url(#clip_path_212)"
            d="M 273.6 358.06 L 303.01 341.952 L 303.01 332.458 L 273.6 349.492 Z"
            fill="#d1b66b"/>
        <path
            id="path_213"
            clip-path="url(#clip_path_213)"
            d="M 627.988 568.063 L 603.238 553.821 L 631.096 537.688 L 655.85 551.943 Z"
            fill="#d6d8e5"
            fill-opacity="0.4"
            stroke-opacity="0.4"/>
        <path
            id="path_214"
            clip-path="url(#clip_path_214)"
            d="M 632.071 535.309 L 605.521 519.935 L 632.071 504.561 L 658.621 519.935 Z"
            fill="#efda86"/>
        <path
            id="path_215"
            clip-path="url(#clip_path_215)"
            d="M 656.825 551.364 L 632.071 565.696 L 632.071 537.019 L 656.825 522.687 Z"
            fill="#ffc700"/>
        <path
            id="path_216"
            clip-path="url(#clip_path_216)"
            d="M 632.071 565.696 L 607.317 551.364 L 607.317 522.687 L 632.071 537.019 Z"
            fill="#ffc700"/>
        <path
            id="path_217"
            clip-path="url(#clip_path_217)"
            d="M 607.317 522.687 L 607.317 530.187 L 632.071 544.365 L 632.071 537.057 Z"
            fill="#000000"
            fill-opacity="0.1"
            stroke-opacity="0.1"/>
        <path
            id="path_218"
            clip-path="url(#clip_path_218)"
            d="M 656.825 522.687 L 656.825 530.728 L 632.071 544.365 L 632.071 537.057 Z"
            fill="#000000"
            fill-opacity="0.1"
            stroke-opacity="0.1"/>
        <path
            id="path_219"
            clip-path="url(#clip_path_219)"
            d="M 605.521 519.934 L 605.521 527.885 L 632.071 543.053 L 632.071 535.308 Z"
            fill="#e2c979"/>
        <path
            id="path_220"
            clip-path="url(#clip_path_220)"
            d="M 632.071 543.053 L 658.621 528.502 L 658.621 519.934 L 632.071 535.308 Z"
            fill="#d1b66b"/>
        <path
            id="path_221"
            clip-path="url(#clip_path_221)"
            d="M 335.716 428.087 L 283.016 397.587 L 289.634 393.74 L 342.334 424.24 Z"
            fill="#d6d8e5"
            fill-opacity="0.4"
            stroke-opacity="0.4"/>
        <path
            id="path_222"
            clip-path="url(#clip_path_222)"
            d="M 356.083 416.573 L 303.163 385.927 L 309.781 325.408 L 349.465 348.398 Z"
            fill="#000000"/>
        <path
            id="path_223"
            clip-path="url(#clip_path_223)"
            d="M 342.334 424.24 L 289.414 393.594 L 296.032 333.075 L 335.715 356.053 Z"
            fill="#022a37"/>
        <path
            id="path_224"
            clip-path="url(#clip_path_224)"
            d="M 342.334 424.24 L 356.083 416.572 L 349.465 348.398 L 335.716 356.053 Z"
            fill="#022a37"/>
        <path
            id="path_225"
            clip-path="url(#clip_path_225)"
            d="M 296.032 333.076 L 309.781 325.408 L 308.181 340.1 Z"
            fill="#022a37"/>
        <path
            id="path_226"
            clip-path="url(#clip_path_226)"
            d="M 325.789 350.225 L 323.352 348.81 C 323.352 343.085 319.992 336.498 315.875 334.118 C 311.758 331.738 308.41 334.44 308.41 340.152 L 305.959 338.741 C 305.959 331.472 310.41 328.127 315.873 331.292 C 321.336 334.457 325.789 342.892 325.789 350.225 Z"
            fill="#20232d"/>
        <path
            id="path_227"
            clip-path="url(#clip_path_227)"
            d="M 338.691 342.261 L 336.254 340.846 C 336.254 335.134 332.894 328.534 328.777 326.154 C 324.66 323.774 321.312 326.476 321.312 332.188 L 318.862 330.773 C 318.862 323.504 323.313 320.159 328.776 323.324 C 334.239 326.489 338.691 334.979 338.691 342.261 Z"
            fill="#20232d"/>
        <path
            id="path_228"
            clip-path="url(#clip_path_228)"
            d="M 128.744 635.62 C 128.707 642.471 132.425 649.156 139.361 654.706 C 146.298 660.257 156.1 664.392 167.351 666.513 C 178.601 668.635 190.729 668.635 201.979 666.513 C 213.23 664.392 223.032 660.257 229.969 654.706 C 236.905 649.156 240.623 642.471 240.586 635.62 C 240.586 627.035 234.69 618.793 224.207 612.722 C 213.724 606.652 199.49 603.238 184.665 603.238 C 169.84 603.238 155.606 606.652 145.123 612.722 C 134.64 618.793 128.744 627.035 128.744 635.62 Z"
            fill="#d6d8e5"
            fill-opacity="0.4"
            stroke-opacity="0.4"/>
        <path
            id="path_229"
            clip-path="url(#clip_path_229)"
            d="M 143.66 393.055 C 143.032 398.51 136.554 422.028 137.94 430.082 C 139.326 438.136 161.476 451.606 161.476 451.606 L 164.554 437.814 L 152.279 425.772 L 155.601 402.972 Z"
            fill="#ffcea9"/>
        <path
            id="path_230"
            clip-path="url(#clip_path_230)"
            d="M 160.808 369.884 C 158.653 368.882 156.203 368.709 153.929 369.4 C 151.656 370.09 149.715 371.597 148.482 373.628 C 145.224 379.028 141.838 397.609 141.53 400.774 C 141.53 400.774 146.109 407.117 152.958 406.049 Z"
            fill="#ededed"/>
        <path
            id="path_231"
            clip-path="url(#clip_path_231)"
            d="M 186.089 632.07 C 190.904 633.409 196.059 632.784 200.414 630.333 C 203.864 630.433 222.603 622.395 225.155 629.149 C 227.387 635.067 219.281 640.549 214.894 641.603 C 205.428 643.903 198.426 648.64 194.629 649.438 C 191.794 650.038 188.129 650.429 185.869 648.151 C 183.203 645.514 183.434 635.608 186.089 632.07 Z"
            fill="#2b2a30"/>
        <path
            id="path_232"
            clip-path="url(#clip_path_232)"
            d="M 194.669 647.804 C 198.517 646.993 205.469 642.259 214.934 639.956 C 218.577 639.081 224.834 635.093 225.464 630.333 C 226.311 635.788 219.051 640.625 214.934 641.603 C 205.468 643.903 198.466 648.64 194.669 649.438 C 191.834 650.038 188.169 650.429 185.909 648.152 C 185.309 647.504 184.869 646.724 184.626 645.875 C 187.956 648.705 191.834 648.396 194.669 647.804 Z"
            fill="#9c73ff"/>
        <path
            id="path_233"
            clip-path="url(#clip_path_233)"
            d="M 155.678 618.381 C 160.494 619.72 165.649 619.095 170.005 616.644 C 173.455 616.744 192.194 608.693 194.746 615.46 C 196.978 621.378 188.872 626.86 184.485 627.914 C 175.016 630.217 168.016 634.952 164.216 635.749 C 161.381 636.349 157.716 636.74 155.456 634.462 C 152.805 631.825 153.036 621.906 155.678 618.381 Z"
            fill="#2b2a30"/>
        <path
            id="path_234"
            clip-path="url(#clip_path_234)"
            d="M 164.272 634.103 C 168.12 633.303 175.072 628.571 184.537 626.268 C 188.18 625.393 194.437 621.392 195.067 616.645 C 195.914 622.1 188.59 626.937 184.537 627.915 C 175.071 630.215 168.069 634.952 164.272 635.75 C 161.437 636.35 157.772 636.741 155.512 634.463 C 154.909 633.822 154.469 633.045 154.229 632.199 C 157.559 634.99 161.437 634.707 164.272 634.103 Z"
            fill="#9c73ff"/>
        <path
            id="path_235"
            clip-path="url(#clip_path_235)"
            d="M 155.317 567.305 C 156.12 560.325 157.567 553.434 159.639 546.72 C 159.639 546.72 158.356 528.953 157.702 512.112 C 156.958 493.032 150.353 476.153 155.573 460.869 L 214.38 473.992 C 214.38 473.992 210.827 550.233 210.032 559.458 C 209.601 566.643 208.724 573.793 207.405 580.869 C 204.712 595.669 200.351 630.869 200.351 630.869 C 194.13 634.484 185.973 632.477 185.973 632.477 C 185.973 632.477 186.422 587.977 186.82 577.31 C 187.307 564.29 187.705 565.281 187.705 565.281 L 185.768 532.924 L 184.485 516.791 C 184.485 516.791 182.856 528.627 181.804 539.203 C 180.881 548.428 178.662 556.764 176.173 573.94 C 174.031 588.825 170.542 618.751 170.542 618.751 C 164.321 622.379 155.882 619.369 155.882 619.369 C 155.882 619.369 153.626 580.222 155.317 567.305 Z"
            fill="#8c50ff"/>
        <path
            id="path_236"
            clip-path="url(#clip_path_236)"
            d="M 163.899 370.209 C 168.375 370.428 171.71 371.586 172.274 370.209 C 172.752 367.889 173.095 365.544 173.3 363.184 C 172.774 361.898 172.338 360.484 172.338 360.484 C 166.707 357.01 164.938 350.912 164.194 343.759 C 162.911 331.627 169.465 321.013 181.573 319.739 C 192.937 318.555 201.312 326.571 203.544 337.571 C 204.75 343.013 207.135 353.28 203.903 362.221 C 202.095 367.221 199.76 371.227 197.426 371.96 C 195.176 371.903 192.931 371.705 190.705 371.368 L 190.705 371.368 C 190.705 371.368 190.105 374.739 189.692 376.9 C 189.279 379.061 189.435 380.206 193.732 382.857 C 198.029 385.508 187.242 390.962 180.188 390.435 C 173.134 389.908 165.207 385.623 163.04 381.056 C 160.616 376.06 160.808 370.065 163.899 370.209 Z"
            fill="#ffcea9"/>
        <path
            id="path_237"
            clip-path="url(#clip_path_237)"
            d="M 170.377 370.875 C 169.094 373.975 172.288 377.775 180.638 380.421 C 188.988 383.067 189.809 379.662 189.809 379.662 C 189.809 379.662 202.148 385.297 206.162 388.115 C 211.203 391.653 213.447 401.894 214.127 419.185 C 214.909 439.204 214.986 468.897 214.319 474.018 C 214.319 474.018 204.879 483.448 192.81 482.458 C 180.741 481.468 160.425 470.738 155.487 462.465 C 155.628 444.916 157.68 442.065 154.846 431.948 C 148.356 408.79 144.946 399.334 148.1 383.96 C 150.665 371.287 154.333 369.705 159.323 369.808 C 163.025 369.961 166.716 370.317 170.379 370.876 Z"
            fill="#f4f4f4"/>
        <path
            id="path_238"
            clip-path="url(#clip_path_238)"
            d="M 233.173 435.743 C 223.259 438.243 220.937 431.973 219.629 426.737 C 216.474 414.167 214.781 402.82 212.429 395.693 C 209.659 387.279 206.76 385.941 202.681 384.307 C 197.897 382.377 193.781 386.43 195.381 397.172 C 197.254 409.845 199.729 418.735 204.449 433.71 C 205.732 437.57 208.449 444.581 212.593 447.939 C 217.723 452.082 225.419 451.902 237.052 449.007 C 242.016 447.72 247.467 444.787 256.868 440.387 C 259.433 439.203 261.357 438.419 266.192 436.154 C 271.027 433.889 276.068 430.12 278.607 426.428 C 281.146 422.736 280.707 420.407 280.185 419.571 C 279.531 418.516 279.172 419.352 277.812 420.857 C 275.854 423.474 273.438 425.714 270.681 427.47 C 270.681 427.47 273.811 424.228 275.516 422.118 C 277.031 420.248 278.291 418.184 279.261 415.981 C 280.161 413.832 278.312 410.912 276.901 412.443 C 275.49 413.974 274.836 415.531 272.271 418.618 C 270.921 420.259 269.38 421.732 267.679 423.005 C 269.268 420.847 270.683 418.567 271.912 416.186 C 273.541 412.854 268.064 414.586 264.999 417.833 C 262.729 420.187 260.805 421.551 260.754 420.895 C 260.703 420.239 256.278 424.995 254.033 427.328 C 251.604 430.056 242.587 433.362 233.173 435.743 Z"
            fill="#ffcea9"/>
        <path
            id="path_239"
            clip-path="url(#clip_path_239)"
            d="M 199.017 382.634 C 205.635 381.656 210.317 384.641 213.228 394.702 C 216.139 404.763 218.205 413.005 218.205 413.005 C 215.592 416.798 211.618 419.443 207.111 420.39 C 199.197 422.32 196.35 418.524 196.35 418.524 C 196.35 418.524 194.157 407.987 192.784 400.808 C 191.411 393.629 190.835 383.856 199.017 382.634 Z"
            fill="#ededed"/>
        <path
            id="path_240"
            clip-path="url(#clip_path_240)"
            d="M 203.138 336.074 C 203.138 336.074 213.591 320.121 190.938 316.874 C 174.598 314.532 164.106 325.056 162.888 336.481 C 161.734 347.404 168.429 358.738 173.277 363.228 C 175.637 364.077 180.716 364.515 187.385 361.517 C 187.657 358.545 187.764 355.56 187.706 352.576 C 187.706 352.576 179.766 335.778 203.138 336.074 Z"
            fill="#3a2c6d"/>
        <path
            id="path_241"
            clip-path="url(#clip_path_241)"
            d="M 256.234 423.211 C 256.234 423.211 253.669 418.511 255.285 417.344 C 256.901 416.177 259.248 420.573 259.723 422.297 C 260.198 424.021 259.543 421.77 259.543 421.77 C 259.543 421.77 257.786 416.47 258.927 415.453 C 260.068 414.436 261.608 416.74 263.134 420.033 C 264.66 423.326 263.519 419.733 263.519 419.733 C 263.519 419.733 260.954 414.419 262.07 413.686 C 263.519 412.695 265.918 415.847 267.341 418.686 C 268.764 421.525 265.43 424.886 265.43 424.886 Z"
            fill="#ffcea9"/>
        <path
            id="path_242"
            clip-path="url(#clip_path_242)"
            d="M 261.188 431.599 L 251.581 426.028 C 250.773 425.565 250.876 424.741 251.812 424.201 L 274.963 410.757 C 275.444 410.488 275.981 410.336 276.532 410.313 C 277.082 410.291 277.63 410.399 278.131 410.628 L 287.738 416.186 C 288.546 416.662 288.443 417.473 287.507 418.026 L 264.307 431.458 C 263.834 431.721 263.305 431.871 262.764 431.896 C 262.223 431.92 261.683 431.818 261.188 431.599 Z"
            fill="#b1b4c4"/>
        <path
            id="path_243"
            clip-path="url(#clip_path_243)"
            d="M 251.026 425.233 L 251.026 424.345 L 252.065 424.731 Z"
            fill="#b1b4c4"/>
        <path
            id="path_244"
            clip-path="url(#clip_path_244)"
            d="M 288.323 416.958 L 288.323 416.109 L 287.502 416.636 Z"
            fill="#b1b4c4"/>
        <path
            id="path_245"
            clip-path="url(#clip_path_245)"
            d="M 261.188 430.842 L 251.581 425.284 C 250.773 424.808 250.876 423.997 251.812 423.444 L 274.963 410.012 C 275.444 409.743 275.981 409.591 276.532 409.568 C 277.082 409.546 277.63 409.654 278.131 409.883 L 287.734 415.442 C 288.542 415.918 288.439 416.729 287.503 417.282 L 264.303 430.714 C 263.829 430.975 263.301 431.122 262.761 431.144 C 262.22 431.166 261.682 431.063 261.188 430.842 Z"
            fill="#616e84"/>
        <path
            id="path_246"
            clip-path="url(#clip_path_246)"
            d="M 253.047 427.714 C 253.096 427.686 253.174 427.734 253.223 427.82 C 253.272 427.906 253.276 427.998 253.226 428.026 C 253.176 428.054 253.099 428.006 253.049 427.919 C 252.999 427.832 252.998 427.742 253.047 427.714 Z"
            fill="#757b89"/>
        <path
            id="path_247"
            clip-path="url(#clip_path_247)"
            d="M 253.02 426.382 C 253.069 426.353 253.147 426.401 253.197 426.488 C 253.247 426.575 253.248 426.664 253.199 426.693 C 253.15 426.722 253.072 426.673 253.023 426.587 C 252.974 426.501 252.971 426.41 253.02 426.382 Z"
            fill="#757b89"/>
        <path
            id="path_248"
            clip-path="url(#clip_path_248)"
            d="M 253.477 426.655 C 253.526 426.626 253.604 426.674 253.654 426.761 C 253.704 426.848 253.705 426.937 253.656 426.966 C 253.607 426.995 253.529 426.946 253.48 426.86 C 253.431 426.774 253.428 426.683 253.477 426.655 Z"
            fill="#757b89"/>
        <path
            id="path_249"
            clip-path="url(#clip_path_249)"
            d="M 253.948 426.927 C 253.997 426.898 254.075 426.946 254.125 427.033 C 254.175 427.12 254.176 427.209 254.127 427.238 C 254.078 427.267 254 427.218 253.951 427.132 C 253.902 427.046 253.899 426.955 253.948 426.927 Z"
            fill="#757b89"/>
        <path
            id="path_250"
            clip-path="url(#clip_path_250)"
            d="M 257.912 429.224 C 257.961 429.195 258.039 429.243 258.089 429.33 C 258.139 429.417 258.14 429.506 258.091 429.535 C 258.042 429.564 257.964 429.515 257.914 429.429 C 257.864 429.343 257.863 429.252 257.912 429.224 Z"
            fill="#757b89"/>
        <path
            id="path_251"
            clip-path="url(#clip_path_251)"
            d="M 258.363 429.485 C 258.412 429.456 258.49 429.504 258.54 429.591 C 258.59 429.678 258.591 429.767 258.542 429.796 C 258.493 429.825 258.415 429.776 258.366 429.69 C 258.317 429.604 258.314 429.513 258.363 429.485 Z"
            fill="#757b89"/>
        <path
            id="path_252"
            clip-path="url(#clip_path_252)"
            d="M 258.834 429.758 C 258.883 429.729 258.961 429.777 259.011 429.864 C 259.061 429.951 259.062 430.04 259.013 430.069 C 258.964 430.098 258.886 430.049 258.836 429.963 C 258.786 429.877 258.785 429.786 258.834 429.758 Z"
            fill="#757b89"/>
        <path
            id="path_253"
            clip-path="url(#clip_path_253)"
            d="M 259.81 431.639 C 259.859 431.611 259.937 431.659 259.986 431.745 C 260.035 431.831 260.039 431.923 259.989 431.951 C 259.939 431.979 259.862 431.931 259.812 431.844 C 259.762 431.757 259.761 431.667 259.81 431.639 Z"
            fill="#757b89"/>
        <path
            id="path_254"
            clip-path="url(#clip_path_254)"
            d="M 256.657 428.782 L 255.374 428.049 C 255.331 428.016 255.295 427.973 255.271 427.924 C 255.246 427.875 255.233 427.821 255.233 427.766 L 255.233 427.766 C 255.233 427.666 255.297 427.612 255.374 427.666 L 256.657 428.399 C 256.7 428.43 256.735 428.47 256.76 428.517 C 256.784 428.564 256.798 428.616 256.798 428.669 L 256.798 428.669 C 256.798 428.782 256.734 428.833 256.657 428.782 Z"
            fill="#757b89"/>
        <path
            id="path_255"
            clip-path="url(#clip_path_255)"
            d="M 285.425 419.068 L 284.245 419.75 C 284.168 419.75 284.104 419.75 284.104 419.65 L 284.104 419.65 C 284.107 419.599 284.122 419.55 284.146 419.506 C 284.17 419.462 284.204 419.423 284.245 419.393 L 285.425 418.711 C 285.502 418.711 285.553 418.711 285.553 418.811 L 285.553 418.811 C 285.555 418.861 285.544 418.911 285.522 418.956 C 285.499 419.001 285.466 419.039 285.425 419.068 Z"
            fill="#757b89"/>
        <path
            id="path_256"
            clip-path="url(#clip_path_256)"
            d="M 283.617 420.123 L 282.437 420.805 C 282.36 420.805 282.296 420.805 282.296 420.705 L 282.296 420.705 C 282.296 420.654 282.309 420.604 282.334 420.559 C 282.359 420.514 282.394 420.476 282.437 420.448 L 283.617 419.753 C 283.694 419.753 283.745 419.753 283.745 419.853 L 283.745 419.853 C 283.745 419.905 283.734 419.956 283.711 420.002 C 283.689 420.049 283.657 420.09 283.617 420.123 Z"
            fill="#757b89"/>
        <path
            id="path_257"
            clip-path="url(#clip_path_257)"
            d="M 261.188 430.711 L 251.578 425.141 C 250.77 424.678 250.873 423.854 251.809 423.314 L 274.96 409.87 C 275.442 409.604 275.979 409.454 276.529 409.431 C 277.079 409.409 277.626 409.515 278.128 409.741 L 287.735 415.299 C 288.543 415.775 288.44 416.586 287.504 417.139 L 264.304 430.571 C 263.831 430.834 263.303 430.983 262.762 431.007 C 262.222 431.032 261.683 430.93 261.188 430.711 Z"
            fill="#20232d"/>
        <path
            id="path_258"
            clip-path="url(#clip_path_258)"
            d="M 286.747 415.531 L 283.002 413.357 L 283.002 413.357 C 282.754 413.483 282.48 413.549 282.202 413.549 C 281.924 413.549 281.65 413.483 281.402 413.357 C 281.305 413.324 281.221 413.262 281.162 413.179 C 281.102 413.096 281.07 412.996 281.07 412.894 C 281.07 412.792 281.102 412.692 281.162 412.609 C 281.221 412.526 281.305 412.464 281.402 412.431 L 281.402 412.431 L 277.657 410.257 C 277.338 410.092 276.984 410.006 276.625 410.006 C 276.265 410.006 275.911 410.092 275.592 410.257 L 252.989 423.34 C 252.862 423.381 252.752 423.462 252.674 423.569 C 252.596 423.677 252.553 423.807 252.553 423.94 C 252.553 424.073 252.596 424.203 252.674 424.311 C 252.752 424.418 252.862 424.499 252.989 424.54 L 262.095 429.802 C 262.414 429.967 262.768 430.053 263.127 430.053 C 263.487 430.053 263.841 429.967 264.16 429.802 L 286.746 416.718 C 286.873 416.68 286.985 416.602 287.064 416.495 C 287.144 416.388 287.187 416.259 287.187 416.126 C 287.187 415.993 287.144 415.864 287.064 415.757 C 286.985 415.65 286.873 415.572 286.746 415.534 Z"
            fill="#2b303f"/>
        <path
            id="path_259"
            clip-path="url(#clip_path_259)"
            d="M 286.747 415.531 L 283.002 413.357 L 283.002 413.357 C 282.754 413.483 282.48 413.549 282.202 413.549 C 281.924 413.549 281.65 413.483 281.402 413.357 C 281.305 413.324 281.221 413.262 281.162 413.179 C 281.102 413.096 281.07 412.996 281.07 412.894 C 281.07 412.792 281.102 412.692 281.162 412.609 C 281.221 412.526 281.305 412.464 281.402 412.431 L 281.402 412.431 L 277.657 410.257 C 277.338 410.092 276.984 410.006 276.625 410.006 C 276.265 410.006 275.911 410.092 275.592 410.257 L 252.989 423.34 C 252.862 423.381 252.752 423.462 252.674 423.569 C 252.596 423.677 252.553 423.807 252.553 423.94 C 252.553 424.073 252.596 424.203 252.674 424.311 C 252.752 424.418 252.862 424.499 252.989 424.54 L 262.095 429.802 C 262.414 429.967 262.768 430.053 263.127 430.053 C 263.487 430.053 263.841 429.967 264.16 429.802 L 286.746 416.718 C 286.873 416.68 286.985 416.602 287.064 416.495 C 287.144 416.388 287.187 416.259 287.187 416.126 C 287.187 415.993 287.144 415.864 287.064 415.757 C 286.985 415.65 286.873 415.572 286.746 415.534 Z"
            fill="none"
            fill-opacity="0.5"
            stroke-opacity="0.5"/>
        <path
            id="path_260"
            clip-path="url(#clip_path_260)"
            d="M 281.513 413.034 C 281.513 413.099 281.559 413.161 281.641 413.207 C 281.722 413.252 281.833 413.278 281.949 413.278 C 282.065 413.278 282.176 413.252 282.257 413.207 C 282.339 413.161 282.385 413.099 282.385 413.034 C 282.385 412.969 282.339 412.907 282.257 412.861 C 282.176 412.816 282.065 412.79 281.949 412.79 C 281.833 412.79 281.722 412.816 281.641 412.861 C 281.559 412.907 281.513 412.969 281.513 413.034 Z"
            fill="#2b303f"/>
        <path
            id="path_261"
            clip-path="url(#clip_path_261)"
            d="M 281.821 413.111 C 281.744 413.111 281.744 413.011 281.821 412.97 C 281.859 412.944 281.904 412.931 281.95 412.931 C 281.995 412.931 282.04 412.944 282.078 412.97 C 282.096 412.978 282.111 412.993 282.118 413.012 C 282.126 413.03 282.126 413.051 282.118 413.069 C 282.111 413.088 282.096 413.103 282.078 413.111 C 282.038 413.13 281.994 413.141 281.95 413.141 C 281.905 413.141 281.861 413.13 281.821 413.111 Z"
            fill="#ffffff"
            fill-opacity="0.1"
            stroke-opacity="0.1"/>
        <path
            id="path_262"
            clip-path="url(#clip_path_262)"
            d="M 276.114 429.374 C 276.114 429.374 281.244 424.781 280.949 418.696 C 280.641 414.45 278.089 417.512 278.089 417.512 L 275.524 422.182 C 275.524 422.182 272.959 425.514 270.599 426.273 C 268.795 426.448 267.001 426.715 265.225 427.073 C 262.07 427.691 258.925 431.64 258.925 431.64 L 262.991 434.766 Z"
            fill="#ffcea9"/>
        <path
            id="path_263"
            clip-path="url(#clip_path_263)"
            d="M 673.422 203.044 L 643.281 185.544 C 642.792 185.213 642.234 184.998 641.649 184.918 C 641.064 184.838 640.468 184.893 639.908 185.081 L 639.908 185.081 C 639.663 185.181 639.435 185.316 639.228 185.481 L 633.7 188.659 L 637.548 194.011 L 637.548 222.74 C 637.548 226.96 640.113 231.862 643.268 233.689 L 669.856 249.128 L 670.728 255.162 C 670.908 255.072 675.486 252.435 676.936 251.585 C 677.076 251.52 677.21 251.443 677.336 251.353 L 677.336 251.353 C 677.954 250.793 678.432 250.097 678.733 249.32 C 679.033 248.542 679.148 247.706 679.068 246.876 L 679.068 213.992 C 679.129 209.772 676.577 204.845 673.422 203.044 Z"
            fill="#d9dae2"/>
        <path
            id="path_264"
            clip-path="url(#clip_path_264)"
            d="M 667.188 254.776 L 637.047 237.318 C 633.892 235.491 631.339 230.589 631.339 226.369 L 631.339 193.501 C 631.339 189.281 633.904 187.351 637.047 189.178 L 667.188 206.624 C 670.343 208.451 672.908 213.366 672.908 217.585 L 672.908 250.443 C 672.909 254.66 670.344 256.601 667.188 254.776 Z"
            fill="#eff0f9"/>
        <path
            id="path_265"
            clip-path="url(#clip_path_265)"
            d="M 640.228 205.81 C 640.228 203.957 640.754 202.761 641.793 202.21 C 642.832 201.659 644.193 201.863 645.872 202.84 C 647.574 203.826 648.992 205.236 649.989 206.931 C 651.005 208.597 651.542 210.512 651.541 212.463 L 651.541 213.955 C 651.541 215.82 651.028 217.017 649.989 217.555 C 648.95 218.093 647.589 217.864 645.91 216.886 C 644.205 215.903 642.786 214.493 641.793 212.795 C 640.773 211.135 640.232 209.224 640.228 207.276 Z M 643.665 209.399 C 643.665 210.223 643.877 211.034 644.28 211.753 C 644.652 212.462 645.216 213.052 645.909 213.453 C 646.576 213.839 647.102 213.89 647.499 213.607 C 647.722 213.386 647.891 213.117 647.993 212.82 C 648.095 212.524 648.128 212.207 648.089 211.896 L 648.089 210.365 C 648.089 209.544 647.886 208.735 647.499 208.011 C 647.131 207.296 646.566 206.702 645.87 206.3 C 645.656 206.133 645.4 206.029 645.131 205.999 C 644.861 205.97 644.589 206.016 644.344 206.133 C 643.934 206.403 643.728 206.982 643.728 207.883 Z M 646.91 231.862 L 644.345 228.826 L 657.171 212.564 L 659.736 215.6 Z M 652.669 230.062 C 652.669 228.197 653.195 227 654.247 226.462 C 655.299 225.924 656.658 226.153 658.326 227.118 C 660.014 228.104 661.425 229.503 662.426 231.183 C 663.457 232.858 663.999 234.788 663.991 236.754 L 663.991 238.246 C 663.991 240.086 663.478 241.295 662.452 241.835 C 661.426 242.375 660.066 242.157 658.361 241.166 C 656.65 240.184 655.226 238.77 654.231 237.066 C 653.22 235.42 652.679 233.529 652.666 231.598 Z M 656.106 233.662 C 656.123 234.48 656.343 235.28 656.747 235.991 C 657.117 236.706 657.676 237.307 658.363 237.728 C 659.812 238.577 660.543 238.063 660.543 236.197 L 660.543 234.615 C 660.543 233.796 660.337 232.991 659.943 232.273 C 659.572 231.568 659.013 230.979 658.327 230.573 C 658.105 230.393 657.836 230.281 657.552 230.251 C 657.268 230.222 656.981 230.275 656.727 230.406 C 656.492 230.616 656.312 230.882 656.205 231.178 C 656.097 231.475 656.065 231.794 656.111 232.106 Z"
            fill="#ff0000"/>
        <path
            id="path_266"
            clip-path="url(#clip_path_266)"
            d="M 287.862 111.365 L 257.721 93.906 C 257.232 93.575 256.674 93.36 256.089 93.28 C 255.504 93.2 254.908 93.255 254.348 93.443 L 254.348 93.443 C 254.106 93.549 253.878 93.683 253.668 93.843 L 248.14 97.02 L 251.988 102.372 L 251.988 131.101 C 251.988 135.321 254.553 140.223 257.696 142.05 L 284.283 157.489 L 285.168 163.536 L 291.363 159.947 C 291.5 159.882 291.634 159.809 291.763 159.728 L 291.763 159.728 C 292.386 159.172 292.868 158.476 293.171 157.698 C 293.475 156.921 293.589 156.082 293.507 155.251 L 293.507 122.313 C 293.582 118.089 291.017 113.189 287.862 111.365 Z"
            fill="#d9dae2"/>
        <path
            id="path_267"
            clip-path="url(#clip_path_267)"
            d="M 281.641 163.096 L 251.5 145.663 C 248.345 143.836 245.78 138.934 245.78 134.714 L 245.78 101.831 C 245.78 97.611 248.345 95.668 251.5 97.495 L 281.641 114.953 C 284.796 116.78 287.349 121.682 287.349 125.902 L 287.349 158.76 C 287.349 162.982 284.796 164.962 281.641 163.096 Z"
            fill="#eff0f9"/>
        <path
            id="path_268"
            clip-path="url(#clip_path_268)"
            d="M 266.571 114.774 L 270.65 126.726 L 279.795 133.558 L 273.177 137.199 L 274.742 148.636 L 266.572 138.936 L 258.389 139.168 L 259.954 129.532 L 253.336 118.232 L 262.481 121.989 Z"
            fill="#f9cb07"/>
    </g>
</svg>
