<svg
    xmlns="http://www.w3.org/2000/svg"
    viewBox="0 0 808 693"
    id="vector">
    <defs>
        <clipPath id="clip_path_2">
            <path d="M 0 0 L 808 0 L 808 693 L 0 693 Z M 0 0"/>
        </clipPath>
        <clipPath id="clip_path_3">
            <path d="M 0 0 L 808 0 L 808 693 L 0 693 Z M 0 0"/>
        </clipPath>
        <clipPath id="clip_path_4">
            <path d="M 0 0 L 808 0 L 808 693 L 0 693 Z M 0 0"/>
        </clipPath>
        <clipPath id="clip_path_5">
            <path d="M 0 0 L 808 0 L 808 693 L 0 693 Z M 0 0"/>
        </clipPath>
        <clipPath id="clip_path_6">
            <path d="M 0 0 L 808 0 L 808 693 L 0 693 Z M 0 0"/>
        </clipPath>
        <clipPath id="clip_path_7">
            <path d="M 0 0 L 808 0 L 808 693 L 0 693 Z M 0 0"/>
        </clipPath>
        <clipPath id="clip_path_8">
            <path d="M 0 0 L 808 0 L 808 693 L 0 693 Z M 0 0"/>
        </clipPath>
        <clipPath id="clip_path_9">
            <path d="M 0 0 L 808 0 L 808 693 L 0 693 Z M 0 0"/>
        </clipPath>
        <clipPath id="clip_path_10">
            <path d="M 0 0 L 808 0 L 808 693 L 0 693 Z M 0 0"/>
        </clipPath>
        <clipPath id="clip_path_11">
            <path d="M 0 0 L 808 0 L 808 693 L 0 693 Z M 0 0"/>
        </clipPath>
        <clipPath id="clip_path_12">
            <path d="M 0 0 L 808 0 L 808 693 L 0 693 Z M 0 0"/>
        </clipPath>
        <clipPath id="clip_path_13">
            <path d="M 0 0 L 808 0 L 808 693 L 0 693 Z M 0 0"/>
        </clipPath>
        <clipPath id="clip_path_14">
            <path d="M 0 0 L 808 0 L 808 693 L 0 693 Z M 0 0"/>
        </clipPath>
        <clipPath id="clip_path_15">
            <path d="M 0 0 L 808 0 L 808 693 L 0 693 Z M 0 0"/>
        </clipPath>
        <clipPath id="clip_path_16">
            <path d="M 0 0 L 808 0 L 808 693 L 0 693 Z M 0 0"/>
        </clipPath>
        <clipPath id="clip_path_17">
            <path d="M 0 0 L 808 0 L 808 693 L 0 693 Z M 0 0"/>
        </clipPath>
        <clipPath id="clip_path_18">
            <path d="M 0 0 L 808 0 L 808 693 L 0 693 Z M 0 0"/>
        </clipPath>
        <clipPath id="clip_path_19">
            <path d="M 0 0 L 808 0 L 808 693 L 0 693 Z M 0 0"/>
        </clipPath>
        <clipPath id="clip_path_20">
            <path d="M 0 0 L 808 0 L 808 693 L 0 693 Z M 0 0"/>
        </clipPath>
        <clipPath id="clip_path_21">
            <path d="M 0 0 L 808 0 L 808 693 L 0 693 Z M 0 0"/>
        </clipPath>
        <clipPath id="clip_path_22">
            <path d="M 0 0 L 808 0 L 808 693 L 0 693 Z M 0 0"/>
        </clipPath>
        <clipPath id="clip_path_23">
            <path d="M 0 0 L 808 0 L 808 693 L 0 693 Z M 0 0"/>
        </clipPath>
        <clipPath id="clip_path_24">
            <path d="M 0 0 L 808 0 L 808 693 L 0 693 Z M 0 0"/>
        </clipPath>
        <clipPath id="clip_path_25">
            <path d="M 0 0 L 808 0 L 808 693 L 0 693 Z M 0 0"/>
        </clipPath>
        <clipPath id="clip_path_26">
            <path d="M 0 0 L 808 0 L 808 693 L 0 693 Z M 0 0"/>
        </clipPath>
        <clipPath id="clip_path_27">
            <path d="M 0 0 L 808 0 L 808 693 L 0 693 Z M 0 0"/>
        </clipPath>
        <clipPath id="clip_path_28">
            <path d="M 0 0 L 808 0 L 808 693 L 0 693 Z M 0 0"/>
        </clipPath>
        <clipPath id="clip_path_29">
            <path d="M 0 0 L 808 0 L 808 693 L 0 693 Z M 0 0"/>
        </clipPath>
        <clipPath id="clip_path_30">
            <path d="M 0 0 L 808 0 L 808 693 L 0 693 Z M 0 0"/>
        </clipPath>
        <clipPath id="clip_path_31">
            <path d="M 0 0 L 808 0 L 808 693 L 0 693 Z M 0 0"/>
        </clipPath>
        <clipPath id="clip_path_32">
            <path d="M 0 0 L 808 0 L 808 693 L 0 693 Z M 0 0"/>
        </clipPath>
        <clipPath id="clip_path_33">
            <path d="M 0 0 L 808 0 L 808 693 L 0 693 Z M 0 0"/>
        </clipPath>
        <clipPath id="clip_path_34">
            <path d="M 0 0 L 808 0 L 808 693 L 0 693 Z M 0 0"/>
        </clipPath>
        <clipPath id="clip_path_35">
            <path d="M 0 0 L 808 0 L 808 693 L 0 693 Z M 0 0"/>
        </clipPath>
        <clipPath id="clip_path_36">
            <path d="M 0 0 L 808 0 L 808 693 L 0 693 Z M 0 0"/>
        </clipPath>
        <clipPath id="clip_path_37">
            <path d="M 0 0 L 808 0 L 808 693 L 0 693 Z M 0 0"/>
        </clipPath>
        <clipPath id="clip_path_38">
            <path d="M 0 0 L 808 0 L 808 693 L 0 693 Z M 0 0"/>
        </clipPath>
        <clipPath id="clip_path_39">
            <path d="M 0 0 L 808 0 L 808 693 L 0 693 Z M 0 0"/>
        </clipPath>
        <clipPath id="clip_path_40">
            <path d="M 0 0 L 808 0 L 808 693 L 0 693 Z M 0 0"/>
        </clipPath>
        <clipPath id="clip_path_41">
            <path d="M 0 0 L 808 0 L 808 693 L 0 693 Z M 0 0"/>
        </clipPath>
        <clipPath id="clip_path_42">
            <path d="M 0 0 L 808 0 L 808 693 L 0 693 Z M 0 0"/>
        </clipPath>
        <clipPath id="clip_path_43">
            <path d="M 0 0 L 808 0 L 808 693 L 0 693 Z M 0 0"/>
        </clipPath>
        <clipPath id="clip_path_44">
            <path d="M 0 0 L 808 0 L 808 693 L 0 693 Z M 0 0"/>
        </clipPath>
        <clipPath id="clip_path_45">
            <path d="M 0 0 L 808 0 L 808 693 L 0 693 Z M 0 0"/>
        </clipPath>
        <clipPath id="clip_path_46">
            <path d="M 0 0 L 808 0 L 808 693 L 0 693 Z M 0 0"/>
        </clipPath>
        <clipPath id="clip_path_47">
            <path d="M 0 0 L 808 0 L 808 693 L 0 693 Z M 0 0"/>
        </clipPath>
        <clipPath id="clip_path_48">
            <path d="M 0 0 L 808 0 L 808 693 L 0 693 Z M 0 0"/>
        </clipPath>
        <clipPath id="clip_path_49">
            <path d="M 0 0 L 808 0 L 808 693 L 0 693 Z M 0 0"/>
        </clipPath>
        <clipPath id="clip_path_50">
            <path d="M 0 0 L 808 0 L 808 693 L 0 693 Z M 0 0"/>
        </clipPath>
        <clipPath id="clip_path_51">
            <path d="M 0 0 L 808 0 L 808 693 L 0 693 Z M 0 0"/>
        </clipPath>
        <clipPath id="clip_path_52">
            <path d="M 0 0 L 808 0 L 808 693 L 0 693 Z M 0 0"/>
        </clipPath>
        <clipPath id="clip_path_53">
            <path d="M 0 0 L 808 0 L 808 693 L 0 693 Z M 0 0"/>
        </clipPath>
        <clipPath id="clip_path_54">
            <path d="M 0 0 L 808 0 L 808 693 L 0 693 Z M 0 0"/>
        </clipPath>
        <clipPath id="clip_path_55">
            <path d="M 0 0 L 808 0 L 808 693 L 0 693 Z M 0 0"/>
        </clipPath>
        <clipPath id="clip_path_56">
            <path d="M 0 0 L 808 0 L 808 693 L 0 693 Z M 0 0"/>
        </clipPath>
        <clipPath id="clip_path_57">
            <path d="M 0 0 L 808 0 L 808 693 L 0 693 Z M 0 0"/>
        </clipPath>
        <clipPath id="clip_path_58">
            <path d="M 0 0 L 808 0 L 808 693 L 0 693 Z M 0 0"/>
        </clipPath>
        <clipPath id="clip_path_59">
            <path d="M 0 0 L 808 0 L 808 693 L 0 693 Z M 0 0"/>
        </clipPath>
        <clipPath id="clip_path_60">
            <path d="M 0 0 L 808 0 L 808 693 L 0 693 Z M 0 0"/>
        </clipPath>
        <clipPath id="clip_path_61">
            <path d="M 0 0 L 808 0 L 808 693 L 0 693 Z M 0 0"/>
        </clipPath>
        <clipPath id="clip_path_62">
            <path d="M 0 0 L 808 0 L 808 693 L 0 693 Z M 0 0"/>
        </clipPath>
        <clipPath id="clip_path_63">
            <path d="M 0 0 L 808 0 L 808 693 L 0 693 Z M 0 0"/>
        </clipPath>
        <clipPath id="clip_path_64">
            <path d="M 0 0 L 808 0 L 808 693 L 0 693 Z M 0 0"/>
        </clipPath>
        <clipPath id="clip_path_65">
            <path d="M 0 0 L 808 0 L 808 693 L 0 693 Z M 0 0"/>
        </clipPath>
        <clipPath id="clip_path_66">
            <path d="M 0 0 L 808 0 L 808 693 L 0 693 Z M 0 0"/>
        </clipPath>
        <clipPath id="clip_path_67">
            <path d="M 0 0 L 808 0 L 808 693 L 0 693 Z M 0 0"/>
        </clipPath>
        <clipPath id="clip_path_68">
            <path d="M 0 0 L 808 0 L 808 693 L 0 693 Z M 0 0"/>
        </clipPath>
        <clipPath id="clip_path_69">
            <path d="M 0 0 L 808 0 L 808 693 L 0 693 Z M 0 0"/>
        </clipPath>
        <clipPath id="clip_path_70">
            <path d="M 0 0 L 808 0 L 808 693 L 0 693 Z M 0 0"/>
        </clipPath>
        <clipPath id="clip_path_71">
            <path d="M 0 0 L 808 0 L 808 693 L 0 693 Z M 0 0"/>
        </clipPath>
        <clipPath id="clip_path_72">
            <path d="M 0 0 L 808 0 L 808 693 L 0 693 Z M 0 0"/>
        </clipPath>
        <clipPath id="clip_path_73">
            <path d="M 0 0 L 808 0 L 808 693 L 0 693 Z M 0 0"/>
        </clipPath>
        <clipPath id="clip_path_74">
            <path d="M 0 0 L 808 0 L 808 693 L 0 693 Z M 0 0"/>
        </clipPath>
        <clipPath id="clip_path_75">
            <path d="M 0 0 L 808 0 L 808 693 L 0 693 Z M 0 0"/>
        </clipPath>
        <clipPath id="clip_path_76">
            <path d="M 0 0 L 808 0 L 808 693 L 0 693 Z M 0 0"/>
        </clipPath>
        <clipPath id="clip_path_77">
            <path d="M 0 0 L 808 0 L 808 693 L 0 693 Z M 0 0"/>
        </clipPath>
        <clipPath id="clip_path_78">
            <path d="M 0 0 L 808 0 L 808 693 L 0 693 Z M 0 0"/>
        </clipPath>
        <clipPath id="clip_path_79">
            <path d="M 0 0 L 808 0 L 808 693 L 0 693 Z M 0 0"/>
        </clipPath>
        <clipPath id="clip_path_80">
            <path d="M 0 0 L 808 0 L 808 693 L 0 693 Z M 0 0"/>
        </clipPath>
        <clipPath id="clip_path_81">
            <path d="M 0 0 L 808 0 L 808 693 L 0 693 Z M 0 0"/>
        </clipPath>
        <clipPath id="clip_path_82">
            <path d="M 0 0 L 808 0 L 808 693 L 0 693 Z M 0 0"/>
        </clipPath>
        <clipPath id="clip_path_83">
            <path d="M 0 0 L 808 0 L 808 693 L 0 693 Z M 0 0"/>
        </clipPath>
        <clipPath id="clip_path_84">
            <path d="M 0 0 L 808 0 L 808 693 L 0 693 Z M 0 0"/>
        </clipPath>
        <clipPath id="clip_path_85">
            <path d="M 0 0 L 808 0 L 808 693 L 0 693 Z M 0 0"/>
        </clipPath>
        <clipPath id="clip_path_86">
            <path d="M 0 0 L 808 0 L 808 693 L 0 693 Z M 0 0"/>
        </clipPath>
        <clipPath id="clip_path_87">
            <path d="M 0 0 L 808 0 L 808 693 L 0 693 Z M 0 0"/>
        </clipPath>
        <clipPath id="clip_path_88">
            <path d="M 0 0 L 808 0 L 808 693 L 0 693 Z M 0 0"/>
        </clipPath>
        <clipPath id="clip_path_89">
            <path d="M 0 0 L 808 0 L 808 693 L 0 693 Z M 0 0"/>
        </clipPath>
        <clipPath id="clip_path_90">
            <path d="M 0 0 L 808 0 L 808 693 L 0 693 Z M 0 0"/>
        </clipPath>
        <clipPath id="clip_path_91">
            <path d="M 0 0 L 808 0 L 808 693 L 0 693 Z M 0 0"/>
        </clipPath>
        <clipPath id="clip_path_92">
            <path d="M 0 0 L 808 0 L 808 693 L 0 693 Z M 0 0"/>
        </clipPath>
        <clipPath id="clip_path_93">
            <path d="M 0 0 L 808 0 L 808 693 L 0 693 Z M 0 0"/>
        </clipPath>
        <clipPath id="clip_path_94">
            <path d="M 0 0 L 808 0 L 808 693 L 0 693 Z M 0 0"/>
        </clipPath>
        <clipPath id="clip_path_95">
            <path d="M 0 0 L 808 0 L 808 693 L 0 693 Z M 0 0"/>
        </clipPath>
        <clipPath id="clip_path_96">
            <path d="M 0 0 L 808 0 L 808 693 L 0 693 Z M 0 0"/>
        </clipPath>
        <clipPath id="clip_path_97">
            <path d="M 0 0 L 808 0 L 808 693 L 0 693 Z M 0 0"/>
        </clipPath>
        <clipPath id="clip_path_98">
            <path d="M 0 0 L 808 0 L 808 693 L 0 693 Z M 0 0"/>
        </clipPath>
        <clipPath id="clip_path_99">
            <path d="M 0 0 L 808 0 L 808 693 L 0 693 Z M 0 0"/>
        </clipPath>
        <clipPath id="clip_path_100">
            <path d="M 0 0 L 808 0 L 808 693 L 0 693 Z M 0 0"/>
        </clipPath>
        <clipPath id="clip_path_101">
            <path d="M 0 0 L 808 0 L 808 693 L 0 693 Z M 0 0"/>
        </clipPath>
        <clipPath id="clip_path_102">
            <path d="M 0 0 L 808 0 L 808 693 L 0 693 Z M 0 0"/>
        </clipPath>
        <clipPath id="clip_path_103">
            <path d="M 0 0 L 808 0 L 808 693 L 0 693 Z M 0 0"/>
        </clipPath>
        <clipPath id="clip_path_104">
            <path d="M 0 0 L 808 0 L 808 693 L 0 693 Z M 0 0"/>
        </clipPath>
        <clipPath id="clip_path_105">
            <path d="M 0 0 L 808 0 L 808 693 L 0 693 Z M 0 0"/>
        </clipPath>
        <clipPath id="clip_path_106">
            <path d="M 0 0 L 808 0 L 808 693 L 0 693 Z M 0 0"/>
        </clipPath>
        <clipPath id="clip_path_107">
            <path d="M 0 0 L 808 0 L 808 693 L 0 693 Z M 0 0"/>
        </clipPath>
        <clipPath id="clip_path_108">
            <path d="M 0 0 L 808 0 L 808 693 L 0 693 Z M 0 0"/>
        </clipPath>
        <clipPath id="clip_path_109">
            <path d="M 0 0 L 808 0 L 808 693 L 0 693 Z M 0 0"/>
        </clipPath>
        <clipPath id="clip_path_110">
            <path d="M 0 0 L 808 0 L 808 693 L 0 693 Z M 0 0"/>
        </clipPath>
        <clipPath id="clip_path_111">
            <path d="M 0 0 L 808 0 L 808 693 L 0 693 Z M 0 0"/>
        </clipPath>
        <clipPath id="clip_path_112">
            <path d="M 0 0 L 808 0 L 808 693 L 0 693 Z M 0 0"/>
        </clipPath>
        <clipPath id="clip_path_113">
            <path d="M 0 0 L 808 0 L 808 693 L 0 693 Z M 0 0"/>
        </clipPath>
        <clipPath id="clip_path_114">
            <path d="M 0 0 L 808 0 L 808 693 L 0 693 Z M 0 0"/>
        </clipPath>
        <clipPath id="clip_path_115">
            <path d="M 0 0 L 808 0 L 808 693 L 0 693 Z M 0 0"/>
        </clipPath>
        <clipPath id="clip_path_116">
            <path d="M 0 0 L 808 0 L 808 693 L 0 693 Z M 0 0"/>
        </clipPath>
        <clipPath id="clip_path_117">
            <path d="M 0 0 L 808 0 L 808 693 L 0 693 Z M 0 0"/>
        </clipPath>
        <clipPath id="clip_path_118">
            <path d="M 0 0 L 808 0 L 808 693 L 0 693 Z M 0 0"/>
        </clipPath>
        <clipPath id="clip_path_119">
            <path d="M 0 0 L 808 0 L 808 693 L 0 693 Z M 0 0"/>
        </clipPath>
        <clipPath id="clip_path_120">
            <path d="M 0 0 L 808 0 L 808 693 L 0 693 Z M 0 0"/>
        </clipPath>
        <clipPath id="clip_path_121">
            <path d="M 0 0 L 808 0 L 808 693 L 0 693 Z M 0 0"/>
        </clipPath>
        <clipPath id="clip_path_122">
            <path d="M 0 0 L 808 0 L 808 693 L 0 693 Z M 0 0"/>
        </clipPath>
    </defs>
    <g id="group">
        <path
            id="path_2"
            clip-path="url(#clip_path_2)"
            d="M 610.131 580.238 L 389.092 464.945 L 421.192 448.666 L 642.227 563.972 Z"
            fill="#d6d8e5"
            fill-opacity="0.3"
            stroke-opacity="0.3"/>
        <path
            id="path_3"
            clip-path="url(#clip_path_3)"
            d="M 609.719 551.683 L 448.548 470.019 C 434.898 463.1 423.821 444.549 423.821 428.567 L 423.821 34.028 C 423.831 18.063 434.897 10.718 448.548 17.611 L 609.719 99.301 C 623.369 106.207 634.431 124.771 634.431 140.74 L 634.431 535.275 C 634.431 551.257 623.369 558.603 609.719 551.683 Z"
            fill="#b1b4c4"/>
        <path
            id="path_4"
            clip-path="url(#clip_path_4)"
            d="M 612.469 558.796 L 625.252 553.129 L 612.999 534.707 Z"
            fill="#b1b4c4"/>
        <path
            id="path_5"
            clip-path="url(#clip_path_5)"
            d="M 421.32 21.574 L 433.073 16.165 L 430.705 31.359 Z"
            fill="#b1b4c4"/>
        <path
            id="path_6"
            clip-path="url(#clip_path_6)"
            d="M 599.436 556.188 L 438.265 474.601 C 424.615 467.682 413.553 449.118 413.553 433.149 L 413.553 38.537 C 413.553 22.568 424.614 15.223 438.265 22.142 L 599.436 103.806 C 613.086 110.725 624.148 129.276 624.148 145.258 L 624.148 539.793 C 624.143 555.775 613.086 563.107 599.436 556.188 Z"
            fill="#616e84"/>
        <path
            id="path_7"
            clip-path="url(#clip_path_7)"
            d="M 622.412 146.266 L 622.412 540.788 C 622.412 556.783 611.351 564.102 597.7 557.196 L 534.45 525.181 L 514.813 515.215 L 436.5 475.545 C 422.85 468.613 411.788 450.062 411.788 434.08 L 411.788 39.557 C 411.788 23.562 422.849 16.23 436.5 23.136 L 597.73 104.801 C 611.378 111.733 622.412 130.271 622.412 146.266 Z"
            fill="#20232d"/>
        <path
            id="path_8"
            clip-path="url(#clip_path_8)"
            d="M 610.807 142.261 L 610.807 526.509 C 610.807 536.191 603.085 540.128 593.523 535.274 L 543.129 509.739 L 538.713 507.494 L 537.242 506.732 L 526.357 501.22 L 494.838 485.261 L 494.838 485.261 L 481.776 478.639 L 476.51 475.967 L 440.751 457.816 C 431.205 452.975 423.451 441.202 423.451 431.516 L 423.451 47.302 C 423.451 37.62 431.203 33.708 440.751 38.537 L 503.663 70.423 L 503.663 70.539 C 503.663 78.065 509.709 87.231 517.137 91 C 524.565 94.769 530.611 91.723 530.611 84.184 L 530.611 84.003 L 593.538 115.903 C 603.084 120.782 610.807 132.569 610.807 142.261 Z"
            fill="#2b303f"/>
        <path
            id="path_9"
            clip-path="url(#clip_path_9)"
            d="M 584.403 232.603 L 450.474 164.777 C 449.002 163.904 447.772 162.676 446.896 161.206 C 446.02 159.736 445.526 158.07 445.458 156.36 L 445.458 74.631 C 445.458 71.378 447.709 69.893 450.474 71.3 L 584.403 139.151 C 585.875 140.024 587.105 141.252 587.981 142.722 C 588.857 144.192 589.351 145.858 589.419 147.568 L 589.419 229.323 C 589.419 232.512 587.11 234.01 584.403 232.603 Z"
            fill="#353c4c"/>
        <path
            id="path_10"
            clip-path="url(#clip_path_10)"
            d="M 587.404 270.014 L 447.458 199.103 C 446.873 198.756 446.383 198.269 446.034 197.685 C 445.685 197.102 445.487 196.44 445.458 195.76 L 445.458 184.46 C 445.458 183.169 446.358 182.56 447.458 183.169 L 587.404 254.08 C 587.996 254.426 588.492 254.917 588.844 255.506 C 589.196 256.095 589.394 256.763 589.419 257.449 L 589.419 268.749 C 589.419 269.989 588.581 270.634 587.404 270.014 Z"
            fill="#353c4c"/>
        <path
            id="path_11"
            clip-path="url(#clip_path_11)"
            d="M 566.149 285.803 L 447.458 225.671 C 446.871 225.32 446.381 224.828 446.032 224.24 C 445.683 223.651 445.485 222.985 445.458 222.302 L 445.458 210.993 C 445.458 209.702 446.358 209.108 447.458 209.702 L 566.149 269.85 C 566.741 270.196 567.237 270.687 567.589 271.276 C 567.941 271.865 568.139 272.533 568.164 273.219 L 568.164 284.519 C 568.164 285.764 567.267 286.371 566.149 285.803 Z"
            fill="#353c4c"/>
        <path
            id="path_12"
            clip-path="url(#clip_path_12)"
            d="M 547.395 302.817 L 447.532 252.225 C 446.943 251.876 446.451 251.385 446.101 250.796 C 445.752 250.207 445.556 249.54 445.532 248.856 L 445.532 237.556 C 445.532 236.265 446.432 235.656 447.532 236.265 L 547.394 286.818 C 547.983 287.167 548.475 287.658 548.825 288.247 C 549.174 288.836 549.37 289.503 549.394 290.187 L 549.394 301.487 C 549.322 302.791 548.424 303.385 547.395 302.817 Z"
            fill="#353c4c"/>
        <path
            id="path_13"
            clip-path="url(#clip_path_13)"
            d="M 585.066 455.237 L 445.12 384.326 C 444.528 383.979 444.034 383.488 443.681 382.899 C 443.329 382.311 443.131 381.643 443.105 380.957 L 443.105 369.657 C 443.105 368.366 444.005 367.757 445.12 368.366 L 585.065 439.277 C 585.656 439.625 586.15 440.116 586.502 440.705 C 586.854 441.293 587.053 441.961 587.08 442.646 L 587.08 453.946 C 587.131 454.199 587.104 454.462 587.003 454.7 C 586.902 454.938 586.732 455.14 586.514 455.279 C 586.296 455.419 586.042 455.489 585.783 455.482 C 585.525 455.474 585.275 455.389 585.066 455.237 Z"
            fill="#353c4c"/>
        <path
            id="path_14"
            clip-path="url(#clip_path_14)"
            d="M 563.811 471.025 L 445.121 410.88 C 444.53 410.536 444.035 410.047 443.683 409.461 C 443.33 408.874 443.132 408.208 443.106 407.524 L 443.106 396.215 C 443.106 394.924 444.006 394.315 445.121 394.924 L 563.811 455.056 C 564.398 455.407 564.888 455.899 565.237 456.487 C 565.586 457.076 565.784 457.742 565.811 458.425 L 565.811 469.734 C 565.811 470.991 564.914 471.591 563.811 471.025 Z"
            fill="#353c4c"/>
        <path
            id="path_15"
            clip-path="url(#clip_path_15)"
            d="M 544.968 488.04 L 445.12 437.448 C 444.528 437.101 444.034 436.61 443.681 436.021 C 443.329 435.433 443.131 434.765 443.105 434.079 L 443.105 422.779 C 443.105 421.488 444.005 420.879 445.12 421.488 L 544.968 472.015 C 545.56 472.361 546.056 472.852 546.408 473.441 C 546.76 474.03 546.958 474.698 546.983 475.384 L 546.983 486.684 C 546.983 488.014 546.086 488.608 544.968 488.04 Z"
            fill="#353c4c"/>
        <path
            id="path_16"
            clip-path="url(#clip_path_16)"
            d="M 610.807 151.945 L 610.807 245.645 L 605.673 243.154 C 604.199 242.276 602.966 241.044 602.088 239.57 C 601.209 238.096 600.712 236.426 600.642 234.711 L 600.642 153.029 C 600.642 149.776 602.907 148.278 605.673 149.698 Z"
            fill="#353c4c"/>
        <path
            id="path_17"
            clip-path="url(#clip_path_17)"
            d="M 456.505 352.711 L 446.458 347.625 C 445.861 347.273 445.362 346.776 445.007 346.18 C 444.653 345.585 444.453 344.91 444.428 344.217 L 444.428 301.964 C 444.428 300.673 445.34 300.064 446.443 300.673 L 456.49 305.837 C 457.077 306.185 457.568 306.674 457.917 307.26 C 458.267 307.847 458.464 308.511 458.49 309.193 L 458.49 351.493 C 458.506 352.672 457.667 353.25 456.505 352.711 Z"
            fill="#353c4c"/>
        <path
            id="path_18"
            clip-path="url(#clip_path_18)"
            d="M 478.26 363.763 L 468.213 358.677 C 467.624 358.328 467.132 357.837 466.782 357.248 C 466.433 356.659 466.237 355.992 466.213 355.308 L 466.213 302.908 C 466.213 301.617 467.113 301.008 468.213 301.617 L 478.26 306.703 C 478.849 307.053 479.342 307.544 479.694 308.132 C 480.046 308.72 480.246 309.387 480.275 310.072 L 480.275 362.458 C 480.334 363.736 479.422 364.33 478.26 363.763 Z"
            fill="#353c4c"/>
        <path
            id="path_19"
            clip-path="url(#clip_path_19)"
            d="M 500.133 374.825 L 490.028 369.725 C 489.441 369.377 488.95 368.888 488.601 368.302 C 488.251 367.715 488.054 367.051 488.028 366.369 L 488.028 329.242 C 488.028 327.951 488.928 327.342 490.028 327.951 L 500.075 333.037 C 500.667 333.384 501.162 333.875 501.514 334.464 C 501.866 335.052 502.064 335.72 502.09 336.406 L 502.09 373.52 C 502.148 374.786 501.251 375.38 500.133 374.825 Z"
            fill="#353c4c"/>
        <path
            id="path_20"
            clip-path="url(#clip_path_20)"
            d="M 521.962 385.87 L 511.915 380.784 C 511.324 380.436 510.83 379.945 510.478 379.356 C 510.126 378.768 509.927 378.1 509.9 377.415 L 509.9 315.364 C 509.9 314.073 510.8 313.464 511.915 314.073 L 521.962 319.173 C 522.551 319.522 523.043 320.013 523.393 320.602 C 523.742 321.191 523.938 321.858 523.962 322.542 L 523.962 384.597 C 523.962 385.836 523.065 386.443 521.962 385.87 Z"
            fill="#353c4c"/>
        <path
            id="path_21"
            clip-path="url(#clip_path_21)"
            d="M 543.774 396.926 L 533.729 391.84 C 533.138 391.492 532.644 391.001 532.292 390.412 C 531.94 389.824 531.741 389.156 531.714 388.471 L 531.714 336.084 C 531.714 334.793 532.626 334.184 533.729 334.793 L 543.774 339.88 C 544.362 340.23 544.852 340.722 545.202 341.311 C 545.551 341.899 545.748 342.565 545.774 343.249 L 545.774 395.596 C 545.774 396.9 544.874 397.494 543.774 396.926 Z"
            fill="#353c4c"/>
        <path
            id="path_22"
            clip-path="url(#clip_path_22)"
            d="M 587.404 419.091 L 577.372 413.923 C 576.78 413.576 576.286 413.085 575.933 412.496 C 575.581 411.908 575.383 411.24 575.357 410.554 L 575.357 358.194 C 575.357 356.903 576.257 356.294 577.372 356.903 L 587.404 361.989 C 587.996 362.335 588.492 362.826 588.844 363.415 C 589.196 364.004 589.394 364.672 589.419 365.358 L 589.419 417.744 C 589.419 419.013 588.581 419.607 587.404 419.091 Z"
            fill="#353c4c"/>
        <path
            id="path_23"
            clip-path="url(#clip_path_23)"
            d="M 565.59 407.989 L 555.543 402.903 C 554.956 402.552 554.466 402.06 554.117 401.472 C 553.768 400.883 553.57 400.217 553.543 399.534 L 553.543 327.796 C 553.543 326.505 554.443 325.911 555.543 326.505 L 565.59 331.591 C 566.181 331.939 566.675 332.43 567.027 333.019 C 567.379 333.607 567.578 334.275 567.605 334.96 L 567.605 406.697 C 567.605 407.95 566.708 408.544 565.59 407.989 Z"
            fill="#353c4c"/>
        <path
            id="path_24"
            clip-path="url(#clip_path_24)"
            d="M 513.536 76.11 C 515.535 75.097 518.771 76.735 520.765 79.766 C 522.759 82.797 522.757 86.076 520.758 87.088 C 518.759 88.1 515.523 86.464 513.53 83.433 C 511.537 80.402 511.537 77.119 513.536 76.11 Z"
            fill="#2b303f"/>
        <path
            id="path_25"
            clip-path="url(#clip_path_25)"
            d="M 517.134 83.758 C 516.542 83.432 516.04 82.964 515.673 82.397 C 515.307 81.829 515.087 81.179 515.034 80.505 C 515.034 79.305 516.005 78.827 517.182 79.421 C 517.781 79.743 518.291 80.209 518.666 80.777 C 519.04 81.345 519.269 81.997 519.33 82.674 C 519.285 83.874 518.314 84.365 517.134 83.758 Z"
            fill="#ffffff"
            fill-opacity="0.1"
            stroke-opacity="0.1"/>
        <path
            id="path_26"
            clip-path="url(#clip_path_26)"
            d="M 628.973 198.174 L 628.973 198.174 C 627.664 198.845 626.59 198.174 626.59 196.599 L 626.59 179.817 C 626.624 179.006 626.859 178.217 627.276 177.52 C 627.692 176.824 628.275 176.242 628.973 175.828 L 628.973 175.828 C 630.282 175.17 631.356 175.828 631.356 177.416 L 631.356 194.198 C 631.32 195.006 631.083 195.793 630.667 196.487 C 630.251 197.181 629.669 197.761 628.973 198.174 Z"
            fill="#757b89"/>
        <path
            id="path_27"
            clip-path="url(#clip_path_27)"
            d="M 628.973 225.735 L 628.973 225.735 C 627.664 226.406 626.59 225.735 626.59 224.16 L 626.59 207.378 C 626.624 206.567 626.859 205.778 627.276 205.081 C 627.692 204.385 628.275 203.803 628.973 203.389 L 628.973 203.389 C 630.282 202.731 631.356 203.389 631.356 204.977 L 631.356 221.759 C 631.32 222.567 631.083 223.354 630.667 224.048 C 630.251 224.742 629.669 225.322 628.973 225.735 Z"
            fill="#757b89"/>
        <path
            id="path_28"
            clip-path="url(#clip_path_28)"
            d="M 225.479 383.435 C 225.479 391.119 230.282 398.609 239.197 404.825 C 248.111 411.041 260.686 415.67 275.11 418.045 C 289.533 420.419 305.077 420.419 319.5 418.045 C 333.924 415.67 346.499 411.041 355.413 404.825 C 364.328 398.609 369.131 391.119 369.131 383.435 C 369.131 373.787 361.558 364.525 348.094 357.703 C 334.629 350.881 316.347 347.044 297.305 347.044 C 278.263 347.044 259.981 350.881 246.516 357.703 C 233.052 364.525 225.479 373.787 225.479 383.435 Z"
            fill="#d6d8e5"
            fill-opacity="0.3"
            stroke-opacity="0.3"/>
        <path
            id="path_29"
            clip-path="url(#clip_path_29)"
            d="M 232.657 373.946 C 232.657 381.63 237.46 389.12 246.375 395.336 C 255.289 401.552 267.864 406.181 282.288 408.556 C 296.711 410.93 312.255 410.93 326.678 408.556 C 341.102 406.181 353.677 401.552 362.591 395.336 C 371.506 389.12 376.309 381.63 376.309 373.946 C 376.309 364.298 368.736 355.036 355.272 348.214 C 341.807 341.392 323.525 337.555 304.483 337.555 C 285.441 337.555 267.159 341.392 253.694 348.214 C 240.23 355.036 232.657 364.298 232.657 373.946 Z"
            fill="#dd990e"/>
        <path
            id="path_30"
            clip-path="url(#clip_path_30)"
            d="M 232.672 374.506 L 232.672 357.926 L 246.867 369.015 Z"
            fill="#dd990e"/>
        <path
            id="path_31"
            clip-path="url(#clip_path_31)"
            d="M 376.309 358.352 L 376.309 373.946 L 369.057 380.711 L 365.497 362.857 Z"
            fill="#dd990e"/>
        <path
            id="path_32"
            clip-path="url(#clip_path_32)"
            d="M 232.657 358.352 C 232.657 366.036 237.46 373.526 246.375 379.742 C 255.289 385.958 267.864 390.587 282.288 392.962 C 296.711 395.336 312.255 395.336 326.678 392.962 C 341.102 390.587 353.677 385.958 362.591 379.742 C 371.506 373.526 376.309 366.036 376.309 358.352 C 376.309 348.704 368.736 339.442 355.272 332.62 C 341.807 325.798 323.525 321.961 304.483 321.961 C 285.441 321.961 267.159 325.798 253.694 332.62 C 240.23 339.442 232.657 348.704 232.657 358.352 Z"
            fill="#f9cb07"/>
        <path
            id="path_33"
            clip-path="url(#clip_path_33)"
            d="M 355.819 359.488 C 355.084 365.607 350.112 371.649 340.845 376.348 C 320.767 386.521 288.2 386.521 268.122 376.348 C 258.87 371.648 253.883 365.607 253.177 359.488 C 252.309 352.31 257.296 344.978 268.122 339.504 C 288.2 329.319 320.767 329.319 340.845 339.504 C 351.671 344.978 356.672 352.311 355.819 359.488 Z"
            fill="#cc8b09"/>
        <path
            id="path_34"
            clip-path="url(#clip_path_34)"
            d="M 355.819 359.488 C 355.084 365.607 350.112 371.649 340.845 376.348 C 320.767 386.521 288.2 386.521 268.122 376.348 C 258.87 371.648 253.883 365.607 253.177 359.488 C 253.883 353.356 258.87 347.315 268.122 342.616 C 288.2 332.431 320.767 332.431 340.845 342.616 C 350.112 347.315 355.084 353.356 355.819 359.488 Z"
            fill="#e8a30a"/>
        <path
            id="path_35"
            clip-path="url(#clip_path_35)"
            d="M 303.733 350.955 C 303.103 350.954 302.474 350.997 301.85 351.084 C 300.997 351.2 300.055 351.342 299.011 351.536 C 297.967 351.73 296.863 351.975 295.731 352.272 C 294.633 352.557 293.557 352.919 292.51 353.356 L 300.777 357.539 L 302.248 357.074 C 304.348 356.467 306.337 355.938 308.132 355.512 C 309.891 355.101 311.682 354.841 313.486 354.737 C 315.13 354.646 316.779 354.747 318.399 355.037 C 320.037 355.339 321.623 355.878 323.106 356.637 C 324.502 357.244 325.726 358.19 326.666 359.387 C 326.961 359.788 327.161 360.251 327.25 360.741 C 327.339 361.231 327.315 361.735 327.181 362.214 C 326.813 363.309 326.146 364.279 325.254 365.014 C 324.096 366.016 322.828 366.882 321.474 367.596 L 326.725 370.255 L 323.871 371.714 L 318.571 369.029 C 316.022 370.115 313.384 370.979 310.687 371.611 C 307.829 372.306 304.924 372.785 301.994 373.044 L 299.287 368.744 Q 300.446 368.719 301.596 368.589 Q 303.346 368.409 305.067 368.073 C 306.332 367.828 307.685 367.531 309.097 367.173 C 310.468 366.834 311.814 366.403 313.127 365.882 L 304.919 361.712 L 303.845 362.048 L 302.727 362.348 C 300.653 362.942 298.755 363.407 297.034 363.755 C 295.44 364.08 293.821 364.27 292.195 364.323 C 290.764 364.369 289.333 364.252 287.929 363.974 C 286.55 363.678 285.215 363.205 283.957 362.567 C 282.635 361.967 281.46 361.086 280.515 359.985 C 279.868 359.205 279.537 358.209 279.588 357.197 C 279.722 356.134 280.203 355.145 280.956 354.383 C 281.927 353.322 283.056 352.419 284.303 351.704 L 279.434 349.238 L 282.302 347.792 L 287.112 350.232 C 289.397 349.245 291.771 348.48 294.202 347.947 C 296.54 347.426 298.908 347.051 301.292 346.824 Z M 289.7 358.555 C 290.807 359.101 292.044 359.333 293.274 359.226 C 294.938 359.054 296.582 358.73 298.187 358.258 L 290.465 354.385 Q 286.207 356.767 289.7 358.555 Z M 316.809 360.53 C 315.603 359.964 314.261 359.754 312.94 359.923 C 311.145 360.145 309.37 360.503 307.63 360.994 L 315.308 364.867 C 318.516 363.104 319.045 361.67 316.81 360.534 Z"
            fill="#cc8b09"/>
        <path
            id="path_36"
            clip-path="url(#clip_path_36)"
            d="M 299.291 368.745 L 299.291 366.305 L 302.439 368.086 L 301.071 369.932 Z"
            fill="#cc8b09"/>
        <path
            id="path_37"
            clip-path="url(#clip_path_37)"
            d="M 326.797 370.281 L 326.797 367.841 L 319.957 368.293 L 323.884 370.643 Z"
            fill="#cc8b09"/>
        <path
            id="path_38"
            clip-path="url(#clip_path_38)"
            d="M 327.371 361.313 L 327.371 358.843 L 322.252 360.47 Z"
            fill="#cc8b09"/>
        <path
            id="path_39"
            clip-path="url(#clip_path_39)"
            d="M 306.16 361.18 L 307.852 359.747 L 313.852 363.387 L 313.484 364.458 C 313.484 364.458 308.998 362.806 308.851 362.715 C 308.704 362.624 306.16 361.18 306.16 361.18 Z"
            fill="#cc8b09"/>
        <path
            id="path_40"
            clip-path="url(#clip_path_40)"
            d="M 290.48 353.486 L 298.453 357.436 L 300.071 356.403 C 300.071 356.403 299.071 355.396 298.997 355.303 C 298.273 354.572 297.439 353.958 296.526 353.483 C 295.926 353.383 292.113 351.895 292.113 351.895 Z"
            fill="#cc8b09"/>
        <path
            id="path_41"
            clip-path="url(#clip_path_41)"
            d="M 303.733 350.956 L 303.733 348.516 L 300.07 347.47 L 299.29 349.381 L 299.481 350.259 Z"
            fill="#cc8b09"/>
        <path
            id="path_42"
            clip-path="url(#clip_path_42)"
            d="M 279.433 349.187 L 279.433 346.747 L 283.669 347.147 L 282.301 349.522 Z"
            fill="#cc8b09"/>
        <path
            id="path_43"
            clip-path="url(#clip_path_43)"
            d="M 279.58 357.488 L 279.58 354.906 L 284.434 354.906 L 283.243 357.178 L 281.15 359.256 Z"
            fill="#cc8b09"/>
        <path
            id="path_44"
            clip-path="url(#clip_path_44)"
            d="M 303.733 348.516 C 303.103 348.515 302.474 348.558 301.85 348.645 C 300.997 348.745 300.055 348.903 299.011 349.097 C 297.967 349.291 296.863 349.536 295.731 349.833 C 294.635 350.12 293.559 350.477 292.51 350.904 L 300.777 355.087 L 302.248 354.635 C 304.348 354.015 306.337 353.499 308.132 353.073 C 309.891 352.662 311.682 352.402 313.486 352.298 C 315.129 352.208 316.777 352.304 318.399 352.582 C 320.038 352.889 321.623 353.433 323.106 354.196 C 324.502 354.803 325.726 355.749 326.666 356.946 C 326.961 357.347 327.161 357.81 327.25 358.3 C 327.339 358.79 327.315 359.294 327.181 359.773 C 326.813 360.865 326.145 361.831 325.254 362.561 C 324.099 363.566 322.831 364.433 321.474 365.143 L 326.755 367.843 L 323.901 369.289 L 318.601 366.604 C 316.054 367.696 313.416 368.56 310.717 369.186 C 307.859 369.877 304.953 370.352 302.024 370.606 L 299.261 366.255 Q 300.42 366.23 301.57 366.1 C 302.614 366 303.762 365.816 305.041 365.584 C 306.32 365.352 307.659 365.029 309.071 364.667 C 310.442 364.329 311.788 363.897 313.101 363.376 L 304.893 359.219 L 303.819 359.542 L 302.701 359.852 Q 299.601 360.743 297.008 361.246 C 295.415 361.577 293.796 361.767 292.169 361.814 C 290.738 361.86 289.307 361.743 287.903 361.465 C 286.521 361.181 285.184 360.707 283.931 360.058 C 282.609 359.459 281.434 358.578 280.489 357.476 C 279.842 356.696 279.511 355.7 279.562 354.688 C 279.698 353.622 280.179 352.629 280.93 351.861 C 281.903 350.812 283.029 349.915 284.269 349.202 L 279.43 346.802 L 282.298 345.343 L 287.108 347.796 C 289.393 346.809 291.767 346.044 294.198 345.511 C 296.536 344.99 298.904 344.615 301.288 344.388 Z M 289.703 356.107 C 290.806 356.667 292.045 356.904 293.277 356.791 C 294.941 356.619 296.585 356.295 298.19 355.823 L 290.468 351.95 Q 286.214 354.338 289.703 356.107 Z M 316.812 358.095 C 315.608 357.523 314.264 357.312 312.943 357.488 C 311.123 357.692 309.323 358.042 307.559 358.534 L 315.237 362.407 Q 320.163 359.786 316.81 358.095 Z"
            fill="#f9ca06"/>
        <path
            id="path_45"
            clip-path="url(#clip_path_45)"
            d="M 232.657 353.537 C 232.657 361.221 237.46 368.711 246.375 374.927 C 255.289 381.143 267.864 385.772 282.288 388.147 C 296.711 390.521 312.255 390.521 326.678 388.147 C 341.102 385.772 353.677 381.143 362.591 374.927 C 371.506 368.711 376.309 361.221 376.309 353.537 C 376.309 343.889 368.736 334.627 355.272 327.805 C 341.807 320.983 323.525 317.146 304.483 317.146 C 285.441 317.146 267.159 320.983 253.694 327.805 C 240.23 334.627 232.657 343.889 232.657 353.537 Z"
            fill="#dd990e"/>
        <path
            id="path_46"
            clip-path="url(#clip_path_46)"
            d="M 232.672 354.08 L 232.672 337.504 L 246.867 348.593 Z"
            fill="#dd990e"/>
        <path
            id="path_47"
            clip-path="url(#clip_path_47)"
            d="M 376.309 337.943 L 376.309 353.537 L 369.057 360.289 L 365.497 342.435 Z"
            fill="#dd990e"/>
        <path
            id="path_48"
            clip-path="url(#clip_path_48)"
            d="M 232.657 337.943 C 232.657 345.627 237.46 353.117 246.375 359.333 C 255.289 365.549 267.864 370.178 282.288 372.553 C 296.711 374.927 312.255 374.927 326.678 372.553 C 341.102 370.178 353.677 365.549 362.591 359.333 C 371.506 353.117 376.309 345.627 376.309 337.943 C 376.309 328.295 368.736 319.033 355.272 312.211 C 341.807 305.389 323.525 301.552 304.483 301.552 C 285.441 301.552 267.159 305.389 253.694 312.211 C 240.23 319.033 232.657 328.295 232.657 337.943 Z"
            fill="#f9cb07"/>
        <path
            id="path_49"
            clip-path="url(#clip_path_49)"
            d="M 355.819 339.053 C 355.084 345.185 350.112 351.214 340.845 355.913 C 320.767 366.086 288.2 366.086 268.122 355.913 C 258.87 351.213 253.883 345.185 253.177 339.053 C 252.309 331.875 257.296 324.543 268.122 319.069 C 288.2 308.884 320.767 308.884 340.845 319.069 C 351.671 324.556 356.672 331.889 355.819 339.053 Z"
            fill="#cc8b09"/>
        <path
            id="path_50"
            clip-path="url(#clip_path_50)"
            d="M 355.819 339.053 C 355.084 345.185 350.112 351.214 340.845 355.913 C 320.767 366.086 288.2 366.086 268.122 355.913 C 258.87 351.213 253.883 345.185 253.177 339.053 C 253.883 332.921 258.87 326.892 268.122 322.193 C 288.2 312.008 320.767 312.008 340.845 322.193 C 350.112 326.905 355.084 332.932 355.819 339.053 Z"
            fill="#e8a30a"/>
        <path
            id="path_51"
            clip-path="url(#clip_path_51)"
            d="M 303.733 330.533 C 303.103 330.537 302.474 330.585 301.85 330.675 C 300.997 330.775 300.055 330.92 299.011 331.114 C 297.967 331.308 296.863 331.566 295.731 331.863 C 294.633 332.144 293.557 332.502 292.51 332.935 L 300.777 337.118 L 302.248 336.666 C 304.348 336.046 306.337 335.53 308.132 335.104 C 309.891 334.693 311.682 334.434 313.486 334.329 C 315.129 334.233 316.778 334.328 318.399 334.613 C 320.038 334.92 321.623 335.464 323.106 336.227 C 324.501 336.831 325.724 337.771 326.666 338.964 C 326.961 339.368 327.16 339.833 327.249 340.325 C 327.338 340.817 327.315 341.322 327.181 341.804 C 326.813 342.896 326.145 343.862 325.254 344.592 C 324.096 345.593 322.828 346.46 321.474 347.174 L 326.725 349.833 L 323.871 351.279 L 318.571 348.594 C 316.024 349.681 313.387 350.546 310.691 351.179 C 307.832 351.864 304.926 352.338 301.998 352.599 L 299.233 348.249 Q 300.392 348.224 301.542 348.094 C 302.586 347.978 303.734 347.81 305.013 347.565 C 306.292 347.32 307.631 347.023 309.043 346.665 C 310.414 346.327 311.761 345.895 313.073 345.374 L 304.865 341.217 L 303.791 341.54 L 302.673 341.84 Q 299.873 342.671 296.98 343.247 C 295.386 343.572 293.767 343.762 292.141 343.815 C 290.71 343.861 289.279 343.744 287.875 343.466 C 286.494 343.176 285.158 342.703 283.903 342.059 C 282.581 341.46 281.406 340.579 280.461 339.477 C 279.816 338.691 279.486 337.693 279.534 336.677 C 279.668 335.614 280.149 334.625 280.902 333.863 C 281.871 332.81 282.998 331.913 284.241 331.204 L 279.431 328.738 L 282.299 327.279 L 287.109 329.719 C 289.394 328.732 291.768 327.967 294.199 327.434 C 296.538 326.92 298.906 326.545 301.289 326.311 Z M 289.7 338.133 C 290.804 338.689 292.043 338.921 293.274 338.804 C 294.94 338.645 296.586 338.321 298.187 337.836 L 290.465 333.963 Q 286.214 336.368 289.703 338.137 Z M 316.809 340.121 C 315.607 339.543 314.261 339.332 312.94 339.514 C 311.121 339.719 309.321 340.065 307.556 340.547 L 315.234 344.42 Q 320.162 341.812 316.808 340.12 Z"
            fill="#cc8b09"/>
        <path
            id="path_52"
            clip-path="url(#clip_path_52)"
            d="M 299.291 348.323 L 299.291 345.87 L 302.439 347.651 L 301.071 349.51 Z"
            fill="#cc8b09"/>
        <path
            id="path_53"
            clip-path="url(#clip_path_53)"
            d="M 326.797 349.872 L 326.797 347.419 L 319.957 347.884 L 323.884 350.233 Z"
            fill="#cc8b09"/>
        <path
            id="path_54"
            clip-path="url(#clip_path_54)"
            d="M 327.371 340.9 L 327.371 338.421 L 322.252 340.048 Z"
            fill="#cc8b09"/>
        <path
            id="path_55"
            clip-path="url(#clip_path_55)"
            d="M 306.16 340.771 L 307.852 339.338 L 313.852 342.978 L 313.484 344.049 C 313.484 344.049 308.998 342.384 308.851 342.293 C 308.704 342.202 306.16 340.771 306.16 340.771 Z"
            fill="#cc8b09"/>
        <path
            id="path_56"
            clip-path="url(#clip_path_56)"
            d="M 290.48 333.064 L 298.453 337.027 L 300.071 335.994 C 300.071 335.994 299.071 334.987 298.997 334.884 C 298.269 334.157 297.436 333.543 296.526 333.064 C 295.926 332.964 292.113 331.476 292.113 331.476 Z"
            fill="#cc8b09"/>
        <path
            id="path_57"
            clip-path="url(#clip_path_57)"
            d="M 303.733 330.548 L 303.733 328.095 L 300.071 327.048 L 299.291 328.971 L 299.482 329.849 Z"
            fill="#cc8b09"/>
        <path
            id="path_58"
            clip-path="url(#clip_path_58)"
            d="M 279.433 328.778 L 279.433 326.325 L 283.669 326.725 L 282.301 329.1 Z"
            fill="#cc8b09"/>
        <path
            id="path_59"
            clip-path="url(#clip_path_59)"
            d="M 279.58 337.066 L 279.58 334.484 L 284.434 334.484 L 283.243 336.756 L 281.15 338.834 Z"
            fill="#cc8b09"/>
        <path
            id="path_60"
            clip-path="url(#clip_path_60)"
            d="M 303.733 328.094 C 303.103 328.093 302.474 328.136 301.85 328.223 C 300.997 328.339 300.055 328.481 299.011 328.675 C 297.967 328.869 296.863 329.114 295.731 329.411 C 294.633 329.696 293.557 330.058 292.51 330.495 L 300.777 334.678 L 302.248 334.213 C 304.348 333.606 306.337 333.077 308.132 332.651 C 309.891 332.24 311.682 331.98 313.486 331.876 C 315.13 331.785 316.779 331.886 318.399 332.176 C 320.037 332.478 321.623 333.017 323.106 333.776 C 324.527 334.359 325.781 335.287 326.754 336.476 C 327.049 336.877 327.249 337.34 327.338 337.83 C 327.427 338.32 327.403 338.824 327.269 339.303 C 326.893 340.424 326.204 341.414 325.283 342.156 C 324.128 343.162 322.86 344.028 321.503 344.738 L 326.754 347.397 L 323.9 348.856 L 318.6 346.171 C 316.051 347.257 313.413 348.121 310.716 348.753 C 307.858 349.448 304.953 349.927 302.023 350.186 L 299.258 345.823 Q 300.417 345.798 301.567 345.668 Q 303.317 345.488 305.038 345.152 C 306.303 344.907 307.656 344.61 309.068 344.252 C 310.439 343.914 311.785 343.482 313.098 342.961 L 304.89 338.791 L 303.816 339.127 L 302.698 339.427 C 300.624 340.021 298.726 340.486 297.005 340.834 C 295.411 341.159 293.792 341.349 292.166 341.402 C 290.735 341.448 289.304 341.331 287.9 341.053 C 286.523 340.754 285.19 340.278 283.935 339.638 C 282.613 339.038 281.438 338.157 280.493 337.056 C 279.846 336.276 279.515 335.28 279.566 334.268 C 279.7 333.205 280.181 332.216 280.934 331.454 C 281.903 330.397 283.029 329.495 284.273 328.782 L 279.404 326.316 L 282.272 324.87 L 287.082 327.31 C 289.367 326.323 291.741 325.558 294.172 325.025 C 296.51 324.504 298.878 324.129 301.262 323.902 Z M 289.7 335.694 C 290.807 336.24 292.044 336.472 293.274 336.365 C 294.939 336.2 296.584 335.876 298.187 335.397 L 290.465 331.524 Q 286.207 333.906 289.7 335.694 Z M 316.809 337.669 C 315.603 337.103 314.261 336.893 312.94 337.062 C 311.121 337.273 309.321 337.622 307.556 338.108 L 315.234 341.981 Q 320.156 339.37 316.81 337.672 Z"
            fill="#f9ca06"/>
        <path
            id="path_61"
            clip-path="url(#clip_path_61)"
            d="M 237.305 330.39 C 237.305 340.038 244.878 349.3 258.342 356.122 C 271.807 362.944 290.089 366.781 309.131 366.781 C 328.173 366.781 346.455 362.944 359.92 356.122 C 373.384 349.3 380.957 340.038 380.957 330.39 C 380.957 320.742 373.384 311.48 359.92 304.658 C 346.455 297.836 328.173 293.999 309.131 293.999 C 290.089 293.999 271.807 297.836 258.342 304.658 C 244.878 311.48 237.305 320.742 237.305 330.39 Z"
            fill="#dd990e"/>
        <path
            id="path_62"
            clip-path="url(#clip_path_62)"
            d="M 237.334 330.945 L 237.334 314.357 L 251.514 325.457 Z"
            fill="#dd990e"/>
        <path
            id="path_63"
            clip-path="url(#clip_path_63)"
            d="M 380.957 314.796 L 380.957 330.386 L 373.705 337.15 L 370.145 319.296 Z"
            fill="#dd990e"/>
        <path
            id="path_64"
            clip-path="url(#clip_path_64)"
            d="M 237.305 314.796 C 237.305 324.444 244.878 333.706 258.342 340.528 C 271.807 347.35 290.089 351.187 309.131 351.187 C 328.173 351.187 346.455 347.35 359.92 340.528 C 373.384 333.706 380.957 324.444 380.957 314.796 C 380.957 305.148 373.384 295.886 359.92 289.064 C 346.455 282.242 328.173 278.405 309.131 278.405 C 290.089 278.405 271.807 282.242 258.342 289.064 C 244.878 295.886 237.305 305.148 237.305 314.796 Z"
            fill="#f9cb07"/>
        <path
            id="path_65"
            clip-path="url(#clip_path_65)"
            d="M 360.467 315.917 C 359.732 322.049 354.76 328.09 345.507 332.789 C 325.414 342.949 292.862 342.949 272.769 332.789 C 263.517 328.089 258.545 322.048 257.824 315.916 C 256.956 308.751 261.957 301.416 272.769 295.945 C 292.862 285.76 325.414 285.76 345.507 295.945 C 356.319 301.422 361.32 308.755 360.467 315.917 Z"
            fill="#cc8b09"/>
        <path
            id="path_66"
            clip-path="url(#clip_path_66)"
            d="M 360.467 315.918 C 359.732 322.05 354.76 328.091 345.508 332.79 C 325.415 342.95 292.863 342.95 272.77 332.79 C 263.518 328.09 258.546 322.049 257.825 315.918 C 258.546 309.799 263.518 303.757 272.77 299.058 C 292.863 288.873 325.415 288.873 345.508 299.058 C 354.701 303.759 359.732 309.8 360.467 315.918 Z"
            fill="#e8a30a"/>
        <path
            id="path_67"
            clip-path="url(#clip_path_67)"
            d="M 308.381 307.4 C 307.751 307.399 307.122 307.442 306.498 307.529 C 305.66 307.629 304.703 307.787 303.659 307.981 C 302.615 308.175 301.511 308.42 300.394 308.717 C 299.294 309.006 298.213 309.364 297.158 309.788 L 305.425 313.988 L 306.896 313.523 C 308.985 312.916 310.971 312.387 312.78 311.961 C 314.534 311.549 316.321 311.29 318.12 311.186 C 319.769 311.096 321.422 311.196 323.048 311.486 C 324.681 311.789 326.262 312.328 327.74 313.086 C 329.136 313.693 330.36 314.639 331.3 315.836 C 331.594 316.238 331.794 316.7 331.885 317.189 C 331.977 317.679 331.958 318.182 331.83 318.663 C 331.449 319.755 330.777 320.723 329.888 321.463 C 328.733 322.461 327.47 323.328 326.122 324.045 L 331.373 326.704 L 328.505 328.163 L 323.205 325.478 C 320.656 326.564 318.018 327.428 315.321 328.06 C 312.468 328.757 309.567 329.236 306.642 329.493 L 303.862 325.13 Q 305.028 325.105 306.186 324.975 Q 307.928 324.793 309.643 324.459 C 310.923 324.214 312.261 323.917 313.673 323.559 C 315.047 323.215 316.398 322.783 317.718 322.268 L 309.495 318.111 L 308.421 318.434 L 307.303 318.744 C 305.229 319.338 303.346 319.803 301.625 320.138 C 300.026 320.466 298.402 320.66 296.771 320.719 C 295.34 320.765 293.908 320.644 292.505 320.358 C 291.125 320.073 289.789 319.604 288.533 318.964 C 287.216 318.364 286.046 317.483 285.106 316.382 C 284.447 315.609 284.114 314.608 284.179 313.594 C 284.311 312.53 284.786 311.537 285.532 310.767 C 286.526 309.703 287.677 308.797 288.945 308.082 L 284.096 305.631 L 286.964 304.185 L 291.789 306.625 C 294.072 305.634 296.447 304.869 298.879 304.34 C 301.216 303.817 303.584 303.442 305.969 303.217 Z M 294.396 314.99 C 295.501 315.545 296.738 315.782 297.97 315.674 C 299.639 315.503 301.288 315.179 302.898 314.706 L 295.161 310.833 Q 290.862 313.235 294.396 314.99 Z M 321.517 316.977 C 320.311 316.414 318.969 316.203 317.648 316.37 C 315.823 316.574 314.017 316.924 312.248 317.416 L 319.926 321.289 Q 324.81 318.668 321.47 316.977 Z"
            fill="#cc8b09"/>
        <path
            id="path_68"
            clip-path="url(#clip_path_68)"
            d="M 303.939 325.176 C 303.983 324.363 303.983 323.549 303.939 322.736 L 307.101 324.517 L 305.733 326.363 Z"
            fill="#cc8b09"/>
        <path
            id="path_69"
            clip-path="url(#clip_path_69)"
            d="M 331.445 326.725 L 331.445 324.285 L 324.605 324.737 L 328.532 327.086 Z"
            fill="#cc8b09"/>
        <path
            id="path_70"
            clip-path="url(#clip_path_70)"
            d="M 332.019 317.753 L 332.019 315.287 L 326.9 316.914 Z"
            fill="#cc8b09"/>
        <path
            id="path_71"
            clip-path="url(#clip_path_71)"
            d="M 310.837 317.624 L 312.543 316.191 L 318.543 319.831 L 318.162 320.901 C 318.162 320.901 313.749 319.249 313.543 319.145 Z"
            fill="#cc8b09"/>
        <path
            id="path_72"
            clip-path="url(#clip_path_72)"
            d="M 295.142 309.917 L 303.1 313.88 L 304.733 312.847 C 304.733 312.847 303.733 311.84 303.659 311.737 C 302.922 311.014 302.085 310.401 301.173 309.917 C 300.585 309.827 296.76 308.342 296.76 308.342 Z"
            fill="#cc8b09"/>
        <path
            id="path_73"
            clip-path="url(#clip_path_73)"
            d="M 308.381 307.4 L 308.381 304.96 L 304.733 303.914 L 303.939 305.825 L 304.13 306.703 Z"
            fill="#cc8b09"/>
        <path
            id="path_74"
            clip-path="url(#clip_path_74)"
            d="M 284.081 305.631 L 284.081 303.191 L 288.332 303.591 L 286.949 305.953 Z"
            fill="#cc8b09"/>
        <path
            id="path_75"
            clip-path="url(#clip_path_75)"
            d="M 284.243 313.932 L 284.243 311.35 L 289.097 311.35 L 287.92 313.622 L 285.802 315.662 Z"
            fill="#cc8b09"/>
        <path
            id="path_76"
            clip-path="url(#clip_path_76)"
            d="M 308.381 304.96 C 307.751 304.952 307.121 304.995 306.498 305.089 C 305.66 305.189 304.703 305.347 303.659 305.541 C 302.615 305.735 301.511 305.98 300.394 306.277 C 299.294 306.566 298.213 306.924 297.158 307.348 L 305.425 311.531 L 306.896 311.079 C 308.985 310.459 310.971 309.943 312.78 309.517 C 314.534 309.105 316.321 308.846 318.12 308.742 C 319.768 308.646 321.422 308.742 323.048 309.026 C 324.682 309.334 326.263 309.877 327.74 310.64 C 329.136 311.247 330.36 312.193 331.3 313.39 C 331.594 313.792 331.794 314.254 331.885 314.743 C 331.977 315.233 331.958 315.736 331.83 316.217 C 331.45 317.307 330.778 318.271 329.888 319.005 C 328.736 320.007 327.472 320.874 326.122 321.587 L 331.373 324.246 L 328.505 325.692 L 323.205 323.007 C 320.656 324.093 318.018 324.957 315.321 325.589 C 312.467 326.275 309.566 326.75 306.642 327.009 L 303.862 322.659 Q 305.028 322.634 306.186 322.504 C 307.216 322.404 308.363 322.22 309.643 321.975 C 310.923 321.73 312.261 321.433 313.673 321.075 C 315.049 320.737 316.4 320.305 317.718 319.784 L 309.496 315.624 L 308.422 315.947 L 307.304 316.247 Q 304.504 317.078 301.626 317.654 C 300.027 317.978 298.403 318.168 296.772 318.222 C 295.341 318.267 293.91 318.15 292.506 317.873 C 291.124 317.589 289.787 317.115 288.534 316.466 C 287.214 315.871 286.043 314.989 285.107 313.884 C 284.446 313.107 284.113 312.102 284.18 311.084 C 284.309 310.023 284.785 309.034 285.533 308.27 C 286.506 307.221 287.632 306.324 288.872 305.611 L 284.096 303.191 L 286.964 301.732 L 291.789 304.185 C 294.068 303.183 296.444 302.417 298.879 301.9 C 301.217 301.379 303.585 301 305.969 300.764 Z M 294.396 312.55 C 295.5 313.106 296.739 313.338 297.97 313.221 C 299.641 313.062 301.291 312.738 302.898 312.253 L 295.161 308.38 Q 290.862 310.782 294.396 312.55 Z M 321.476 314.525 C 320.271 313.956 318.928 313.745 317.607 313.918 C 315.783 314.123 313.978 314.469 312.207 314.951 L 319.885 318.824 Q 324.812 316.229 321.473 314.524 Z"
            fill="#f9ca06"/>
        <path
            id="path_77"
            clip-path="url(#clip_path_77)"
            d="M 235.761 307.257 C 235.713 314.957 240.489 322.469 249.398 328.706 C 258.307 334.944 270.898 339.591 285.348 341.975 C 299.798 344.359 315.376 344.359 329.826 341.975 C 344.276 339.591 356.867 334.944 365.776 328.706 C 374.685 322.469 379.461 314.957 379.413 307.257 C 379.413 297.609 371.84 288.347 358.376 281.525 C 344.911 274.703 326.629 270.866 307.587 270.866 C 288.545 270.866 270.263 274.703 256.798 281.525 C 243.334 288.347 235.761 297.609 235.761 307.257 Z"
            fill="#dd990e"/>
        <path
            id="path_78"
            clip-path="url(#clip_path_78)"
            d="M 235.776 307.8 L 235.776 291.224 L 249.971 302.313 Z"
            fill="#dd990e"/>
        <path
            id="path_79"
            clip-path="url(#clip_path_79)"
            d="M 379.413 291.663 L 379.413 307.257 L 372.161 314.009 L 368.601 296.155 Z"
            fill="#dd990e"/>
        <path
            id="path_80"
            clip-path="url(#clip_path_80)"
            d="M 235.761 291.663 C 235.713 299.363 240.489 306.875 249.398 313.112 C 258.307 319.35 270.898 323.997 285.348 326.381 C 299.798 328.765 315.376 328.765 329.826 326.381 C 344.276 323.997 356.867 319.35 365.776 313.112 C 374.685 306.875 379.461 299.363 379.413 291.663 C 379.413 282.015 371.84 272.753 358.376 265.931 C 344.911 259.109 326.629 255.272 307.587 255.272 C 288.545 255.272 270.263 259.109 256.798 265.931 C 243.334 272.753 235.761 282.015 235.761 291.663 Z"
            fill="#f9cb07"/>
        <path
            id="path_81"
            clip-path="url(#clip_path_81)"
            d="M 358.923 292.786 C 358.188 298.918 353.216 304.947 343.949 309.646 C 323.871 319.819 291.304 319.819 271.226 309.646 C 261.959 304.946 256.987 298.918 256.281 292.786 C 255.413 285.608 260.4 278.276 271.226 272.802 C 291.304 262.617 323.871 262.617 343.949 272.802 C 354.775 278.276 359.776 285.609 358.923 292.786 Z"
            fill="#cc8b09"/>
        <path
            id="path_82"
            clip-path="url(#clip_path_82)"
            d="M 358.923 292.786 C 358.188 298.918 353.216 304.947 343.949 309.646 C 323.871 319.819 291.304 319.819 271.226 309.646 C 261.959 304.946 256.987 298.918 256.281 292.786 C 256.987 286.654 261.959 280.613 271.226 275.926 C 291.304 265.741 323.871 265.741 343.949 275.926 C 353.231 280.613 358.191 286.654 358.923 292.786 Z"
            fill="#e8a30a"/>
        <path
            id="path_83"
            clip-path="url(#clip_path_83)"
            d="M 544.762 610.407 C 544.762 620.055 552.335 629.317 565.799 636.139 C 579.264 642.961 597.546 646.798 616.588 646.798 C 635.63 646.798 653.912 642.961 667.377 636.139 C 680.841 629.317 688.414 620.055 688.414 610.407 C 688.414 600.759 680.841 591.497 667.377 584.675 C 653.912 577.853 635.63 574.016 616.588 574.016 C 597.546 574.016 579.264 577.853 565.799 584.675 C 552.335 591.497 544.762 600.759 544.762 610.407 Z"
            fill="#d6d8e5"
            fill-opacity="0.3"
            stroke-opacity="0.3"/>
        <path
            id="path_84"
            clip-path="url(#clip_path_84)"
            d="M 553.264 603.229 C 553.264 610.913 558.067 618.403 566.982 624.619 C 575.896 630.835 588.471 635.464 602.895 637.839 C 617.318 640.213 632.862 640.213 647.285 637.839 C 661.709 635.464 674.284 630.835 683.198 624.619 C 692.113 618.403 696.916 610.913 696.916 603.229 C 696.964 595.529 692.188 588.017 683.279 581.78 C 674.37 575.542 661.779 570.895 647.329 568.511 C 632.879 566.127 617.301 566.127 602.851 568.511 C 588.401 570.895 575.81 575.542 566.901 581.78 C 557.992 588.017 553.216 595.529 553.264 603.229 Z"
            fill="#dd990e"/>
        <path
            id="path_85"
            clip-path="url(#clip_path_85)"
            d="M 553.293 603.785 L 553.293 587.196 L 567.473 598.296 Z"
            fill="#dd990e"/>
        <path
            id="path_86"
            clip-path="url(#clip_path_86)"
            d="M 696.917 587.635 L 696.917 603.229 L 689.665 609.993 L 686.12 592.139 Z"
            fill="#dd990e"/>
        <path
            id="path_87"
            clip-path="url(#clip_path_87)"
            d="M 553.264 587.635 C 553.264 595.319 558.067 602.809 566.982 609.025 C 575.896 615.241 588.471 619.87 602.895 622.245 C 617.318 624.619 632.862 624.619 647.285 622.245 C 661.709 619.87 674.284 615.241 683.198 609.025 C 692.113 602.809 696.916 595.319 696.916 587.635 C 696.964 579.935 692.188 572.423 683.279 566.186 C 674.37 559.948 661.779 555.301 647.329 552.917 C 632.879 550.533 617.301 550.533 602.851 552.917 C 588.401 555.301 575.81 559.948 566.901 566.186 C 557.992 572.423 553.216 579.935 553.264 587.635 Z"
            fill="#f9cb07"/>
        <path
            id="path_88"
            clip-path="url(#clip_path_88)"
            d="M 676.426 588.758 C 675.705 594.89 670.719 600.931 661.466 605.63 C 641.373 615.79 608.821 615.79 588.728 605.63 C 579.476 600.93 574.504 594.889 573.783 588.758 C 572.915 581.593 577.916 574.258 588.728 568.787 C 608.821 558.602 641.373 558.602 661.466 568.787 C 672.293 574.261 677.279 581.594 676.426 588.758 Z"
            fill="#cc8b09"/>
        <path
            id="path_89"
            clip-path="url(#clip_path_89)"
            d="M 676.426 588.758 C 675.705 594.89 670.719 600.931 661.466 605.63 C 641.373 615.79 608.821 615.79 588.728 605.63 C 579.476 600.93 574.504 594.889 573.783 588.758 C 574.504 582.639 579.476 576.597 588.728 571.898 C 608.821 561.713 641.373 561.713 661.466 571.898 C 670.719 576.585 675.706 582.639 676.426 588.758 Z"
            fill="#e8a30a"/>
        <path
            id="path_90"
            clip-path="url(#clip_path_90)"
            d="M 624.34 580.239 C 623.71 580.238 623.081 580.281 622.457 580.368 C 621.619 580.468 620.662 580.626 619.618 580.82 C 618.574 581.014 617.47 581.259 616.352 581.556 C 615.252 581.845 614.171 582.203 613.116 582.627 L 621.383 586.827 L 622.854 586.362 C 624.943 585.755 626.928 585.226 628.738 584.8 C 630.492 584.388 632.278 584.129 634.077 584.025 C 635.726 583.935 637.379 584.035 639.005 584.325 C 640.64 584.622 642.221 585.161 643.697 585.925 C 645.093 586.532 646.317 587.478 647.257 588.675 C 647.551 589.077 647.751 589.539 647.842 590.028 C 647.934 590.518 647.915 591.021 647.787 591.502 C 647.41 592.596 646.738 593.565 645.845 594.302 C 644.692 595.304 643.429 596.17 642.079 596.884 L 647.419 599.569 L 644.477 601.028 L 639.177 598.343 C 636.629 599.431 633.991 600.295 631.293 600.925 C 628.441 601.623 625.54 602.098 622.614 602.345 L 619.834 597.995 Q 621 597.97 622.158 597.84 Q 623.9 597.66 625.615 597.324 C 626.895 597.079 628.233 596.782 629.645 596.408 C 631.021 596.07 632.372 595.638 633.69 595.117 L 625.467 590.96 L 624.393 591.283 L 623.275 591.593 C 621.201 592.187 619.318 592.652 617.597 592.987 C 615.999 593.317 614.374 593.507 612.743 593.555 C 611.312 593.613 609.88 593.495 608.477 593.206 C 607.101 592.923 605.77 592.454 604.52 591.812 C 603.196 591.216 602.02 590.334 601.078 589.23 C 600.418 588.457 600.086 587.456 600.151 586.442 C 600.283 585.378 600.758 584.385 601.504 583.615 C 602.477 582.566 603.603 581.669 604.843 580.956 L 599.974 578.49 L 602.842 577.044 L 607.667 579.484 C 609.95 578.493 612.325 577.728 614.757 577.199 C 617.094 576.676 619.462 576.301 621.847 576.076 Z M 610.307 587.83 C 611.412 588.384 612.649 588.621 613.881 588.514 C 615.55 588.343 617.199 588.019 618.809 587.546 L 611.072 583.673 Q 606.821 586.061 610.307 587.829 Z M 637.431 589.818 C 636.227 589.249 634.884 589.038 633.563 589.211 C 631.738 589.415 629.932 589.765 628.163 590.257 L 635.841 594.13 Q 640.77 591.509 637.431 589.817 Z"
            fill="#cc8b09"/>
        <path
            id="path_91"
            clip-path="url(#clip_path_91)"
            d="M 619.898 598.015 C 619.942 597.202 619.942 596.388 619.898 595.575 L 623.061 597.356 L 621.693 599.202 Z"
            fill="#cc8b09"/>
        <path
            id="path_92"
            clip-path="url(#clip_path_92)"
            d="M 647.405 599.564 L 647.405 597.124 L 640.565 597.576 L 644.492 599.925 Z"
            fill="#cc8b09"/>
        <path
            id="path_93"
            clip-path="url(#clip_path_93)"
            d="M 647.978 590.592 L 647.978 588.126 L 642.859 589.753 Z"
            fill="#cc8b09"/>
        <path
            id="path_94"
            clip-path="url(#clip_path_94)"
            d="M 626.826 590.463 L 628.532 589.03 L 634.532 592.67 L 634.15 593.741 C 634.15 593.741 629.737 592.089 629.531 591.985 Z"
            fill="#cc8b09"/>
        <path
            id="path_95"
            clip-path="url(#clip_path_95)"
            d="M 611.102 582.756 L 619.06 586.719 L 620.693 585.686 C 620.693 585.686 619.693 584.679 619.619 584.576 C 618.882 583.853 618.045 583.24 617.133 582.756 C 616.545 582.666 612.72 581.181 612.72 581.181 Z"
            fill="#cc8b09"/>
        <path
            id="path_96"
            clip-path="url(#clip_path_96)"
            d="M 624.34 580.239 L 624.34 577.799 L 620.692 576.753 L 619.898 578.664 L 620.089 579.542 Z"
            fill="#cc8b09"/>
        <path
            id="path_97"
            clip-path="url(#clip_path_97)"
            d="M 600.04 578.47 L 600.04 576.03 L 604.291 576.43 L 602.908 578.792 Z"
            fill="#cc8b09"/>
        <path
            id="path_98"
            clip-path="url(#clip_path_98)"
            d="M 600.202 586.771 L 600.202 584.189 L 605.056 584.189 L 603.879 586.461 L 601.82 588.526 Z"
            fill="#cc8b09"/>
        <path
            id="path_99"
            clip-path="url(#clip_path_99)"
            d="M 624.34 577.801 C 623.71 577.793 623.08 577.836 622.457 577.93 C 621.619 578.03 620.662 578.175 619.618 578.369 C 618.574 578.563 617.47 578.821 616.352 579.118 C 615.252 579.407 614.171 579.765 613.116 580.189 L 621.383 584.333 L 622.854 583.881 C 624.943 583.261 626.928 582.745 628.738 582.319 C 630.492 581.907 632.279 581.648 634.078 581.544 C 635.726 581.448 637.38 581.544 639.006 581.828 C 640.64 582.136 642.221 582.679 643.698 583.442 C 645.097 584.045 646.321 584.991 647.258 586.192 C 647.552 586.594 647.752 587.056 647.843 587.545 C 647.935 588.035 647.916 588.538 647.788 589.019 C 647.414 590.111 646.741 591.077 645.846 591.807 C 644.693 592.808 643.43 593.675 642.08 594.389 L 647.331 597.048 L 644.477 598.532 L 639.177 595.847 C 636.629 596.935 633.991 597.799 631.293 598.429 C 628.439 599.115 625.538 599.59 622.614 599.849 L 619.834 595.499 Q 621 595.474 622.158 595.344 Q 623.901 595.157 625.615 594.815 C 626.895 594.583 628.233 594.273 629.645 593.915 C 631.021 593.577 632.372 593.145 633.69 592.624 L 625.467 588.467 L 624.393 588.79 L 623.275 589.09 Q 620.475 589.921 617.597 590.497 C 615.998 590.821 614.374 591.011 612.743 591.065 C 611.312 591.11 609.881 590.993 608.477 590.717 C 607.104 590.425 605.776 589.949 604.531 589.301 C 603.204 588.71 602.027 587.828 601.089 586.719 C 600.43 585.941 600.097 584.937 600.162 583.919 C 600.291 582.858 600.767 581.869 601.515 581.105 C 602.488 580.056 603.614 579.159 604.854 578.446 L 599.985 575.98 L 602.853 574.521 L 607.678 576.974 C 609.959 575.972 612.334 575.202 614.768 574.674 C 617.108 574.164 619.475 573.789 621.858 573.551 Z M 610.307 585.392 C 611.413 585.942 612.651 586.174 613.881 586.063 C 615.552 585.904 617.202 585.58 618.809 585.095 L 611.072 581.222 Q 606.821 583.62 610.307 585.389 Z M 637.431 587.38 C 636.227 586.811 634.884 586.6 633.563 586.773 C 631.739 586.978 629.934 587.324 628.163 587.806 L 635.841 591.679 Q 640.77 589.068 637.431 587.377 Z"
            fill="#f9ca06"/>
        <path
            id="path_100"
            clip-path="url(#clip_path_100)"
            d="M 553.264 582.819 C 553.264 590.503 558.067 597.993 566.982 604.209 C 575.896 610.425 588.471 615.054 602.895 617.429 C 617.318 619.803 632.862 619.803 647.285 617.429 C 661.709 615.054 674.284 610.425 683.198 604.209 C 692.113 597.993 696.916 590.503 696.916 582.819 C 696.964 575.119 692.188 567.607 683.279 561.37 C 674.37 555.132 661.779 550.485 647.329 548.101 C 632.879 545.717 617.301 545.717 602.851 548.101 C 588.401 550.485 575.81 555.132 566.901 561.37 C 557.992 567.607 553.216 575.119 553.264 582.819 Z"
            fill="#dd990e"/>
        <path
            id="path_101"
            clip-path="url(#clip_path_101)"
            d="M 553.293 583.362 L 553.293 566.786 L 567.473 577.876 Z"
            fill="#dd990e"/>
        <path
            id="path_102"
            clip-path="url(#clip_path_102)"
            d="M 696.917 567.212 L 696.917 582.819 L 689.665 589.571 L 686.12 571.717 Z"
            fill="#dd990e"/>
        <path
            id="path_103"
            clip-path="url(#clip_path_103)"
            d="M 553.264 567.212 C 553.264 574.896 558.067 582.386 566.982 588.602 C 575.896 594.818 588.471 599.447 602.895 601.822 C 617.318 604.196 632.862 604.196 647.285 601.822 C 661.709 599.447 674.284 594.818 683.198 588.602 C 692.113 582.386 696.916 574.896 696.916 567.212 C 696.964 559.512 692.188 552 683.279 545.763 C 674.37 539.525 661.779 534.878 647.329 532.494 C 632.879 530.11 617.301 530.11 602.851 532.494 C 588.401 534.878 575.81 539.525 566.901 545.763 C 557.992 552 553.216 559.512 553.264 567.212 Z"
            fill="#f9cb07"/>
        <path
            id="path_104"
            clip-path="url(#clip_path_104)"
            d="M 676.426 568.348 C 675.705 574.48 670.719 580.509 661.466 585.208 C 641.373 595.381 608.821 595.381 588.728 585.208 C 579.476 580.508 574.504 574.48 573.783 568.348 C 572.915 561.17 577.916 553.838 588.728 548.364 C 608.821 538.179 641.373 538.179 661.466 548.364 C 672.293 553.838 677.279 561.171 676.426 568.348 Z"
            fill="#cc8b09"/>
        <path
            id="path_105"
            clip-path="url(#clip_path_105)"
            d="M 676.426 568.348 C 675.705 574.48 670.719 580.509 661.466 585.208 C 641.373 595.381 608.821 595.381 588.728 585.208 C 579.476 580.508 574.504 574.48 573.783 568.348 C 574.504 562.216 579.476 556.175 588.728 551.488 C 608.821 541.303 641.373 541.303 661.466 551.488 C 670.719 556.175 675.706 562.216 676.426 568.348 Z"
            fill="#e8a30a"/>
        <path
            id="path_106"
            clip-path="url(#clip_path_106)"
            d="M 523.58 363.039 L 497.338 349.368 L 497.515 213.252 L 523.757 226.923 Z"
            fill="#000000"
            fill-opacity="0.15"
            stroke-opacity="0.15"/>
        <path
            id="path_107"
            clip-path="url(#clip_path_107)"
            d="M 503.384 222.366 C 471.715 239.652 446.414 278.866 446.414 311.26 C 446.414 343.654 471.714 357.243 503.384 342.449 Z"
            fill="#dd990e"/>
        <path
            id="path_108"
            clip-path="url(#clip_path_108)"
            d="M 503.369 222.353 L 518.932 230.153 L 506.326 253.648 L 492.308 243.021 Z"
            fill="#dd990e"/>
        <path
            id="path_109"
            clip-path="url(#clip_path_109)"
            d="M 481.967 353.912 C 481.643 353.783 461.374 343.585 461.374 343.585 L 472.215 335.994 Z"
            fill="#dd990e"/>
        <path
            id="path_110"
            clip-path="url(#clip_path_110)"
            d="M 518.932 230.15 C 487.277 247.45 461.977 286.667 461.977 319.056 C 461.977 351.445 487.277 365.026 518.932 350.245 Z"
            fill="#f9cb07"/>
        <path
            id="path_111"
            clip-path="url(#clip_path_111)"
            d="M 518.932 251.27 C 496.574 263.831 478.832 291.586 478.832 314.526 C 478.832 337.466 496.572 347.251 518.932 337.156 Z"
            fill="#e8a30a"/>
        <path
            id="path_112"
            clip-path="url(#clip_path_112)"
            d="M 518.932 305.592 C 518.029 305.904 517.105 306.15 516.167 306.328 C 515.043 306.531 513.907 306.664 512.767 306.728 C 511.893 306.774 511.016 306.735 510.149 306.612 C 509.618 306.543 509.099 306.404 508.604 306.199 L 505.204 314.642 C 507.422 315.065 509.698 315.091 511.926 314.719 C 514.332 314.34 516.683 313.668 518.926 312.719 Z"
            fill="#f9ca06"/>
        <path
            id="path_113"
            clip-path="url(#clip_path_113)"
            d="M 350.494 659.204 L 83.605 523.992 C 79.898 522.12 80.369 518.828 84.635 516.698 L 233.774 441.127 C 238.04 438.958 244.497 438.727 248.189 440.598 L 515.033 575.836 C 518.725 577.708 518.269 581 514.003 583.143 L 364.905 658.701 C 360.584 660.87 354.186 661.102 350.494 659.204 Z"
            fill="#d6d8e5"
            fill-opacity="0.3"
            stroke-opacity="0.3"/>
        <path
            id="path_114"
            clip-path="url(#clip_path_114)"
            d="M 523.756 570.789 L 520.961 571.68 L 254.368 436.596 C 250.676 434.724 244.218 434.957 239.953 437.112 L 90.814 512.684 C 90.21 512.986 89.638 513.349 89.108 513.768 L 87.298 512.477 L 87.298 516.763 L 87.298 516.763 C 87.367 517.476 87.638 518.155 88.079 518.719 C 88.52 519.284 89.113 519.711 89.788 519.951 L 356.672 655.228 C 360.364 657.1 366.822 656.855 371.087 654.699 L 520.226 579.167 C 522.638 577.876 523.826 576.367 523.756 574.894 L 523.756 574.894 Z"
            fill="#dadce5"/>
        <path
            id="path_115"
            clip-path="url(#clip_path_115)"
            d="M 356.674 651.099 L 89.785 515.913 C 86.078 514.041 86.549 510.749 90.815 508.619 L 239.969 432.996 C 244.235 430.827 250.692 430.596 254.384 432.467 L 521.257 567.705 C 524.964 569.577 524.493 572.869 520.227 575.012 L 371.085 650.57 C 366.823 652.752 360.366 652.971 356.674 651.099 Z"
            fill="#f8f9ff"/>
        <path
            id="path_116"
            clip-path="url(#clip_path_116)"
            d="M 178.631 537.947 L 127.411 512.012 L 139.267 506.012 L 190.467 531.947 Z"
            fill="#dadce5"/>
        <path
            id="path_117"
            clip-path="url(#clip_path_117)"
            d="M 280.712 485.161 L 229.512 459.213 L 241.353 453.213 L 292.553 479.161 Z"
            fill="#434343"/>
        <path
            id="path_118"
            clip-path="url(#clip_path_118)"
            d="M 240.659 569.395 L 189.47 543.447 L 201.311 537.447 L 252.511 563.395 Z"
            fill="#dadce5"/>
        <path
            id="path_119"
            clip-path="url(#clip_path_119)"
            d="M 302.718 600.829 L 251.5 574.881 L 263.356 568.881 L 314.556 594.829 Z"
            fill="#dadce5"/>
        <path
            id="path_120"
            clip-path="url(#clip_path_120)"
            d="M 364.762 632.263 L 313.562 606.315 L 325.403 600.315 L 376.603 626.263 Z"
            fill="#dadce5"/>
        <path
            id="path_121"
            clip-path="url(#clip_path_121)"
            d="M 437.736 568.865 C 437.736 571.767 440.014 574.554 444.065 576.606 C 448.116 578.658 453.615 579.812 459.344 579.812 C 465.073 579.812 470.572 578.658 474.623 576.606 C 478.674 574.554 480.952 571.767 480.952 568.865 C 480.952 565.963 478.674 563.176 474.623 561.124 C 470.572 559.072 465.073 557.918 459.344 557.918 C 453.615 557.918 448.116 559.072 444.065 561.124 C 440.014 563.176 437.736 565.963 437.736 568.865 Z"
            fill="#ffc700"/>
        <path
            id="path_122"
            clip-path="url(#clip_path_122)"
            d="M 420.996 560.37 C 420.996 563.272 423.274 566.059 427.325 568.111 C 431.376 570.163 436.875 571.317 442.604 571.317 C 448.333 571.317 453.832 570.163 457.883 568.111 C 461.934 566.059 464.212 563.272 464.212 560.37 C 464.212 557.468 461.934 554.681 457.883 552.629 C 453.832 550.577 448.333 549.423 442.604 549.423 C 436.875 549.423 431.376 550.577 427.325 552.629 C 423.274 554.681 420.996 557.468 420.996 560.37 Z"
            fill="#ff0000"
            fill-opacity="0.79"
            stroke-opacity="0.79"/>
    </g>
</svg>
